<?xml version="1.0" encoding="UTF-8"?>
<svg xmlns="http://www.w3.org/2000/svg" height="326.64099" width="320" version="1.0">
	<g style="fill:#bbbbbb;stroke:#888888;stroke-width:2">
		<path d="m 64.682507,40.817803 c 0.37654,-0.161412 0.7559,-0.312704 1.13713,-0.454888 L 67.999997,96.019641 18,99.679991 C 29.330942,40.568854 58.338607,43.497543 64.682507,40.817803 Z"/>
		<path id="button-l1" style="fill:#ff0000" fill-opacity="0" d="m 64.682507,40.817803 c 0.37654,-0.161412 0.7559,-0.312704 1.13713,-0.454888 L 67.999997,96.019641 18,99.679991 C 29.330942,40.568854 58.338607,43.497543 64.682507,40.817803 Z"/>
		<path d="m 259.3394,40.817802 c -0.37731,-0.161411 -0.75556,-0.312704 -1.13662,-0.454888 L 256,96.019635 306,99.67999 C 294.67438,40.568853 265.66717,43.497542 259.3394,40.817802 Z"/>
		<path id="button-r1" style="fill:#ff0000" fill-opacity="0" d="m 259.3394,40.817802 c -0.37731,-0.161411 -0.75556,-0.312704 -1.13662,-0.454888 L 256,96.019635 306,99.67999 C 294.67438,40.568853 265.66717,43.497542 259.3394,40.817802 Z"/>
	</g>
	<g style="fill:#666666">
		<path d="m 145.04976,238.72365 c -0.33548,0.69998 -0.65646,1.38545 -0.95477,2.06276 -15.91275,-2.41275 -30.79094,-8.0407 -43.94095,-16.19745 C 91.647291,219.311 83.862287,212.97673 76.980363,205.76023 l 0,-3.11274 c 7.114949,7.756 15.286211,14.53546 24.274417,20.10447 0.8233,0.51048 1.662,1.0128 2.50071,1.50877 0.82329,0.48146 1.65474,0.94751 2.4862,1.40721 0.42252,0.24028 0.84596,0.46696 1.27574,0.69273 0.85321,0.4597 1.70552,0.90399 2.57324,1.34102 0.42978,0.21852 0.86047,0.42978 1.2975,0.64104 0.86772,0.42978 1.74179,0.84596 2.62402,1.23947 0.88222,0.40802 1.77171,0.80154 2.66028,1.18054 0.95477,0.40802 1.90953,0.80153 2.87246,1.17328 0.45154,0.18225 0.91124,0.3645 1.37004,0.53224 3.30948,1.26123 6.69151,2.36923 10.13973,3.324 0.38626,0.10246 0.76526,0.20401 1.15152,0.30647 0.96202,0.25478 1.93129,0.50322 2.90147,0.72899 0.48871,0.11697 0.97652,0.22577 1.46524,0.33548 0.48872,0.10971 0.97653,0.21852 1.46524,0.32098 1.08624,0.22577 2.17973,0.43703 3.28048,0.63379 0.379,0.0725 0.75801,0.13872 1.13701,0.19675 0.85866,0.14598 1.72638,0.28471 2.5941,0.40893 z"/>
		<path d="m 266.34753,177.64407 c -10.21952,20.21418 -26.12592,37.0817 -45.60295,48.48266 -12.91698,7.57375 -27.40166,12.72749 -42.84021,14.87095 -0.32097,-0.69998 -0.6492,-1.39271 -0.98378,-2.07002 1.29751,-0.16774 2.5805,-0.3645 3.86349,-0.57576 0.35725,-0.058 0.70724,-0.11697 1.05723,-0.18225 1.11525,-0.19676 2.22325,-0.40802 3.33125,-0.63379 0.44429,-0.0952 0.89673,-0.1895 1.34827,-0.29196 0.47421,-0.10246 0.94752,-0.20401 1.41447,-0.32098 0.35724,-0.0798 0.70723,-0.16048 1.06448,-0.24753 1.15877,-0.2847 2.3112,-0.58301 3.46272,-0.90399 0.4597,-0.12422 0.9185,-0.25478 1.37004,-0.38626 0.45154,-0.13147 0.91124,-0.26929 1.37004,-0.40801 0.45154,-0.13873 0.90399,-0.27746 1.35553,-0.42253 0.45154,-0.13873 0.91124,-0.28471 1.35553,-0.43703 0.81604,-0.2693 1.64024,-0.554 2.45627,-0.84596 0.42978,-0.15324 0.85322,-0.30647 1.27574,-0.4588 1.36279,-0.51048 2.71923,-1.03546 4.06025,-1.59672 0.22577,-0.0952 0.4597,-0.1895 0.68547,-0.2847 0.6483,-0.26929 1.29025,-0.554 1.93129,-0.83145 3.89251,-1.73454 7.68346,-3.67399 11.33478,-5.8102 1.88777,-1.10074 3.73927,-2.25952 5.5545,-3.46272 0.4588,-0.30647 0.90399,-0.61203 1.35553,-0.9185 0.554,-0.37175 1.10075,-0.75801 1.64749,-1.14427 1.49426,-1.06447 2.96676,-2.15796 4.40298,-3.29498 0.33549,-0.25478 0.67097,-0.52498 1.00554,-0.80153 0.37175,-0.28471 0.73625,-0.58301 1.0935,-0.88223 0.44428,-0.36449 0.88948,-0.72899 1.32651,-1.108 0.40077,-0.33548 0.79428,-0.67096 1.18054,-1.01279 0.31372,-0.26929 0.61928,-0.53949 0.91849,-0.80879 0.37901,-0.33548 0.76527,-0.67821 1.13702,-1.02095 0.029,-0.029 0.058,-0.0508 0.0798,-0.0798 0.48871,-0.44429 0.96927,-0.88948 1.45073,-1.34828 l 0.0218,-0.0218 c 0.43704,-0.41527 0.88223,-0.8378 1.31927,-1.27574 0.53223,-0.51048 1.05722,-1.03546 1.57495,-1.56679 0.47421,-0.48147 0.94751,-0.96928 1.41447,-1.46525 0.46695,-0.49597 0.933,-0.99103 1.38545,-1.487 0.40802,-0.44429 0.80878,-0.88223 1.2023,-1.33377 0.10971,-0.12422 0.21851,-0.24028 0.32097,-0.3645 0.84596,-0.95476 1.66925,-1.92403 2.47804,-2.90872 0.86772,-1.04997 1.71277,-2.1217 2.54422,-3.19978 0.75801,-0.99828 1.50152,-2.00473 2.23051,-3.02478 0.379,-0.52499 0.75076,-1.05722 1.11525,-1.58946 0.37175,-0.53949 0.73625,-1.07173 1.09349,-1.61848 0.729,-1.07898 1.42898,-2.17247 2.10629,-3.28047 0.68547,-1.108 1.35553,-2.22325 1.99023,-3.36027 0.33548,-0.56125 0.64829,-1.12976 0.95476,-1.70552 0.23303,-0.40076 0.45154,-0.80878 0.66371,-1.21771 0.26204,-0.48872 0.51773,-0.97653 0.77252,-1.46524 0.59027,0.087 1.19504,0.13872 1.81523,0.13872 0.18406,-0.002 0.35906,-0.009 0.53405,-0.0163 z"/>
	</g>
	<g style="fill:#999999">
		<path d="m 244.68625,278.46926 c -0.009,-0.009 -0.019,-0.009 -0.0281,-0.009 -0.0281,-0.0181 -0.0653,-0.0281 -0.0925,-0.0281 -0.28742,-0.10246 -0.56669,-0.18587 -0.85412,-0.26929 -0.0462,-0.009 -0.0925,-0.0281 -0.1487,-0.0372 l -0.15776,-0.4733 -21.95869,-46.61846 c -1.01189,-1.79166 -1.94036,-1.80164 -2.9994,-3.59329 0.009,0 0.009,-0.009 0.0181,-0.019 0.019,-0.009 0.0372,-0.0181 0.0553,-0.0281 0.0462,-0.0281 0.1206,-0.0653 0.21399,-0.12059 0.0744,-0.0462 0.13963,-0.0834 0.21398,-0.1206 0.12059,-0.0653 0.25116,-0.12966 0.37175,-0.21398 0.009,-0.009 0.0181,-0.009 0.0281,-0.0181 l 0.009,-0.009 c 0.65917,-0.38082 1.52236,-0.88223 2.10719,-1.2159 0.21398,-0.12059 0.42706,-0.24118 0.63107,-0.37175 11.60679,19.51692 17.26103,37.53868 22.59067,53.14587 z"/>
		<path d="m 100.80143,224.98065 c -0.52952,0.90037 -1.05813,1.79166 -1.569514,2.69293 -0.510478,0.8913 -1.011888,1.77352 -1.522366,2.66482 -1.680132,3.00846 -3.286821,5.99788 -4.800119,8.95013 -0.287427,0.55672 -0.566694,1.11434 -0.845054,1.662 -0.37175,0.74259 -0.742591,1.47612 -1.105275,2.20965 -0.519544,1.04906 -1.030928,2.09812 -1.522365,3.13812 -0.343643,0.69635 -0.668245,1.38364 -0.98378,2.06095 -0.194942,0.41799 -0.389885,0.83599 -0.57576,1.24401 -2.450836,5.28339 -4.642353,10.41718 -6.582711,15.32883 -0.260225,0.65917 -0.519544,1.30928 -0.761636,1.94942 -1.532339,3.92696 -2.896936,7.69706 -4.122808,11.28128 l 0.0091,0 0.0091,-0.009 c 0,0 0.0091,-0.009 0.01813,-0.009 l 0,0.009 c -0.04624,0.15777 -0.111526,0.31554 -0.157768,0.46424 -0.05531,0.0181 -0.102458,0.0281 -0.157767,0.0462 -0.27836,0.0744 -0.566694,0.16683 -0.85412,0.26023 -0.03718,0.009 -0.07435,0.019 -0.111526,0.0372 l -0.0091,0 c 5.338705,-15.60719 13.388472,-34.85482 24.994349,-54.37083 0.21489,0.12966 0.43704,0.25932 0.65102,0.38988 z"/>
	</g>
	<path style="fill:#888888" d="m 278.87826,124.96335 c 0,0.67096 -0.007,1.34827 -0.0145,2.01199 -0.0218,1.26848 -0.0653,2.52972 -0.13147,3.78369 -0.029,0.64105 -0.0653,1.283 -0.10971,1.91679 -0.0363,0.60477 -0.0798,1.21046 -0.13148,1.81523 0,0.0435 -0.007,0.087 -0.007,0.12422 -0.10246,1.23222 -0.21852,2.45628 -0.3645,3.68124 0,0.0435 -0.007,0.087 -0.0145,0.13147 -0.0653,0.61203 -0.14598,1.22497 -0.22577,1.837 -0.0798,0.62653 -0.16775,1.25398 -0.26204,1.87326 -0.087,0.61928 -0.18225,1.23947 -0.29196,1.85875 -0.0952,0.61929 -0.20401,1.23947 -0.32098,1.8515 -0.21126,1.23948 -0.4597,2.46353 -0.72174,3.68124 -0.13147,0.61203 -0.26929,1.21771 -0.40802,1.82249 -0.28471,1.21046 -0.57576,2.42001 -0.89673,3.61596 -0.59027,-0.48872 -1.22497,-0.93301 -1.89503,-1.31927 -0.25478,0.98378 -0.51773,1.96122 -0.79428,2.93049 -2.08452,7.30445 -4.86902,14.31694 -8.28823,20.94317 -0.46695,0.90399 -0.94025,1.79348 -1.43622,2.68296 -10.03002,18.30374 -24.91547,33.5682 -42.9064,44.08693 -17.00624,9.93572 -36.80515,15.63621 -57.92967,15.63621 -22.18899,0 -42.9064,-6.2835 -60.47389,-17.17399 -8.988213,-5.56901 -17.159475,-12.34847 -24.274424,-20.10447 l 0,3.11274 c -0.736248,-0.77977 -1.472496,-1.5677 -2.186983,-2.36198 -7.493954,-8.29549 -13.813719,-17.65545 -18.70451,-27.83145 -0.349989,-0.72174 -0.692726,-1.45073 -1.028208,-2.18698 -3.746524,-8.2157 -6.568203,-16.94096 -8.339007,-26.04523 0.736248,-0.0435 1.457989,-0.11697 2.17973,-0.21852 16.46675,-2.18698 29.179723,-16.29175 29.179723,-33.35693 0,-14.84918 -9.614747,-27.45244 -22.954256,-31.92071 -0.678219,-0.23302 -1.370038,-0.43703 -2.070018,-0.62653 2.894217,-7.15847 6.472999,-13.96696 10.650209,-20.34475 l 3.141748,-0.84596 c 1.851501,-2.69746 3.812714,-5.31422 5.882731,-7.83669 0.262039,-0.32097 0.524985,-0.64104 0.794278,-0.96202 0.649204,-0.77977 1.312008,-1.54503 1.982973,-2.30304 0.254786,-0.29196 0.517732,-0.58301 0.779771,-0.87497 0.240278,-0.2693 0.481462,-0.53224 0.728994,-0.80154 0.364497,-0.39351 0.728994,-0.78702 1.100745,-1.18053 0.371751,-0.40077 0.750756,-0.78703 1.12976,-1.18054 0.379005,-0.38626 0.758009,-0.77977 1.144268,-1.15877 0.386258,-0.38626 0.772516,-0.76526 1.158774,-1.14427 0.386258,-0.379 0.77977,-0.75801 1.173282,-1.12976 0.400766,-0.379 0.794278,-0.7435 1.195043,-1.11525 0.400766,-0.37175 0.801531,-0.73625 1.210457,-1.09349 0.400766,-0.3645 0.808785,-0.72174 1.224965,-1.07899 0.408019,-0.35724 0.823292,-0.71448 1.239472,-1.06447 0.415273,-0.34999 0.831452,-0.69998 1.253979,-1.04272 1.261233,-1.03546 2.544227,-2.04826 3.848978,-3.02478 0.335482,-0.24754 0.663711,-0.49597 0.998287,-0.74351 0.546746,-0.40076 1.093492,-0.79427 1.647491,-1.18778 1.778964,-1.26849 3.59329,-2.47804 5.445698,-3.63047 1.3927,-0.86772 2.79901,-1.71277 4.22799,-2.52246 0.24027,-0.14599 0.48871,-0.27746 0.72899,-0.41528 1.06448,-0.59027 2.13621,-1.17328 3.21428,-1.72728 0.90399,-0.47421 1.82249,-0.92575 2.74099,-1.37004 0.58301,-0.2847 1.17328,-0.5685 1.76445,-0.8387 0.29196,-0.13873 0.57576,-0.2693 0.86772,-0.39352 0.32823,-0.15323 0.65646,-0.29921 0.99104,-0.44428 0.61928,-0.27746 1.23947,-0.54675 1.86601,-0.80879 0.48146,-0.19675 0.95476,-0.40076 1.43622,-0.59027 0.40802,-0.16774 0.81604,-0.32822 1.23222,-0.48871 0.37175,-0.14598 0.75076,-0.29196 1.12976,-0.43704 1.31926,-0.50322 2.65303,-0.97652 4.00222,-1.43622 0.37175,-0.12422 0.75075,-0.24754 1.12976,-0.3645 0.99828,-0.33548 2.01199,-0.6483 3.02478,-0.94026 0.43703,-0.13873 0.88223,-0.26204 1.31926,-0.38626 0.42978,-0.12422 0.86047,-0.24028 1.2975,-0.35724 0.47421,-0.12422 0.95477,-0.25479 1.43623,-0.37175 0.50323,-0.13147 1.00554,-0.25479 1.50877,-0.37901 0.16048,-0.0363 0.32097,-0.0725 0.48146,-0.11696 0.48146,-0.10971 0.96927,-0.21852 1.45073,-0.32823 0.56126,-0.12422 1.12251,-0.24753 1.68376,-0.35724 1.33377,-0.28471 2.68296,-0.5395 4.03849,-0.76527 0.36449,-0.0653 0.72899,-0.12422 1.09349,-0.18225 1.91678,-0.30646 3.85623,-0.56125 5.80203,-0.77251 0.51048,-0.058 1.0137,-0.10971 1.52327,-0.15324 0.57577,-0.058 1.15153,-0.10971 1.72729,-0.15323 1.23221,-0.0952 2.47078,-0.17499 3.71025,-0.23302 0.61203,-0.029 1.21771,-0.0508 1.82974,-0.0725 1.22497,-0.0363 2.44902,-0.058 3.68124,-0.058 1.19504,0 2.39099,0.0218 3.57878,0.058 0.59752,0.0145 1.18779,0.0363 1.78622,0.0653 0.59027,0.029 1.18054,0.058 1.77171,0.0952 0.59027,0.0363 1.18054,0.0725 1.76446,0.12422 0.59027,0.0435 1.17328,0.0952 1.7572,0.14598 0.58301,0.0508 1.16603,0.10971 1.74995,0.17499 0,0 0,0 0.007,0 0.34999,0.0363 0.69273,0.0725 1.04272,0.11697 0.41527,0.0508 0.82329,0.0952 1.23947,0.15323 0.0218,0 0.0363,0 0.0508,0.007 0.59026,0.0725 1.18053,0.15324 1.77171,0.24028 0.53224,0.0725 1.06447,0.15324 1.58946,0.24028 0.18225,0.029 0.3645,0.058 0.54674,0.087 0.34999,0.0508 0.69998,0.10972 1.04272,0.175 0.42253,0.0653 0.83871,0.14598 1.25398,0.22577 0.058,0.007 0.11697,0.0145 0.16774,0.029 0.44429,0.0798 0.88223,0.16049 1.31926,0.25479 0.46605,0.087 0.92575,0.18225 1.38455,0.27745 0.44429,0.0943 0.89673,0.18951 1.34102,0.29196 0.70724,0.16049 1.40722,0.32098 2.10629,0.49597 0.51773,0.12422 1.04271,0.25479 1.55954,0.39352 1.74179,0.44428 3.46998,0.933 5.18275,1.46524 0.56851,0.17499 1.12976,0.34999 1.69101,0.53949 0.37901,0.11697 0.75801,0.24753 1.12976,0.379 0.2693,0.0871 0.53949,0.175 0.80153,0.2693 1.53053,0.52498 3.04745,1.08624 4.54171,1.68376 1.15878,0.45154 2.30395,0.92575 3.43371,1.41446 1.00554,0.43704 2.00473,0.88949 3.00302,1.34828 1.53053,0.71449 3.03929,1.46524 4.53446,2.24501 0.24027,0.12422 0.48871,0.25479 0.72899,0.38626 0.52498,0.27745 1.04997,0.56125 1.57495,0.85322 1.04272,0.57576 2.07728,1.16602 3.09823,1.77171 0.37901,0.22577 0.75801,0.45154 1.12976,0.67821 0.30647,0.18225 0.61203,0.37175 0.9185,0.56851 0.32823,0.20401 0.66371,0.40802 0.99103,0.61928 0.50322,0.32098 0.99829,0.64105 1.49426,0.96928 0.48146,0.31372 0.95476,0.62653 1.42897,0.95476 0.57576,0.38626 1.15152,0.78702 1.72003,1.18779 0.34999,0.24753 0.69998,0.49597 1.04272,0.7435 0.89673,0.64921 1.78621,1.30476 2.66028,1.98298 0.30647,0.23302 0.61203,0.46695 0.91124,0.70723 0.32098,0.24753 0.64105,0.50322 0.95477,0.75801 0.43703,0.34273 0.86772,0.69272 1.2975,1.04997 0.45154,0.37175 0.90399,0.75075 1.35553,1.13701 0.45154,0.37901 0.89674,0.77252 1.34102,1.15878 0.3645,0.31372 0.72175,0.63379 1.07174,0.94751 0.758,0.68547 1.50151,1.37729 2.23775,2.07727 0.34274,0.32097 0.68548,0.6492 1.02821,0.98378 1.5677,1.51602 3.08372,3.08372 4.56347,4.68678 0.39351,0.42978 0.77977,0.86047 1.16603,1.2975 0.39351,0.44429 0.78702,0.88948 1.17328,1.33377 0.33548,0.38626 0.67097,0.77977 0.99829,1.17328 0.42978,0.51773 0.86047,1.02821 1.27574,1.55229 0.26929,0.32823 0.53949,0.66371 0.80153,0.99829 1.94671,2.44902 3.79095,4.97874 5.53274,7.58099 l 3.09823,0.83146 c 0.56125,0.87497 1.108,1.7572 1.64749,2.64577 0.21126,0.34999 0.41527,0.69998 0.61928,1.04997 0.24753,0.41528 0.49597,0.83871 0.729,1.25398 0.19675,0.34274 0.39351,0.68548 0.59026,1.03547 1.45799,2.60225 2.81352,5.2707 4.0675,7.98901 0.175,0.3645 0.34274,0.73625 0.50323,1.108 0.16048,0.34274 0.32097,0.69273 0.46604,1.04272 0.22577,0.50322 0.44429,1.02095 0.65646,1.53052 0.25479,0.59752 0.50323,1.18779 0.7435,1.79347 0.13148,0.32098 0.25479,0.64921 0.38626,0.97653 0.21127,0.53949 0.42253,1.08624 0.62654,1.63298 0.20401,0.56126 0.41527,1.12251 0.61203,1.68376 0.18225,0.50323 0.35724,1.00554 0.52498,1.50877 0.10971,0.31372 0.21852,0.63379 0.32098,0.95476 0.18225,0.54675 0.36449,1.10075 0.53949,1.65475 0.16049,0.52498 0.32097,1.04997 0.48146,1.57495 0.54675,1.82249 1.04997,3.66674 1.50151,5.52549 0.0871,0.34999 0.175,0.70723 0.25479,1.05722 0.24028,1.0137 0.46695,2.0265 0.67822,3.04745 0.0798,0.37901 0.16048,0.75801 0.23302,1.14427 0.21852,1.08624 0.41527,2.17248 0.59752,3.26597 -0.77251,-1.0128 -1.68376,-1.91679 -2.70471,-2.69021 1.33377,6.80848 2.06276,13.83548 2.12895,21.01571 0.84596,-0.95476 1.55954,-2.02649 2.1208,-3.17801 0.0517,1.43894 0.0816,2.88968 0.0816,4.34767 z"/>
	<g style="fill:#aaaaaa">
		<path d="m 100.15132,224.59077 c -11.605878,19.51601 -19.655645,38.76364 -24.99435,54.37083 -0.241185,0.69635 -0.464235,1.37457 -0.696353,2.05188 -2.126234,6.40681 -3.658573,12.88707 -5.218113,19.39543 -0.566693,2.34021 -1.13248,4.68859 -1.736348,7.03788 0,0 -2.200584,12.17257 -8.978237,8.50493 -0.0091,-0.009 -0.02811,-0.009 -0.03718,-0.0181 -0.519544,-0.28743 -1.068103,-0.66825 -1.642957,-1.15153 -0.241185,-0.20401 -0.483276,-0.42706 -0.733528,-0.66824 -0.01813,-0.019 -0.02811,-0.0281 -0.03717,-0.0372 -0.08342,-0.0834 -0.166835,-0.16683 -0.251159,-0.25025 C 47.72085,305.4611 35.826635,276.67852 35.826635,276.67852 21.073565,243.4204 15.706751,206.62523 12.085354,170.70321 9.5601678,145.56923 9.6064099,127.47403 10.757931,114.2805 c 0.27836,18.34636 15.245413,33.13751 33.657055,33.13751 0.770703,0 1.550473,-0.0281 2.302135,-0.0834 1.773524,9.1079 4.59611,17.83588 8.347167,26.04342 l -14.261633,0 -0.510477,1.47612 c -1.020955,2.92504 -1.532339,5.98881 -1.532339,9.1079 0,3.30495 0.575761,6.53646 1.708241,9.60023 l 0.519544,1.42989 14.382226,0 0,14.43753 1.420813,0.52952 c 3.100947,1.16965 6.378701,1.75448 9.739873,1.75448 3.054704,0 6.072233,-0.49234 8.960103,-1.47612 l 1.48519,-0.50141 0,-3.97411 c 6.881018,7.21287 14.670555,13.54533 23.175491,18.82873 z"/>
		<path d="m 63.706136,60.86624 c -4.17721,6.3787 -7.755992,13.18719 -10.650209,20.34475 -2.75549,-0.72899 -5.649707,-1.11525 -8.638221,-1.11525 -15.730502,0 -28.946699,10.78803 -32.635193,25.37517 2.318456,-15.89099 6.21096,-22.52448 7.129456,-26.42424 1.705521,-7.24551 8.951943,-8.52125 8.951943,-8.52125 l 35.842224,-9.65918 z"/>
		<path d="m 307.91563,170.70231 c -3.6214,35.92292 -8.99728,72.71809 -23.74128,105.97529 0,0 -12.92424,31.28964 -21.03022,38.10446 -8.09601,6.8239 -10.65837,-7.33527 -10.65837,-7.33527 -2.26587,-8.87578 -4.04846,-17.71529 -6.95446,-26.43331 -0.23212,-0.67731 -0.45517,-1.35553 -0.69635,-2.05188 -0.0553,-0.16683 -0.11153,-0.33457 -0.17681,-0.50141 -5.17187,-15.10578 -12.9061,-33.5546 -23.91718,-52.32892 0.24118,-0.13964 0.48327,-0.28743 0.72446,-0.43613 0.21398,-0.12059 0.42706,-0.24118 0.63107,-0.37175 0.15776,-0.0925 0.31553,-0.18588 0.46423,-0.27836 0.96565,-0.58483 1.92223,-1.1887 2.86883,-1.8107 0.23212,-0.1487 0.46424,-0.2974 0.69635,-0.45517 0.58483,-0.38081 1.16966,-0.77977 1.74542,-1.17963 2.39553,-1.64295 4.72577,-3.37023 6.99164,-5.19 0.41799,-0.33458 0.83598,-0.66825 1.244,-1.01189 0.5939,-0.48327 1.1887,-0.98378 1.78259,-1.49516 0.45517,-0.38989 0.90036,-0.77977 1.34647,-1.16966 0.66824,-0.59389 1.32742,-1.18869 1.9866,-1.80163 0.37175,-0.33457 0.73352,-0.67731 1.0953,-1.03093 0.80788,-0.75166 1.59672,-1.52236 2.37649,-2.31211 0.39895,-0.40892 0.80787,-0.81694 1.20683,-1.23494 0.53858,-0.54765 1.0681,-1.11434 1.59671,-1.68013 0.38082,-0.40892 0.76164,-0.82601 1.14155,-1.244 2.284,-2.52519 4.46554,-5.1619 6.51833,-7.88294 0.42706,-0.55671 0.84506,-1.12341 1.26305,-1.6901 0.91034,-1.24401 1.79166,-2.50705 2.65575,-3.7973 0.31554,-0.46424 0.622,-0.93754 0.92847,-1.41084 0.27836,-0.42706 0.55672,-0.85412 0.82601,-1.29025 0.33458,-0.51954 0.65918,-1.04906 0.98378,-1.58765 0.2693,-0.43612 0.53859,-0.88222 0.79881,-1.32742 0.24119,-0.39895 0.48237,-0.80788 0.71449,-1.22587 0.2974,-0.51048 0.58483,-1.02095 0.87316,-1.54141 0.1206,-0.20401 0.23212,-0.41799 0.35271,-0.63107 0.0925,-0.16683 0.18588,-0.34364 0.27836,-0.51047 l -0.009,0 c -0.77977,-0.0462 -1.52237,-0.15777 -2.26587,-0.33458 0.20401,-0.35271 0.39895,-0.70542 0.58483,-1.05813 0.1768,-0.31553 0.33457,-0.63107 0.50141,-0.9466 0.12059,-0.22305 0.24118,-0.45517 0.35271,-0.67732 1.49516,-2.89693 2.86883,-5.86822 4.10376,-8.90388 0,-0.009 0,-0.009 0.009,-0.009 0.51955,-1.24401 1.00282,-2.49798 1.47612,-3.76012 0.99376,-2.71106 1.90319,-5.46837 2.702,-8.26375 0.0653,-0.24119 0.13963,-0.48328 0.20401,-0.72446 0.20401,-0.73353 0.39895,-1.46706 0.58483,-2.20966 0.67821,0.38989 1.30928,0.83599 1.90318,1.31836 0.31553,-1.1887 0.61293,-2.40459 0.89129,-3.61142 0.1487,-0.60387 0.28743,-1.20683 0.40893,-1.81977 0.26023,-1.22587 0.51048,-2.44177 0.72446,-3.68577 0.11153,-0.61294 0.22305,-1.23494 0.31554,-1.84788 0.11152,-0.622 0.20401,-1.244 0.2974,-1.86601 0.0925,-0.61293 0.1768,-1.244 0.26022,-1.866 0.0834,-0.61294 0.15777,-1.22587 0.22305,-1.83881 0.009,-0.0462 0.0181,-0.0925 0.0181,-0.12966 0.1487,-1.22587 0.26022,-2.45084 0.36177,-3.68577 0,-0.0372 0.009,-0.0744 0.009,-0.1206 0.0462,-0.60386 0.0925,-1.20683 0.12966,-1.81976 0.0462,-0.63107 0.0834,-1.27212 0.11153,-1.91225 0.0653,-1.25307 0.11152,-2.51612 0.12965,-3.78823 0.009,-0.65918 0.0181,-1.3374 0.0181,-2.00565 0,-1.45798 -0.0372,-2.91507 -0.0834,-4.35401 -0.56669,1.15152 -1.27211,2.21871 -2.12623,3.17529 -0.009,-1.22587 -0.0372,-2.44177 -0.0925,-3.6486 -0.019,-0.51954 -0.0462,-1.03093 -0.0653,-1.55047 -0.19494,-3.60236 -0.55672,-7.15847 -1.07717,-10.66834 -0.0834,-0.51048 -0.15777,-1.02096 -0.25116,-1.52237 -0.18587,-1.2159 -0.40892,-2.42363 -0.64104,-3.6214 1.02095,0.77071 1.93129,1.67107 2.70199,2.69293 -0.17681,-1.0953 -0.37175,-2.18154 -0.59389,-3.26778 -0.0743,-0.38988 -0.1487,-0.7707 -0.23212,-1.14245 -0.21398,-1.02096 -0.43613,-2.03375 -0.67822,-3.05471 -0.0834,-0.34364 -0.15777,-0.70542 -0.26022,-1.04906 -0.17681,-0.75166 -0.36178,-1.49516 -0.55672,-2.22869 -0.2974,-1.11435 -0.61294,-2.20965 -0.93754,-3.30496 -0.16684,-0.51954 -0.3246,-1.04906 -0.48328,-1.56951 -0.17681,-0.55672 -0.36178,-1.10528 -0.53858,-1.65293 -0.10246,-0.32461 -0.21399,-0.64105 -0.32461,-0.95658 -0.16683,-0.50141 -0.34364,-1.01189 -0.51954,-1.5133 -0.19494,-0.55672 -0.40893,-1.12341 -0.61294,-1.68013 -0.20401,-0.54766 -0.41799,-1.09531 -0.63107,-1.63389 -0.12965,-0.32461 -0.25025,-0.65918 -0.38081,-0.97472 -0.24119,-0.60386 -0.49235,-1.19776 -0.7426,-1.79165 -0.21398,-0.51048 -0.43613,-1.03093 -0.65918,-1.53234 -0.1487,-0.35271 -0.30646,-0.70542 -0.46423,-1.04 -0.16684,-0.37175 -0.33458,-0.75166 -0.50141,-1.11434 -1.26305,-2.72013 -2.61858,-5.38495 -4.07566,-7.98449 -0.19494,-0.35271 -0.38989,-0.69635 -0.58483,-1.03999 -0.23212,-0.40893 -0.48327,-0.83599 -0.73353,-1.25308 -0.20401,-0.34364 -0.40892,-0.69635 -0.61293,-1.04906 -0.54765,-0.89129 -1.08624,-1.77352 -1.65293,-2.64578 l 31.67045,8.54211 c 0,0 2.42364,0.42706 4.79105,2.19152 1.73635,1.27211 3.43553,3.26778 4.15999,6.32248 1.71096,7.24824 13.64235,23.87638 6.82752,91.65564 z"/>
	</g>
	<path style="fill:#aaaaaa" d="m 243.58187,278.16279 c 0,0 -0.0372,-0.0181 -0.11152,-0.0372 -0.13963,-0.0462 -0.41799,-0.12965 -0.84505,-0.26022 -28.73635,-8.9601 -57.40741,-11.69837 -82.62481,-11.46625 -19.47884,-0.17681 -41.0014,1.41084 -63.024468,6.27624 -6.499289,1.42989 -13.044825,3.14719 -19.600334,5.19001 -0.287427,0.0743 -0.566694,0.15777 -0.845053,0.26022 -0.02811,0 -0.06528,0.009 -0.08342,0.0191 l 0,0.009 c -0.0091,0 -0.01813,0 -0.01813,0 l -0.0091,0.009 -0.0091,0 c 1.225871,-3.58422 2.590469,-7.35341 4.122808,-11.28128 0.241185,-0.64104 0.50141,-1.29025 0.761636,-1.94942 1.940358,-4.91165 4.131875,-10.04634 6.58271,-15.32883 0.185876,-0.40893 0.380818,-0.82602 0.575761,-1.24401 0.315535,-0.67731 0.641044,-1.3646 0.98378,-2.06095 0.492343,-1.04 1.00282,-2.08906 1.522365,-3.13812 0.361777,-0.73353 0.733524,-1.46706 1.105275,-2.20965 0.27836,-0.54766 0.55672,-1.10528 0.845053,-1.662 1.513298,-2.95225 3.119988,-5.94257 4.80012,-8.95013 0.510478,-0.8913 1.011888,-1.77352 1.522365,-2.66482 0.510478,-0.90036 1.040002,-1.79166 1.569522,-2.69293 0.79881,0.48328 1.59671,0.96565 2.40459,1.42988 0.51048,0.29741 1.03093,0.5939 1.55047,0.88223 1.13248,0.64105 2.284,1.25308 3.44459,1.85694 0.61294,0.31554 1.23494,0.63107 1.85694,0.92847 0.1487,0.0834 0.2974,0.15777 0.45517,0.22305 0.80788,0.40893 1.62482,0.79882 2.45084,1.16966 0.86318,0.39895 1.72728,0.77977 2.59953,1.15152 0.0653,0.0372 0.12966,0.0653 0.20401,0.0925 0.84506,0.36177 1.69011,0.71448 2.54423,1.05813 0.0181,0.009 0.0281,0.009 0.0372,0.009 0.90943,0.37175 1.81977,0.72446 2.73917,1.05813 0.46424,0.17681 0.91941,0.34365 1.38364,0.50141 1.97754,0.70542 3.98318,1.3646 6.01602,1.96847 0.80788,0.24118 1.62482,0.4733 2.44177,0.68728 0.18587,0.0553 0.38082,0.11153 0.56669,0.15777 1.71731,0.46424 3.46363,0.88223 5.21811,1.26305 0.48328,0.11152 0.97472,0.21398 1.46706,0.30647 0.54765,0.12059 1.09531,0.23211 1.64386,0.3246 0.83599,0.16683 1.67107,0.31553 2.50706,0.45517 0.15776,0.0281 0.30646,0.0553 0.46423,0.0743 0.37175,0.0653 0.75166,0.12059 1.12341,0.1768 0.0553,0.009 0.11153,0.0181 0.17681,0.0281 0.37175,0.0553 0.7426,0.11153 1.12342,0.16684 0.75166,0.11152 1.49516,0.20401 2.24682,0.2974 0.4733,0.0553 0.93754,0.11152 1.41084,0.15777 0.26023,0.0372 0.51955,0.0653 0.7707,0.0834 0.5667,0.0653 1.12342,0.11153 1.69011,0.16684 3.42646,0.30647 6.88918,0.45517 10.38998,0.45517 1.27212,0 2.53516,-0.019 3.78824,-0.0653 0.63107,-0.019 1.26304,-0.0372 1.88505,-0.0743 0.63107,-0.0281 1.25307,-0.0653 1.87598,-0.10246 0.622,-0.0372 1.25307,-0.0834 1.87598,-0.13963 0.38988,-0.0281 0.78884,-0.0553 1.17872,-0.0925 0.23212,-0.019 0.45517,-0.0462 0.67822,-0.0653 0.0281,-0.009 0.0553,-0.009 0.0834,-0.009 0.59389,-0.0553 1.17963,-0.1206 1.76445,-0.18588 0.62201,-0.0653 1.23494,-0.13963 1.84788,-0.22305 0.39895,-0.0462 0.79881,-0.10246 1.19776,-0.15777 0.0553,-0.009 0.11153,-0.009 0.15777,-0.0281 0.90943,-0.12059 1.81976,-0.26022 2.72013,-0.40892 0.90036,-0.1487 1.80163,-0.30647 2.69292,-0.4733 1.14246,-0.21399 2.26587,-0.4461 3.38928,-0.68729 0.81695,-0.1759 1.62483,-0.37175 2.43271,-0.56669 0.84505,-0.19495 1.67106,-0.40893 2.50705,-0.63107 0.20401,-0.0553 0.41799,-0.11153 0.622,-0.16684 0.80788,-0.22305 1.61576,-0.44519 2.41366,-0.68728 0.9194,-0.2693 1.82883,-0.54766 2.7301,-0.84506 0.70542,-0.22305 1.40178,-0.45516 2.09813,-0.69635 0.0553,-0.0181 0.12059,-0.0372 0.17681,-0.0653 0.3246,-0.11153 0.65011,-0.22305 0.96564,-0.33458 0.622,-0.22305 1.23494,-0.4461 1.84788,-0.67731 0.7707,-0.28743 1.5414,-0.58483 2.30304,-0.89129 0.52952,-0.20401 1.04906,-0.418 1.56951,-0.64105 0.16684,-0.0553 0.3246,-0.12966 0.48328,-0.19494 0.4733,-0.19494 0.9466,-0.39895 1.41084,-0.60387 1.14155,-0.49234 2.284,-1.01189 3.40741,-1.55954 1.12342,-0.52952 2.23776,-1.08624 3.35211,-1.65293 1.10528,-0.57576 2.20058,-1.16059 3.28682,-1.76446 0.019,-0.009 0.0372,-0.0181 0.0553,-0.0281 0.0462,-0.0281 0.12059,-0.0653 0.21398,-0.12059 0.0744,-0.0462 0.13963,-0.0834 0.21398,-0.12059 0.1206,-0.0653 0.25116,-0.12966 0.37176,-0.21398 0.009,-0.009 0.0181,-0.009 0.0281,-0.0181 l 0.009,-0.009 c 0.24119,-0.12965 0.48328,-0.26929 0.72446,-0.40892 10.72365,18.34636 18.26294,36.38716 23.32329,51.14929 l 0.15777,0.4733 c 0.002,0.0127 0.002,0.0218 0.0118,0.0399 z"/>
	<path style="fill:#bbbbbb" d="m 276.69128,124.96335 c 0,9.89945 -1.25398,19.5142 -3.60871,28.68466 -0.25478,0.98378 -0.51773,1.96121 -0.79428,2.93048 -2.08452,7.30445 -4.86902,14.31695 -8.28823,20.94318 -0.25478,0.48871 -0.51047,0.97652 -0.77251,1.46524 -0.21852,0.40802 -0.43704,0.80879 -0.66371,1.21771 -0.31373,0.56851 -0.63379,1.13701 -0.95477,1.70552 -0.6492,1.12976 -1.31201,2.25227 -1.99023,3.36027 -0.68547,1.108 -1.38454,2.20149 -2.10628,3.28047 -0.35725,0.54675 -0.72174,1.07899 -1.09349,1.61848 -0.3645,0.53224 -0.73625,1.06447 -1.11526,1.58946 -0.72899,1.02095 -1.47249,2.0265 -2.2305,3.02478 -0.83145,1.07899 -1.67651,2.15072 -2.54423,3.19978 -0.80878,0.98378 -1.63298,1.95396 -2.47804,2.90872 -0.10155,0.12422 -0.21126,0.24028 -0.32097,0.3645 -0.39351,0.45154 -0.79428,0.88948 -1.2023,1.33377 -0.45154,0.49597 -0.91849,0.99103 -1.38545,1.487 -0.46695,0.49597 -0.94026,0.98378 -1.41447,1.46525 -0.51773,0.53224 -1.04271,1.05722 -1.57495,1.56679 -0.43703,0.43703 -0.88223,0.86047 -1.31926,1.27574 l -0.0218,0.0218 c -0.48147,0.4597 -0.96202,0.90399 -1.45074,1.34828 -0.0218,0.029 -0.0508,0.0508 -0.0798,0.0798 -0.37175,0.34274 -0.75801,0.68547 -1.13701,1.02095 -0.29922,0.2693 -0.60478,0.5395 -0.9185,0.80879 -0.38626,0.34274 -0.77977,0.67822 -1.18054,1.01279 -0.43703,0.37901 -0.88222,0.74351 -1.32651,1.108 -0.35724,0.29922 -0.72174,0.59752 -1.09349,0.88223 -0.33549,0.27745 -0.67097,0.54675 -1.00554,0.80153 -1.43623,1.13702 -2.90873,2.23051 -4.40298,3.29498 -0.54675,0.38626 -1.0935,0.77252 -1.6475,1.14427 -0.45154,0.30647 -0.89673,0.61203 -1.35553,0.9185 -1.81523,1.2032 -3.66673,2.36198 -5.5545,3.46272 -3.65222,2.13621 -7.44227,4.07475 -11.33477,5.8102 -0.64105,0.27745 -1.283,0.56125 -1.93129,0.83145 -0.22578,0.0943 -0.45971,0.1895 -0.68548,0.2847 -1.34102,0.56126 -2.69746,1.08624 -4.06024,1.59672 -0.42253,0.15323 -0.84596,0.30647 -1.27574,0.4588 -0.81604,0.29196 -1.64024,0.57576 -2.45628,0.84596 -0.45154,0.15323 -0.90399,0.29921 -1.35553,0.43703 -0.45154,0.14598 -0.90399,0.28471 -1.35553,0.42253 -0.45879,0.13872 -0.9185,0.27745 -1.37004,0.40801 -0.45154,0.13148 -0.91124,0.26204 -1.37004,0.38626 -1.15152,0.32098 -2.30304,0.61929 -3.46272,0.90399 -0.35724,0.088 -0.70723,0.16774 -1.06448,0.24753 -0.46695,0.11697 -0.94025,0.21852 -1.41446,0.32098 -0.45154,0.10246 -0.90399,0.19676 -1.34828,0.29196 -1.108,0.22577 -2.216,0.43703 -3.33125,0.63379 -0.34999,0.0653 -0.69998,0.12422 -1.05722,0.18225 -1.283,0.21126 -2.56599,0.40802 -3.86349,0.57576 0.33548,0.67822 0.66371,1.37004 0.98378,2.07002 1.53052,3.28047 2.974,6.76496 4.26425,10.4462 -0.20401,0.40076 -0.49597,0.75075 -0.84596,1.0282 -1.3927,-4.00946 -2.9595,-7.77775 -4.6215,-11.32026 -4.89895,0.63379 -9.89945,0.96202 -14.97249,0.96202 -5.59802,0 -11.11626,-0.39352 -16.51118,-1.15878 -0.007,0 -0.007,0 -0.0145,0 -2.11353,4.6215 -3.6087,8.71801 -4.62875,11.95497 l -0.0798,-0.0218 -0.69272,-1.10799 c 1.0137,-3.06922 2.4055,-6.80849 4.29327,-10.99295 0.29921,-0.67822 0.61928,-1.36278 0.95476,-2.06276 -0.86772,-0.12422 -1.73453,-0.26204 -2.595,-0.40802 -0.37901,-0.058 -0.75801,-0.12422 -1.13702,-0.19676 -1.10074,-0.19676 -2.19423,-0.40802 -3.28047,-0.63379 -0.48872,-0.10246 -0.97653,-0.21126 -1.46524,-0.32097 -0.48872,-0.10972 -0.97653,-0.21852 -1.46524,-0.33549 -0.96928,-0.22577 -1.93946,-0.47421 -2.90148,-0.72899 -0.38625,-0.10246 -0.76526,-0.20401 -1.15152,-0.30647 -3.44821,-0.95476 -6.83024,-2.06276 -10.13973,-3.324 -0.45879,-0.16774 -0.91849,-0.34999 -1.37004,-0.53223 -0.96201,-0.37176 -1.91678,-0.76527 -2.87245,-1.17329 -0.88948,-0.38625 -1.77897,-0.77251 -2.66029,-1.18053 -0.88223,-0.40077 -1.7572,-0.81604 -2.62401,-1.23947 -0.43704,-0.21127 -0.86773,-0.42253 -1.29751,-0.64105 -0.86772,-0.43703 -1.72002,-0.88223 -2.57324,-1.34102 -0.42978,-0.22577 -0.85321,-0.45154 -1.27574,-0.69273 -0.83145,-0.45879 -1.662,-0.92575 -2.48619,-1.40721 -0.83871,-0.49597 -1.67651,-0.99829 -2.50071,-1.50876 -8.98821,-5.56901 -17.159472,-12.34848 -24.274421,-20.10447 -0.743501,-0.80879 -1.472496,-1.62573 -2.186983,-2.45628 -6.895525,-7.96 -12.720227,-16.88293 -17.239267,-26.53394 -0.765262,-1.64024 -1.494257,-3.29499 -2.186983,-4.97875 -2.828027,-6.87376 -5.007756,-14.09026 -6.465745,-21.56245 16.46675,-2.18699 29.179724,-16.29176 29.179724,-33.35694 0,-14.84918 -9.614747,-27.45244 -22.954257,-31.9207 3.127241,-7.72698 7.07052,-15.03143 11.72194,-21.81725 1.851501,-2.69746 3.812713,-5.31422 5.882731,-7.83669 0.262039,-0.32097 0.524985,-0.64104 0.794277,-0.96202 0.649204,-0.77977 1.312009,-1.54503 1.982974,-2.30304 0.254785,-0.29196 0.517731,-0.58301 0.77977,-0.87497 0.240278,-0.26929 0.481463,-0.53224 0.728994,-0.80153 0.364498,-0.39351 0.728995,-0.78703 1.100746,-1.18054 0.371751,-0.40076 0.750755,-0.78702 1.12976,-1.18053 0.379004,-0.38626 0.758009,-0.77977 1.144267,-1.15878 0.386258,-0.38626 0.772516,-0.76526 1.158775,-1.14427 0.386258,-0.379 0.77977,-0.75801 1.173282,-1.12976 0.400765,-0.379 0.794277,-0.7435 1.195043,-1.11525 0.400765,-0.37175 0.801531,-0.73625 1.210457,-1.09349 0.400765,-0.3645 0.808785,-0.72174 1.224964,-1.07898 0.40802,-0.35725 0.823292,-0.71449 1.239472,-1.06448 0.415273,-0.34999 0.831453,-0.69998 1.253979,-1.04272 1.261233,-1.03546 2.544227,-2.04825 3.848978,-3.02478 0.335483,-0.24753 0.663712,-0.49597 0.998287,-0.7435 0.546746,-0.40077 1.093492,-0.79428 1.647491,-1.18779 1.778964,-1.26123 3.59329,-2.47078 5.445695,-3.63047 1.39271,-0.86772 2.79901,-1.71277 4.22799,-2.52246 0.24028,-0.14598 0.48871,-0.27745 0.72899,-0.41527 1.06448,-0.59027 2.13621,-1.17329 3.21429,-1.72729 0.90399,-0.47421 1.82248,-0.92575 2.74098,-1.37003 0.58301,-0.28471 1.17328,-0.56851 1.76446,-0.83871 0.29196,-0.13873 0.57576,-0.26929 0.86772,-0.39351 0.32823,-0.15324 0.65646,-0.29922 0.99103,-0.44429 0.61928,-0.27745 1.23947,-0.54675 1.86601,-0.80878 0.48146,-0.19676 0.95476,-0.40077 1.43623,-0.59027 0.40802,-0.16774 0.81604,-0.32823 1.23222,-0.48872 0.37175,-0.14598 0.75075,-0.29196 1.12976,-0.43703 1.31926,-0.50323 2.65303,-0.97653 4.00221,-1.43623 0.37175,-0.12422 0.75076,-0.24753 1.12976,-0.3645 0.99829,-0.33548 2.01199,-0.6483 3.02478,-0.94026 0.43704,-0.13872 0.88223,-0.26203 1.31927,-0.38625 0.42978,-0.12422 0.86046,-0.24028 1.2975,-0.35725 0.47421,-0.12422 0.95476,-0.25478 1.43623,-0.37175 0.50322,-0.13147 1.00554,-0.25478 1.50876,-0.379 0.16049,-0.0363 0.32097,-0.0725 0.48146,-0.11697 0.48147,-0.10971 0.96927,-0.21852 1.45074,-0.32823 0.56125,-0.12422 1.1225,-0.24753 1.68376,-0.35724 1.33377,-0.28471 2.68295,-0.53949 4.03848,-0.76526 0.3645,-0.0653 0.729,-0.12422 1.09349,-0.18225 1.91679,-0.30647 3.85624,-0.56126 5.80204,-0.77252 0.51047,-0.058 1.0137,-0.10971 1.52327,-0.15323 0.57576,-0.058 1.15152,-0.10971 1.72728,-0.15324 1.23222,-0.0952 2.47078,-0.17499 3.71025,-0.23302 0.61203,-0.029 1.21772,-0.0508 1.82974,-0.0725 1.22497,-0.0363 2.44903,-0.058 3.68124,-0.058 1.19505,0 2.391,0.0218 3.57879,0.058 0.59752,0.0145 1.18779,0.0363 1.78621,0.0653 0.59027,0.029 1.18054,0.058 1.77171,0.0952 0.59027,0.0363 1.18054,0.0725 1.76446,0.12422 0.59027,0.0435 1.17328,0.0952 1.7572,0.14598 0.58302,0.0508 1.16603,0.10971 1.74995,0.17499 0,0 0,0 0.007,0 0.34999,0.0363 0.69272,0.0725 1.04271,0.11697 0.41528,0.0508 0.8233,0.0952 1.23947,0.15323 0.0218,0 0.0363,0 0.0508,0.007 0.59027,0.0725 1.18054,0.15323 1.77171,0.24028 0.53224,0.0725 1.06448,0.15323 1.58946,0.24027 0.18225,0.029 0.3645,0.058 0.54675,0.0871 0.34999,0.0508 0.69998,0.10971 1.04271,0.17499 0.42253,0.0653 0.83871,0.14598 1.25398,0.22577 0.058,0.007 0.11697,0.0145 0.16774,0.029 0.44429,0.0798 0.88223,0.16049 1.31927,0.25478 0.46605,0.087 0.92575,0.18225 1.38454,0.27746 0.44429,0.0943 0.89674,0.1895 1.34103,0.29196 0.70723,0.16048 1.40721,0.32097 2.10628,0.49597 0.51773,0.12422 1.04272,0.25478 1.55954,0.39351 1.74179,0.44429 3.46998,0.933 5.18275,1.46524 0.56851,0.175 1.12976,0.34999 1.69102,0.53949 0.379,0.11697 0.75801,0.24754 1.12976,0.37901 0.26929,0.087 0.53949,0.17499 0.80153,0.26929 1.53052,0.53224 3.04745,1.09349 4.5417,1.68376 1.15878,0.45154 2.30395,0.92575 3.43371,1.41447 1.00554,0.43703 2.00474,0.88948 3.00303,1.34827 1.53052,0.71449 3.03929,1.46525 4.53445,2.24502 0.24028,0.12422 0.48872,0.25478 0.72899,0.38625 0.52499,0.27746 1.04997,0.56126 1.57496,0.85322 1.04271,0.57576 2.07727,1.16603 3.09822,1.77171 0.37901,0.22577 0.75801,0.45154 1.12976,0.67822 0.30647,0.18225 0.61203,0.37175 0.9185,0.5685 0.32823,0.20401 0.66371,0.40802 0.99103,0.61929 0.50323,0.32097 0.99829,0.64104 1.49426,0.96927 0.48146,0.31372 0.95477,0.62654 1.42898,0.95476 0.57576,0.38626 1.15152,0.78703 1.72002,1.18779 0.34999,0.24754 0.69998,0.49597 1.04272,0.74351 0.89673,0.6492 1.78622,1.30475 2.66028,1.98297 0.30647,0.23302 0.61203,0.46695 0.91125,0.70723 0.32097,0.24753 0.64104,0.50323 0.95476,0.75801 0.43704,0.34274 0.86772,0.69273 1.2975,1.04997 0.45155,0.37175 0.90399,0.75076 1.35553,1.13701 0.45155,0.37901 0.89674,0.77252 1.34103,1.15878 0.3645,0.31372 0.72174,0.63379 1.07173,0.94751 0.75801,0.68547 1.50151,1.37729 2.23776,2.07727 0.34273,0.32098 0.68547,0.64921 1.02821,0.98378 1.5677,1.51602 3.08371,3.08372 4.56346,4.68678 0.39352,0.42978 0.77977,0.86047 1.16603,1.2975 0.39351,0.44429 0.78703,0.88949 1.17328,1.33377 0.33549,0.38626 0.67097,0.77977 0.99829,1.17329 0.42978,0.51773 0.86047,1.0282 1.27574,1.55228 0.26929,0.32823 0.53949,0.66371 0.80153,0.99829 1.94671,2.44902 3.79096,4.97874 5.53274,7.581 8.28098,12.38474 14.21449,26.46866 17.17399,41.61615 1.33377,6.80848 2.06276,13.83548 2.12895,21.01571 0.0127,0.39079 0.0127,0.77796 0.0127,1.17147 z"/>
	<path style="fill:#bbbbbb" d="M 55.129572,81.83843 C 54.45226,81.60632 53.755,81.40231 53.059554,81.21643 50.30225,80.4829 47.405314,80.09302 44.415893,80.09302 c -15.728689,0 -28.940353,10.78893 -32.6361,25.37517 -0.389885,2.67388 -0.742595,5.59893 -1.020955,8.8114 0.27836,18.34636 15.245413,33.13751 33.657055,33.13751 0.770703,0 1.550473,-0.0281 2.302135,-0.0834 0.742595,-0.0372 1.457989,-0.11152 2.181543,-0.21398 C 65.370855,144.9282 78.081108,130.82524 78.081108,113.76007 78.082015,98.9127 68.462734,86.304 55.129572,81.83845 Z m -7.649908,56.02377 c -0.714487,0.0925 -1.438948,0.1487 -2.172476,0.1768 -0.297401,0.009 -0.593895,0.019 -0.891295,0.019 -13.41658,0 -24.298,-10.88142 -24.298,-24.298 0,-13.41658 10.88142,-24.30707 24.298,-24.30707 1.885049,0 3.713882,0.21398 5.468364,0.61293 0.70542,0.16684 1.41084,0.37176 2.089059,0.58483 9.720832,3.18437 16.740577,12.33034 16.740577,23.10931 -9.07e-4,12.37477 -9.266571,22.59792 -21.234229,24.10215 z"/>
	<circle style="fill:#777777;stroke:#555555;stroke-width:2" cx="44.416" cy="113.75799" r="24.298105"/>
	<path style="fill:#777777" d="m 66.565898,113.75914 c 0,11.21418 -8.34082,20.49345 -19.167838,21.94237 -0.806971,0.11515 -1.630264,0.18134 -2.461716,0.19766 -0.173182,0.008 -0.345456,0.008 -0.518638,0.008 -12.235137,0 -22.148192,-9.92121 -22.148192,-22.14819 0,-12.23514 9.913055,-22.15635 22.148192,-22.15635 1.613943,0 3.186177,0.17318 4.693128,0.50231 0.806972,0.17319 1.597622,0.38717 2.362885,0.65011 8.776948,2.94772 15.092179,11.23958 15.092179,21.00393 z"/>
	<path style="fill:#888888" d="m 94.293069,183.95749 c 0,3.30949 -0.57576,6.53828 -1.70552,9.60024 l -0.524985,1.42898 -15.082201,0 0,14.74672 -1.487004,0.50322 c -2.886963,0.98378 -5.904492,1.47975 -8.96645,1.47975 -3.353011,0 -6.633486,-0.59027 -9.738966,-1.7572 l -1.42172,-0.53224 0,-14.44025 -14.374972,0 -0.524985,-1.42898 c -1.12976,-3.06196 -1.70552,-6.29075 -1.70552,-9.60024 0,-3.11999 0.510477,-6.18194 1.530525,-9.10427 l 0.510478,-1.47249 14.564474,0 0,-14.90087 1.42172,-0.53224 c 3.10548,-1.16602 6.385955,-1.7572 9.738966,-1.7572 3.061958,0 6.079487,0.49597 8.96645,1.47975 l 1.487004,0.50322 0,15.20643 15.271703,0 0.510478,1.4725 c 1.020048,2.92323 1.530525,5.98518 1.530525,9.10517 z"/>
	<path style="fill:#333333" d="m 215.60445,23.38378 0,105.35511 -0.007,0.0435 c -3.03203,28.27573 -26.79598,49.60517 -55.28389,49.60517 -28.51691,0 -52.28812,-21.35845 -55.29114,-49.67046 l -0.007,-0.0798 0,-103.69401 c 0.24028,-0.14598 0.48871,-0.27745 0.72899,-0.41527 16.56921,-9.2575 35.65998,-14.52821 55.98387,-14.52821 19.17147,0 37.24944,4.69404 53.14768,12.99678 0.24119,0.12422 0.48872,0.25569 0.729,0.38716 z"/>
	<path style="fill:#888888" d="m 214.87545,22.99752 0,105.7051 c -2.95224,27.52498 -26.25649,48.95596 -54.56215,48.95596 -28.32741,0 -51.64617,-21.46725 -54.5694,-49.02215 l 0,-104.10838 c 16.56921,-9.2575 35.65998,-14.52821 55.98387,-14.52821 19.17147,0 37.24944,4.69494 53.14768,12.99768 z"/>
	<path style="fill:#666666" d="m 197.79667,135.44582 c -1.36278,1.91678 -3.60145,3.01752 -5.80203,3.61595 -9.49053,2.58775 -19.36822,3.77554 -29.20149,3.87075 l 0,0.029 c -0.82329,0.0218 -1.65474,0.029 -2.48619,0.029 -10.24945,0 -20.56327,-1.18054 -30.46272,-3.878 -2.20149,-0.59752 -4.43925,-1.69827 -5.80203,-3.61596 -2.27403,-3.20703 -2.39825,-7.50846 -2.34022,-11.27674 0.058,-3.41104 -0.007,-6.83025 0,-10.24219 0,-4.84727 0.0218,-9.69545 0.007,-14.54272 -0.0145,-4.43199 0.007,-8.86399 0,-13.29598 l 0,-6.66251 c 0,-3.4192 0.51048,-7.9745 3.16351,-10.43894 3.10548,-2.88696 7.73423,-3.33125 11.69927,-4.11828 4.92797,-0.99103 9.91397,-1.65474 14.92898,-2.01198 2.50795,-0.18225 5.02951,-0.27746 7.54472,-0.29922 l 0,-0.029 c 0.8233,-0.0218 1.65475,-0.029 2.4853,-0.029 2.93773,0 5.87547,0.0952 8.80596,0.30647 5.01501,0.35724 10.001,1.02096 14.92897,2.01199 3.96595,0.78702 8.5947,1.23222 11.69927,4.11827 2.65303,2.46353 3.16351,7.01975 3.16351,10.43895 l 0,6.6625 c -0.007,4.432 0.0145,8.86399 0,13.29599 -0.0145,4.84727 0.007,9.69544 0.007,14.54271 0.007,3.41104 -0.058,6.83024 0,10.24219 0.0589,3.76828 -0.0653,8.06881 -2.33931,11.27675 z"/>
	<path style="fill:#bbbbbb" d="m 195.26605,126.80759 c 0,3.62322 -2.93774,6.56095 -6.56095,6.56095 l -56.78994,0 c -3.62321,0 -6.56095,-2.93683 -6.56095,-6.56095 l 0,-48.02023 c 0,-3.62322 2.93684,-6.56095 6.56095,-6.56095 l 56.78994,0 c 3.62321,0 6.56095,2.93683 6.56095,6.56095 l 0,48.02023 z"/>
	<g style="stroke:#555555">
		<circle style="fill:#ffff00" cx="238.52335" cy="140.20244" r="11.531531"/>
		<circle style="fill:#00ff00" cx="265.81531" cy="114.27686" r="11.531531"/>
		<circle style="fill:#ff0000" cx="265.81354" cy="166.12746" r="11.531531"/>
		<circle style="fill:#8888ff" cx="293.10815" cy="140.20244" r="11.531531"/>
	</g>
	<circle style="fill:#666666" cx="66.526909" cy="183.95387" r="5.9316931"/>
	<g style="fill:#ff0000">
		<path id="button-du" fill-opacity="0" d="m 55.366223,173.38073 0,-14.90087 1.42172,-0.53224 c 3.10548,-1.16602 6.385955,-1.7572 9.738966,-1.7572 3.061958,0 6.079487,0.49597 8.96645,1.47975 l 1.487004,0.50322 0,15.20643 z"/>
		<path id="button-dd" fill-opacity="0" d="m 76.980363,194.98671 0,14.74672 -1.487004,0.50322 c -2.886963,0.98378 -5.904492,1.47975 -8.96645,1.47975 -3.353011,0 -6.633486,-0.59027 -9.738966,-1.7572 l -1.42172,-0.53224 0,-14.44025 z"/>
		<path id="button-dl" fill-opacity="0" d="m 55.366223,194.98671 -14.374972,0 -0.524985,-1.42898 c -1.12976,-3.06196 -1.70552,-6.29075 -1.70552,-9.60024 0,-3.11999 0.510477,-6.18194 1.530525,-9.10427 l 0.510478,-1.47249 14.564474,0 z"/>
		<path id="button-dr" fill-opacity="0" d="m 94.293069,183.95749 c 0,3.30949 -0.57576,6.53828 -1.70552,9.60024 l -0.524985,1.42898 -15.082201,0 0,-21.60689 15.271703,0 0.510478,1.4725 c 1.020048,2.92323 1.530525,5.98518 1.530525,9.10517 z"/>
	</g>
	<g style="fill:#000000;fill-opacity:0;stroke:#555555">
		<circle class="anti" id="button-sq" cx="238.52335" cy="140.20244" r="11.531531"/>
		<circle class="anti" id="button-tr" cx="265.81531" cy="114.27686" r="11.531531"/>
		<circle class="anti" id="button-cr" cx="265.81354" cy="166.12746" r="11.531531"/>
		<circle class="anti" id="button-ci" cx="293.10815" cy="140.20244" r="11.531531"/>
	</g>
	<path style="fill-opacity:0;stroke:#555555;stroke-width:1.5" d="m 94.293069,183.95749 c 0,3.30949 -0.57576,6.53828 -1.70552,9.60024 l -0.524985,1.42898 -15.082201,0 0,14.74672 -1.487004,0.50322 c -2.886963,0.98378 -5.904492,1.47975 -8.96645,1.47975 -3.353011,0 -6.633486,-0.59027 -9.738966,-1.7572 l -1.42172,-0.53224 0,-14.44025 -14.374972,0 -0.524985,-1.42898 c -1.12976,-3.06196 -1.70552,-6.29075 -1.70552,-9.60024 0,-3.11999 0.510477,-6.18194 1.530525,-9.10427 l 0.510478,-1.47249 14.564474,0 0,-14.90087 1.42172,-0.53224 c 3.10548,-1.16602 6.385955,-1.7572 9.738966,-1.7572 3.061958,0 6.079487,0.49597 8.96645,1.47975 l 1.487004,0.50322 0,15.20643 15.271703,0 0.510478,1.4725 c 1.020048,2.92323 1.530525,5.98518 1.530525,9.10517 z"/>
	<g>
		<path style="fill:#888800" d="m 244.20105,147.54134 -2.04102,0 -3.77929,-6.20118 -3.83789,6.20118 -1.9043,0 4.74609,-7.44141 -4.44336,-6.83594 2.00196,0 3.49609,5.59571 3.52539,-5.59571 1.89453,0 -4.41406,6.79688 4.75586,7.48047 z"/>
		<path style="fill:#008800" d="m 265.75006,114.35028 3.7207,-7.02148 1.9336,0 -4.75586,8.74023 0,5.53711 -1.80664,0 0,-5.45898 -4.75586,-8.81836 1.96289,0 3.70117,7.02148 z"/>
		<path style="fill:#880000" d="m 270.37274,173.10953 -1.71875,-4.42383 -5.66406,0 -1.69922,4.42383 -1.81641,0 5.57618,-14.33594 1.62109,0 5.56641,14.33594 -1.86524,0 z m -2.25586,-6.01563 -1.60156,-4.32617 -0.68359,-2.13867 q -0.29297,1.17187 -0.61524,2.13867 l -1.62109,4.32617 4.52148,0 z"/>
		<path style="fill:#444488" d="m 288.69861,133.14166 4.07226,0 q 2.8711,0 4.14063,0.85938 1.2793,0.84961 1.2793,2.67578 0,1.26953 -0.69336,2.09961 -0.69336,0.82031 -2.02149,1.06445 l 0,0.0977 q 1.65039,0.2832 2.42188,1.14258 0.78125,0.85937 0.78125,2.27539 0,1.91406 -1.3086,2.98828 -1.30859,1.07422 -3.65234,1.07422 l -5.01953,0 0,-14.27735 z m 1.79687,6.07422 2.63672,0 q 1.67969,0 2.44141,-0.53711 0.76172,-0.53711 0.76172,-1.79687 0,-1.17188 -0.83985,-1.68946 -0.83007,-0.51757 -2.63672,-0.51757 l -2.36328,0 0,4.54101 z m 0,1.50391 0,5.17578 2.88086,0 q 1.71875,0 2.54883,-0.66406 0.83008,-0.66407 0.83008,-2.01172 0,-1.2793 -0.87891,-1.88477 -0.8789,-0.61523 -2.63672,-0.61523 l -2.74414,0 z"/>
	</g>
	<path style="fill:#aaaaaa;stroke:#555555;stroke-width:1.5" d="m 175.33748,249.60688 0,0.0435 c 0,0.54675 -0.30647,1.02096 -0.76526,1.25398 0,0 0,0 -0.007,0 -0.16048,0.0508 -0.34273,0.0952 -0.53223,0.15324 -3.91427,1.05722 -14.09752,3.149 -26.11142,0.23302 -0.11697,-0.029 -0.22577,-0.0508 -0.34274,-0.0798 l -0.91124,-1.45799 c 0,-0.007 0,-0.007 0,-0.0145 0.0363,-0.13873 0.0725,-0.28471 0.12422,-0.44429 1.10074,-4.10377 4.49728,-14.04674 13.19443,-22.947 l 0.007,-0.007 c 0.0798,-0.087 0.16048,-0.16774 0.24753,-0.24753 0.14598,-0.0952 0.32097,-0.15323 0.51048,-0.15323 0.17499,0 0.33548,0.0508 0.4742,0.13872 0.0871,0.0725 0.18225,0.16049 0.28471,0.26204 2.47804,2.36198 9.89945,10.21227 13.62422,22.58251 0.0716,0.22486 0.13782,0.45063 0.2031,0.68456 z"/>
	<path id="button-st" style="fill:#ff0000" fill-opacity="0" d="m 175.33748,249.60688 0,0.0435 c 0,0.54675 -0.30647,1.02096 -0.76526,1.25398 0,0 0,0 -0.007,0 -0.16048,0.0508 -0.34273,0.0952 -0.53223,0.15324 -3.91427,1.05722 -14.09752,3.149 -26.11142,0.23302 -0.11697,-0.029 -0.22577,-0.0508 -0.34274,-0.0798 l -0.91124,-1.45799 c 0,-0.007 0,-0.007 0,-0.0145 0.0363,-0.13873 0.0725,-0.28471 0.12422,-0.44429 1.10074,-4.10377 4.49728,-14.04674 13.19443,-22.947 l 0.007,-0.007 c 0.0798,-0.087 0.16048,-0.16774 0.24753,-0.24753 0.14598,-0.0952 0.32097,-0.15323 0.51048,-0.15323 0.17499,0 0.33548,0.0508 0.4742,0.13872 0.0871,0.0725 0.18225,0.16049 0.28471,0.26204 2.47804,2.36198 9.89945,10.21227 13.62422,22.58251 0.0716,0.22486 0.13782,0.45063 0.2031,0.68456 z"/>
	<g style="fill:#aaaaaa;stroke:#555555;stroke-width:1.5">
		<circle id="button-l3-shadow" cx="44.4175" cy="113.75849" r="19.60837"/>
		<circle id="button-l3" cx="44.4175" cy="113.75849" r="19.60837"/>
	</g>
</svg>
