<?xml version="1.0" encoding="UTF-8"?>
<svg xmlns="http://www.w3.org/2000/svg" width="320" height="191.369" version="1.0">
	<g style="fill:#dddddd;stroke-width:0">
		<path d="m 24.21809,46.400297 -5.61151,0.19842 c 0,0 -10.1651626,68.481273 -6.672777,88.956383 0,0 0.846772,14.09483 14.892851,20.9392 0,0 6.709339,0.58353 6.709339,-1.29575 l 0,-1.87489 c 0,0 -16.415772,-5.89572 -16.415772,-18.35208 0,0 -1.756918,-32.93879 7.097869,-88.571283"/>
		<path d="m 295.91245,46.400297 5.60663,0.19842 c 0,0 10.17881,68.481273 6.75029,88.956383 0,0 -0.87456,14.09483 -14.94257,20.9392 0,0 -6.69375,0.58353 -6.69375,-1.29575 l 0,-1.87489 c 0,0 16.43626,-5.89572 16.43626,-18.35208 -4.9e-4,0 1.68476,-32.93879 -7.15686,-88.571283"/>
		<g class="straight-button">
			<path id="button-l1" d="m 81.149244,15.836567 c 0,0 -22.21204,14.67446 -51.903171,18.47835 0,0 -3.469474,1.40982 -4.741826,6.02197 l -4.404481,-2.75578 c 0,0 0.903808,-10.4406 12.786889,-15.62652 11.848958,-5.18642 48.262589,-6.11802 48.262589,-6.11802"/>
			<path id="button-r1" d="m 238.92767,15.836567 c 0,0 22.33343,14.67446 51.94315,18.47835 0,0 3.47922,1.40982 4.72817,6.02197 l 4.40205,-2.75578 c 0,0 -0.83557,-10.4406 -12.70597,-15.62652 -11.90015,-5.18642 -48.3674,-6.11802 -48.3674,-6.11802"/>
		</g>
	</g>
	<path d="m 39.235251,21.660617 c 13.054035,-1.93826 26.226045,-3.55966 39.381477,-4.83347 l 0.264708,-0.0234 0.26422,-0.11213 c 5.346801,-2.56225 11.093833,-3.8541 17.070964,-3.8541 l 127.55787,0 c 5.98835,0 11.76024,1.29185 17.13629,3.83996 l 0.21254,0.11359 0.25935,0.0273 c 13.06086,1.28308 26.35718,2.90447 39.3615,4.84274 8.69244,1.05249 15.86197,7.47664 17.95867,15.92048 -0.56013,0 -3.10385,0 -3.10385,0 l 0.31395,1.77154 0.94427,5.5925 0.47676,2.6617 c 0,0 2.60515,0 3.09069,0 4.46786,27.52716 6.76345,55.375083 6.76345,83.335613 0,0.11261 0,0.22522 0,0.33881 0,9.01273 -4.41862,17.4473 -11.86163,22.54743 -1.47124,0.98522 -3.22134,1.50976 -5.06747,1.50976 0,0 -0.46262,-0.041 -0.86042,-0.0771 0,-0.43729 0,-1.57216 0,-1.57216 l -1.81785,0.6191 c -9.34276,2.98199 -19.23055,5.80505 -29.38401,8.31319 -4.93828,1.19728 -9.8873,2.85523 -14.71687,5.03237 -6.34762,2.85962 -13.12863,4.91049 -20.09292,6.05903 -20.72617,3.19843 -42.06511,4.82031 -63.23148,4.82031 -21.51104,0 -42.91238,-1.62188 -63.563474,-4.83006 -6.912137,-1.1383 -13.65755,-3.18917 -20.106569,-6.04879 -4.815922,-2.17714 -9.751769,-3.83509 -14.677866,-5.04651 -10.149565,-2.494 -20.018334,-5.31706 -29.329901,-8.28589 l -1.87489,-0.63617 c 0,0 0,1.13829 -0.0093,1.57558 -0.397305,0.0361 -0.851647,0.0771 -0.851647,0.0771 -1.793479,0 -3.580622,-0.52454 -5.098181,-1.56729 -7.368427,-5.0426 -11.787534,-13.47717 -11.787534,-22.48064 0,-0.11749 0,-0.23497 0,-0.34807 0,-27.96053 2.243434,-55.808453 6.713727,-83.335613 0.456292,0 3.117018,0 3.117018,0 l 0.22132,-1.12075 0.251058,-1.49123 1.206541,-7.33235 -1.633582,-0.0814 c 0,0 -0.831173,0 -1.3913,0 2.082074,-8.44433 9.224306,-14.86848 17.894333,-15.92097 m 56.980882,-11.6603 c -6.29595,0 -12.324752,1.36448 -17.997197,4.02034 -13.14227,1.28308 -26.327442,2.90495 -39.359052,4.82957 -9.941405,1.23335 -18.134179,8.62031 -20.393213,18.41936 l 0,0.005 0.06581,-0.23058 -0.185734,0.91307 c 0,1.38154 1.06858,2.51106 2.450617,2.51106 0,0 0.206209,0 0.264708,0 -0.295907,1.61311 -0.749761,4.26068 -0.772673,4.35134 -0.550865,0 -1.059318,0 -1.059318,0 -1.350837,0 -2.446718,1.15633 -2.446718,2.4165 l 0.03559,-0.20328 c -4.537079,27.85279 -6.8546115,55.999563 -6.818537,84.257943 0,9.88486 4.863698,19.19594 13.083772,24.80745 1.906089,1.34596 4.25141,2.08256 6.65669,2.08256 l 1.875378,-0.15015 0.03559,-0.0268 c 0.411443,-0.10872 0.75025,-0.41096 1.059807,-0.72246 9.044421,2.94542 18.570483,5.66903 28.396842,8.06895 4.7545,1.14755 9.543612,2.79576 14.205976,4.86516 6.656689,3.00489 13.679973,5.10013 20.827077,6.27986 20.82805,3.24864 42.35516,4.87442 64.01342,4.87442 21.29068,0 42.81779,-1.62578 63.66778,-4.87442 7.23535,-1.17973 14.19282,-3.27497 20.81782,-6.27986 4.66238,-2.0694 9.44271,-3.7181 14.19282,-4.86516 9.84829,-2.39992 19.4309,-5.12353 28.51141,-8.06895 0.2959,0.31199 0.61959,0.61423 1.04614,0.73172 l 0.1248,0.0317 0.0224,0 1.72085,0.13552 c 2.44866,0 4.74182,-0.73709 6.73566,-2.14642 8.10552,-5.54765 13.00528,-14.85824 13.00528,-24.74358 0.0131,-28.25888 -2.21613,-56.405153 -6.75419,-84.257953 l 0.009,0.20329 c 0,-1.26017 -1.10856,-2.4165 -2.50765,-2.4165 0,0 -0.52162,0 -1.04567,0 -0.0229,-0.11748 -0.44801,-2.7475 -0.71173,-4.35135 0.0497,0 0.24861,0 0.24861,0 1.32354,0 2.44867,-1.12951 2.44867,-2.51106 l -0.21254,-0.92672 0.0716,0.23984 c -2.24734,-9.79954 -10.46351,-17.18601 -20.41369,-18.44227 -12.97311,-1.90171 -26.23286,-3.52407 -39.26448,-4.80666 -5.68561,-2.66463 -11.77291,-4.02034 -18.09372,-4.02034 l -127.558356,0"/>
	<path style="fill:#8888ff" d="m 223.77449,11.404787 c 7.2334,0 14.00514,1.84808 19.86721,5.12401 13.68437,7.63948 28.88483,12.74448 45.07197,14.79633 4.2514,0.54599 7.61948,3.6635 8.61981,7.76574 5.39945,29.88076 8.16402,60.79598 8.16402,92.163103 0,0.0911 0,-0.0858 0,0 0,11.3444 -7.28069,20.89094 -17.44536,24.30581 -9.68596,3.2311 -19.55521,5.96348 -29.54245,8.45797 -4.99239,1.16121 -9.88242,2.86889 -14.45655,4.93341 -6.38418,2.86937 -13.23098,4.97436 -20.43854,6.14872 -21.06888,3.26181 -42.34591,4.86078 -63.46012,4.86078 -21.47301,0 -42.80171,-1.59849 -63.791132,-4.86078 -7.142228,-1.17436 -13.980751,-3.27983 -20.452194,-6.14872 -4.587779,-2.06452 -9.465126,-3.7722 -14.443384,-4.93341 -9.959931,-2.494 -19.826263,-5.22687 -29.476635,-8.45797 -10.155901,-3.41536 -17.497516,-12.96141 -17.497516,-24.30581 0,-0.0858 0,0.0911 0,0 0,-31.367123 2.825498,-62.282343 8.215686,-92.163103 0.95792,-4.10224 4.36402,-7.21975 8.606167,-7.76574 16.214439,-2.05185 31.416849,-7.15685 45.009074,-14.79633 5.933741,-3.27593 12.705966,-5.12401 19.892074,-5.12401 l 127.55787,0 z"/>
	<g style="fill:none;stroke:#111111;stroke-width:1.5">
		<path d="m 223.77449,11.404787 c 7.2334,0 14.00514,1.84808 19.86721,5.12401 13.68437,7.63948 28.88483,12.74448 45.07197,14.79633 4.2514,0.54599 7.61948,3.6635 8.61981,7.76574 5.39945,29.88076 8.16402,60.79598 8.16402,92.163103 0,0.0911 0,-0.0858 0,0 0,11.3444 -7.28069,20.89094 -17.44536,24.30581 -9.68596,3.2311 -19.55521,5.96348 -29.54245,8.45797 -4.99239,1.16121 -9.88242,2.86889 -14.45655,4.93341 -6.38418,2.86937 -13.23098,4.97436 -20.43854,6.14872 -21.06888,3.26181 -42.34591,4.86078 -63.46012,4.86078 -21.47301,0 -42.80171,-1.59849 -63.791132,-4.86078 -7.142228,-1.17436 -13.980751,-3.27983 -20.452194,-6.14872 -4.587779,-2.06452 -9.465126,-3.7722 -14.443384,-4.93341 -9.959931,-2.494 -19.826263,-5.22687 -29.476635,-8.45797 -10.155901,-3.41536 -17.497516,-12.96141 -17.497516,-24.30581 0,-0.0858 0,0.0911 0,0 0,-31.367123 2.825498,-62.282343 8.215686,-92.163103 0.95792,-4.10224 4.36402,-7.21975 8.606167,-7.76574 16.214439,-2.05185 31.416849,-7.15685 45.009074,-14.79633 5.933741,-3.27593 12.705966,-5.12401 19.892074,-5.12401 l 127.55787,0 z"/>
		<path d="m 293.31705,40.057077 c -0.58743,-2.53886 -2.631,-4.32844 -5.10306,-4.67115 -16.46453,-2.06988 -32.11494,-7.19683 -46.49251,-15.27017 -5.46429,-2.98685 -11.65786,-4.58582 -17.94699,-4.58582 l -127.558357,0 c -6.250613,0 -12.412988,1.59897 -17.834375,4.57705 -14.40731,8.0826 -30.043587,13.20954 -46.522246,15.26481 -2.552503,0.35684 -4.538054,2.14642 -5.085019,4.47321 -5.403838,29.96266 -8.155238,60.628783 -8.155238,91.436263 0,9.25209 5.884505,17.48337 14.665193,20.38834 9.252092,3.06827 19.083325,5.8377 29.182678,8.31756 5.088919,1.19631 10.201237,2.96249 15.177546,5.19032 6.200885,2.78747 12.694753,4.76133 19.356805,5.84599 20.518013,3.20769 41.780423,4.81593 63.152033,4.8208 21.03328,-0.005 42.21867,-1.61311 62.79761,-4.81154 6.70934,-1.09392 13.28267,-3.06778 19.46747,-5.85525 4.98752,-2.22783 10.07498,-3.99401 15.14196,-5.17764 10.12616,-2.49303 19.95252,-5.26246 29.16952,-8.31708 8.74169,-2.91862 14.65544,-11.16306 14.65544,-20.43026 9.4e-4,-30.7563 -2.70558,-61.445323 -8.06846,-91.195433 z"/>
	</g>
	<g style="fill:#111111">
		<path d="m 262.76062,43.567007 0,-1.85636 0.21255,0.004 c 0.81118,0 1.35522,-0.46947 1.35522,-1.36352 0,-1.53609 -1.3328,-1.39666 -1.53121,-1.39666 l -0.94671,0 0,4.61264 0.91015,0 m 0,-3.83997 0.17647,0 c 0.35879,0 0.49871,0.27154 0.49871,0.61424 0,0.5065 -0.25497,0.65616 -0.67567,0.64203 l 0,-1.25627"/>
		<path d="m 266.33637,38.877827 c -0.83312,0 -1.67795,0.66007 -1.67795,2.44428 0,1.65796 0.84483,2.31315 1.67795,2.31315 0.81361,0 1.61067,-0.65519 1.61067,-2.31315 0,-1.78421 -0.79706,-2.44428 -1.61067,-2.44428 m -0.65763,2.44428 c 0,-0.3973 0.0521,-1.58581 0.65763,-1.58581 0.60107,0 0.65324,1.18851 0.65324,1.58581 0,0.35685 -0.0517,1.45955 -0.65324,1.45955 -0.60498,0 -0.65763,-1.1027 -0.65763,-1.45955"/>
		<path d="m 269.05657,38.954367 0.41339,2.26781 c 0.0503,0.31589 0.0634,0.62398 0.0858,0.93501 l 0.0156,0 c 0.0458,-0.31103 0.0722,-0.61912 0.14722,-0.93501 l 0.47676,-2.26781 0.74977,0 0.60547,3.20282 c 0.0273,-0.31103 0.0516,-0.60986 0.10188,-0.91698 l 0.36123,-2.28584 0.94817,0 -0.94817,4.61264 -0.7951,0 -0.47725,-2.35848 c -0.0381,-0.28421 -0.0833,-0.58743 -0.13942,-0.88529 l -0.01,0 c -0.0497,0.29786 -0.1014,0.60108 -0.16283,0.88529 l -0.54842,2.35848 -0.82435,0 -0.89748,-4.61264 0.89748,0"/>
		<path d="m 276.69165,43.567007 0,-2.06843 0.0131,0 0.80826,2.06843 0.93598,0 -0.77267,-2.03235 c 0.43386,-0.24863 0.63178,-0.68688 0.63178,-1.22458 0,-1.30111 -1.01593,-1.35571 -1.61651,-1.35571 l -0.93551,0 0,4.61264 0.93551,0 m 0,-3.83997 0.1243,0 c 0.46263,-0.041 0.62302,0.24424 0.62302,0.58304 0,0.41584 -0.16039,0.68688 -0.58743,0.68688 l -0.15989,0 0,-1.26992"/>
		<path d="m 277.71246,136.07915 c 0,-0.64689 -0.55135,-1.14755 -1.24896,-1.14755 -0.0838,0 -0.1716,0 -0.25934,0.0273 l -0.0131,-0.0273 -30.31513,7.57123 c -0.61229,0.1087 -1.05931,0.62788 -1.05931,1.27381 0,0.70881 0.57329,1.22019 1.28063,1.22019 0.19013,0 0.36563,-0.0366 0.51284,-0.1131 l 29.88077,-7.56294 c 0.68444,-0.005 1.22166,-0.58694 1.22166,-1.24164"/>
		<path d="m 277.71246,129.98892 c 0,-0.64201 -0.55135,-1.22895 -1.24896,-1.22895 -0.0838,0 -0.1716,0.0273 -0.25934,0.0356 l -0.0131,-0.008 -30.31513,7.51321 0,0.018 c -0.61229,0.0985 -1.05931,0.57329 -1.05931,1.21921 0,0.71906 0.57329,1.31965 1.28063,1.31965 0.19013,0 0.36563,-0.0585 0.51284,-0.13163 l 29.88077,-7.57658 c 0.68444,-0.003 1.22166,-0.54161 1.22166,-1.15975"/>
		<path d="m 277.71246,123.84021 c 0,-0.76829 -0.55135,-1.40545 -1.24896,-1.40545 -0.0838,0 -0.1716,0.0137 -0.25934,0.0356 l -0.0131,-0.0219 -30.31513,7.75647 0,0.0142 c -0.61229,0.0858 -1.05931,0.56013 -1.05931,1.12903 0,0.64105 0.57329,1.23725 1.28063,1.23725 0.19013,0 0.36563,-0.0361 0.51284,-0.10774 l 29.88077,-7.43716 c 0.68444,-0.008 1.22166,-0.52308 1.22166,-1.2002"/>
		<path d="m 277.71246,117.4882 c 0,-0.63716 -0.55135,-1.1383 -1.24896,-1.1383 -0.0838,0 -0.1716,0.0127 -0.25934,0.0308 l -0.0131,-0.018 -30.31513,7.73454 0,0.009 c -0.61229,0.10384 -1.05931,0.57329 -1.05931,1.13878 0,0.6508 0.57329,1.18314 1.28063,1.18314 0.19013,0 0.36563,-0.0503 0.51284,-0.11212 l 29.88077,-7.38257 c 0.68444,-0.0141 1.22166,-0.6508 1.22166,-1.44541"/>
		<path d="m 277.71246,111.42478 c 0,-0.6508 -0.55135,-1.21093 -1.24896,-1.21093 -0.0838,0 -0.1716,0.0142 -0.25934,0.0273 l -0.0131,-0.0127 -30.31513,7.48153 0,0.0273 c -0.61229,0.11212 -1.05931,0.73659 -1.05931,1.41811 0,0.6196 0.57329,1.14755 1.28063,1.14755 0.19013,0 0.36563,-0.0361 0.51284,-0.0999 l 29.88077,-7.65702 c 0.68444,-0.009 1.22166,-0.5109 1.22166,-1.12124"/>
		<path d="m 45.067594,131.76437 c 0.564514,-2.06404 2.845973,-3.4646 5.001658,-2.85572 l 20.59211,5.13279 c -1.583857,0.4056 -2.979057,1.53998 -3.429011,3.27984 -0.08824,0.38414 -0.13796,0.77706 -0.13796,1.19728 0,0.89942 0.234483,1.65795 0.675662,2.34873 0.248621,0.40657 0.609851,0.72782 0.97157,1.05737 l -20.606248,-5.16351 c -2.252696,-0.51917 -3.589396,-2.63879 -3.067781,-4.99678 m 27.951275,1.74765 -22.708309,-5.70071 c -2.70655,-0.73709 -5.530098,1.09734 -6.200886,3.72735 -0.675663,2.88205 0.94817,5.55301 3.780981,6.27547 l 22.558162,5.66904 c 2.83086,0.74147 5.563247,-1.03007 6.247684,-3.70494 0.7366,-2.87278 -1.012031,-5.52034 -3.677632,-6.26621 M 45.067594,115.38321 c 0.26422,-0.994 0.949145,-1.96069 1.91974,-2.67487 0.953532,-0.52404 2.048924,-0.66005 3.081431,-0.4246 l 20.569686,5.12841 c -1.561434,0.3973 -2.956634,1.81981 -3.406588,3.47824 -0.447516,1.65845 0.212547,3.56015 1.509272,4.62142 l -20.606247,-5.13182 c -2.252209,-0.51089 -3.588909,-2.90983 -3.067294,-4.99678 m 27.951275,1.57167 -22.708309,-5.57933 c -2.70655,-0.66007 -5.530098,0.89893 -6.200886,3.77172 -0.675663,2.62513 0.94817,5.54374 3.780981,6.18966 l 22.558162,5.5886 c 2.83086,0.72247 5.563247,-0.92574 6.247684,-3.66349 0.7366,-2.73336 -0.993994,-5.67001 -3.677632,-6.30716"/>
		<path d="m 51.627761,115.7347 c -0.147222,-0.19842 -0.332469,-0.38805 -0.596689,-0.44265 -0.273482,-0.0765 -0.499191,0.0503 -0.55964,0.33393 -0.190121,0.70101 1.185579,1.0486 0.860909,2.21954 -0.190121,0.96182 -0.808747,1.46833 -1.63797,1.27382 -0.230095,-0.0546 -0.517227,-0.2262 -0.684437,-0.46555 l 0.212547,-1.01691 c 0.162822,0.21254 0.352943,0.40657 0.603026,0.49286 0.271045,0.0814 0.544527,-0.0862 0.609851,-0.44264 0.09701,-0.33882 -0.153072,-0.52454 -0.352456,-0.74977 -0.411442,-0.43825 -0.632764,-0.81362 -0.472379,-1.44541 0.162822,-0.68688 0.7093,-1.15731 1.47271,-0.98132 0.310045,0.059 0.558178,0.19451 0.786324,0.37975 l -0.241796,0.84435"/>
		<path d="m 55.560353,115.65377 -2.109863,4.26457 0.874074,0.19841 0.325643,-0.66884 0.874072,0.21352 -0.01316,0.75366 0.970594,0.23156 0.03656,-4.77108 -0.95792,-0.2218 m 0.0088,3.30324 -0.609364,-0.17258 0.476766,-1.3367 0.248133,-0.62252 0.02535,0.0127 -0.06581,0.6508 -0.07508,1.46833"/>
		<path d="m 57.767226,120.95328 0.537702,-1.9836 0.02291,0 0.263733,2.16885 0.896983,0.22132 -0.26422,-2.12838 c 0.485541,-0.117 0.772673,-0.55136 0.883334,-1.13293 0.300782,-1.26115 -0.645926,-1.55023 -1.192403,-1.6721 l -0.912584,-0.20864 -1.118304,4.51806 0.882847,0.21742 m 0.971569,-3.85361 0.09652,0.0229 c 0.440692,0.0765 0.528928,0.34758 0.440692,0.70003 -0.0741,0.46019 -0.299807,0.74099 -0.684437,0.62253 l -0.162335,-0.0488 0.309557,-1.29672"/>
		<path d="m 50.981348,131.91306 c -0.149172,-0.18915 -0.348069,-0.34759 -0.573777,-0.41048 -0.259832,-0.059 -0.472379,0.0585 -0.53819,0.30713 -0.184759,0.77657 1.151941,1.1651 0.824835,2.48864 -0.185735,0.74586 -0.797536,1.19728 -1.597509,1.01691 -0.248132,-0.0639 -0.521614,-0.20817 -0.683949,-0.38853 l 0.220833,-0.82289 c 0.15356,0.20329 0.314432,0.34271 0.587427,0.40656 0.273969,0.0536 0.53819,-0.0638 0.603026,-0.3427 0.08141,-0.38463 -0.139422,-0.60108 -0.338318,-0.87748 -0.411443,-0.49627 -0.653239,-0.93891 -0.486029,-1.59849 0.176472,-0.67322 0.722949,-1.17436 1.471248,-0.98521 0.272995,0.0536 0.523565,0.19938 0.722462,0.3973 l -0.212059,0.80924"/>
		<path d="m 60.968579,134.38464 c -0.0975,-0.0503 -0.198896,-0.0862 -0.310044,-0.11798 -0.759024,-0.20718 -1.244565,0.40267 -1.434199,1.0486 -0.146735,0.62789 -0.02242,1.49952 0.727337,1.69891 0.09701,0.0404 0.221808,0.0268 0.332468,0.0268 l -0.185246,0.88529 c -0.147222,0.0268 -0.28762,0.005 -0.424605,-0.0361 -1.245052,-0.33882 -1.685257,-1.6721 -1.369362,-2.79626 0.286645,-1.0715 1.271376,-2.13228 2.441842,-1.80322 0.162823,0.0503 0.309557,0.13211 0.463117,0.22131 l -0.241308,0.87262"/>
		<g transform="matrix(0.48749101,0,0,0.48749101,9.9999263,-283.10949)">
			<polyline points="543.975,660.656 543.975,662.445 542.028,662.445 542.028,664.595 543.747,664.595 543.747,666.311 542.028,666.311 542.028,668.331 543.992,668.331 543.992,670.118 540.156,670.118 540.156,660.656 543.975,660.656 "/>
			<polyline points="91.791,817.527 91.359,819.186 89.946,818.862 88.089,826.479 86.217,826.044 88.135,818.427 86.675,818.094 87.092,816.406 91.791,817.527 "/>
			<polyline points="108.936,821.521 108.5,823.478 107.04,823.032 105.048,830.521 103.204,830.085 105.141,822.449 103.644,822.032 104.052,820.447 108.936,821.521 "/>
			<polyline points="89.979,850.631 89.566,852.354 87.727,851.863 87.218,854.005 88.876,854.44 88.422,856.285 86.749,855.876 86.239,857.869 88.135,858.323 87.727,859.945 83.885,859.045 86.323,849.77 89.979,850.631 "/>
			<polyline points="92.814,851.326 91.03,858.98 92.86,859.444 92.463,861.095 88.83,860.205 91.077,850.9 92.814,851.326 "/>
			<polyline points="99.418,853.013 98.981,854.876 97.115,854.366 96.582,856.487 98.259,856.878 97.823,858.463 96.174,858.101 95.604,860.103 97.522,860.528 97.115,862.271 93.25,861.289 95.65,852.039 99.418,853.013 "/>
			<polyline points="110.372,855.979 109.955,857.618 108.426,857.285 106.554,864.727 104.58,864.246 106.604,856.841 105.094,856.497 105.53,854.7 110.372,855.979 "/>
		</g>
	</g>
	<g style="fill:#dddddd;stroke:#111111;stroke-width:1.5">
		<path style="fill:#333333" d="m 160.15448,161.085 c 22.35,0 44.33779,-2.80599 65.23946,-8.1684 7.09787,-1.87001 12.33352,-8.20447 12.33352,-16.00188 -0.12382,-31.59333 -1.69159,-62.956553 -4.67114,-93.970733 -0.4675,-4.57656 -4.03008,-8.23128 -8.53645,-8.98202 -21.12298,-2.59686 -42.72274,-4.0023 -64.36539,-4.0023 -22.06239,0 -43.54709,1.40544 -64.674463,4.0023 -4.542441,0.75074 -8.008014,4.40546 -8.552055,8.98202 -2.89862,31.01418 -4.457617,62.377403 -4.59509,93.970733 0,7.79741 5.249792,14.13187 12.338401,16.00188 20.914817,5.36241 42.663747,8.1684 65.483207,8.1684 z"/>
		<rect style="fill:#999999" x="95.457108" y="43.915081" width="129.20267" height="86.105049"/>
		<circle style="fill:#00ff00" cx="254.50348" cy="41.295502" r="3.5625916"/>
		<circle cx="254.65697" cy="86.030037" r="9.93997"/>
		<circle cx="281.38998" cy="76.77803" r="9.93997"/>
		<g class="straight-button">
			<circle id="button-cr" cx="281.38998" cy="76.77803" r="9.93997"/>
			<circle id="button-sq" cx="254.65697" cy="86.030037" r="9.93997"/>
		</g>
	</g>
	<g style="fill:#333333">
		<path d="m 280.32285,72.014183 -2.10985,9.32082 1.7847,0 0.32515,-1.44151 1.90659,0 0.33685,1.44151 1.94655,0 -2.22052,-9.32082 -1.96947,0 m 1.61994,6.56991 -1.30599,0 0.40657,-2.61588 0.1989,-1.40056 0.0297,0 0.19841,1.40056 0.47238,2.61588"/>
		<path d="m 255.4944,84.037223 c 0,0.71369 -0.38804,1.18851 -1.03641,1.18851 l 0,-2.23223 c 0.67079,-0.0541 1.03641,0.51528 1.03641,1.04372 m 0.10188,3.97549 c 0,0.71857 -0.42704,1.17437 -1.13829,1.14756 l 0,-2.66073 c 0.69809,-0.0322 1.13829,0.50504 1.13829,1.51317 m -1.18801,2.69632 c 1.63163,0 3.05656,-0.77658 3.05656,-2.47012 0,-1.0988 -0.4246,-1.96556 -1.19727,-2.30876 0.68443,-0.46555 1.00716,-1.08467 1.00716,-1.91974 0,-0.63715 -0.34515,-1.74424 -0.97986,-2.24538 -0.60108,-0.44703 -1.1885,-0.46556 -1.87343,-0.46556 l -1.79543,0 0,9.41053 1.78227,0"/>
	</g>
	<g style="fill:#dddddd;stroke-width:0">
		<circle cx="71.764" cy="122.063" r="3.5"/>
		<circle cx="71.769997" cy="138.489" r="3.5"/>
		<g class="straight-button">
			<circle id="button-st" cx="71.764" cy="122.063" r="3.5"/>
			<circle id="button-se" cx="71.769997" cy="138.489" r="3.5"/>
		</g>
	</g>
	<path style="fill:#dddddd;stroke:#222222;stroke-width:1.5" d="m 47.861893,61.512037 c -0.671275,0 -1.308426,0.27153 -1.757405,0.70101 -0.41973,0.39633 -0.684438,0.9706 -0.684438,1.69355 l 0,10.10179 c 0,0.21254 -0.0741,0.43825 -0.184759,0.565 -0.124798,0.15843 -0.287132,0.25349 -0.476767,0.25349 l -10.201724,0 c -0.648363,0 -1.248952,0.33004 -1.68282,0.77268 -0.462629,0.37878 -0.726848,1.00277 -0.726848,1.63942 l 0,8.40777 c 0,0.62301 0.264219,1.11148 0.726848,1.54437 0.433868,0.46116 1.034457,0.92233 1.68282,0.92233 l 10.201724,0 c 0.189635,0 0.33832,0.1404 0.476767,0.28518 0.110661,0.13065 0.184759,0.30176 0.184759,0.47823 l 0,10.21488 c 0,0.53283 0.264708,1.097843 0.684438,1.545353 0.449466,0.46019 1.086617,0.70882 1.757405,0.70882 l 8.405322,0 c 0.639589,0 1.273814,-0.24863 1.734981,-0.70882 0.41388,-0.44751 0.6781,-1.012523 0.6781,-1.545353 l 0,-10.21488 c 0,-0.17647 0.0585,-0.34807 0.182809,-0.47823 0.113098,-0.14478 0.273483,-0.28518 0.449467,-0.28518 l 10.214887,0 c 0.609851,0 1.248951,-0.46068 1.698418,-0.92233 0.456779,-0.43289 0.742937,-0.92136 0.742937,-1.54437 l 0,-8.40777 c 0,-0.63714 -0.286645,-1.26064 -0.742937,-1.63942 -0.449954,-0.44264 -1.088567,-0.77268 -1.698418,-0.77268 l -10.214887,0 c -0.175984,0 -0.335881,-0.0946 -0.449467,-0.24423 -0.12431,-0.13552 -0.182809,-0.36172 -0.182809,-0.57426 l 0,-10.10179 c 0,-0.72247 -0.26422,-1.29673 -0.6781,-1.69355 -0.460679,-0.42996 -1.095392,-0.70101 -1.734981,-0.70101 l -8.405322,0 z"/>
	<g style="fill:#999999">
		<path d="m 55.245922,71.252597 c 0.03607,0.12675 0.06338,0.27982 0.03607,0.4246 -0.02291,0.12675 -0.09701,0.26227 -0.198409,0.34807 -0.111148,0.0765 -0.234483,0.11213 -0.375368,0.11213 l -5.375565,0 c -0.133086,0 -0.271046,-0.0356 -0.397306,-0.11213 -0.101886,-0.0858 -0.147223,-0.22132 -0.198897,-0.34807 -0.01316,-0.14478 0,-0.29785 0.06581,-0.4246 l 2.656339,-5.21371 c 0.07215,-0.13504 0.212545,-0.24814 0.359281,-0.29787 0.139909,-0.0497 0.311506,-0.0497 0.449466,0 0.133085,0.0503 0.264221,0.16283 0.336369,0.29787 l 2.642204,5.21371"/>
		<path d="m 48.801776,91.569267 2.656338,5.24053 c 0.07215,0.10872 0.212546,0.19841 0.359281,0.23936 0.13991,0.0448 0.311506,0.0448 0.449467,0 0.133085,-0.041 0.26422,-0.13113 0.336368,-0.23936 l 2.642692,-5.24053 c 0.03607,-0.11261 0.06338,-0.24861 0.03607,-0.38365 -0.02291,-0.14089 -0.09701,-0.27593 -0.198409,-0.36172 -0.111148,-0.0902 -0.234483,-0.14478 -0.375368,-0.14478 l -5.375565,0 c -0.133086,0 -0.271046,0.0546 -0.397306,0.14478 -0.101886,0.0858 -0.147223,0.22083 -0.198897,0.36172 -0.01365,0.13504 -4.87e-4,0.27055 0.06533,0.38365"/>
		<path d="m 41.86624,78.033107 c 0.120411,-0.0585 0.287133,-0.0858 0.420705,-0.0497 0.139422,0.0277 0.26422,0.0995 0.374881,0.20817 0.07897,0.1126 0.111148,0.30711 0.111148,0.48749 l 0,5.57104 c 0,0.14966 -0.03169,0.29396 -0.111148,0.40267 -0.110661,0.0576 -0.234971,0.0576 -0.374881,0.0576 -0.133572,0.006 -0.300294,0 -0.420705,0 l -5.226879,-2.73726 c -0.139909,-0.0683 -0.259833,-0.19402 -0.300294,-0.33881 -0.06142,-0.13942 -0.06142,-0.28908 0,-0.42899 0.04046,-0.13503 0.160385,-0.26178 0.300294,-0.33003 l 5.226879,-2.84207"/>
		<path d="m 67.43076,80.875177 c 0.154047,0.0683 0.251545,0.19451 0.311994,0.33004 0.03607,0.1399 0.03607,0.28956 0,0.42899 -0.06045,0.14479 -0.15746,0.27104 -0.311994,0.3388 l -5.235654,2.73727 c -0.11066,0 -0.27397,0.006 -0.411442,0 -0.162822,0 -0.287133,0 -0.375368,-0.0576 -0.09652,-0.1092 -0.13991,-0.2535 -0.13991,-0.40267 l 0,-5.57105 c 0,-0.18037 0.04339,-0.37488 0.13991,-0.48749 0.08824,-0.10871 0.212546,-0.18037 0.375368,-0.20816 0.137472,-0.0361 0.300782,-0.009 0.411442,0.0497 l 5.235654,2.84207"/>
		<g class="straight-button">
			<path id="button-du" d="m 55.245922,71.252597 c 0.03607,0.12675 0.06338,0.27982 0.03607,0.4246 -0.02291,0.12675 -0.09701,0.26227 -0.198409,0.34807 -0.111148,0.0765 -0.234483,0.11213 -0.375368,0.11213 l -5.375565,0 c -0.133086,0 -0.271046,-0.0356 -0.397306,-0.11213 -0.101886,-0.0858 -0.147223,-0.22132 -0.198897,-0.34807 -0.01316,-0.14478 0,-0.29785 0.06581,-0.4246 l 2.656339,-5.21371 c 0.07215,-0.13504 0.212545,-0.24814 0.359281,-0.29787 0.139909,-0.0497 0.311506,-0.0497 0.449466,0 0.133085,0.0503 0.264221,0.16283 0.336369,0.29787 l 2.642204,5.21371"/>
			<path id="button-dd" d="m 48.801776,91.569267 2.656338,5.24053 c 0.07215,0.10872 0.212546,0.19841 0.359281,0.23936 0.13991,0.0448 0.311506,0.0448 0.449467,0 0.133085,-0.041 0.26422,-0.13113 0.336368,-0.23936 l 2.642692,-5.24053 c 0.03607,-0.11261 0.06338,-0.24861 0.03607,-0.38365 -0.02291,-0.14089 -0.09701,-0.27593 -0.198409,-0.36172 -0.111148,-0.0902 -0.234483,-0.14478 -0.375368,-0.14478 l -5.375565,0 c -0.133086,0 -0.271046,0.0546 -0.397306,0.14478 -0.101886,0.0858 -0.147223,0.22083 -0.198897,0.36172 -0.01365,0.13504 -4.87e-4,0.27055 0.06533,0.38365"/>
			<path id="button-dl" d="m 41.86624,78.033107 c 0.120411,-0.0585 0.287133,-0.0858 0.420705,-0.0497 0.139422,0.0277 0.26422,0.0995 0.374881,0.20817 0.07897,0.1126 0.111148,0.30711 0.111148,0.48749 l 0,5.57104 c 0,0.14966 -0.03169,0.29396 -0.111148,0.40267 -0.110661,0.0576 -0.234971,0.0576 -0.374881,0.0576 -0.133572,0.006 -0.300294,0 -0.420705,0 l -5.226879,-2.73726 c -0.139909,-0.0683 -0.259833,-0.19402 -0.300294,-0.33881 -0.06142,-0.13942 -0.06142,-0.28908 0,-0.42899 0.04046,-0.13503 0.160385,-0.26178 0.300294,-0.33003 l 5.226879,-2.84207"/>
			<path id="button-dr" d="m 67.43076,80.875177 c 0.154047,0.0683 0.251545,0.19451 0.311994,0.33004 0.03607,0.1399 0.03607,0.28956 0,0.42899 -0.06045,0.14479 -0.15746,0.27104 -0.311994,0.3388 l -5.235654,2.73727 c -0.11066,0 -0.27397,0.006 -0.411442,0 -0.162822,0 -0.287133,0 -0.375368,-0.0576 -0.09652,-0.1092 -0.13991,-0.2535 -0.13991,-0.40267 l 0,-5.57105 c 0,-0.18037 0.04339,-0.37488 0.13991,-0.48749 0.08824,-0.10871 0.212546,-0.18037 0.375368,-0.20816 0.137472,-0.0361 0.300782,-0.009 0.411442,0.0497 l 5.235654,2.84207"/>
		</g>
	</g>
	<circle style="fill:#999999;stroke-width:0" cx="52.017502" cy="81.443504" r="4.0895"/>
</svg>
