<?xml version="1.0" encoding="UTF-8"?>
<svg xmlns="http://www.w3.org/2000/svg" width="198.243" height="320" version="1.0">
	<path d="m 188.24267,17.725354 c 0,-4.266778 -3.45892,-7.725704 -7.72652,-7.725704 l -162.790446,0 C 13.458926,9.99965 10,13.458576 10,17.725354 l 0,265.888036 0,0 0,0 c 0,6.96566 3.561144,13.09709 8.958915,16.68132 l -8.24e-4,0.002 c 0,0 10.009122,9.70329 81.319379,9.70329 44.88361,0 64.80211,-4.10438 73.40326,-7.14455 8.37775,-2.38975 14.51331,-10.09732 14.51331,-19.24171 l 0,0 0.0478,0 0,-265.888036 z" style="fill:#00aabb"/>
	<g style="fill:#333333">
		<path d="m 65.173001,198.25887 -11.285199,0 0,-11.2852 c 0,-1.24063 -1.005693,-2.24633 -2.246323,-2.24633 l -11.121981,0 c -1.239805,0 -2.245499,1.0057 -2.245499,2.24633 l 0,11.2852 -11.285199,0 c -1.24063,0 -2.246323,1.00487 -2.246323,2.24632 l 0,11.12116 c 0,1.24063 1.005693,2.24632 2.246323,2.24632 l 11.285199,0 0,11.28437 c 0,1.24146 1.005694,2.24715 2.245499,2.24715 l 11.121981,0 c 1.24063,0 2.246323,-1.00569 2.246323,-2.24715 l 0,-11.28437 11.285199,0 c 1.24063,0 2.246324,-1.00569 2.246324,-2.24632 l 0,-11.12116 c 0,-1.24145 -1.005694,-2.24632 -2.246324,-2.24632 z"/>
		<circle cx="129.81024" cy="211.42767" r="11.039546"/>
		<circle cx="162.44003" cy="201.36992" r="11.04037"/>
		<path d="m 90.090293,254.70712 -10.576268,0 c -1.459904,0 -2.643655,1.18375 -2.643655,2.64448 0,1.4599 1.183751,2.64365 2.643655,2.64365 l 10.577092,0 c 1.459904,0 2.644479,-1.18457 2.644479,-2.64365 -8.24e-4,-1.46073 -1.184575,-2.64448 -2.645303,-2.64448 z"/>
		<path d="m 116.80382,254.70712 -10.57627,0 c -1.4599,0 -2.64448,1.18375 -2.64448,2.64448 0,1.4599 1.18458,2.64365 2.64448,2.64365 l 10.57627,0 c 1.4599,0 2.64448,-1.18457 2.64448,-2.64365 0,-1.46073 -1.18375,-2.64448 -2.64448,-2.64448 z"/>
		<g fill-opacity="0" style="fill:#ff0000">
			<circle id="button-sq" cx="129.81024" cy="211.42767" r="11.039546"/>
			<circle id="button-cr" cx="162.44003" cy="201.36992" r="11.04037"/>
			<path id="button-se" d="m 90.090293,254.70712 -10.576268,0 c -1.459904,0 -2.643655,1.18375 -2.643655,2.64448 0,1.4599 1.183751,2.64365 2.643655,2.64365 l 10.577092,0 c 1.459904,0 2.644479,-1.18457 2.644479,-2.64365 -8.24e-4,-1.46073 -1.184575,-2.64448 -2.645303,-2.64448 z"/>
			<path id="button-st" d="m 116.80382,254.70712 -10.57627,0 c -1.4599,0 -2.64448,1.18375 -2.64448,2.64448 0,1.4599 1.18458,2.64365 2.64448,2.64365 l 10.57627,0 c 1.4599,0 2.64448,-1.18457 2.64448,-2.64365 0,-1.46073 -1.18375,-2.64448 -2.64448,-2.64448 z"/>
		</g>
	</g>
	<g style="fill:#666666">
		<circle cx="46.121704" cy="206.06537" r="4.3071704"/>
		<path d="m 42.158284,194.56995 0.0016,0.002 c -0.02803,0.0783 -0.04616,0.16075 -0.04616,0.24895 0,0.40558 0.328911,0.73614 0.736134,0.73614 l 6.542778,0 c 0.406399,0 0.736135,-0.32974 0.736135,-0.73614 0,-0.0989 -0.01978,-0.19207 -0.05523,-0.2778 l 0,-0.002 -8.24e-4,-0.002 c -0.01896,-0.0462 -0.04287,-0.0898 -0.07007,-0.13107 l -3.202557,-6.00448 c -0.111285,-0.26544 -0.373425,-0.45339 -0.679255,-0.45339 -0.287694,0 -0.534172,0.16734 -0.655349,0.40805 l -8.25e-4,0 -3.214097,6.03663 c -0.03545,0.0503 -0.0643,0.10387 -0.08573,0.16157 l -0.0066,0.0124 z"/>
		<path d="m 50.085127,217.56159 -0.0016,-0.002 c 0.02803,-0.0775 0.04616,-0.16074 0.04616,-0.24812 0,-0.4064 -0.329736,-0.73696 -0.736135,-0.73696 l -6.542777,0 c -0.406399,0 -0.736135,0.32973 -0.736135,0.73696 0,0.0981 0.01978,0.19124 0.05523,0.27697 l 0,0.002 8.24e-4,0.002 c 0.01896,0.0462 0.04287,0.089 0.07007,0.13024 l 3.202556,6.00531 c 0.111286,0.26544 0.373426,0.45256 0.679256,0.45256 0.288518,0 0.534171,-0.16651 0.655349,-0.40805 l 0,0 3.214922,-6.03663 c 0.03545,-0.0503 0.0643,-0.10387 0.08573,-0.16157 l 0.0066,-0.0124 z"/>
		<path d="m 34.6263,210.0296 0.0025,-0.002 c 0.07749,0.028 0.160746,0.0462 0.248126,0.0462 0.406399,0 0.736134,-0.32891 0.736134,-0.73613 l 0,-6.54361 c 0,-0.40557 -0.329735,-0.73613 -0.736134,-0.73613 -0.09892,0 -0.192071,0.0198 -0.277802,0.0552 l -8.25e-4,-8.2e-4 -0.0025,8.2e-4 c -0.04616,0.019 -0.08985,0.0429 -0.13107,0.0701 l -6.005308,3.20256 c -0.265438,0.11128 -0.451738,0.37425 -0.451738,0.67925 0,0.28852 0.166516,0.53417 0.407223,0.65535 l 0,8.2e-4 6.037458,3.21493 c 0.04946,0.0346 0.103867,0.0635 0.161571,0.0857 l 0.01236,0.008 z"/>
		<path d="m 57.617935,202.10276 -0.0025,0.002 c -0.07831,-0.028 -0.160746,-0.0462 -0.24895,-0.0462 -0.406399,0 -0.736135,0.32974 -0.736135,0.73614 l 0,6.5436 c 0,0.4064 0.329736,0.73614 0.736135,0.73614 0.09892,0 0.192071,-0.0198 0.277802,-0.0552 l 0,8.3e-4 0.0025,-0.002 c 0.04616,-0.019 0.08985,-0.042 0.13107,-0.0692 l 6.005309,-3.20339 c 0.265437,-0.11128 0.452562,-0.3726 0.452562,-0.67843 0,-0.28851 -0.166517,-0.53417 -0.408048,-0.65617 l 0,0 -6.036633,-3.2141 c -0.05029,-0.0363 -0.103867,-0.0643 -0.161571,-0.0857 l -0.01154,-0.008 z"/>
		<g fill-opacity="0" style="fill:#ff0000">
			<path id="button-du" d="m 42.158284,194.56995 0.0016,0.002 c -0.02803,0.0783 -0.04616,0.16075 -0.04616,0.24895 0,0.40558 0.328911,0.73614 0.736134,0.73614 l 6.542778,0 c 0.406399,0 0.736135,-0.32974 0.736135,-0.73614 0,-0.0989 -0.01978,-0.19207 -0.05523,-0.2778 l 0,-0.002 -8.24e-4,-0.002 c -0.01896,-0.0462 -0.04287,-0.0898 -0.07007,-0.13107 l -3.202557,-6.00448 c -0.111285,-0.26544 -0.373425,-0.45339 -0.679255,-0.45339 -0.287694,0 -0.534172,0.16734 -0.655349,0.40805 l -8.25e-4,0 -3.214097,6.03663 c -0.03545,0.0503 -0.0643,0.10387 -0.08573,0.16157 l -0.0066,0.0124 z"/>
			<path id="button-dd" d="m 50.085127,217.56159 -0.0016,-0.002 c 0.02803,-0.0775 0.04616,-0.16074 0.04616,-0.24812 0,-0.4064 -0.329736,-0.73696 -0.736135,-0.73696 l -6.542777,0 c -0.406399,0 -0.736135,0.32973 -0.736135,0.73696 0,0.0981 0.01978,0.19124 0.05523,0.27697 l 0,0.002 8.24e-4,0.002 c 0.01896,0.0462 0.04287,0.089 0.07007,0.13024 l 3.202556,6.00531 c 0.111286,0.26544 0.373426,0.45256 0.679256,0.45256 0.288518,0 0.534171,-0.16651 0.655349,-0.40805 l 0,0 3.214922,-6.03663 c 0.03545,-0.0503 0.0643,-0.10387 0.08573,-0.16157 l 0.0066,-0.0124 z"/>
			<path id="button-dl" d="m 34.6263,210.0296 0.0025,-0.002 c 0.07749,0.028 0.160746,0.0462 0.248126,0.0462 0.406399,0 0.736134,-0.32891 0.736134,-0.73613 l 0,-6.54361 c 0,-0.40557 -0.329735,-0.73613 -0.736134,-0.73613 -0.09892,0 -0.192071,0.0198 -0.277802,0.0552 l -8.25e-4,-8.2e-4 -0.0025,8.2e-4 c -0.04616,0.019 -0.08985,0.0429 -0.13107,0.0701 l -6.005308,3.20256 c -0.265438,0.11128 -0.451738,0.37425 -0.451738,0.67925 0,0.28852 0.166516,0.53417 0.407223,0.65535 l 0,8.2e-4 6.037458,3.21493 c 0.04946,0.0346 0.103867,0.0635 0.161571,0.0857 l 0.01236,0.008 z"/>
			<path id="button-dr" d="m 57.617935,202.10276 -0.0025,0.002 c -0.07831,-0.028 -0.160746,-0.0462 -0.24895,-0.0462 -0.406399,0 -0.736135,0.32974 -0.736135,0.73614 l 0,6.5436 c 0,0.4064 0.329736,0.73614 0.736135,0.73614 0.09892,0 0.192071,-0.0198 0.277802,-0.0552 l 0,8.3e-4 0.0025,-0.002 c 0.04616,-0.019 0.08985,-0.042 0.13107,-0.0692 l 6.005309,-3.20339 c 0.265437,-0.11128 0.452562,-0.3726 0.452562,-0.67843 0,-0.28851 -0.166517,-0.53417 -0.408048,-0.65617 l 0,0 -6.036633,-3.2141 c -0.05029,-0.0363 -0.103867,-0.0643 -0.161571,-0.0857 l -0.01154,-0.008 z"/>
		</g>
		<path d="m 130.14822,216.61491 -2.69889,0 0,-10.15667 2.5538,0 c 1.61076,0 2.81512,0.79796 2.81512,2.68487 0,0.82681 -0.37672,1.72616 -1.18952,2.10371 0.85649,0.30501 1.36346,1.20436 1.36346,2.30732 -8.3e-4,2.03035 -1.1615,3.06077 -2.84397,3.06077 z m -0.10222,-8.77838 -1.18952,0 0,2.75741 1.16067,0 c 0.75509,0 1.34944,-0.43525 1.34944,-1.40714 -8.3e-4,-1.00157 -0.55231,-1.35027 -1.32059,-1.35027 z m -0.0585,4.12087 -1.13182,0 0,3.27922 1.27773,0 c 0.85566,0 1.40714,-0.46328 1.40714,-1.68248 0,-1.13264 -0.66689,-1.59674 -1.55305,-1.59674 z"/>
		<path d="m 164.29497,206.30087 -0.59517,-2.68405 -2.20593,0 -0.58034,2.68405 -1.50854,0 2.49528,-10.15586 1.46567,0 2.48126,10.15586 -1.55223,0 z m -1.26206,-5.74564 c -0.14509,-0.66772 -0.36271,-1.8424 -0.43525,-2.21995 -0.0725,0.37755 -0.29017,1.53822 -0.43443,2.21995 l -0.37755,1.71132 1.6256,0 -0.37837,-1.71132 z"/>
	</g>
	<path style="fill:#010101" d="m 171.70479,20.924613 -145.564235,0 c -2.94866,0 -5.339243,2.389759 -5.339243,5.339243 l 0,121.684784 c 0,2.811 2.173782,5.10925 4.930371,5.31863 l 0,0.0198 c 0,0 24.259469,4.52892 73.190576,4.52892 48.931111,0 73.191401,-4.52892 73.191401,-4.52892 l 0,-0.0198 c 2.75659,-0.20938 4.92955,-2.50763 4.92955,-5.31863 l 0,-121.684784 c 8.2e-4,-2.949484 -2.38976,-5.339243 -5.33842,-5.339243 z"/>
	<rect style="fill:#dddddd" x="47.756367" y="38.694061" width="102.49417" height="88.102043"/>
	<g style="fill:#666666">
		<path d="m 26.140555,69.178108 0.976842,0 c 0.151678,0 0.296762,0.0148 0.434426,0.0445 0.137665,0.0297 0.260492,0.0791 0.367656,0.14838 0.107164,0.0692 0.192071,0.16239 0.256369,0.27863 0.0643,0.11623 0.0948,0.25966 0.0948,0.4303 0,0.17971 -0.03462,0.32891 -0.102218,0.44679 -0.06842,0.11788 -0.1558,0.21103 -0.262964,0.27945 -0.10634,0.0684 -0.223396,0.11623 -0.351169,0.14426 -0.126948,0.028 -0.248126,0.042 -0.362709,0.042 l -0.660295,0 0,1.47804 -0.390737,0 0,-3.29241 z m 0.390737,1.45084 0.660295,0 c 0.195369,0 0.354466,-0.0437 0.476468,-0.13272 0.122002,-0.0882 0.183828,-0.22504 0.183828,-0.41134 0,-0.1863 -0.06183,-0.32397 -0.183828,-0.41217 -0.122002,-0.0882 -0.281099,-0.13272 -0.476468,-0.13272 l -0.660295,0 0,1.08895 z"/>
		<path d="m 30.334791,72.553778 c -0.251423,0 -0.480589,-0.0437 -0.689971,-0.13024 -0.209382,-0.0866 -0.390737,-0.20691 -0.544064,-0.36024 -0.153327,-0.15415 -0.272856,-0.33633 -0.358587,-0.54901 -0.08573,-0.21185 -0.127773,-0.44267 -0.127773,-0.68997 0,-0.2473 0.04204,-0.47894 0.127773,-0.6908 0.08573,-0.21185 0.20526,-0.39486 0.358587,-0.54901 0.153327,-0.15415 0.334682,-0.27368 0.544064,-0.36106 0.209382,-0.0865 0.439372,-0.13024 0.689971,-0.13024 0.2506,0 0.481414,0.0437 0.690796,0.13024 0.209383,0.0866 0.390737,0.20691 0.544064,0.36106 0.153327,0.15333 0.272856,0.33633 0.357763,0.54901 0.08573,0.21186 0.127773,0.44267 0.127773,0.6908 0,0.24812 -0.04287,0.47812 -0.127773,0.68997 -0.08491,0.21268 -0.204436,0.39486 -0.357763,0.54901 -0.154151,0.15333 -0.334681,0.27368 -0.544064,0.36024 -0.209382,0.0874 -0.439372,0.13024 -0.690796,0.13024 z m 0,-0.36271 c 0.192071,0 0.36848,-0.0354 0.527577,-0.10716 0.159922,-0.0709 0.297587,-0.16899 0.41217,-0.29264 0.114583,-0.12448 0.203612,-0.26874 0.267086,-0.43525 0.06347,-0.16569 0.0948,-0.34293 0.0948,-0.53253 0,-0.18959 -0.03132,-0.36683 -0.0948,-0.53252 -0.06347,-0.16569 -0.153327,-0.31077 -0.267086,-0.43525 -0.114583,-0.12365 -0.252248,-0.22175 -0.41217,-0.29264 -0.159097,-0.0709 -0.335506,-0.10716 -0.527577,-0.10716 -0.19207,0 -0.367655,0.0354 -0.527576,0.10716 -0.159922,0.0717 -0.296762,0.16899 -0.411345,0.29264 -0.114584,0.12365 -0.203612,0.26956 -0.267086,0.43525 -0.06347,0.16569 -0.09562,0.34375 -0.09562,0.53252 0,0.18878 0.03215,0.36601 0.09562,0.53253 0.06347,0.16651 0.152502,0.31077 0.267086,0.43525 0.114583,0.12365 0.251423,0.22175 0.411345,0.29264 0.159921,0.0709 0.335506,0.10716 0.527576,0.10716 z"/>
		<path d="m 32.208514,69.178108 0.431953,0 0.749324,2.73434 0.0091,0 0.808677,-2.73434 0.436899,0 0.804555,2.73434 0.0091,0 0.762513,-2.73434 0.409697,0 -0.96695,3.29241 -0.422061,0 -0.813623,-2.78956 -0.0091,0 -0.818568,2.78956 -0.427832,0 -0.963652,-3.29241 z"/>
		<path d="m 37.067991,69.178108 2.069915,0 0,0.36271 -1.679178,0 0,1.03208 1.567068,0 0,0.3627 -1.567068,0 0,1.17221 1.762437,0 0,0.36189 -2.153174,0 0,-3.29159 z"/>
		<path d="m 39.826229,69.178108 0.84165,0 c 0.158273,0 0.314898,0.009 0.471522,0.028 0.156625,0.019 0.297587,0.0593 0.421237,0.12118 0.123651,0.0618 0.224221,0.1525 0.302533,0.27203 0.07749,0.11953 0.116232,0.2811 0.116232,0.48636 0,0.24153 -0.07254,0.4369 -0.21845,0.58528 -0.145908,0.14921 -0.347047,0.24318 -0.604241,0.28357 l 0.934801,1.51596 -0.478941,0 -0.892759,-1.47804 -0.502023,0 0,1.47804 -0.390736,0 0,-3.29241 z m 0.389913,1.45084 0.348695,0 c 0.107988,0 0.220923,-0.002 0.337155,-0.009 0.116231,-0.007 0.223395,-0.0264 0.320667,-0.061 0.0981,-0.0346 0.178058,-0.0874 0.241532,-0.15992 0.06347,-0.0725 0.09562,-0.17723 0.09562,-0.31407 0,-0.11788 -0.02308,-0.21268 -0.06924,-0.28358 -0.04616,-0.0709 -0.107989,-0.12612 -0.183828,-0.16486 -0.07584,-0.0388 -0.160746,-0.0643 -0.255545,-0.0767 -0.09397,-0.0132 -0.189598,-0.019 -0.286046,-0.019 l -0.549009,0 0,1.08813 z"/>
	</g>
	<circle style="fill:#ff0000" cx="27.367172" cy="63.554482" r="2.3988261"/>
	<g style="fill:#666666">
		<path d="m 40.988547,61.455708 c 0.460806,0.57539 0.736959,1.3041 0.736959,2.09876 0,0.79384 -0.276153,1.52338 -0.736959,2.09877 0.960355,-0.2168 1.67753,-1.07329 1.67753,-2.09877 -8.25e-4,-1.02547 -0.717999,-1.88196 -1.67753,-2.09876 z"/>
		<path d="m 36.756391,61.410368 c 0.481414,0.58281 0.770757,1.32883 0.770757,2.1441 0,0.81445 -0.289343,1.5613 -0.770757,2.14329 1.097195,-0.0998 1.956981,-1.02054 1.956981,-2.14329 0,-1.12275 -0.859786,-2.04436 -1.956981,-2.1441 z"/>
		<path d="m 32.157405,61.400478 c -0.01814,0 -0.03627,0.002 -0.05523,0.002 0.485536,0.58363 0.777352,1.33296 0.777352,2.1507 0,0.81774 -0.291816,1.56707 -0.777352,2.1507 0.01896,0 0.03627,0.002 0.05523,0.002 1.188696,0 2.153173,-0.96365 2.153173,-2.15317 0,-1.18952 -0.963652,-2.15317 -2.153173,-2.15317 z"/>
	</g>
	<g style="fill:#010101">
		<circle cx="140.00237" cy="264.7822" r="1.3395507"/>
		<circle cx="150.19778" cy="263.36105" r="1.3395507"/>
		<circle cx="160.53581" cy="261.75687" r="1.3395507"/>
		<circle cx="170.87386" cy="259.76361" r="1.3395507"/>
		<circle cx="145.09926" cy="269.12317" r="1.3395507"/>
		<circle cx="155.3969" cy="267.64099" r="1.3395507"/>
		<circle cx="165.69453" cy="265.8934" r="1.3395507"/>
		<circle cx="145.09926" cy="258.93597" r="1.3395507"/>
		<circle cx="155.3969" cy="257.39282" r="1.3395507"/>
		<circle cx="165.69453" cy="255.76724" r="1.3395507"/>
		<circle cx="176.01196" cy="263.77731" r="1.3395507"/>
		<circle cx="140.00237" cy="274.9776" r="1.3395507"/>
		<circle cx="150.19778" cy="273.63889" r="1.3395507"/>
		<circle cx="160.53581" cy="271.89047" r="1.3395507"/>
		<circle cx="170.87386" cy="269.992" r="1.3395507"/>
		<circle cx="145.09926" cy="279.42657" r="1.3395507"/>
		<circle cx="155.29468" cy="277.83725" r="1.3395507"/>
		<circle cx="165.69453" cy="276.1564" r="1.3395507"/>
		<circle cx="176.01196" cy="273.99417" r="1.3395507"/>
		<circle cx="140.00237" cy="285.17303" r="1.3395507"/>
		<circle cx="150.19778" cy="283.8335" r="1.3395507"/>
		<circle cx="160.53581" cy="282.31012" r="1.3395507"/>
		<circle cx="170.87386" cy="280.23526" r="1.3395507"/>
		<circle cx="145.09926" cy="289.73822" r="1.3395507"/>
		<circle cx="155.29468" cy="288.2775" r="1.3395507"/>
		<circle cx="165.69453" cy="286.48785" r="1.3395507"/>
		<circle cx="176.01196" cy="284.33139" r="1.3395507"/>
		<circle cx="150.19778" cy="294.17233" r="1.3395507"/>
		<circle cx="160.53581" cy="292.54593" r="1.3395507"/>
		<circle cx="170.87386" cy="290.51227" r="1.3395507"/>
	</g>
</svg>
