<?xml version="1.0" encoding="UTF-8"?>
<svg xmlns="http://www.w3.org/2000/svg" width="320" height="230.97501" version="1.0">
	<g style="fill:#eeeeee;stroke:#9e9e9e;stroke-width:1.2">
		<ellipse cx="65.268288" cy="41.864235" rx="29.909283" ry="32.160503"/>
		<ellipse cx="255.59404" cy="41.942623" rx="29.909283" ry="32.160503"/>
		<g fill-opacity="0" style="fill:#ff0000">
			<ellipse id="button-l1" cx="65.268288" cy="41.864235" rx="29.909283" ry="32.160503"/>
			<ellipse id="button-r1" cx="255.59404" cy="41.942623" rx="29.909283" ry="32.160503"/>
		</g>
	</g>
	<g style="font-size:11px;font-family:KhmerUI-Bold" transform="scale(0.77336929,1.2930433)">
		<path d="m 76.819168,11.282339 1.084961,0 0,7.105957 3.904785,0 0,0.913086 -4.989746,0 0,-8.019043 z"/>
		<path d="m 338.09634,15.60224 q 0.34913,0.118164 0.67676,0.504882 0.33301,0.386719 0.66602,1.063477 l 1.10107,2.191406 -1.16553,0 -1.02587,-2.057129 q -0.39747,-0.805664 -0.77344,-1.068847 -0.37061,-0.263184 -1.01514,-0.263184 l -1.18164,0 0,3.38916 -1.08496,0 0,-8.019043 2.44922,0 q 1.375,0 2.05176,0.574707 0.67675,0.574707 0.67675,1.734864 0,0.757324 -0.35449,1.256836 -0.34912,0.499511 -1.02051,0.692871 z m -2.71777,-3.367676 0,2.84668 1.36426,0 q 0.78418,0 1.18164,-0.359864 0.40283,-0.365234 0.40283,-1.068847 0,-0.703614 -0.40283,-1.058106 -0.39746,-0.359863 -1.18164,-0.359863 l -1.36426,0 z"/>
	</g>
	<path style="fill:#490094" d="m 4875.807,533.154 c -9.153,-20.295 -141.297,-109.763 -312.959,-156.143 -171.663,-46.381 -446.049,-75.91 -470.474,-66.579 -24.426,9.331 -20.68,96.067 -20.68,96.067 l 755.056,236.362 c 0,10e-4 58.209,-89.412 49.057,-109.707 z" transform="matrix(0.07838787,0,0,0.07838787,-92.761656,-3.1684877)"/>
	<path id="button-r2" class="straight-button" d="m 4875.807,533.154 c -9.153,-20.295 -141.297,-109.763 -312.959,-156.143 -171.663,-46.381 -446.049,-75.91 -470.474,-66.579 -24.426,9.331 -20.68,96.067 -20.68,96.067 l 755.056,236.362 c 0,10e-4 58.209,-89.412 49.057,-109.707 z" transform="matrix(0.07838787,0,0,0.07838787,-92.761656,-3.1684877)"/>
	<g style="fill:#bababa;stroke:#9e9e9e;stroke-width:1.2">
		<path d="m 3228,136 c -767.991,0 -1504,388 -1504,388 l 460,1390 c 0,0 194.991,-457.373 1044,-457.373 779.869,0 1036,437.373 1036,437.373 L 4700,516 c 0,0 -719.978,-380 -1472,-380 z" transform="matrix(0.07838787,0,0,0.07838787,-92.761656,0.83151233)"/>
		<path d="m 16.030282,76.611575 c -2.268545,9.488146 -5.955048,60.317665 -4.537168,87.087825 1.417879,26.77016 3.970032,53.87928 20.984432,55.57363 17.01448,1.69428 18.148752,-20.33185 20.133846,-28.46452 1.984938,-8.13274 12.193704,-54.55701 12.193704,-54.55701 0,0 -46.506191,-69.12815 -48.774814,-59.639925 z"/>
		<path d="m 303.82218,76.925126 c -2.32405,-9.488224 -49.9682,59.639924 -49.9682,59.639924 0,0 10.45844,46.42427 12.49205,54.55694 2.03354,8.13274 3.19572,30.15887 20.62644,28.46459 17.43072,-1.69435 20.04542,-28.80339 21.49787,-55.57363 1.45261,-26.77016 -2.32412,-77.599678 -4.64816,-87.087824 z"/>
		<path d="M 145.85102,139.73482 C 137.14393,125.0628 131.3056,124.44699 125.47017,114.96425 117.94494,102.73574 125.35259,75.566272 110.4197,55.38947 96.955881,37.197605 65.655996,26.142328 38.302863,44.415168 9.902859,63.387306 9.769678,96.778265 24.820149,119.35397 c 14.762239,22.1434 34.070112,20.18511 44.52431,31.35515 8.498813,9.08076 8.76737,20.70553 15.364023,27.90608 12.134364,13.2452 31.374668,18.97825 50.481788,5.33038 17.55888,-12.54206 16.3445,-34.63318 10.66075,-44.21076 z"/>
		<path d="m 281.38365,44.415168 c -27.35314,-18.27284 -58.65302,-7.217563 -72.11684,10.974302 -14.93289,20.176802 -7.52524,47.34627 -15.05047,59.57478 -5.83551,9.48274 -11.67384,10.09855 -20.38085,24.77057 -5.68375,9.57758 -6.89813,31.6687 10.66075,44.21076 19.10712,13.64787 38.34742,7.91482 50.48179,-5.33038 6.59665,-7.20055 6.86521,-18.82532 15.36402,-27.90608 10.4542,-11.17004 29.76199,-9.21175 44.52431,-31.35515 15.05047,-22.575705 14.91729,-55.966664 -13.48271,-74.938802 z"/>
	</g>
	<ellipse style="fill:#bababa;stroke:#9e9e9e;stroke-width:1.2" cx="69.027847" cy="87.99733" rx="36.306438" ry="35.935902"/>
	<path style="fill:#d1d1d1;stroke:#111111;stroke-width:1.2" d="m 85.259784,72.787658 c -1.255304,-1.255304 -13.07008,-6.70765 -16.018562,-6.70765 -2.948481,0 -14.429168,5.145379 -15.977094,6.693226 -1.623334,1.623335 -6.641177,13.695772 -6.717527,16.053601 -0.07463,2.302722 4.805726,14.190325 6.615074,15.999595 1.989249,1.98925 13.049386,6.49725 15.997789,6.57102 2.948403,0.0736 14.051496,-4.87408 15.941192,-6.5432 1.917367,-1.69349 6.787684,-13.766395 6.787684,-16.056184 0,-2.285006 -5.230744,-14.612674 -6.628556,-16.010408 z"/>
	<ellipse id="button-l3-shadow" style="fill:#9e9e9e;stroke:#111111;stroke-width:1.2" cx="69.160088" cy="89.009003" rx="18.365259" ry="17.650909"/>
	<ellipse id="button-l3" class="straight-button" style="stroke:#111111;stroke-width:1.2" cx="69.160088" cy="89.009003" rx="18.365259" ry="17.650909"/>
<!--
	<g style="fill:#eeeeee;stroke:#9e9e9e;stroke-width:1.2">
		<ellipse cx="69.036072" cy="89.084496" rx="15.632814" ry="14.761612"/>
		<ellipse cx="69.022522" cy="89.496895" rx="9.7160978" ry="9.1746731"/>
		<ellipse cx="69.191055" cy="89.490311" rx="3.3015404" ry="3.117564"/>
	</g>
-->
	<path style="fill:#ffe400;stroke:#111111;stroke-width:1.2" d="m 223.06566,139.33896 c -1.2553,-1.2553 -13.07008,-6.70765 -16.01856,-6.70765 -2.94848,0 -14.42917,5.14538 -15.9771,6.69323 -1.62333,1.62333 -6.64117,13.69577 -6.71752,16.0536 -0.0746,2.30272 4.80572,14.19032 6.61507,15.99959 1.98925,1.98925 13.04939,6.49725 15.99779,6.57102 2.9484,0.0736 14.05157,-4.87408 15.94119,-6.54319 1.91737,-1.6935 6.78769,-13.7664 6.78769,-16.05619 0,-2.28501 -5.23075,-14.61268 -6.62856,-16.01041 z"/>
	<circle id="button-r3-shadow" style="fill:#ffe400;stroke:#5f5500;stroke-width:1.2;" cx="206.99356" cy="155.72594" r="12.228508"/>
	<circle id="button-r3" class="straight-button" style="stroke:#5f5500;stroke-width:1.2;" cx="206.99356" cy="155.72594" r="12.228508"/>
<!--
	<path d="m 244.0304,130.42061 0,1.14404 q -0.54786,-0.51025 -1.1709,-0.76269 -0.61768,-0.25245 -1.31592,-0.25245 -1.375,0 -2.10547,0.84327 -0.73047,0.83789 -0.73047,2.42773 0,1.58447 0.73047,2.42774 0.73047,0.83789 2.10547,0.83789 0.69824,0 1.31592,-0.25245 0.62304,-0.25244 1.1709,-0.76269 l 0,1.1333 q -0.56934,0.38672 -1.2085,0.58008 -0.63379,0.19336 -1.34277,0.19336 -1.8208,0 -2.86817,-1.11182 -1.04736,-1.11719 -1.04736,-3.04541 0,-1.93359 1.04736,-3.04541 1.04737,-1.11719 2.86817,-1.11719 0.71972,0 1.35351,0.19336 0.63916,0.18799 1.19776,0.56934 z"/>
-->
	<ellipse style="fill:#bababa;stroke:#9e9e9e;stroke-width:1.2" cx="113.1208" cy="155.79485" rx="24.476454" ry="24.226633"/>
	<polygon points="2396.055,2047.527 2554.116,2048.664 2554.279,2211.444 2698.174,2211.444 2699.645,2046.391 2860.153,2045.253 2860.153,1910.992 2700.822,1910.992 2700.822,1747.592 2554.194,1747.592 2554.356,1908.718 2396.055,1908.718 " style="fill:#eaeaea;stroke:#111111;stroke-width:15" transform="matrix(0.07838787,0,0,0.07838787,-92.761656,0.83151233)"/>
	<g style="fill:#c7c7c7">
		<polygon points="2578.651,1862 2674.235,1862 2627.297,1780.071 " transform="matrix(0.07838787,0,0,0.07838787,-92.761656,0.83151233)"/>
		<polygon points="2627.297,2184.928 2674.235,2103 2578.651,2103 " transform="matrix(0.07838787,0,0,0.07838787,-92.761656,0.83151233)"/>
		<polygon points="2505.953,2030.302 2505.953,1934.718 2424.024,1981.656 " transform="matrix(0.07838787,0,0,0.07838787,-92.761656,0.83151233)"/>
		<polygon points="2746.953,2030.302 2828.881,1981.656 2746.953,1934.718 " transform="matrix(0.07838787,0,0,0.07838787,-92.761656,0.83151233)"/>
		<g class="straight-button">
			<polygon id="button-du" points="2578.651,1862 2674.235,1862 2627.297,1780.071 " transform="matrix(0.07838787,0,0,0.07838787,-92.761656,0.83151233)"/>
			<polygon id="button-dd" points="2627.297,2184.928 2674.235,2103 2578.651,2103 " transform="matrix(0.07838787,0,0,0.07838787,-92.761656,0.83151233)"/>
			<polygon id="button-dl" points="2505.953,2030.302 2505.953,1934.718 2424.024,1981.656 " transform="matrix(0.07838787,0,0,0.07838787,-92.761656,0.83151233)"/>
			<polygon id="button-dr" points="2746.953,2030.302 2828.881,1981.656 2746.953,1934.718 " transform="matrix(0.07838787,0,0,0.07838787,-92.761656,0.83151233)"/>
		</g>
		<circle cx="113.15568" cy="155.99379" r="3.8133347"/>
	</g>
	<circle style="fill:#eaeaea;stroke:#111111;stroke-width:1.2" cx="160.11761" cy="101.16798" r="6.4278054"/>
	<circle id="button-st" class="straight-button" style="stroke:#111111;stroke-width:1.2" cx="160.11761" cy="101.16798" r="6.4278054"/>
	<g transform="scale(0.85918566,1.1638928)">
		<path d="m 169.3215,73.803558 0,0.577149 q -0.33691,-0.161133 -0.63574,-0.240235 -0.29883,-0.0791 -0.57715,-0.0791 -0.4834,0 -0.74707,0.1875 -0.26074,0.1875 -0.26074,0.533203 0,0.290039 0.17285,0.439453 0.17578,0.146484 0.66211,0.237305 l 0.35742,0.07324 q 0.66211,0.125977 0.97559,0.445312 0.3164,0.316407 0.3164,0.84961 0,0.635742 -0.42773,0.963867 -0.4248,0.328125 -1.24805,0.328125 -0.31054,0 -0.66211,-0.07031 -0.34863,-0.07031 -0.72363,-0.208008 l 0,-0.609375 q 0.36035,0.202148 0.70606,0.304687 0.3457,0.102539 0.67968,0.102539 0.50684,0 0.78223,-0.199218 0.27539,-0.199219 0.27539,-0.56836 0,-0.322265 -0.19922,-0.503906 -0.19629,-0.181641 -0.64746,-0.272461 l -0.36035,-0.07031 q -0.66211,-0.131835 -0.95801,-0.413085 -0.2959,-0.28125 -0.2959,-0.782227 0,-0.580078 0.40723,-0.914063 0.41016,-0.333984 1.12793,-0.333984 0.30762,0 0.62695,0.05566 0.31934,0.05566 0.65332,0.166992 z"/>
		<path d="m 169.90158,73.660004 3.7002,0 0,0.498047 -1.55274,0 0,3.875976 -0.59472,0 0,-3.875976 -1.55274,0 0,-0.498047 z"/>
		<path d="m 175.16916,74.243011 -0.80274,2.176758 1.6084,0 -0.80566,-2.176758 z m -0.33399,-0.583007 0.6709,0 1.667,4.374023 -0.61524,0 -0.39844,-1.12207 -1.97168,0 -0.39843,1.12207 -0.62403,0 1.66992,-4.374023 z"/>
		<path d="m 179.88303,75.983246 q 0.19043,0.06445 0.36914,0.27539 0.18164,0.210938 0.36328,0.580079 l 0.60058,1.195312 -0.63574,0 -0.55957,-1.12207 q -0.2168,-0.439453 -0.42187,-0.583008 -0.20215,-0.143555 -0.55371,-0.143555 l -0.64454,0 0,1.848633 -0.59179,0 0,-4.374023 1.33593,0 q 0.75,0 1.11915,0.313476 0.36914,0.313477 0.36914,0.946289 0,0.413086 -0.19336,0.685547 -0.19043,0.272461 -0.55664,0.37793 z m -1.48243,-1.836914 0,1.552734 0.74414,0 q 0.42774,0 0.64454,-0.196289 0.21972,-0.199219 0.21972,-0.583008 0,-0.383789 -0.21972,-0.577148 -0.2168,-0.196289 -0.64454,-0.196289 l -0.74414,0 z"/>
		<path d="m 180.94064,73.660004 3.7002,0 0,0.498047 -1.55274,0 0,3.875976 -0.59472,0 0,-3.875976 -1.55274,0 0,-0.498047 z"/>
		<path d="m 186.14963,73.660004 0.49804,0 -1.52343,4.930664 -0.49805,0 1.52344,-4.930664 z"/>
		<path d="m 187.8342,74.146332 0,1.643554 0.74414,0 q 0.41308,0 0.63867,-0.213867 0.22559,-0.213867 0.22559,-0.609375 0,-0.392578 -0.22559,-0.606445 -0.22559,-0.213867 -0.63867,-0.213867 l -0.74414,0 z m -0.5918,-0.486328 1.33594,0 q 0.73535,0 1.11035,0.333984 0.37793,0.331055 0.37793,0.972656 0,0.647461 -0.37793,0.978516 -0.375,0.331055 -1.11035,0.331055 l -0.74414,0 0,1.757812 -0.5918,0 0,-4.374023 z"/>
		<path d="m 191.93869,74.243011 -0.80273,2.176758 1.60839,0 -0.80566,-2.176758 z m -0.33398,-0.583007 0.67089,0 1.667,4.374023 -0.61524,0 -0.39844,-1.12207 -1.97168,0 -0.39843,1.12207 -0.62403,0 1.66993,-4.374023 z"/>
		<path d="m 194.51096,73.660004 0.59472,0 0,2.657226 q 0,0.703125 0.25489,1.013672 0.25488,0.307617 0.82617,0.307617 0.56836,0 0.82324,-0.307617 0.25488,-0.310547 0.25488,-1.013672 l 0,-2.657226 0.59473,0 0,2.730468 q 0,0.855469 -0.42481,1.291993 -0.42187,0.436523 -1.24804,0.436523 -0.8291,0 -1.25391,-0.436523 -0.42187,-0.436524 -0.42187,-1.291993 l 0,-2.730468 z"/>
		<path d="m 201.59494,73.803558 0,0.577149 q -0.33691,-0.161133 -0.63574,-0.240235 -0.29883,-0.0791 -0.57715,-0.0791 -0.4834,0 -0.74707,0.1875 -0.26074,0.1875 -0.26074,0.533203 0,0.290039 0.17285,0.439453 0.17578,0.146484 0.66211,0.237305 l 0.35742,0.07324 q 0.66211,0.125977 0.97559,0.445312 0.3164,0.316407 0.3164,0.84961 0,0.635742 -0.42773,0.963867 -0.42481,0.328125 -1.24805,0.328125 -0.31055,0 -0.66211,-0.07031 -0.34863,-0.07031 -0.72363,-0.208008 l 0,-0.609375 q 0.36035,0.202148 0.70605,0.304687 0.34571,0.102539 0.67969,0.102539 0.50684,0 0.78223,-0.199218 0.27539,-0.199219 0.27539,-0.56836 0,-0.322265 -0.19922,-0.503906 -0.19629,-0.181641 -0.64746,-0.272461 l -0.36035,-0.07031 q -0.66211,-0.131835 -0.95801,-0.413085 -0.2959,-0.28125 -0.2959,-0.782227 0,-0.580078 0.40723,-0.914063 0.41015,-0.333984 1.12793,-0.333984 0.30761,0 0.62695,0.05566 0.31934,0.05566 0.65332,0.166992 z"/>
		<path d="m 202.78146,73.660004 2.76563,0 0,0.498047 -2.17383,0 0,1.294921 2.08301,0 0,0.498047 -2.08301,0 0,1.584961 2.22656,0 0,0.498047 -2.81836,0 0,-4.374023 z"/>
	</g>
	<ellipse style="fill:#bababa;stroke:#9e9e9e;stroke-width:1.2" cx="252.4137" cy="87.99733" rx="36.306438" ry="35.935902"/>
	<circle style="fill:#00bc8e;stroke:#111111;stroke-width:1.2" cx="252.77208" cy="87.371719" r="17.558884"/>
	<circle id="button-sq" class="straight-button" style="stroke:#111111;stroke-width:1.2" cx="252.77208" cy="87.371719" r="17.558884"/>
	<path d="m 294.20847,70.448105 -2.00684,5.441894 4.021,0 -2.01416,-5.441894 z m -0.83497,-1.45752 1.67725,0 4.16748,10.935059 -1.53808,0 -0.9961,-2.805176 -4.9292,0 -0.99609,2.805176 -1.56006,0 4.1748,-10.935059 z" transform="scale(0.85918569,1.1638928)"/>
	<circle style="fill:#ff0000;stroke:#111111;stroke-width:1.2" cx="218.28142" cy="105.55771" r="10.190423"/>
	<circle id="button-cr" class="reverse-button" style="stroke:#111111;stroke-width:1.2" cx="218.28142" cy="105.55771" r="10.190423"/>
	<path d="m 281.12534,82.029518 0,2.670899 1.58203,0 q 0.7959,0 1.17675,-0.327149 0.38575,-0.332031 0.38575,-1.010742 0,-0.683594 -0.38575,-1.005859 -0.38085,-0.327149 -1.17675,-0.327149 l -1.58203,0 z m 0,-2.998047 0,2.197266 1.45996,0 q 0.72265,0 1.07422,-0.268555 0.35644,-0.273437 0.35644,-0.830078 0,-0.551758 -0.35644,-0.825195 -0.35157,-0.273438 -1.07422,-0.273438 l -1.45996,0 z m -0.98633,-0.810547 2.51953,0 q 1.12793,0 1.73828,0.46875 0.61035,0.46875 0.61035,1.333008 0,0.668946 -0.3125,1.064453 -0.3125,0.395508 -0.91797,0.493164 0.72754,0.15625 1.12793,0.654297 0.40528,0.493164 0.40528,1.235352 0,0.976562 -0.66407,1.508789 -0.66406,0.532226 -1.88964,0.532226 l -2.61719,0 0,-7.290039 z" transform="scale(0.7733693,1.2930433)"/>
	<path style="fill:#eaeaea;stroke:#111111;stroke-width:1.2" d="m 258.988,53.561543 c -0.69679,-8.810483 -18.55018,-4.884191 -21.47122,-3.565472 -2.92105,1.318719 -16.23201,7.595628 -10.55642,15.219867 6.52203,6.743317 10.71061,-0.87622 16.55082,-3.656089 7.60064,-2.94417 15.74624,1.237275 15.47682,-7.998306 z"/>
	<path id="button-tr" class="straight-button" style="stroke:#111111;stroke-width:1.2" d="m 258.988,53.561543 c -0.69679,-8.810483 -18.55018,-4.884191 -21.47122,-3.565472 -2.92105,1.318719 -16.23201,7.595628 -10.55642,15.219867 6.52203,6.743317 10.71061,-0.87622 16.55082,-3.656089 7.60064,-2.94417 15.74624,1.237275 15.47682,-7.998306 z"/>
	<path d="m 309.93274,39.383568 1.16553,0 2.22363,3.297851 2.20752,-3.297851 1.16553,0 -2.83594,4.200195 0,3.818848 -1.09033,0 0,-3.818848 -2.83594,-4.200195 z" transform="scale(0.77336929,1.2930433)"/>
	<path style="fill:#eaeaea;stroke:#111111;stroke-width:1.2" d="m 291.12389,72.407947 c -1.31864,-2.921046 -7.59555,-16.232012 -15.21987,-10.556495 -6.74331,6.522028 0.87622,10.710605 3.65609,16.550894 2.94425,7.600644 -1.2372,15.746241 7.99831,15.476744 8.81048,-0.696712 4.88419,-18.550098 3.56547,-21.471143 z"/>
	<path id="button-ci" class="straight-button" style="stroke:#111111;stroke-width:1.2" d="m 291.12389,72.407947 c -1.31864,-2.921046 -7.59555,-16.232012 -15.21987,-10.556495 -6.74331,6.522028 0.87622,10.710605 3.65609,16.550894 2.94425,7.600644 -1.2372,15.746241 7.99831,15.476744 8.81048,-0.696712 4.88419,-18.550098 3.56547,-21.471143 z"/>
	<path d="m 365.61868,55.206112 1.16553,0 1.99268,2.980957 2.00341,-2.980957 1.16553,0 -2.57812,3.851074 2.75,4.167969 -1.16553,0 -2.25586,-3.410645 -2.27197,3.410645 -1.1709,0 2.86279,-4.280762 -2.49756,-3.738281 z" transform="scale(0.77336929,1.2930433)"/>
</svg>
