<?xml version="1.0" encoding="UTF-8"?>
<svg xmlns="http://www.w3.org/2000/svg" width="320" height="173" version="1.0">
	<path style="fill:#010101;stroke-width:1;stroke:#333333;" d="M 289.05665,51.19786 C 266.78913,26.891682 217.58733,9.999997 160.46874,9.999997 106.8086,9.999997 60.13557,24.908075 36.21764,46.866399 20.316946,58.574978 10,77.426409 10,98.687492 c 0,35.518808 28.793685,64.312498 64.312497,64.312498 16.093247,0 30.805883,-5.91109 42.085193,-15.68056 24.39779,-24.39779 63.16411,-24.06069 87.35257,0.12777 11.25987,9.69321 25.91427,15.55279 41.93723,15.55279 35.51881,0 64.31249,-28.79369 64.31249,-64.312498 0,-18.807631 -8.07324,-35.729651 -20.94333,-47.489632 z"/>
	<g style="fill:#ffffff;stroke-width:0">
		<path d="m 208.77004,46.946882 c 0.98838,-0.514513 1.26306,-1.234578 0.94357,-1.848279 -0.31945,-0.6137 -0.90126,-0.716697 -1.73681,-0.402223 l -0.21516,0.0803 c -0.46659,0.173141 -0.68875,0.130254 -0.79007,-0.06436 -0.11166,-0.214545 -0.0181,-0.459837 0.31883,-0.635244 0.31449,-0.163708 0.64202,-0.220069 1.02237,-0.202435 0.0359,3.71e-4 0.0614,-0.01925 0.0708,-0.05594 l 0.10619,-0.632367 c 0.01,-0.04952 -0.006,-0.06657 -0.0502,-0.06897 -0.4344,-0.05293 -0.97624,0.05794 -1.48165,0.32105 -0.82551,0.429732 -1.13782,1.11865 -0.81316,1.742335 0.31169,0.598723 0.91293,0.697941 1.73725,0.389321 l 0.21516,-0.0803 c 0.48345,-0.181904 0.68317,-0.127328 0.78704,0.07228 0.12467,0.239497 -0.0142,0.521079 -0.41296,0.728647 -0.40433,0.210475 -0.83521,0.219167 -1.18139,0.171097 -0.0385,-0.005 -0.0722,0.01223 -0.0816,0.04882 l -0.20085,0.656256 c -0.0125,0.04451 0.0169,0.07358 0.0497,0.0819 0.43011,0.09955 1.11762,0.008 1.71286,-0.301903 z m 3.58235,-1.934614 c 0.0337,-0.01754 0.0458,-0.04922 0.0302,-0.0791 l -1.38439,-2.659362 c -0.0103,-0.01995 -0.004,-0.03579 0.0181,-0.04752 l 0.96592,-0.502824 c 0.0337,-0.01754 0.0458,-0.04922 0.0302,-0.0791 l -0.28828,-0.553821 c -0.0155,-0.02997 -0.0484,-0.03819 -0.0821,-0.02065 l -2.8247,1.470447 c -0.0337,0.01754 -0.0457,0.04922 -0.0302,0.0791 l 0.2883,0.553831 c 0.0155,0.02997 0.0484,0.03819 0.0821,0.02065 l 0.96591,-0.502824 c 0.0225,-0.01173 0.0389,-0.008 0.0492,0.01243 l 1.38436,2.659361 c 0.0155,0.02998 0.0484,0.0382 0.0821,0.02065 l 0.7132,-0.371266 z m 1.26003,-0.719344 c 0.004,0.03579 0.026,0.04993 0.0653,0.02947 l 0.73567,-0.382965 c 0.0393,-0.02045 0.0539,-0.04712 0.047,-0.08792 l -0.0956,-0.704837 1.33654,-0.695755 0.52809,0.479726 c 0.0295,0.02907 0.0596,0.03238 0.0989,0.01193 l 0.73005,-0.380038 c 0.0393,-0.02045 0.0401,-0.04631 0.0133,-0.07037 l -3.00587,-2.620656 c -0.0268,-0.02406 -0.0597,-0.03238 -0.099,-0.01193 l -0.7076,0.368348 c -0.0393,0.02045 -0.0514,0.05213 -0.047,0.08792 l 0.40014,3.977088 z m 0.65788,-1.889792 -0.18576,-1.412583 0.0168,-0.009 1.05058,0.96239 -0.88165,0.458965 z m 6.17998,-1.606356 c 0.0393,-0.02045 0.0406,-0.05915 0.008,-0.0803 l -1.44859,-0.945437 c 0.33548,-0.383908 0.41459,-0.862651 0.1886,-1.296734 -0.32206,-0.618693 -1.06467,-0.783825 -1.84526,-0.377471 l -1.52185,0.792225 c -0.0337,0.01754 -0.0458,0.04922 -0.0302,0.0791 l 1.71425,3.293032 c 0.0155,0.02997 0.0484,0.0382 0.0821,0.02065 l 0.71321,-0.371266 c 0.0337,-0.01754 0.0457,-0.04922 0.0302,-0.0791 l -0.63115,-1.212433 c -0.0103,-0.01995 -0.004,-0.03579 0.0181,-0.04752 l 0.51102,-0.266023 1.30378,0.900335 c 0.035,0.02617 0.0597,0.03238 0.1102,0.006 l 0.79744,-0.415115 z m -2.37323,-1.199712 -0.67389,0.350795 c -0.0225,0.01173 -0.0389,0.008 -0.0492,-0.01243 l -0.40778,-0.783344 c -0.0103,-0.01995 -0.004,-0.03579 0.0181,-0.04752 l 0.67388,-0.350805 c 0.3145,-0.163718 0.60237,-0.1043 0.73484,0.150164 0.13505,0.259447 0.0185,0.529341 -0.29588,0.693049 z m 4.52406,0.0801 c 0.0337,-0.01754 0.0457,-0.04922 0.0302,-0.0791 l -1.38439,-2.659361 c -0.0103,-0.01995 -0.004,-0.03579 0.0181,-0.04752 l 0.96591,-0.502824 c 0.0337,-0.01754 0.0457,-0.04922 0.0302,-0.0791 l -0.2883,-0.553821 c -0.0155,-0.02998 -0.0484,-0.0382 -0.0821,-0.02065 l -2.82469,1.470446 c -0.0337,0.01754 -0.0458,0.04922 -0.0302,0.0791 l 0.2883,0.553821 c 0.0155,0.02997 0.0484,0.0382 0.0821,0.02065 l 0.96592,-0.502824 c 0.0225,-0.01173 0.0389,-0.008 0.0492,0.01243 l 1.38438,2.659362 c 0.0155,0.02998 0.0484,0.0382 0.0821,0.02065 l 0.71319,-0.371266 z"/>
		<path d="m 252.04211,129.66415 c 0.0335,-0.0179 0.0453,-0.0495 0.0295,-0.0794 l -1.40754,-2.64719 c -0.0105,-0.0198 -0.005,-0.0358 0.0177,-0.0476 l 0.96071,-0.51081 c 0.0336,-0.0179 0.0453,-0.0495 0.0295,-0.0794 l -0.29314,-0.55129 c -0.0157,-0.0298 -0.0487,-0.0378 -0.0823,-0.0199 l -2.80952,1.49385 c -0.0335,0.0178 -0.0453,0.0495 -0.0295,0.0794 l 0.29313,0.55129 c 0.0157,0.0298 0.0487,0.0378 0.0823,0.0199 l 0.9607,-0.51082 c 0.0224,-0.0119 0.0388,-0.008 0.0493,0.0119 l 1.40753,2.64719 c 0.0157,0.0298 0.0487,0.0378 0.0823,0.0199 l 0.70935,-0.37718 z m 4.45721,-2.36995 c 0.0391,-0.0207 0.04,-0.0596 0.007,-0.0804 l -1.45618,-0.93308 c 0.33175,-0.38664 0.4065,-0.86595 0.17672,-1.29804 -0.32744,-0.61585 -1.07104,-0.77472 -1.84745,-0.36191 l -1.51367,0.80484 c -0.0335,0.0178 -0.0453,0.0495 -0.0295,0.0794 l 1.7429,3.27794 c 0.0157,0.0298 0.0487,0.0378 0.0822,0.0199 l 0.70938,-0.37716 c 0.0335,-0.0178 0.0453,-0.0496 0.0295,-0.0794 l -0.6417,-1.20688 c -0.0105,-0.0198 -0.005,-0.0358 0.0176,-0.0476 l 0.50829,-0.27025 1.31106,0.8892 c 0.0352,0.0259 0.0599,0.0319 0.11018,0.005 l 0.79314,-0.42172 z m -2.3825,-1.17955 -0.67026,0.35639 c -0.0224,0.0119 -0.0388,0.008 -0.0493,-0.0119 l -0.41463,-0.77976 c -0.0105,-0.0198 -0.005,-0.0357 0.0177,-0.0476 l 0.67026,-0.35639 c 0.31279,-0.16631 0.60101,-0.10933 0.73569,0.14397 0.13733,0.25827 0.0234,0.52907 -0.28941,0.69539 z m 2.94818,0.81508 c 0.0157,0.0298 0.0487,0.0378 0.0823,0.0199 l 0.70938,-0.37717 c 0.0335,-0.0178 0.0453,-0.0495 0.0295,-0.0794 l -1.74292,-3.27793 c -0.0157,-0.0298 -0.0487,-0.0378 -0.0823,-0.0199 l -0.70935,0.37717 c -0.0335,0.0178 -0.0453,0.0495 -0.0295,0.0794 l 1.74293,3.27794 z m 1.1725,-1.54081 c 0.48598,0.44237 1.15625,0.43637 1.8321,0.077 0.67028,-0.35638 1.03422,-0.93851 0.93628,-1.58084 -0.0307,-0.2194 -0.15063,-0.51237 -0.30909,-0.81037 l -0.14788,-0.27814 c -0.0157,-0.0298 -0.0487,-0.0378 -0.0823,-0.0199 l -1.307,0.69496 c -0.0336,0.0178 -0.0453,0.0495 -0.0295,0.0794 l 0.25352,0.47679 c 0.0159,0.0298 0.0487,0.0378 0.0823,0.0199 l 0.51388,-0.27323 c 0.0224,-0.0119 0.0388,-0.008 0.0493,0.0119 0.0766,0.14404 0.11526,0.25725 0.13224,0.35652 0.0407,0.26509 -0.13911,0.51992 -0.42397,0.67139 -0.32955,0.17521 -0.61015,0.14603 -0.81805,-0.0428 -0.10807,-0.0954 -0.21197,-0.25042 -0.447,-0.69245 -0.23502,-0.44202 -0.30278,-0.60987 -0.32147,-0.75283 -0.0403,-0.27797 0.0842,-0.52891 0.40813,-0.70116 0.31278,-0.16632 0.56607,-0.14809 0.83834,1.8e-4 0.0244,0.0188 0.0576,0.0139 0.0914,-0.0168 l 0.47882,-0.54127 c 0.0256,-0.0327 0.0153,-0.0655 -0.0172,-0.0864 -0.3953,-0.31222 -1.02525,-0.37862 -1.7346,-0.001 -0.67586,0.35935 -1.05563,0.91168 -0.96065,1.56195 0.0403,0.27797 0.11833,0.47859 0.38505,0.98021 0.26672,0.50163 0.38942,0.67848 0.59732,0.86736 z m 3.5077,-1.86508 c 0.48598,0.44239 1.15625,0.43638 1.83209,0.077 0.67029,-0.3564 1.03424,-0.93852 0.93629,-1.58084 -0.0307,-0.21942 -0.15065,-0.51239 -0.30908,-0.81038 l -0.14789,-0.27813 c -0.0157,-0.0298 -0.0487,-0.0378 -0.0823,-0.0199 l -1.307,0.69496 c -0.0335,0.0178 -0.0453,0.0495 -0.0295,0.0794 l 0.25352,0.4768 c 0.0157,0.0298 0.0487,0.0378 0.0823,0.0199 l 0.51387,-0.27322 c 0.0224,-0.0119 0.0388,-0.008 0.0493,0.0119 0.0766,0.14403 0.11531,0.25723 0.13226,0.35652 0.0406,0.26507 -0.13909,0.51991 -0.42395,0.67137 -0.32957,0.17522 -0.61015,0.14605 -0.81806,-0.0428 -0.10806,-0.0954 -0.21196,-0.25043 -0.44699,-0.69246 -0.23503,-0.44202 -0.30277,-0.60986 -0.32147,-0.75282 -0.0403,-0.27798 0.0841,-0.52893 0.40812,-0.70118 0.31278,-0.16631 0.56608,-0.14808 0.83836,1.9e-4 0.0244,0.0189 0.0575,0.014 0.0914,-0.0168 l 0.47882,-0.54127 c 0.0256,-0.0327 0.0153,-0.0655 -0.0172,-0.0864 -0.39527,-0.31223 -1.02525,-0.37863 -1.7346,-10e-4 -0.67584,0.35935 -1.05564,0.91168 -0.96065,1.56195 0.0403,0.27797 0.11834,0.47858 0.38507,0.98022 0.26671,0.50162 0.38939,0.67847 0.5973,0.86735 z m 3.8824,-1.14692 c 0.0159,0.0298 0.0487,0.0378 0.0822,0.02 l 2.43529,-1.29486 c 0.0335,-0.0179 0.0453,-0.0495 0.0295,-0.0794 l -0.28256,-0.53143 c -0.0157,-0.0298 -0.0487,-0.0378 -0.0822,-0.0199 l -1.63656,0.87018 c -0.0224,0.0118 -0.0388,0.008 -0.0493,-0.012 l -0.37236,-0.70028 c -0.0105,-0.0198 -0.005,-0.0358 0.0176,-0.0476 l 1.36287,-0.72466 c 0.0335,-0.0178 0.0453,-0.0495 0.0295,-0.0794 l -0.27992,-0.52646 c -0.0159,-0.0298 -0.0487,-0.0378 -0.0823,-0.0199 l -1.36287,0.72464 c -0.0224,0.0119 -0.0388,0.008 -0.0493,-0.012 l -0.35653,-0.67048 c -0.0105,-0.0198 -0.005,-0.0358 0.0176,-0.0476 l 1.63655,-0.87017 c 0.0335,-0.0178 0.0453,-0.0495 0.0295,-0.0794 l -0.28256,-0.53143 c -0.0159,-0.0298 -0.0487,-0.0378 -0.0823,-0.0199 l -2.43529,1.29486 c -0.0335,0.0178 -0.0453,0.0495 -0.0295,0.0794 l 1.74294,3.27795 z m 6.07549,-3.1667 c 0.0391,-0.0207 0.04,-0.0594 0.007,-0.0804 l -1.45618,-0.93308 c 0.33177,-0.38664 0.40649,-0.86595 0.17675,-1.29803 -0.32745,-0.61586 -1.07108,-0.77473 -1.84745,-0.36191 l -1.51369,0.80484 c -0.0335,0.0178 -0.0453,0.0495 -0.0295,0.0794 l 1.74294,3.27793 c 0.0157,0.0298 0.0487,0.0378 0.0822,0.0199 l 0.70937,-0.37718 c 0.0335,-0.0178 0.0453,-0.0495 0.0295,-0.0794 l -0.64171,-1.20687 c -0.0105,-0.0198 -0.005,-0.0358 0.0177,-0.0476 l 0.50826,-0.27027 1.31107,0.8892 c 0.0353,0.0259 0.0599,0.0319 0.11019,0.005 l 0.79314,-0.42172 z m -2.38249,-1.17954 -0.67027,0.35639 c -0.0224,0.0118 -0.0388,0.008 -0.0493,-0.0119 l -0.4146,-0.77976 c -0.0105,-0.0199 -0.005,-0.0358 0.0176,-0.0476 l 0.67026,-0.35638 c 0.31278,-0.16632 0.60101,-0.10934 0.7357,0.14395 0.13731,0.25826 0.0234,0.52907 -0.28941,0.6954 z"/>
		<path d="m 196.70265,95.041922 c -0.002,0.0524 0.0356,0.0669 0.11666,0.0238 l 1.51812,-0.8072 c 0.0811,-0.0431 0.11682,-0.0878 0.11511,-0.14696 l 0.0174,-1.02971 2.75809,-1.46651 0.87496,0.55525 c 0.048,0.0345 0.10508,0.0299 0.18622,-0.0132 l 1.50654,-0.80104 c 0.0811,-0.0431 0.0901,-0.0822 0.0456,-0.10998 l -5.01148,-2.99515 c -0.0445,-0.0278 -0.10509,-0.0299 -0.1862,0.0132 l -1.46018,0.77639 c -0.0811,0.0431 -0.11326,0.0945 -0.11511,0.14696 l -0.36565,5.85423 z m 1.79805,-3.04846 0.0463,-2.06558 0.0348,-0.0185 1.73833,1.11667 -1.81941,0.9674 z"/>
		<path d="m 230.36912,77.078522 c 0.0214,0.0401 0.0819,0.0422 0.15145,0.005 l 2.98987,-1.58975 c 1.70353,-0.90579 2.50744,-1.88205 2.03109,-2.7779 -0.28792,-0.54151 -1.02007,-0.63245 -1.60197,-0.46882 l -0.007,-0.0133 c 0.43264,-0.44442 0.66313,-0.96144 0.40009,-1.45616 -0.38391,-0.72203 -1.44302,-0.7849 -3.15816,0.12705 l -3.07101,1.63288 c -0.0695,0.037 -0.10166,0.0883 -0.0803,0.12847 l 2.34609,4.41237 z m 0.37963,-3.56343 c -0.0463,0.0247 -0.0766,0.0236 -0.0908,-0.003 l -0.52255,-0.98276 c -0.0142,-0.0268 0.002,-0.0524 0.0482,-0.0771 l 1.20522,-0.64083 c 0.64897,-0.34506 1.13447,-0.35452 1.31224,-0.0202 0.17771,0.33427 -0.0981,0.73817 -0.74703,1.08323 l -1.20523,0.64083 z m 0.91512,1.88883 -0.56162,-1.0563 c -0.0142,-0.0268 0.002,-0.0524 0.0482,-0.0771 l 1.29794,-0.69012 c 0.69532,-0.36971 1.18346,-0.34627 1.3683,10e-4 0.1884,0.35433 -0.0687,0.76544 -0.76402,1.13514 l -1.29792,0.69013 c -0.0463,0.0247 -0.0767,0.0236 -0.0908,-0.003 z"/>
		<path d="m 263.3124,59.137192 c 0.79942,0.49702 2.00047,0.32361 3.3795,-0.40965 1.3327,-0.7086 2.11333,-1.58886 2.22657,-2.43824 0.0177,-0.0508 -0.0229,-0.0709 -0.0992,-0.0469 l -1.43191,0.35431 c -0.0799,0.0175 -0.13091,0.0613 -0.14504,0.11864 -0.0687,0.40203 -0.32588,0.81292 -0.98643,1.16414 -0.6142,0.32657 -1.10463,0.35475 -1.44031,0.1428 -0.17877,-0.11261 -0.29619,-0.24955 -0.63019,-0.87773 -0.33402,-0.62818 -0.38189,-0.80209 -0.37527,-1.01328 0.012,-0.39681 0.30961,-0.78764 0.9238,-1.11422 0.66056,-0.35122 1.14503,-0.33469 1.51673,-0.16682 0.0554,0.0204 0.12024,0.003 0.17946,-0.0539 l 1.09444,-0.98897 c 0.0626,-0.0499 0.0686,-0.0946 0.0166,-0.10852 -0.76749,-0.38108 -1.93377,-0.22614 -3.26649,0.48247 -1.37907,0.73325 -2.19443,1.63198 -2.22942,2.57266 -0.0223,0.37737 0.0518,0.62869 0.41341,1.30867 0.36157,0.67999 0.52843,0.882 0.85378,1.07452 z"/>
	</g>
	<path style="fill-opacity:0;stroke:#333333;stroke-width:2" d="m 282.70973,102.49735 c 0.43135,-0.20116 0.85981,-0.4147 1.28495,-0.64076 13.16624,-7.000608 18.16446,-23.349072 11.16385,-36.51531 -4.358,-8.1962 -12.33854,-13.227078 -20.91884,-14.168474 -9.82475,-1.786154 -28.6562,3.280595 -48.2593,13.703748 -20.65602,10.983005 -35.90244,24.581381 -38.90017,33.786761 -3.28419,7.341545 -3.26806,16.067485 0.80019,23.718755 7.00061,13.16624 23.34907,18.16446 36.51531,11.16385 0.42514,-0.22605 0.84177,-0.46184 1.24975,-0.70697 l 57.06426,-30.3416 z"/>
	<rect style="fill:#111111;stroke-width:0" x="114.64101" y="179.75827" width="109.93955" height="36.346821" rx="18.17341" transform="matrix(0.88294759,-0.46947156,0.46947156,0.88294759,0,0)"/>
	<g style="fill:#010101;stroke:#333333;stroke-width:2">
		<circle cx="209.78123" cy="112.28125" r="13.968749"/>
		<circle cx="243.00623" cy="94.825005" r="13.968749"/>
		<circle cx="276.71875" cy="77.21875" r="13.968749"/>
		<g fill-opacity="0" style="fill:#ff0000">
			<circle id="button-sq" cx="209.78123" cy="112.28125" r="13.968749"/>
			<circle id="button-cr" cx="243.00623" cy="94.825005" r="13.968749"/>
			<circle id="button-ci" cx="276.71875" cy="77.21875" r="13.968749"/>
		</g>
	</g>
	<g style="fill:#111111;stroke:#333333;stroke-width:2">
		<rect x="156.83388" y="144.64343" width="30.17977" height="8.062499" rx="4.0312495" transform="matrix(0.88701083,-0.46174862,0.46174862,0.88701083,0,0)"/>
		<rect id="button-st" fill-opacity="0" style="fill:#ff0000" x="156.83388" y="144.64343" width="30.17977" height="8.062499" rx="4.0312495" transform="matrix(0.88701083,-0.46174862,0.46174862,0.88701083,0,0)"/>
	</g>
	<g style="fill:#333333;stroke-width:0">
		<path d="m 206.94343,115.90632 c -0.002,0.0615 0.0418,0.0787 0.13616,0.0285 l 1.76546,-0.93871 c 0.0943,-0.0502 0.1357,-0.10243 0.13337,-0.17183 l 0.0144,-1.20847 3.20748,-1.70544 1.02336,0.6567 c 0.0562,0.0407 0.12269,0.0357 0.21703,-0.0145 l 1.75198,-0.93155 c 0.0943,-0.0502 0.10456,-0.096 0.0525,-0.12883 l -5.86041,-3.54408 c -0.052,-0.0329 -0.12269,-0.0357 -0.21702,0.0145 l -1.69808,0.90289 c -0.0943,0.0502 -0.13151,0.11029 -0.13337,0.17182 l -0.39282,6.86899 z m 2.07902,-3.56766 0.0422,-2.42411 0.0404,-0.0215 2.03326,1.32058 -2.11586,1.12502 z"/>
		<path d="m 241.72618,98.413702 c 0.0251,0.0472 0.0961,0.04982 0.17745,0.0066 l 3.49914,-1.860526 c 1.9937,-1.060067 2.93306,-2.205363 2.37254,-3.259538 -0.33881,-0.637225 -1.19694,-0.746054 -1.87836,-0.555283 l -0.008,-0.01573 c 0.50574,-0.521185 0.77446,-1.128251 0.46492,-1.710408 -0.45176,-0.849633 -1.69293,-0.92634 -3.70019,0.140938 l -3.59408,1.911006 c -0.0814,0.04327 -0.11889,0.103581 -0.0938,0.150783 l 2.76075,5.192205 z m 0.43536,-4.18719 c -0.0542,0.02885 -0.0898,0.02753 -0.10648,-0.0039 l -0.61489,-1.156446 c -0.0167,-0.03147 0.002,-0.06162 0.0563,-0.09047 l 1.4105,-0.749979 c 0.75951,-0.403835 1.32838,-0.413667 1.53752,-0.02032 0.20915,0.393349 -0.11292,0.867333 -0.87243,1.271168 l -1.4105,0.749979 z m 1.0773,2.222421 -0.66091,-1.242983 c -0.0167,-0.03147 0.002,-0.06162 0.0563,-0.09047 l 1.51901,-0.80767 c 0.81375,-0.43268 1.38579,-0.403833 1.6033,0.0052 0.2217,0.41695 -0.0785,0.899456 -0.8922,1.332137 l -1.51901,0.80767 c -0.0543,0.02885 -0.0897,0.02753 -0.10647,-0.0039 z"/>
		<path d="m 275.01758,79.330364 c 0.93181,0.589553 2.32369,0.396869 3.91716,-0.450394 1.53991,-0.818784 2.43781,-1.843597 2.56172,-2.838093 0.0199,-0.05946 -0.0271,-0.08332 -0.11557,-0.05585 l -1.65811,0.402664 c -0.0925,0.01986 -0.15135,0.0707 -0.16721,0.13778 -0.0761,0.470576 -0.37092,0.949886 -1.13418,1.355719 -0.7097,0.377352 -1.27843,0.406055 -1.66972,0.154693 -0.20842,-0.133552 -0.34584,-0.295083 -0.73887,-1.034265 -0.39303,-0.739182 -0.4501,-0.943432 -0.44427,-1.190902 0.0104,-0.464958 0.35224,-0.920406 1.06194,-1.297759 0.76326,-0.405832 1.32547,-0.382193 1.75817,-0.182171 0.0645,0.02436 0.13954,0.004 0.20772,-0.06158 l 1.26103,-1.149466 c 0.0722,-0.05796 0.0788,-0.110302 0.0183,-0.127045 -0.89377,-0.453386 -2.24547,-0.282062 -3.78538,0.536722 -1.59347,0.847263 -2.53154,1.893436 -2.56385,2.995619 -0.0226,0.442097 0.0657,0.737292 0.49112,1.537437 0.42545,0.800146 0.62083,1.038382 0.99997,1.266883 z"/>
	</g>
	<circle style="fill:#333333;stroke:#111111;stroke-width:2" cx="77.143745" cy="94.581245" r="47.981247"/>
	<g style="stroke-width:0">
		<g style="fill:#ffffff">
			<polygon points="230,30.445412 244.2406,1.1368684e-13 258.48119,30.445412 " transform="matrix(0.18749999,0,0,0.18749999,31.187499,48.625)"/>
			<polygon points="230,491.14541 244.2406,460.7 258.48119,491.14541 " transform="matrix(0.18749999,0,0,-0.18749999,31.187499,227.096)"/>
			<polygon points="1.38211,261.4633 15.622706,231.01789 29.863302,261.4633 " transform="matrix(0,0.18749999,0.18749999,0,-12.053354,91.865852)"/>
			<polygon points="459.98211,261.4633 474.22271,231.01789 488.4633,261.4633 " transform="matrix(0,0.18749999,-0.18749999,0,166.27435,5.878359)"/>
			<g fill-opacity="0" style="fill:#ff0000">
				<polygon id="button-du" points="230,30.445412 244.2406,1.1368684e-13 258.48119,30.445412 " transform="matrix(0.18749999,0,0,0.18749999,31.187499,48.625)"/>
				<polygon id="button-dd" points="230,491.14541 244.2406,460.7 258.48119,491.14541 " transform="matrix(0.18749999,0,0,-0.18749999,31.187499,227.096)"/>
				<polygon id="button-dl" points="1.38211,261.4633 15.622706,231.01789 29.863302,261.4633 " transform="matrix(0,0.18749999,0.18749999,0,-12.053354,91.865852)"/>
				<polygon id="button-dr" points="459.98211,261.4633 474.22271,231.01789 488.4633,261.4633 " transform="matrix(0,0.18749999,-0.18749999,0,166.27435,5.878359)"/>
			</g>
			<circle cx="107.81876" cy="64.524994" r="1.4062499"/>
			<circle cx="46.543747" cy="64.468765" r="1.4062499"/>
			<circle cx="107.81876" cy="124.31874" r="1.4062499"/>
			<circle cx="46.543747" cy="124.2625" r="1.4062499"/>
		</g>
		<path style="fill:#111111" d="m 84.399996,87.287502 0,-23.15625 -14.812499,0 0,23.15625 -23.081249,0 0,14.812498 23.081249,0 0,23.15625 14.812499,0 0,-23.15625 23.231244,0 0,-14.812498 -23.231244,0 z"/>
		<path style="fill:#333333" d="m 82.974997,88.656252 0,-24.65625 -11.812499,0 0,24.65625 -24.656249,0 0,11.812498 24.656249,0 0,24.65625 11.812499,0 0,-24.65625 24.656253,0 0,-11.812498 -24.656253,0 z"/>
		<circle style="fill:#666666" cx="77.03125" cy="94.656219" r="4.9687495"/>
	</g>
	<g style="fill:#111111;stroke-width:2">
		<polygon points="21.070992,4.8669337 33.423176,31.275051 8.7188084,31.275051 " transform="matrix(0.13258252,-0.13258252,0.13258252,0.13258252,56.386266,79.411062)"/>
		<polygon points="187.87099,4.8669337 200.22318,31.275051 175.51881,31.275051 " transform="matrix(0.13258252,0.13258252,-0.13258252,0.13258252,70.338297,51.709002)"/>
		<polygon points="18.870992,171.95802 31.223176,198.36613 6.5188084,198.36613 " transform="matrix(-0.13258252,-0.13258252,0.13258252,-0.13258252,39.116019,137.39411)"/>
		<polygon points="188.07099,171.86693 200.42318,198.27505 175.71881,198.27505 " transform="matrix(-0.13258252,0.13258252,-0.13258252,-0.13258252,142.3604,109.92806)"/>
	</g>
	<circle style="fill-opacity:0;stroke:#111111;stroke-width:7" cx="76.956253" cy="94.768753" r="33.323082"/>
	<circle style="fill-opacity:0;stroke:#666666;stroke-width:6" cx="77.03125" cy="94.65625" r="28.031248"/>
</svg>
