<?xml version="1.0" encoding="UTF-8" standalone="no"?>
<svg xmlns="http://www.w3.org/2000/svg" version="1.1" width="320" height="326.16501">
	<g style="fill:#ffffff;stroke:#404041">
		<g style="stroke-width:2.5">
			<path d="m 50.787632,162.21455 -5.776374,0 c -3.741175,0 -7.512279,0.0599 -11.253453,-0.11971 -13.528088,-0.98767 -21.638954,-9.51754 -22.387189,-22.95582 -0.08979,-1.61618 -0.08979,-3.20244 -0.08979,-4.81862 l 0,-95.175343 c 0,-6.94361 0.269364,-13.049197 4.848562,-19.035068 4.339763,-5.716506 10.535148,-8.170713 17.35905,-8.709441 1.915482,-0.149647 3.801034,-0.149647 5.716515,-0.149647 l 241.590097,0 c 1.91548,0 3.80103,0 5.71651,0.149647 6.8239,0.538728 13.04922,3.022864 17.35905,8.709441 4.54927,5.985871 4.81864,12.061529 4.81864,19.035068 l 0,95.175343 c 0,1.61618 0,3.23237 -0.0898,4.81862 -0.74824,13.43828 -8.8591,21.96815 -22.38719,22.95582 -3.77111,0.26936 -7.51228,0.11971 -11.25345,0.11971 l -5.77638,0 -218.39481,0 z"/>
			<path d="m 270.02046,163.86067 10.77459,0 c 7.78164,0 15.11434,0.59858 21.21994,6.7341 6.1056,6.10559 6.73411,13.43828 6.73411,21.21991 l 0,95.17534 c 0,7.78163 -0.59858,15.05446 -6.67425,21.16005 -6.07567,6.10559 -13.37844,6.76404 -21.13016,6.76404 l -0.14964,0 -5.65666,0 0,0 -28.58257,0 0,0 -207.350865,0 0,0 c -7.781643,0 -15.114345,-0.59859 -21.219942,-6.73411 -6.135527,-6.10559 -6.734115,-13.40835 -6.734115,-21.18998 l 0,0 0,-95.17534 c 0,-7.78163 0.598588,-15.11432 6.734115,-21.21991 6.015808,-6.0158 13.528087,-6.82389 21.219942,-6.7341 l 10.774583,0 220.040922,0 z"/>
			<path d="m 241.1386,172.39053 -162.307123,0 -0.389082,0 -19.813261,0 -4.279904,-1.64611 0,0 c -1.765834,-0.65845 -3.232375,-2.2447 -3.262304,-4.24997 l 0,-6.82389 c 0,-2.0352 1.46654,-3.59152 3.262304,-4.2799 1.436611,-0.53873 2.843293,-1.07746 4.279904,-1.61618 6.614396,0 13.228793,0 19.813261,0 l 0.359152,-0.0898 162.307123,0 0.35915,0.0898 c 6.6144,0 13.22879,0 19.81326,0 1.43661,0.53872 2.84329,1.07745 4.2799,1.61618 1.79577,0.68838 3.26231,2.2447 3.26231,4.2799 l 0,6.82389 0,0 c -0.0299,2.00527 -1.49647,3.59152 -3.26231,4.24997 l -4.2799,1.64611 0,0 -19.81326,0 -0.32922,0 z"/>
		</g>
		<g style="stroke-width:1">
			<g style="fill:#ffffff;stroke:#404041">
				<path d="m 18.852965,168.70922 c -5.896091,0 2.873222,-7.51227 14.336181,-7.51227 l 19.813261,0 0,3.74117 -34.149442,3.7711 z"/>
				<path d="m 301.11711,168.70922 c 5.89609,0 -2.87322,-7.51227 -14.33618,-7.51227 l -19.81326,0 0,3.74117 34.14944,3.7711 z"/>
			</g>
			<g class="straight-button">
				<path id="button-l1" d="m 18.852965,168.70922 c -5.866162,0 2.873222,-7.51227 14.336181,-7.51227 l 14.276323,0 c 2.843292,0 3.651386,1.76584 3.651386,1.76584 l 1.855623,1.9454 -34.119513,3.80103 z"/>
				<path id="button-r1" d="m 301.11711,168.70922 c 5.86616,0 -2.87322,-7.51227 -14.33618,-7.51227 l -14.27633,0 c -2.84329,0 -3.65138,1.76584 -3.65138,1.76584 l -1.85562,1.9454 34.11951,3.80103 z"/>
			</g>
			<path d="m 50.787632,162.21455 -5.776374,0 c -3.741175,0 -7.512279,0.0599 -11.253453,-0.11971 -13.528088,-0.98767 -21.638954,-9.51754 -22.387189,-22.95582 -0.08979,-1.61618 -0.08979,-3.20244 -0.08979,-4.81862 l 0,-95.175343 c 0,-6.94361 0.269364,-13.049197 4.848562,-19.035068 4.339763,-5.716506 10.535148,-8.170713 17.35905,-8.709441 1.915482,-0.149647 3.801034,-0.149647 5.716515,-0.149647 l 241.590097,0 c 1.91548,0 3.80103,0 5.71651,0.149647 6.8239,0.538728 13.04922,3.022864 17.35905,8.709441 4.54927,5.985871 4.81864,12.061529 4.81864,19.035068 l 0,95.175343 c 0,1.61618 0,3.23237 -0.0898,4.81862 -0.74824,13.43828 -8.8591,21.96815 -22.38719,22.95582 -3.77111,0.26936 -7.51228,0.11971 -11.25345,0.11971 l -5.77638,0 -218.39481,0 z"/>
		</g>
	</g>
	<path style="fill:#ffffff" d="m 270.02046,163.86067 10.77459,0 c 7.78164,0 15.11434,0.59858 21.21994,6.7341 6.1056,6.10559 6.73411,13.43828 6.73411,21.21991 l 0,95.17534 c 0,7.78163 -0.59858,15.05446 -6.67425,21.16005 -6.07567,6.10559 -13.37844,6.76404 -21.13016,6.76404 l -0.14964,0 -5.65666,0 0,0 -28.58257,0 0,0 -207.350865,0 0,0 c -7.781643,0 -15.114345,-0.59859 -21.219942,-6.73411 -6.135527,-6.10559 -6.734115,-13.40835 -6.734115,-21.18998 l 0,0 0,-95.17534 c 0,-7.78163 0.598588,-15.11432 6.734115,-21.21991 6.015808,-6.0158 13.528087,-6.82389 21.219942,-6.7341 l 10.774583,0 220.040922,0 z"/>
	<path style="fill-opacity:0;stroke:#404041;stroke-width:1" d="m 304.76849,39.145057 0,87.812723 c 0,6.61438 -0.29929,13.16891 -5.56686,18.43648 -5.26758,5.26756 -11.82212,5.56686 -18.43651,5.56686 l -241.560165,0 c -6.614397,0 -13.168935,-0.2993 -18.436508,-5.56686 -5.267574,-5.26757 -5.566868,-11.8221 -5.566868,-18.43648 l 0,-87.812723 0,0 c 0,-6.614387 0.299294,-13.168915 5.566868,-18.436481 5.267573,-5.267566 11.822111,-5.566859 18.436508,-5.566859 l 0,0 220.789165,0 20.80093,0 c 6.61439,0 13.16893,0.299293 18.43651,5.566859 5.26757,5.267566 5.53693,11.822094 5.53693,18.436481 m -34.74803,124.715613 10.77459,0 c 7.78164,0 15.11434,0.59858 21.21994,6.7341 6.1056,6.10559 6.73411,13.43828 6.73411,21.21991 l 0,95.17534 c 0,7.78163 -0.59858,15.05446 -6.67425,21.16005 -6.07567,6.10559 -13.37844,6.76404 -21.13016,6.76404 l -0.14964,0 -5.65666,0 0,0 -28.58257,0 0,0 -207.350865,0 0,0 c -7.781643,0 -15.114345,-0.59859 -21.219942,-6.73411 -6.135527,-6.10559 -6.734115,-13.40835 -6.734115,-21.18998 l 0,0 0,-95.17534 c 0,-7.78163 0.598588,-15.11432 6.734115,-21.21991 6.015808,-6.0158 13.528087,-6.82389 21.219942,-6.7341 l 10.774583,0 220.040922,0 z"/>
	<path style="fill:#ffffff;stroke:#404041;stroke-width:1" d="m 241.1386,172.39053 -162.307123,0 -0.389082,0 -19.813261,0 -4.279904,-1.64611 0,0 c -1.765834,-0.65845 -3.232375,-2.2447 -3.262304,-4.24997 l 0,-6.82389 c 0,-2.0352 1.46654,-3.59152 3.262304,-4.2799 1.436611,-0.53873 2.843293,-1.07746 4.279904,-1.61618 6.614396,0 13.228793,0 19.813261,0 l 0.359152,-0.0898 162.307123,0 0.35915,0.0898 c 6.6144,0 13.22879,0 19.81326,0 1.43661,0.53872 2.84329,1.07745 4.2799,1.61618 1.79577,0.68838 3.26231,2.2447 3.26231,4.2799 l 0,6.82389 0,0 c -0.0299,2.00527 -1.49647,3.59152 -3.26231,4.24997 l -4.2799,1.64611 0,0 -19.81326,0 -0.32922,0 z"/>
	<g class="straight-button" style="stroke:#404041;stroke-width:1">
		<circle id="button-sq" cx="260.80222" cy="227.99927" r="7.1830554"/>
		<circle id="button-cr" cx="276.93405" cy="243.14395" r="7.1830554"/>
		<circle id="button-ci" cx="293.09607" cy="227.99895" r="7.1830554"/>
		<circle id="button-tr" cx="276.96405" cy="212.79495" r="7.1830554"/>
		<circle id="button-st" cx="260.80222" cy="275.52707" r="4.6390567"/>
		<circle id="button-se" cx="260.80222" cy="294.17307" r="4.6390567"/>
	</g>
	<circle style="fill-opacity:0;stroke:#404041;stroke-width:1" cx="55.157322" cy="294.203" r="6.2253141"/>
	<path style="fill:#ffffff;stroke-width:0" d="m 59.257651,248.77024 -9.397831,0 c -0.658446,-0.0898 -1.137317,-0.62852 -1.137317,-1.31689 l 0,-9.24817 c 0,-0.71831 -0.598588,-1.34682 -1.346823,-1.34682 l -8.739383,0 c -0.718306,0 -1.346823,0.59858 -1.346823,1.34682 l 0,9.2781 c -0.02993,0.65844 -0.5088,1.19717 -1.137317,1.28696 l -9.42776,0 c -0.748235,0 -1.346823,0.59859 -1.346823,1.34682 l 0,8.73937 c 0,0.7183 0.598588,1.34682 1.346823,1.34682 l 9.42776,0 c 0.628517,0.0898 1.137317,0.62852 1.137317,1.28696 l 0,9.2781 c 0,0.74824 0.598588,1.34682 1.346823,1.34682 l 8.769313,0 c 0.718305,0 1.346823,-0.59858 1.346823,-1.34682 l 0,-9.24817 c 0,-0.65844 0.508799,-1.2271 1.137317,-1.31689 l 9.42776,0 c 0.718305,0 1.346823,-0.59859 1.346823,-1.34682 l 0,-8.73937 c -0.05986,-0.77816 -0.658447,-1.34682 -1.406682,-1.34682 z"/>
	<g class="straight-button">
		<path id="button-du" d="m 48.722503,247.45335 0,-9.24817 c 0,-0.71831 -0.598588,-1.34682 -1.346823,-1.34682 l -8.739383,0 c -0.718306,0 -1.346823,0.59858 -1.346823,1.34682 l 0,9.2781 z"/>
		<path id="button-dl" d="m 36.152157,248.77024 -9.42776,0 c -0.748235,0 -1.346823,0.59859 -1.346823,1.34682 l 0,8.73937 c 0,0.7183 0.598588,1.34682 1.346823,1.34682 l 9.42776,0 z"/>
		<path id="button-dd" d="m 37.289474,261.49021 0,9.2781 c 0,0.74824 0.598588,1.34682 1.346823,1.34682 l 8.769313,0 c 0.718305,0 1.346823,-0.59858 1.346823,-1.34682 l 0,-9.24817 z"/>
		<path id="button-dr" d="m 59.257651,248.77024 -9.397831,0 0.02993,11.43301 9.42776,0 c 0.718305,0 1.346823,-0.59859 1.346823,-1.34682 l 0,-8.73937 c -0.05986,-0.77816 -0.658447,-1.34682 -1.406682,-1.34682 z"/>
	</g>
	<path style="fill-opacity:0;stroke:#404041;stroke-width:1" d="m 59.257651,248.77024 -9.397831,0 c -0.658446,-0.0898 -1.137317,-0.62852 -1.137317,-1.31689 l 0,-9.24817 c 0,-0.71831 -0.598588,-1.34682 -1.346823,-1.34682 l -8.739383,0 c -0.718306,0 -1.346823,0.59858 -1.346823,1.34682 l 0,9.2781 c -0.02993,0.65844 -0.5088,1.19717 -1.137317,1.28696 l -9.42776,0 c -0.748235,0 -1.346823,0.59859 -1.346823,1.34682 l 0,8.73937 c 0,0.7183 0.598588,1.34682 1.346823,1.34682 l 9.42776,0 c 0.628517,0.0898 1.137317,0.62852 1.137317,1.28696 l 0,9.2781 c 0,0.74824 0.598588,1.34682 1.346823,1.34682 l 8.769313,0 c 0.718305,0 1.346823,-0.59858 1.346823,-1.34682 l 0,-9.24817 c 0,-0.65844 0.508799,-1.2271 1.137317,-1.31689 l 9.42776,0 c 0.718305,0 1.346823,-0.59859 1.346823,-1.34682 l 0,-8.73937 c -0.05986,-0.77816 -0.658447,-1.34682 -1.406682,-1.34682 z"/>
	<g style="fill:#bbbdbf;stroke:#404041;stroke-width:1">
		<path d="m 259.06631,22.085326 -198.222401,0 c -0.808094,0 -1.49647,0.658446 -1.49647,1.496468 l 0,118.939246 c 0,0.80809 0.688376,1.49647 1.49647,1.49647 l 198.222401,0 c 0.80809,0 1.49647,-0.65845 1.49647,-1.49647 l 0,-118.939246 c 0,-0.838022 -0.65845,-1.496468 -1.49647,-1.496468 z"/>
		<path d="m 238.89389,182.83588 -157.847638,0 c -1.017599,0 -1.855623,0.83802 -1.855623,1.85562 l 0,118.19101 c 0,1.01759 0.838024,1.85562 1.855623,1.85562 l 157.847638,0 c 1.0176,0 1.85562,-0.83803 1.85562,-1.85562 l 0,-118.16108 c 0.0299,-1.04753 -0.80809,-1.88555 -1.85562,-1.88555"/>
	</g>
	<circle style="fill-opacity:0;stroke:#404041;stroke-width:1" cx="43.005989" cy="202.70897" r="20.262201"/>
	<circle style="fill:#bbbdbf;stroke:#404041;stroke-width:1" cx="43.005989" cy="202.70897" r="13.558017"/>
	<circle id="button-l3-shadow" style="fill:#bbbdbf;stroke:#404041;stroke-width:1" cx="43.005989" cy="202.70897" r="10.954159"/>
	<circle id="button-l3" style="fill:#bbbdbf;stroke:#404041;stroke-width:1" cx="43.005989" cy="202.70897" r="10.954159"/>
	<g style="fill:#404041">
		<path d="m 43.005988,262.86696 0,0 c -0.359152,0 -0.658446,0.2993 -0.658446,0.65845 l 0,3.38202 c 0,0.35915 0.299294,0.65844 0.658446,0.65844 l 0,0 c 0.359153,0 0.658447,-0.29929 0.658447,-0.65844 l 0,-3.38202 c 0,-0.35915 -0.299294,-0.65845 -0.658447,-0.65845"/>
		<path d="m 43.005988,241.37769 0,0 c -0.359152,0 -0.658446,0.29929 -0.658446,0.65844 l 0,3.41195 c 0,0.35915 0.299294,0.65845 0.658446,0.65845 l 0,0 c 0.359153,0 0.658447,-0.2993 0.658447,-0.65845 l 0,-3.41195 c 0,-0.38908 -0.299294,-0.65844 -0.658447,-0.65844"/>
		<path d="m 51.416149,254.45682 0,0 c 0,0.35915 0.299294,0.65844 0.658447,0.65844 l 3.382022,0 c 0.359152,0 0.658446,-0.29929 0.658446,-0.65844 l 0,0 c 0,-0.35916 -0.299294,-0.65845 -0.658446,-0.65845 l -3.382022,0 c -0.389082,0 -0.658447,0.29929 -0.658447,0.65845"/>
		<path d="m 29.896913,254.45682 0,0 c 0,0.35915 0.299294,0.65844 0.658446,0.65844 l 3.382022,0 c 0.359153,0 0.658447,-0.29929 0.658447,-0.65844 l 0,0 c 0,-0.35916 -0.299294,-0.65845 -0.658447,-0.65845 l -3.382022,0 c -0.359152,0 -0.658446,0.29929 -0.658446,0.65845"/>
		<path d="m 58.659063,293.42483 c -1.107388,-0.95774 -2.214775,-1.88555 -3.322163,-2.84329 -0.08979,-0.0898 -0.179576,-0.0898 -0.299294,0 -1.107388,0.95774 -2.214775,1.88555 -3.322163,2.84329 -0.209506,0.17958 -0.119718,0.38908 0.149647,0.38908 l 0.419012,0 c 0.149647,0 0.209505,0.0599 0.209505,0.20951 l 0,2.90315 c 0,0.14964 0.05986,0.2095 0.239436,0.2095 l 4.908421,0 c 0.149647,0 0.239435,-0.0599 0.239435,-0.2095 l 0,-2.90315 c 0,-0.14965 0.05986,-0.20951 0.209506,-0.20951 l 0.419011,0 c 0.269365,0 0.329224,-0.2095 0.149647,-0.38908 m -2.364422,2.18484 c 0,0.14965 -0.05986,0.23944 -0.209506,0.23944 l -1.795764,0 c -0.149647,0 -0.209506,-0.0599 -0.209506,-0.23944 l 0,-1.34682 c 0,-0.14964 0.05986,-0.2095 0.209506,-0.2095 l 1.795764,0 c 0.149647,0 0.209506,0.0599 0.209506,0.2095 l 0,1.34682 z"/>
		<path d="m 159.97007,168.82894 c -2.36442,0 -4.2799,-1.91548 -4.2799,-4.2799 0,-2.36442 1.91548,-4.2799 4.2799,-4.2799 2.36442,0 4.27991,1.91548 4.27991,4.2799 0,2.36442 -1.94542,4.2799 -4.27991,4.2799"/>
		<path d="m 159.97007,160.71808 c 2.12499,0 3.83096,1.70598 3.83096,3.83096 0,2.12499 -1.70597,3.83096 -3.83096,3.83096 -2.12499,0 -3.83096,-1.70597 -3.83096,-3.83096 0,-2.09505 1.70597,-3.83096 3.83096,-3.83096 m 0,-0.89788 c -2.60386,0 -4.75877,2.12499 -4.75877,4.75877 0,2.60385 2.12499,4.72884 4.75877,4.72884 2.60386,0 4.75878,-2.12499 4.75878,-4.72884 -0.0299,-2.63378 -2.15492,-4.75877 -4.75878,-4.75877"/>
		<path d="m 159.97007,160.71808 c 2.09506,0 3.83096,1.67605 3.83096,3.83096 0,2.09506 -1.70597,3.83096 -3.83096,3.83096 -2.15491,0 -3.83096,-1.70597 -3.83096,-3.83096 0,-2.15491 1.67605,-3.83096 3.83096,-3.83096"/>
		<path d="m 160.83802,164.54904 c 0,0.47887 -0.38908,0.89788 -0.89788,0.89788 -0.47887,0 -0.89788,-0.38908 -0.89788,-0.89788 0,-0.47887 0.38908,-0.89788 0.89788,-0.89788 0.5088,0 0.89788,0.41901 0.89788,0.89788"/>
	</g>
	<g style="fill:#404041">
		<polygon points="574.1,536.8 574.1,529.4 577,529.4 579.6,534.6 579.6,534.6 582.2,529.4 585,529.4 585,536.8 583.3,536.8 583.3,530.9 583.2,530.9 580.2,536.8 578.9,536.8 575.9,530.9 575.9,530.9 575.9,536.8 " transform="matrix(0.29929397,0,0,0.29929352,9.9938636,9.9639388)"/>
		<rect x="185.85899" y="168.40994" width="0.53872913" height="2.1848428"/>
		<path d="m 189.30088,168.94866 c -0.14965,-0.14965 -0.44894,-0.23944 -0.68838,-0.23944 -0.62851,0 -1.04752,0.35915 -1.04752,0.80809 0,0.47887 0.38908,0.8081 1.0176,0.8081 0.32922,0 0.56865,-0.0898 0.74823,-0.23944 l 0.41901,0.20951 c -0.26936,0.23943 -0.65844,0.38908 -1.16724,0.38908 -0.95775,0 -1.61619,-0.47887 -1.61619,-1.16725 0,-0.68837 0.7183,-1.13731 1.64611,-1.13731 0.38909,0 0.86796,0.0898 1.10739,0.32922 l -0.41901,0.23944 z"/>
	</g>
	<path style="fill:#404041" d="m 186.12836,167.03318 0,0 c -0.62851,0 -1.13731,-0.5088 -1.13731,-1.10739 l 0,-2.27463 c 0,-0.59859 0.5088,-1.10738 1.10739,-1.10738 l 0.0299,0 c 0.59859,0 1.10739,0.50879 1.10739,1.10738 l 0,2.27463 c 0,0.59859 -0.5088,1.10739 -1.10739,1.10739"/>
	<path style="fill:#bbbdbf;stroke:#404041;stroke-width:1" d="m 133.84171,167.03318 0,0 c 0.62852,0 1.13732,-0.5088 1.13732,-1.10739 l 0,-2.27463 c 0,-0.59859 -0.5088,-1.10738 -1.10739,-1.10738 l -0.0299,0 c -0.59859,0 -1.10739,0.50879 -1.10739,1.10738 l 0,2.27463 c 0,0.59859 0.47887,1.10739 1.10739,1.10739 z"/>
	<g style="fill:#404041">
		<g>
			<path d="m 269.42188,274.47955 c -0.14965,-0.17957 -0.38909,-0.29929 -0.65845,-0.29929 -0.29929,0 -0.62852,0.14965 -0.62852,0.47887 0,0.32922 0.26937,0.41901 0.68838,0.53873 0.44894,0.14964 1.04753,0.32922 1.04753,1.04752 0,0.77817 -0.59859,1.13732 -1.28697,1.13732 -0.44894,0 -0.92781,-0.17958 -1.2271,-0.5088 l 0.44894,-0.41901 c 0.17958,0.23943 0.5088,0.38908 0.77816,0.38908 0.2993,0 0.62852,-0.14965 0.62852,-0.53873 0,-0.35915 -0.35915,-0.47887 -0.80809,-0.62851 -0.41901,-0.14965 -0.89788,-0.35916 -0.89788,-1.0176 0,-0.71831 0.65844,-1.04753 1.28696,-1.04753 0.35915,0 0.74823,0.11972 1.04753,0.38908 l -0.41901,0.47887 z"/>
			<polygon points="872.8,893.2 872.8,883.2 869.1,883.2 869.1,881.3 878.5,881.3 878.5,883.2 874.9,883.2 874.9,893.2 " transform="matrix(0.29929397,0,0,0.29929352,9.9938636,9.9639388)"/>
			<path d="m 274.45002,273.73132 0.53872,0 1.5264,3.56159 -0.7183,0 -0.32923,-0.80809 -1.52639,0 -0.32923,0.80809 -0.7183,0 1.55633,-3.56159 z m 0.80809,2.21477 -0.53873,-1.43661 -0.56866,1.43661 1.10739,0 z"/>
			<path d="m 276.90423,273.73132 1.2271,0 c 0.65845,0 1.31689,0.26936 1.31689,1.0176 0,0.50879 -0.32922,0.83802 -0.80809,0.95774 l 0.95774,1.58625 -0.74823,0 -0.8081,-1.49647 -0.44894,0 0,1.49647 -0.62852,0 0,-3.56159 z m 1.13731,1.55632 c 0.35916,0 0.74824,-0.0898 0.74824,-0.50879 0,-0.38909 -0.38908,-0.47887 -0.71831,-0.47887 l -0.56866,0 0,0.98766 0.53873,0 z"/>
			<polygon points="904.7,893.2 904.7,883.2 901.1,883.2 901.1,881.3 910.5,881.3 910.5,883.2 906.8,883.2 906.8,893.2 " transform="matrix(0.29929397,0,0,0.29929352,9.9938636,9.9639388)"/>
		</g>
		<g>
			<path d="m 269.42188,293.15547 c -0.14965,-0.17958 -0.38909,-0.2993 -0.65845,-0.2993 -0.29929,0 -0.62852,0.14965 -0.62852,0.47887 0,0.32923 0.26937,0.41901 0.68838,0.53873 0.44894,0.14965 1.04753,0.32922 1.04753,1.04753 0,0.74823 -0.59859,1.13731 -1.28697,1.13731 -0.44894,0 -0.92781,-0.17957 -1.2271,-0.50879 l 0.44894,-0.41902 c 0.17958,0.23944 0.5088,0.38909 0.77816,0.38909 0.2993,0 0.62852,-0.14965 0.62852,-0.53873 0,-0.35915 -0.35915,-0.47887 -0.80809,-0.62852 -0.41901,-0.14965 -0.89788,-0.35915 -0.89788,-1.0176 0,-0.7183 0.65844,-1.04752 1.28696,-1.04752 0.35915,0 0.74823,0.11971 1.04753,0.38908 l -0.41901,0.47887 z"/>
			<polygon points="872.5,945.5 872.5,948.6 878,948.6 878,950.3 872.5,950.3 872.5,953.7 878.6,953.7 878.6,955.6 870.4,955.6 870.4,943.7 878.3,943.7 878.3,945.5 " transform="matrix(0.29929397,0,0,0.29929352,9.9938636,9.9639388)"/>
			<polygon points="887.8,953.7 887.8,955.6 880.6,955.6 880.6,943.7 882.7,943.7 882.7,953.7 " transform="matrix(0.29929397,0,0,0.29929352,9.9938636,9.9639388)"/>
			<polygon points="891.3,945.5 891.3,948.6 896.8,948.6 896.8,950.3 891.3,950.3 891.3,953.7 897.4,953.7 897.4,955.6 889.2,955.6 889.2,943.7 897.1,943.7 897.1,945.5 " transform="matrix(0.29929397,0,0,0.29929352,9.9938636,9.9639388)"/>
			<path d="m 281.75279,293.24526 c -0.17958,-0.26937 -0.5088,-0.35916 -0.8081,-0.35916 -0.7183,0 -1.2271,0.56866 -1.2271,1.28697 0,0.77816 0.47887,1.31689 1.19718,1.31689 0.38908,0 0.68837,-0.17958 0.86795,-0.41901 l 0.5088,0.35915 c -0.2993,0.38908 -0.77817,0.62851 -1.37675,0.62851 -1.10739,0 -1.88556,-0.77816 -1.88556,-1.88554 0,-1.13732 0.83803,-1.85562 1.91548,-1.85562 0.44895,0 1.0176,0.17957 1.28697,0.53872 l -0.47887,0.38909 z"/>
			<polygon points="914.6,955.6 914.6,945.5 911,945.5 911,943.7 920.4,943.7 920.4,945.5 916.7,945.5 916.7,955.6 " transform="matrix(0.29929397,0,0,0.29929352,9.9938636,9.9639388)"/>
		</g>
		<g>
			<!-- tr -->
			<polygon style="fill:#404041" points="891.9,674.8 895.8,668.4 899.6,668.4 893.9,677.2 900.6,687.1 896.4,687.1 891.8,679.7 887.4,687.1 883.4,687.1 889.9,677.1 884.1,668.4 888.1,668.4 " transform="matrix(0.29929397,0,0,0.29929352,9.9938636,9.9639388)"/>
			<!-- ci -->
			<path style="fill:#404041" d="m 292.67702,225.21584 0.86795,0 2.42428,5.59679 -1.13732,0 -0.50879,-1.28696 -2.42429,0 -0.5088,1.28696 -1.10738,0 2.39435,-5.59679 z m 1.28696,3.4718 -0.86795,-2.27463 -0.86795,2.27463 1.7359,0 z"/>
			<!-- cr -->
			<path style="fill:#404041" d="m 274.98874,240.41995 2.18485,0 c 0.83802,0 1.70598,0.38908 1.70598,1.40668 0,0.62852 -0.38909,1.04753 -0.95774,1.2271 l 0,0.0299 c 0.68837,0.0898 1.19717,0.56866 1.19717,1.31689 0,1.22711 -1.04753,1.61619 -2.12499,1.61619 l -2.00527,0 0,-5.59679 z m 0.98767,2.27463 0.89789,0 c 0.65844,0 1.0176,-0.26936 1.0176,-0.74823 0,-0.5088 -0.35916,-0.68838 -1.10739,-0.68838 l -0.8081,0 0,1.43661 z m 0,2.48414 0.89789,0 c 0.5088,0 1.25703,-0.0898 1.25703,-0.83803 0,-0.59858 -0.41901,-0.77816 -1.19717,-0.77816 l -0.92782,0 0,1.61619 z"/>
			<!-- sq -->
			<polygon style="fill:#404041" points="839.7,729.8 839.7,737.9 836.4,737.9 836.4,729.8 829.4,719.2 833.4,719.2 838.1,727.1 842.9,719.2 846.7,719.2 " transform="matrix(0.29929397,0,0,0.29929352,9.9938636,9.9639388)"/>
		</g>
	</g>

	<path style="fill:#bbbdbf;stroke:#404041;stroke-width:1" d="m 269.84089,193.96959 c 0,3.95068 -3.20245,7.15312 -7.15313,7.15312 -3.95068,0 -7.15312,-3.20244 -7.15312,-7.15312 0,-3.95067 3.20244,-7.15311 7.15312,-7.15311 3.95068,0 7.15313,3.20244 7.15313,7.15311"/>
	<g style="fill-opacity:0;stroke:#404041;stroke-width:1">
		<line x1="78.44239" y1="153.80441" x2="78.44239" y2="172.39053"/>
		<line x1="241.52766" y1="153.80441" x2="241.52766" y2="172.39053"/>
		<rect x="246.49596" y="313.20813" width="2.4242814" height="1.7359024"/>
		<rect x="259.60504" y="313.20813" width="2.4242814" height="1.7359024"/>
		<rect x="272.68417" y="313.20813" width="2.4242814" height="1.7359024"/>
	</g>
</svg>
