<?xml version="1.0" encoding="UTF-8"?>
<svg xmlns="http://www.w3.org/2000/svg" height="310.95001" width="320" version="1.0">
	<g style="fill:#777777">
		<path d="m 38.285257,52.349938 c 0,0 -0.43174,-4.67716 0.0128,-6.14584 0.0835,-0.27755 0.43174,-0.77096 0.64761,-0.96114 3.42307,-3.04657 11.97045,-6.92194 16.3328,-8.32637 2.68166,-0.86347 8.18631,-2.11243 10.95535,-2.6264 2.76261,-0.51141 8.33665,-1.08192 11.11982,-1.47254 6.3797,-0.89431 25.466113,-3.77899 25.466113,-3.77899 l 0,8.96627 -64.534533,14.34501 z"/>
		<path d="m 280.61741,52.863912 c 0,0 0.52682,-4.67716 0.081,-6.14841 -0.0822,-0.27498 -0.38419,-0.76968 -0.60006,-0.95985 -3.42307,-3.04658 -11.94989,-6.92065 -16.31096,-8.32637 -2.67908,-0.86476 -8.17089,-2.11243 -10.94121,-2.6264 -2.76261,-0.51269 -8.5204,-1.08192 -11.30357,-1.47254 -6.37969,-0.89431 -25.64857,-3.77899 -25.64857,-3.77899 l 0,8.96755 64.72342,14.34501 z"/>
		<g class="straight-button">
			<path id="button-l1" d="m 38.285257,52.349938 c 0,0 -0.43174,-4.67716 0.0128,-6.14584 0.0835,-0.27755 0.43174,-0.77096 0.64761,-0.96114 3.42307,-3.04657 11.97045,-6.92194 16.3328,-8.32637 2.68166,-0.86347 8.18631,-2.11243 10.95535,-2.6264 2.76261,-0.51141 8.33665,-1.08192 11.11982,-1.47254 6.3797,-0.89431 25.466113,-3.77899 25.466113,-3.77899 l 0,8.96627 -64.534533,14.34501 z"/>
			<path id="button-r1" d="m 280.61741,52.863912 c 0,0 0.52682,-4.67716 0.081,-6.14841 -0.0822,-0.27498 -0.38419,-0.76968 -0.60006,-0.95985 -3.42307,-3.04658 -11.94989,-6.92065 -16.31096,-8.32637 -2.67908,-0.86476 -8.17089,-2.11243 -10.94121,-2.6264 -2.76261,-0.51269 -8.5204,-1.08192 -11.30357,-1.47254 -6.37969,-0.89431 -25.64857,-3.77899 -25.64857,-3.77899 l 0,8.96755 64.72342,14.34501 z"/>
		</g>
	</g>
	<g style="fill:#bbbbbb;stroke:#111111;stroke-width:1.5">
		<path d="m 68.540307,170.46108 c -1.08191,4.26984 -9.99036,43.42435 -19.98201,62.63926 -2.5416,4.88146 -8.38034,6.6611 -12.83392,6.6611 -5.46996,0 -8.85062,-1.98908 -12.78509,-7.30228 -7.68648,-10.37585 -12.29682,-60.76711 -12.29682,-72.11693 0,-37.35432 15.14295,-91.435922 26.3874,-92.740132 C 199.7565,48.703288 139.16158,279.74088 131.22069,245.41258 c -2.21394,-9.56891 -10.83071,-53.50852 -13.61902,-71.23675 -1.45069,-9.21427 -11.25088,-14.85513 -15.62865,-15.88179 -6.670103,-1.56762 -17.035663,-2.81786 -22.801163,-2.81786 -2.25249,0 -7.29971,1.80919 -7.92033,4.29682 -0.93929,3.76229 -1.86444,7.35111 -2.71122,10.68808 z m 182.919383,0 c 1.08319,4.26984 8.45486,41.88757 18.44522,61.10119 2.53903,4.88275 8.37906,6.66238 12.83264,6.66238 5.47254,0 10.38741,-2.50176 14.32188,-7.81368 7.68519,-10.37584 12.2981,-60.76839 12.2981,-72.11693 0,-37.35432 -15.14423,-91.435912 -26.38869,-92.741412 C 120.2435,46.653818 182.54353,278.78874 190.48442,244.45916 c 2.21394,-9.56891 11.62223,-53.83361 14.41054,-71.56184 1.45069,-9.21555 9.39415,-13.70254 13.77064,-14.73177 6.67137,-1.56634 16.77995,-2.68937 22.54545,-2.68937 2.25249,0 6.9168,1.80919 7.53614,4.29682 0.94186,3.76229 1.86701,7.35111 2.7125,10.68808 z"/>
		<path d="m 252.84356,40.189318 c -1.67298,-0.26341 -30.41953,-4.61163 -30.41953,-4.61163 0,0 -4.22358,-10.76389 -5.97623,-13.91969 -0.85448,-1.53678 -27.49759,-11.01574 -56.06296,-11.01574 -33.68969,0 -55.3858,10.35785 -55.97687,11.8291 -1.416,3.51687 -6.575013,12.76839 -6.575013,12.76839 l 0.17089,0 c 0,0 -29.8503,4.71314 -31.08255,4.90845 -26.81529,4.26984 -48.50627,26.30646 -48.50627,55.4796 0,29.174432 19.97431,55.840672 45.93511,57.974952 1.23097,0.10151 35.09798,1.54192 45.260523,8.88532 2.69837,1.95181 6.64825,6.99775 8.02827,13.49694 7.68391,36.20816 12.77225,124.32252 42.55188,124.32252 29.21555,0 36.14135,-86.28846 45.1603,-127.48474 1.83745,-8.39319 8.65788,-12.84163 12.54995,-14.51333 9.34404,-4.01413 33.28365,-4.37006 34.94507,-4.61163 29.99936,-4.35593 49.11918,-23.07228 49.11918,-58.005782 -0.003,-29.17443 -21.96595,-51.23418 -49.12175,-55.50273 z"/>
	</g>
	<g>
		<circle style="fill:#ff0000" cx="161.51302" cy="107.56743" r="10.613556"/>
		<circle class="reverse-button" id="button-st" cx="161.51302" cy="107.56743" r="10.613556"/>
	</g>
	<circle style="fill:#00ff00" cx="218.045" cy="105.68883" r="11.80983"/>
	<circle style="fill:#8888ff" cx="239.05238" cy="126.69493" r="11.808544"/>
	<g class="reverse-button">
		<circle id="button-sq" cx="218.045" cy="105.68883" r="11.80983"/>
		<circle id="button-cr" cx="239.05238" cy="126.69493" r="11.808544"/>
	</g>
	<circle style="fill:#999999" cx="261.59653" cy="87.756302" r="22.141985"/>
	<circle style="fill:#666666" cx="161.51302" cy="167.00331" r="31.510441"/>
	<polygon style="fill:#333333" points="433.734,335.484 422.835,330.919 418.356,319.984 422.922,309.085 433.856,304.606 444.756,309.173 449.234,320.107 444.669,331.007 " transform="matrix(1.2849341,0,0,1.2849341,-395.73338,-244.23471)"/>
	<circle id="button-l3-shadow" style="fill:#bbbbbb" cx="161.92162" cy="167.13179" r="14.090588"/>
	<circle id="button-l3" style="fill:#bbbbbb" cx="161.92162" cy="167.13179" r="14.090588"/>
	<circle style="fill:#999999" cx="67.846458" cy="98.246506" r="32.12207"/>
	<path style="fill:#666666" d="m 88.522327,89.848172 -12.68487,0 0,-12.51269 c 0,-1.69611 -0.98812,-2.90652 -2.68552,-2.90652 l -10.76004,0 c -1.69739,0 -1.97365,1.21041 -1.97365,2.90652 l 0,12.51269 -13.39801,0 c -1.6974,0 -2.0212,1.16286 -2.0212,2.86026 l 0,10.758758 c 0,1.69739 0.3238,3.08512 2.0212,3.08512 l 13.39801,0 0,12.28654 c 0,1.6974 0.27626,3.13267 1.97365,3.13267 l 10.76004,0 c 1.6974,0 2.68552,-1.43527 2.68552,-3.13267 l 0,-12.28654 12.68487,0 c 1.69868,0 2.73434,-1.38773 2.73434,-3.08512 l 0,-10.758758 c 0,-1.6974 -1.03566,-2.86026 -2.73434,-2.86026 z"/>
	<g style="fill:#999999;stroke-width:0">
		<circle cx="67.846001" cy="98.246567" r="6.5009999"/>
		<path d="m 62.846,87.348454 10,0 -4.869759,-10 z"/>
		<path d="m 72.846,109.14601 -10,0 4.86976,10 z"/>
		<path d="m 56.947,103.24701 0,-9.999994 -10,4.869759 z"/>
		<path d="m 78.745,93.24701 0,10 10,-4.869759 z"/>
		<g class="straight-button">
			<circle cx="67.846001" cy="98.246567" r="6.5009999"/>
			<path id="button-du" d="m 62.846,87.348454 10,0 -4.869759,-10 z"/>
			<path id="button-dd" d="m 72.846,109.14601 -10,0 4.86976,10 z"/>
			<path id="button-dl" d="m 56.947,103.24701 0,-9.999994 -10,4.869759 z"/>
			<path id="button-dr" d="m 78.745,93.24701 0,10 10,-4.869759 z"/>
		</g>
	</g>
	<g style="fill:#ffff00">
		<circle cx="261.12753" cy="70.890244" r="8.2659817"/>
		<circle cx="261.12753" cy="104.70714" r="8.2659817"/>
		<circle cx="243.70766" cy="87.284714" r="8.2659817"/>
		<circle cx="279.06137" cy="87.284714" r="8.2659817"/>
		<g class="straight-button">
			<circle id="button-r3u" cx="261.12753" cy="70.890244" r="8.2659817"/>
			<circle id="button-r3d" cx="261.12753" cy="104.70714" r="8.2659817"/>
			<circle id="button-r3l" cx="243.70766" cy="87.284714" r="8.2659817"/>
			<circle id="button-r3r" cx="279.06137" cy="87.284714" r="8.2659817"/>
		</g>
	</g>
	<g style="fill:#111111;fill-opacity:0.5;stroke-width:0">
		<path d="m 256.128,74.425012 10,0 -4.86976,-10 z"/>
		<path d="m 266.128,101.17201 -10,0 4.86976,10 z"/>
		<path d="m 247.243,92.285012 0,-9.999996 -10,4.869759 z"/>
		<path d="m 275.52585,82.28501 0,10.000002 10,-4.869761 z"/>
	</g>
	<g style="fill:#880000;stroke-width:0">
		<path style="fill:#008800" d="m 213.61421,98.540855 4.29688,0 q 2.67578,0 3.87695,0.859375 1.21094,0.84961 1.21094,2.75391 0,1.25 -0.77149,2.08007 -0.76172,0.83008 -2.07031,1.00586 l 0,0.0977 q 3.24219,0.52734 3.24219,3.33984 0,1.9336 -1.25,3.03711 -1.24024,1.10352 -3.38867,1.10352 l -5.14649,0 0,-14.277345 z m 1.82617,6.054685 2.77344,0 q 1.52344,0 2.2168,-0.53711 0.70312,-0.53711 0.70312,-1.77734 0,-1.17188 -0.75195,-1.67969 -0.74219,-0.50781 -2.36328,-0.50781 l -2.57813,0 0,4.50195 z m 0,1.52344 0,5.15625 2.99805,0 q 3.03711,0 3.03711,-2.67578 0,-2.48047 -3.16406,-2.48047 l -2.8711,0 z"/>
		<path style="fill:#4444ff" d="m 243.0172,133.73486 -1.40625,-4.42382 -4.79493,0 -1.42578,4.42382 -1.85547,0 4.7168,-14.33593 1.9043,0 4.73633,14.33593 -1.875,0 z m -1.92383,-6.03515 -1.29883,-4.14063 q -0.38086,-1.21094 -0.60547,-2.20703 -0.19531,0.9668 -0.44922,1.78711 l -1.40625,4.56055 3.75977,0 z"/>
		<path d="m 152.11553,111.42698 0,-0.97778 q 0.76788,0.47241 1.50665,0.47241 1.27375,0 1.27375,-1.31836 0,-0.57129 -0.25839,-0.8789 -0.25475,-0.30762 -1.03719,-0.7306 -0.75697,-0.401 -1.08814,-0.95581 -0.32754,-0.5603 -0.32754,-1.45019 0,-0.95581 0.46583,-1.49414 0.46946,-0.54382 1.28466,-0.54382 0.83339,0 1.51393,0.42846 l -0.23291,0.90088 q -0.70237,-0.42847 -1.31013,-0.42847 -1.0663,0 -1.0663,1.14807 0,0.56031 0.23655,0.90088 0.24018,0.34058 0.98624,0.73059 0.89526,0.4834 1.19367,0.99976 0.30207,0.51087 0.30207,1.31836 0,1.05469 -0.50586,1.65894 -0.50222,0.59875 -1.43024,0.59875 -0.9644,0 -1.50665,-0.37903 z"/>
		<path d="m 157.98187,111.69615 -0.68055,0 0,-7.13013 -1.52121,0 0,-0.90088 3.71933,0 0,0.90088 -1.51757,0 0,7.13013 z"/>
		<path d="m 162.86924,111.69615 -0.52406,-2.48841 -1.78688,0 -0.53133,2.48841 -0.69146,0 1.75776,-8.06397 0.70966,0 1.76504,8.06397 -0.69873,0 z m -0.71694,-3.39478 -0.48402,-2.3291 q -0.14193,-0.68115 -0.22564,-1.24146 -0.0728,0.54383 -0.1674,1.00525 l -0.52406,2.56531 1.40112,0 z"/>
		<path d="m 164.37937,108.37828 0,3.31787 -0.68054,0 0,-8.03101 1.29921,0 q 1.89242,0 1.89242,2.27966 0,1.57654 -1.05174,2.15332 l 1.44478,3.59803 -0.797,0 -1.27374,-3.31787 -0.83339,0 z m 0,-0.86792 0.59684,0 q 0.62231,0 0.91709,-0.36255 0.29479,-0.36255 0.29479,-1.15357 0,-0.77453 -0.29115,-1.11511 -0.29114,-0.34058 -0.93893,-0.34058 l -0.57864,0 0,2.97181 z"/>
		<path d="m 169.40139,111.69615 -0.68054,0 0,-7.13013 -1.52122,0 0,-0.90088 3.71934,0 0,0.90088 -1.51758,0 0,7.13013 z"/>
	</g>
</svg>
