<?xml version="1.0" encoding="UTF-8"?>
<svg xmlns="http://www.w3.org/2000/svg" height="143.492" width="320" version="1.0">
	<rect style="fill:#1a1a1a" x="17.819582" y="30.565868" width="285.21133" height="95.727135"/>
	<g style="fill:#808080">
		<path d="m 110.96192,27.161464 75.1375,0 c 2.62843,0 4.7593,2.13088 4.7593,4.7593 l 0,5.19312 c 0,2.62842 -2.13087,4.7593 -4.7593,4.7593 l -75.1375,0 c -2.62842,0 -4.75929,-2.13088 -4.75929,-4.7593 l 0,-5.19312 c 4.9e-4,-2.62842 2.13136,-4.7593 4.75929,-4.7593 z"/>
		<path d="m 110.96192,46.094734 75.1375,0 c 2.62843,0 4.7593,2.13088 4.7593,4.75881 l 0,5.19312 c 0,2.62843 -2.13087,4.7593 -4.7593,4.7593 l -75.1375,0 c -2.62842,0 -4.75929,-2.13087 -4.75929,-4.7593 l 0,-5.19312 c 4.9e-4,-2.62793 2.13136,-4.75881 4.75929,-4.75881 z"/>
		<path d="m 110.96192,116.87686 75.1375,0 c 2.62843,0 4.7593,2.13087 4.7593,4.7593 l 0,5.19312 c 0,2.62842 -2.13087,4.75929 -4.7593,4.75929 l -75.1375,0 c -2.62842,0 -4.75929,-2.13087 -4.75929,-4.75929 l 0,-5.19312 c 4.9e-4,-2.62892 2.13136,-4.7593 4.75929,-4.7593 z"/>
		<path d="m 110.96192,65.038304 75.1375,0 c 2.62843,0 4.7593,2.13088 4.7593,4.7593 l 0,5.19312 c 0,2.62842 -2.13087,4.7593 -4.7593,4.7593 l -75.1375,0 c -2.62842,0 -4.75929,-2.13088 -4.75929,-4.7593 l 0,-5.19312 c 0,-2.62842 2.13136,-4.7593 4.75929,-4.7593 z"/>
	</g>
	<path style="fill:#dcdcdc" d="M 13.996065,10.000244 C 11.786269,10.000244 10,11.786514 10,13.996314 l 0,115.500106 c 0,2.2098 1.786759,3.99607 3.996065,3.99558 l 292.105415,0 c 2.2098,0 3.89852,-1.78627 3.89852,-3.99558 l 0,-115.500106 c 0,-2.2098 -1.68872,-3.99607 -3.89852,-3.99607 l -292.105415,0 0,0 z m 3.801459,20.56562 285.286326,0 0,95.710476 -285.286326,0 0,-95.710476 0,0 z"/>
	<path style="stroke:#ffffff;stroke-width:1" d="m 52.915056,55.083434 c -1.316663,0 -2.310287,1.08627 -2.310287,2.40293 l 0,16.5426 -16.542593,0 c -1.316662,0 -2.402933,1.08676 -2.402933,2.40293 l 0,13.3078 c 0,1.31666 1.086271,2.40245 2.402933,2.40245 l 16.542593,0 0,16.542586 c 0,1.31666 0.994115,2.31077 2.310287,2.31077 l 13.400446,0 c 1.316663,0 2.310287,-0.99362 2.310287,-2.31077 l 0,-16.542586 16.542593,0 c 1.316662,0 2.402933,-1.08628 2.402933,-2.40245 l 0,-13.3078 c 0,-1.31666 -1.086271,-2.40293 -2.402933,-2.40293 l -16.542593,0 0,-16.5426 c 0,-1.31666 -0.994115,-2.40293 -2.310287,-2.40293 l -13.400446,0 z"/>
	<path style="fill:#1a1a1a" d="m 53.376819,57.166764 c -0.416665,0 -0.738233,0.32206 -0.738233,0.73823 l 0,18.05485 -18.054843,0 c -0.416175,0 -0.738233,0.32156 -0.738233,0.73823 l 0,12.71956 c 0,0.41667 0.322058,0.77157 0.738233,0.77157 l 18.054843,0 0,18.021996 c 0,0.41618 0.322058,0.77157 0.738233,0.77157 l 12.7529,0 c 0.416665,0 0.738232,-0.35588 0.738232,-0.77157 l 0,-18.021996 18.054843,0 c 0.416666,0 0.738233,-0.35539 0.738233,-0.77157 l 0,-12.71956 c 0,-0.41667 -0.322058,-0.73823 -0.738233,-0.73823 l -18.054843,0 0,-18.05485 c 0,-0.41667 -0.321567,-0.73823 -0.738232,-0.73823 l -12.7529,0 z"/>
	<g>
		<g style="fill:#dddddd">	
			<path d="m 206.19034,80.432534 29.29555,0 c 1.29266,0 2.33903,1.04779 2.33903,2.33903 l 0,29.295546 c 0,1.29124 -1.04637,2.33903 -2.33903,2.33903 l -29.29555,0 c -1.29266,0 -2.33903,-1.04779 -2.33903,-2.33903 l 0,-29.295546 c 0,-1.29266 1.0478,-2.33903 2.33903,-2.33903 z"/>
			<path d="m 244.77084,80.432534 29.29555,0 c 1.29123,0 2.33903,1.04779 2.33903,2.33903 l 0,29.295546 c 0,1.29124 -1.0478,2.33903 -2.33903,2.33903 l -29.29555,0 c -1.29266,0 -2.33904,-1.04779 -2.33904,-2.33903 l 0,-29.295546 c 0,-1.29266 1.0478,-2.33903 2.33904,-2.33903 z"/>
		</g>
		<g style="fill:#ff0000">
			<circle cx="220.83701" cy="97.563004" r="13.923"/>
			<circle cx="259.42999" cy="97.563004" r="13.923"/>
		</g>
		<g fill-opacity="0" style="fill:#000000">
			<circle class="anti" id="button-sq" cx="220.83701" cy="97.563004" r="13.923"/>
			<circle class="anti" id="button-cr" cx="259.42999" cy="97.563004" r="13.923"/>
		</g>
	</g>
	<path style="fill:#dddddd" d="m 111.50751,83.735304 74.06201,0 c 2.92941,0 5.30391,2.37499 5.30391,5.30439 l 0,17.324946 c 0,2.92989 -2.37499,5.30439 -5.30391,5.30439 l -74.06201,0 c -2.92989,0 -5.30439,-2.37499 -5.30439,-5.30439 l 0,-17.324946 c -4.9e-4,-2.9294 2.3745,-5.30439 5.30439,-5.30439 z"/>
	<path style="fill-opacity:0;stroke:#808080;stroke-width:0.71489966" d="m 114.01682,86.398534 69.05663,0 c 2.4,0 4.34509,1.94558 4.34509,4.34508 l 0,14.191616 c 0,2.39999 -1.94558,4.34459 -4.34509,4.34459 l -69.05663,0 c -2.4,0 -4.34509,-1.94509 -4.34509,-4.34459 l 0,-14.191616 c 0,-2.3995 1.94509,-4.34508 4.34509,-4.34508 z"/>
	<g style="fill:#1a1a1a;fill-opacity:1;stroke:#000000;stroke-opacity:1">
		<path d="m 120.62954,93.518604 14.40927,0 c 2.58822,0 4.68626,2.09803 4.68626,4.68675 l 0,0 c 0,2.587736 -2.09804,4.686256 -4.68626,4.686256 l -14.40927,0 c -2.58823,0 -4.68626,-2.09803 -4.68626,-4.686256 l 0,0 c 0,-2.58872 2.09803,-4.68675 4.68626,-4.68675 z"/>
		<path d="m 161.80392,93.518604 14.40926,0 c 2.58823,0 4.68675,2.09803 4.68675,4.68675 l 0,0 c 0,2.587736 -2.09803,4.686256 -4.68675,4.686256 l -14.40926,0 c -2.58823,0 -4.68675,-2.09803 -4.68675,-4.686256 l 0,0 c 0,-2.58872 2.09803,-4.68675 4.68675,-4.68675 z"/>
		<g fill-opacity="0" style="fill:#ff0000">
			<path id="button-se" d="m 120.62954,93.518604 14.40927,0 c 2.58822,0 4.68626,2.09803 4.68626,4.68675 l 0,0 c 0,2.587736 -2.09804,4.686256 -4.68626,4.686256 l -14.40927,0 c -2.58823,0 -4.68626,-2.09803 -4.68626,-4.686256 l 0,0 c 0,-2.58872 2.09803,-4.68675 4.68626,-4.68675 z"/>
			<path id="button-st" d="m 161.80392,93.518604 14.40926,0 c 2.58823,0 4.68675,2.09803 4.68675,4.68675 l 0,0 c 0,2.587736 -2.09803,4.686256 -4.68675,4.686256 l -14.40926,0 c -2.58823,0 -4.68675,-2.09803 -4.68675,-4.686256 l 0,0 c 0,-2.58872 2.09803,-4.68675 4.68675,-4.68675 z"/>
		</g>
	</g>
	<g style="fill:#ff0000">
		<path d="m 110.90751,75.193174 3.83578,0 c 1.09607,0 1.64411,-0.50245 1.64411,-1.50735 0,-1.00441 -0.54804,-1.50685 -1.64411,-1.50685 l -2.7397,0 0,-0.82157 4.38381,0 0,-1.09608 -3.83577,0 c -1.09608,0 -1.64412,0.50932 -1.64412,1.52843 0,0.99019 0.54804,1.48529 1.64412,1.48529 l 2.73969,0 0,0.82206 -4.38381,0 0,1.09607 z"/>
		<path d="m 122.41581,75.193174 -3.83577,0 c -1.09559,0 -1.64411,-0.54804 -1.64411,-1.64411 l 0,-3.28774 5.47988,0 0,1.09559 -4.38381,0 0,0.82156 4.38381,0 0,1.09559 -4.38381,0 0,0.27451 c 0,0.36519 0.18284,0.54804 0.54804,0.54804 l 3.83577,0 0,1.09656 z"/>
		<path d="m 122.95649,70.254954 0,3.28774 c 0,1.09558 0.54804,1.64411 1.64363,1.64411 l 3.83626,0 0,-1.09559 -3.83626,0 c -0.3652,0 -0.54804,-0.18284 -0.54804,-0.54803 l 0,-3.28774 -1.09559,0 z"/>
		<path d="m 134.4643,75.193174 -3.83577,0 c -1.09608,0 -1.64362,-0.54804 -1.64362,-1.64411 l 0,-3.28774 5.47939,0 0,1.09559 -4.38381,0 0,0.82156 4.38381,0 0,1.09559 -4.38381,0 0,0.27451 c 0,0.36519 0.18284,0.54804 0.54804,0.54804 l 3.83577,0 0,1.09656 z"/>
		<path d="m 140.49418,75.193174 -3.83577,0 c -1.09608,0 -1.64411,-0.54804 -1.64411,-1.64411 l 0,-1.64411 c 0,-1.09559 0.54803,-1.64363 1.64411,-1.64363 l 3.83577,0 0,1.09559 -3.83577,0 c -0.36569,0 -0.54804,0.18284 -0.54804,0.54804 l 0,1.64411 c 0,0.36519 0.18284,0.54804 0.54804,0.54804 l 3.83577,0 0,1.09607 z"/>
		<path d="m 141.04516,70.254954 5.47988,0 0,1.09608 -2.19215,0 0,3.83577 -1.09558,0 0,-3.83577 -2.19215,0 0,-1.09608 z"/>
		<path d="m 156.40344,75.193174 3.83577,0 c 1.09608,0 1.64314,-0.50245 1.64314,-1.50735 0,-1.00441 -0.54706,-1.50685 -1.64314,-1.50685 l -2.74018,0 0,-0.82157 4.38332,0 0,-1.09608 -3.83528,0 c -1.09608,0 -1.64412,0.50932 -1.64412,1.52892 0,0.99019 0.54804,1.4848 1.64412,1.4848 l 2.73969,0 0,0.82206 -4.38381,0 0,1.09607 z"/>
		<path d="m 162.42205,70.254954 5.48038,0 0,1.09608 -2.19215,0 0,3.83577 -1.09608,0 0,-3.83577 -2.19215,0 0,-1.09608 z"/>
		<path d="m 172.83868,72.724064 0,-0.82205 c 0,-0.36569 -0.18284,-0.54853 -0.54803,-0.54853 l -2.19166,0 c -0.36569,0 -0.54804,0.18284 -0.54804,0.54853 l 0,0.82205 3.28773,0 z m -3.28773,1.09559 0,1.37009 -1.09559,0 0,-3.28773 c 0,-1.09608 0.54804,-1.64412 1.64412,-1.64412 l 2.19166,0 c 1.09607,0 1.64411,0.54804 1.64411,1.64412 l 0,3.28773 -1.09608,0 0,-1.37009 -3.28822,0 z"/>
		<path d="m 175.57299,72.173084 3.28822,0 0,-0.82205 -3.28822,0 0,0.82205 z m 0,1.09559 0,1.91764 -1.0951,0 0,-4.93136 3.83529,0 c 1.09607,0 1.64411,0.50049 1.64411,1.50147 0,0.475 -0.0784,0.82401 -0.2353,1.04656 0.15687,0.25932 0.2353,0.59755 0.2353,1.01372 l 0,1.36961 -1.09559,0 0,-1.36961 c 0,-0.36519 -0.18284,-0.54803 -0.54803,-0.54803 l -2.74068,0 z"/>
		<path d="m 180.51121,70.254954 5.47988,0 0,1.09608 -2.19215,0 0,3.83577 -1.09558,0 0,-3.83577 -2.19215,0 0,-1.09608 z"/>
		<path d="m 234.05172,119.36803 3.93283,0 0,-0.98333 -3.93283,0 0,0.98333 z m 0,2.29411 3.93283,0 0,-0.98333 -3.93283,0 0,0.98333 z m -1.31029,1.31078 0,-5.899 4.58822,0 c 1.31078,0 1.96617,0.59411 1.96617,1.78283 0,0.4853 -0.1049,0.87402 -0.31471,1.16716 0.20981,0.28823 0.31471,0.67499 0.31471,1.1598 0,1.19313 -0.65539,1.78921 -1.96617,1.78921 l -4.58822,0 z"/>
		<path d="m 276.57903,120.26998 0,-0.98333 c 0,-0.43725 -0.21814,-0.65539 -0.65539,-0.65539 l -2.62205,0 c -0.43725,0 -0.65539,0.21814 -0.65539,0.65539 l 0,0.98333 3.93283,0 z m -3.93234,1.31078 0,1.63921 -1.31127,0 0,-3.93283 c 0,-1.31078 0.65588,-1.96617 1.96666,-1.96617 l 2.62205,0 c 1.31078,0 1.96617,0.65539 1.96617,1.96617 l 0,3.93283 -1.31078,0 0,-1.63921 -3.93283,0 z"/>
	</g>
	<g fill-opacity="0" style="fill:#ff0000;stroke:#000000;stroke-width:1">
		<path id="button-du" d="m 65.039526,64.232914 -2.684795,-2.68479 -2.684795,-2.6848 -2.684795,2.6848 -2.684796,2.68479 1.610779,0 0,5.36959 7.517623,0 0,-5.36959 1.610779,0 z"/>
		<path id="button-dd" d="m 65.039526,102.30338 -2.684795,2.68528 -2.684795,2.6848 -2.684795,-2.6848 -2.684796,-2.68528 1.610779,0 0,-5.369586 7.517623,0 0,5.369586 1.610779,0 z"/>
		<path id="button-dl" d="m 40.973428,77.796594 -2.684795,2.68529 -2.684795,2.68479 2.684795,2.68529 2.684795,2.68479 0,-1.61077 5.36959,0 0,-7.51763 -5.36959,0 0,-1.61176 z"/>
		<path id="button-dr" d="m 78.474286,77.796594 2.684795,2.68529 2.684795,2.68479 -2.684795,2.68529 -2.684795,2.68479 0,-1.61077 -5.36959,0 0,-7.51763 5.36959,0 0,-1.61176 z"/>
	</g>
	<circle style="fill-opacity:0;stroke:#000000" cx="59.758999" cy="83.080002" r="6.625"/>
</svg>
