<?xml version="1.0" encoding="UTF-8"?>
<svg xmlns="http://www.w3.org/2000/svg" width="320" height="148.089" version="1.1">
	<g fill="#30363a">
		<path d="m 10.117772,37.405924 c 0,-15.004122 12.283594,-27.287717 27.287716,-27.287717 l 0,27.287717 -27.287716,0 z"/>
		<path id="button-l1" fill="#ff0000" fill-opacity="0" d="m 10.117772,37.405924 c 0,-15.004122 12.283594,-27.287717 27.287716,-27.287717 l 0,27.287717 -27.287716,0 z"/>
		<path d="m 309.88223,37.405924 c 0,-15.004122 -12.2836,-27.287717 -27.28772,-27.287717 l 0,27.287717 27.28772,0 z"/>
		<path id="button-r1" fill="#ff0000" fill-opacity="0" d="m 309.88223,37.405924 c 0,-15.004122 -12.2836,-27.287717 -27.28772,-27.287717 l 0,27.287717 27.28772,0 z"/>
	</g>
	<path fill="#30363a" stroke="#373435" stroke-width="0.5" d="m 57.462019,11.02505 208.832881,0 c 0,2.46143 1.81369,4.534213 4.1809,4.922859 l 0,122.023321 -218.007304,0 0,-121.964435 c 2.744082,0 4.993523,-2.237663 4.993523,-4.981745 z"/>
	<path fill="#373435" stroke="#373435" stroke-width="0.5" d="m 61.913791,15.076398 200.859729,0 c 1.46037,0 2.64987,1.189495 2.64987,2.649865 l 0,111.859617 c 0,1.46037 -1.1895,2.64986 -2.64987,2.64986 l -12.44847,0 0,-1.13061 c 0,-0.69485 -0.5653,-1.24838 -1.24838,-1.24838 l -7.63161,0 c -0.68308,0 -1.24838,0.55353 -1.24838,1.24838 l 0,1.13061 -111.69474,0 0,-2.86185 c 0,-0.94217 -0.98928,-1.71947 -2.22588,-1.71947 -1.22483,0 -2.21411,0.7773 -2.21411,1.71947 l 0,2.86185 -39.571313,0 0,-1.13061 c 0,-0.69485 -0.565304,-1.24838 -1.24838,-1.24838 l -7.63161,0 c -0.694854,0 -1.248381,0.55353 -1.248381,1.24838 l 0,1.13061 -12.448475,0 c -1.46037,0 -2.649864,-1.18949 -2.649864,-2.64986 l 0,-111.859617 c 0,-1.46037 1.189494,-2.649865 2.649864,-2.649865 z"/>
	<rect fill="#606062" stroke="#373435" stroke-width="0.5" x="74.715584" y="24.297926" width="173.50136" height="97.715225"/>
	<path fill="#949ea5" stroke="#373435" stroke-width="0.5" d="m 270.4758,11.02505 11.74184,0 c 14.80391,0 26.92263,12.118714 26.92263,26.922624 l 0,73.100926 c 0,14.80391 -12.11872,26.92263 -26.92263,26.92263 l -11.74184,0 0,-126.94618 z"/>
	<path fill="#949ea5" stroke="#373435" stroke-width="0.5" d="m 37.841244,11.02505 14.462372,0 0,126.94618 -14.462372,0 c -14.80391,0 -26.922624,-12.11872 -26.922624,-26.92263 l 0,-73.100926 c 0,-14.80391 12.118714,-26.922624 26.922624,-26.922624 z"/>
	<rect fill="#2b2c2e" stroke="#373435" stroke-width="0.5" x="42.328346" y="21.294746" width="6.6658816" height="2.3672123"/>
	<circle fill="#56616a" stroke="#30363a" stroke-width="0.5" cx="31.858438" cy="41.551487" r="9.9046049"/>
	<circle id="button-l3-shadow" fill="#56616a" stroke="#30363a" stroke-width="0.5" cx="31.858438" cy="41.551487" r="7.9378166"/>
	<circle id="button-l3" fill-opacity="0" style="fill:#ff0000" cx="31.858438" cy="41.551487" r="7.9378166"/>
	<circle fill="#b5c0c7" stroke="#373435" stroke-width="0.5" cx="281.71121" cy="103.12257" r="4.9581909"/>
	<g fill="#56616a" stroke="#373435" stroke-width="0.5">
		<circle cx="32.671062" cy="67.343506" r="4.616653"/>
		<circle cx="43.011425" cy="76.883018" r="4.616653"/>
		<circle cx="32.72995" cy="86.540298" r="4.616653"/>
		<circle cx="22.88423" cy="76.941902" r="4.616653"/>
		<g fill-opacity="0" fill="#ff0000">
			<circle id="button-du" cx="32.671062" cy="67.343506" r="4.616653"/>
			<circle id="button-dr" cx="43.011425" cy="76.883018" r="4.616653"/>
			<circle id="button-dd" cx="32.72995" cy="86.540298" r="4.616653"/>
			<circle id="button-dl" cx="22.88423" cy="76.941902" r="4.616653"/>
		</g>
	</g>
	<polygon fill="#000000" points="1915,4693 1987,4818 2059,4943 1915,4943 1770,4943 1842,4818" transform="matrix(0.01177718,0,0,0.01177718,10.117772,10.118207)"/>
	<polygon fill="#000000" points="2960,5669 2835,5741 2710,5813 2710,5669 2710,5525 2835,5597" transform="matrix(0.01177718,0,0,0.01177718,10.117772,10.118207)"/>
	<polygon fill="#000000" points="917,5674 1042,5602 1167,5530 1167,5674 1167,5819 1042,5746" transform="matrix(0.01177718,0,0,0.01177718,10.117772,10.118207)"/>
	<polygon fill="#000000" points="1920,6656 1848,6531 1776,6406 1920,6406 2064,6406 1992,6531" transform="matrix(0.01177718,0,0,0.01177718,10.117772,10.118207)"/>
	<rect fill="#56616a" stroke="#373435" stroke-width="0.5" x="35.839123" y="96.974884" width="7.8553762" height="7.8553762" rx="0.62419033" ry="0.62419033"/>
	<circle stroke="#373435" cx="39.760921" cy="100.90845" r="2.5556471"/>
	<circle fill="#56616a" cx="281.71121" cy="103.12257" r="3.8629136"/>
	<polygon fill="#2b2c2e" stroke="#373435" stroke-width="20" points="22387,1150 22570,1150 22570,1332 22771,1332 22771,1150 22953,1150 22953,949 22771,949 22771,766 22570,766 22570,949 22387,949" transform="matrix(0.01177718,0,0,0.01177718,10.117772,10.118207)"/>
	<g fill="#56616a" stroke="#373435" stroke-width="0.5">
		<circle cx="288.91885" cy="34.544067" r="4.616653"/>
		<circle cx="299.271" cy="44.08358" r="4.616653"/>
		<circle cx="288.97775" cy="53.740864" r="4.616653"/>
		<circle cx="279.13202" cy="44.142467" r="4.616653"/>
		<g fill-opacity="0" fill="#ff0000">
			<circle id="button-tr" cx="288.91885" cy="34.544067" r="4.616653"/>
			<circle id="button-ci" cx="299.271" cy="44.08358" r="4.616653"/>
			<circle id="button-cr" cx="288.97775" cy="53.740864" r="4.616653"/>
			<circle id="button-sq" cx="279.13202" cy="44.142467" r="4.616653"/>
		</g>
	</g>
	<circle fill="#56616a" stroke="#30363a" stroke-width="0.5" cx="289.47238" cy="79.285561" r="9.9046049"/>
	<circle id="button-r3-shadow" fill="#56616a" stroke="#30363a" stroke-width="0.5" cx="289.47238" cy="79.285561" r="7.9378166"/>
	<circle id="button-r3" fill-opacity="0" fill="#ff0000" stroke="#30363a" stroke-width="0.5" cx="289.47238" cy="79.285561" r="7.9378166"/>
	<polygon fill="#fefefe" points="22861,3019 22824,3019 22824,2907 22727,2759 22771,2759 22843,2877 22916,2759 22958,2759 22861,2907" transform="matrix(0.01177718,0,0,0.01177718,10.117772,10.118207)"/>
	<polygon fill="#fefefe" points="23672,2095 23602,2204 23557,2204 23650,2067 23566,1945 23611,1945 23673,2041 23735,1945 23778,1945 23695,2068 23789,2204 23743,2204" transform="matrix(0.01177718,0,0,0.01177718,10.117772,10.118207)"/>
	<path fill="#fefefe" d="m 298.68213,44.484006 1.14239,0 -0.5653,-1.425038 -0.57709,1.425038 z m -0.44753,1.118832 -0.48286,0 1.33082,-3.038511 0.37687,0 1.31904,3.038511 -0.48286,0 -0.31799,-0.741962 -1.43681,0 -0.30621,0.741962 z"/>
	<path fill="#fefefe" d="m 288.70687,55.142351 0.52997,0 c 0.36509,0 0.75374,-0.105995 0.75374,-0.529973 0,-0.353316 -0.24732,-0.506419 -0.71841,-0.506419 l -0.5653,0 0,1.036392 z m 0,-1.401484 0.55352,0 c 0.32976,0 0.60064,-0.141326 0.60064,-0.471087 0,-0.329761 -0.2591,-0.45931 -0.6713,-0.45931 l -0.48286,0 0,0.930397 z m -0.42398,-1.283712 1.04817,0 c 0.45931,0 0.95395,0.188434 0.95395,0.765516 0,0.341538 -0.21199,0.577082 -0.52998,0.671299 l 0,0.01178 c 0.38865,0.04711 0.6713,0.306207 0.6713,0.730185 0,0.588859 -0.50641,0.871511 -1.14238,0.871511 l -1.00106,0 0,-3.050288 z"/>
	<path fill="#2b2c2e" d="m 282.44141,104.27673 c 0,0.10599 -0.0471,0.1531 -0.14133,0.1531 l -1.17772,0 c -0.10599,0 -0.1531,-0.0471 -0.1531,-0.1531 l 0,-0.88329 c 0,-0.10599 0.0471,-0.14133 0.1531,-0.14133 l 1.17772,0 c 0.0942,0 0.14133,0.0353 0.14133,0.14133 l 0,0.88329 z m 1.55459,-1.43682 c -0.73019,-0.62419 -1.46037,-1.24838 -2.19056,-1.86079 -0.0707,-0.0707 -0.12955,-0.0707 -0.18843,0 -0.74197,0.61241 -1.47215,1.2366 -2.20234,1.86079 -0.12954,0.11777 -0.0824,0.2591 0.0942,0.2591 l 0.28265,0 c 0.106,0 0.15311,0.0471 0.15311,0.1531 l 0,1.90791 c 0,0.10599 0.0353,0.1531 0.14132,0.1531 l 3.23873,0 c 0.10599,0 0.1531,-0.0471 0.1531,-0.1531 l 0,-1.90791 c 0,-0.10599 0.0353,-0.1531 0.14133,-0.1531 l 0.28265,0 c 0.17666,0 0.23554,-0.14133 0.0942,-0.2591 z"/>
</svg>
