<?xml version="1.0" encoding="UTF-8"?>
<svg xmlns="http://www.w3.org/2000/svg" width="320" height="215.44501" version="1.0">
	<g style="stroke:#010101;stroke-width:1.5">
		<g style="fill:#505050">
			<path d="m 50.870354,27.809044 40.550456,0 -3.17793,-7.960971 c -2.08357,-5.219519 -7.499931,-9.093116 -17.097292,-9.093116 -9.597373,0 -15.013734,3.873597 -17.097304,9.093116 l -3.17793,7.960971 z"/>
			<path id="button-l2" fill-opacity="0" style="fill:#ff0000" d="m 50.870354,27.809044 40.550456,0 -3.17793,-7.960971 c -2.08357,-5.219519 -7.499931,-9.093116 -17.097292,-9.093116 -9.597373,0 -15.013734,3.873597 -17.097304,9.093116 l -3.17793,7.960971 z"/>
			<path d="m 50.628391,27.94508 41.034382,0 -3.215855,-5.287353 c -2.108435,-3.466592 -7.589435,-6.039278 -17.30133,-6.039278 -9.711907,0 -15.192907,2.572686 -17.301342,6.039278 l -3.215855,5.287353 z"/>
			<path id="button-l1" fill-opacity="0" style="fill:#ff0000" d="m 50.628391,27.94508 41.034382,0 -3.215855,-5.287353 c -2.108435,-3.466592 -7.589435,-6.039278 -17.30133,-6.039278 -9.711907,0 -15.192907,2.572686 -17.301342,6.039278 l -3.215855,5.287353 z"/>
			<path d="m 227.0803,27.809043 40.55046,0 -3.17793,-7.960971 c -2.08357,-5.219519 -7.49993,-9.093116 -17.09729,-9.093116 -9.59738,0 -15.01374,3.873597 -17.09731,9.093116 l -3.17793,7.960971 z"/>
			<path id="button-r2" fill-opacity="0" style="fill:#ff0000" d="m 227.0803,27.809043 40.55046,0 -3.17793,-7.960971 c -2.08357,-5.219519 -7.49993,-9.093116 -17.09729,-9.093116 -9.59738,0 -15.01374,3.873597 -17.09731,9.093116 l -3.17793,7.960971 z"/>
			<path d="m 226.83834,27.945081 41.03438,0 -3.21585,-5.287353 c -2.10844,-3.466592 -7.58944,-6.039278 -17.30133,-6.039278 -9.71191,0 -15.19291,2.572686 -17.30135,6.039278 l -3.21585,5.287353 z"/>
			<path id="button-r1" fill-opacity="0" style="fill:#ff0000" d="m 226.83834,27.945081 41.03438,0 -3.21585,-5.287353 c -2.10844,-3.466592 -7.58944,-6.039278 -17.30133,-6.039278 -9.71191,0 -15.19291,2.572686 -17.30135,6.039278 l -3.21585,5.287353 z"/>
		</g>
		<g style="fill:#262626">
			<path d="m 294.37539,76.248734 c 6.79598,37.216056 11.22833,77.673366 14.56281,94.496426 5.424,27.36514 -40.56455,50.43808 -57.92761,18.76984 -13.18145,-24.04145 -28.15475,-54.69143 -28.15475,-54.69143 l 71.51955,-58.574836 z"/>
			<path d="M 25.596364,76.248734 C 18.800383,113.46479 14.36803,153.27487 11.033553,170.74516 5.8033019,198.14798 51.598101,221.18324 68.961162,189.515 82.142607,165.47355 97.11591,134.82357 97.11591,134.82357 L 25.596364,76.248734 Z"/>
			<path style="fill:#3f3f3f" d="m 84.619596,48.41281 c -1.901117,0 -3.404056,1.541622 -3.404056,3.442739 l 0,90.555611 c 0,1.90113 1.502941,3.40406 3.404056,3.40406 l 150.745524,0 c 1.90112,0 3.44273,-1.50295 3.44273,-3.40406 l 0,-90.555611 c 0,-1.901117 -1.54163,-3.442737 -3.44273,-3.442739 l -65.36826,0 c -0.33706,0.555875 -0.96315,0.928379 -1.66335,0.928379 l -17.71631,0 c -0.69833,0 -1.28704,-0.374984 -1.62466,-0.928379 l -64.372944,0 z"/>
			<rect style="stroke-width:0" x="89.015312" y="56.199951" width="141.96938" height="84.772369" rx="3.4316185" ry="3.3170466"/>
			<path d="m 273.16405,55.540482 c -2.10352,-13.591961 -3.07437,-20.38793 -4.04522,-25.40401 -0.97086,-5.016081 -9.54673,-7.60502 -21.76331,-7.60502 -12.21657,0 -20.79244,2.588939 -21.7633,7.60502 -0.97085,5.01608 -1.9417,11.812049 -4.04522,25.40401"/>
			<path d="m 96.954099,55.540482 c -2.10352,-13.591961 -3.074369,-20.38793 -4.045219,-25.40401 -0.970861,-5.016081 -9.54673,-7.60502 -21.763304,-7.60502 -12.216574,0 -20.792443,2.588939 -21.763305,7.60502 -0.970849,5.01608 -1.941698,11.812049 -4.045219,25.40401"/>
			<g style="fill:#333333">
				<circle cx="248.74524" cy="87.899025" r="46.924599"/>
				<circle cx="71.226517" cy="87.899025" r="46.924599"/>
				<circle cx="116.20943" cy="133.52917" r="29.772852"/>
				<circle cx="202.93903" cy="133.52917" r="29.772852"/>
			</g>
			<g style="fill:#010101">
				<circle cx="116.20943" cy="133.52919" r="22.976879"/>
				<circle cx="202.93903" cy="133.52919" r="22.976879"/>
			</g>
		</g>
		<g style="fill:#505050">
			<circle id="button-l3-shadow" cx="116.20943" cy="133.52919" r="20.064318"/>
			<circle id="button-r3-shadow" cx="202.93903" cy="133.52919" r="20.064318"/>
			<circle cx="161.192" cy="114.597" r="9.8631907"/>
			<path d="m 191.77415,92.678182 -10.51759,4.126124 c -1.0014,0.392853 -1.9417,-0.866004 -1.9417,-1.94171 l 0,-4.36884 c 0,-1.075706 0.9403,-2.334563 1.9417,-1.94171 l 10.51759,4.126136 z"/>
			<rect x="125.27066" y="88.552048" width="14.400997" height="8.2522564" rx="1.9417074" ry="1.9417074"/>
			<g fill-opacity="0" style="fill:#ff0000">
				<circle id="button-an" cx="161.192" cy="114.597" r="9.8631907"/>
				<path id="button-st" d="m 191.77415,92.678182 -10.51759,4.126124 c -1.0014,0.392853 -1.9417,-0.866004 -1.9417,-1.94171 l 0,-4.36884 c 0,-1.075706 0.9403,-2.334563 1.9417,-1.94171 l 10.51759,4.126136 z"/>
				<rect id="button-se" x="125.27066" y="88.552048" width="14.400997" height="8.2522564" rx="1.9417074" ry="1.9417074"/>
				<circle id="button-l3" cx="116.20943" cy="133.52919" r="20.064318"/>
				<circle id="button-r3" cx="202.93903" cy="133.52919" r="20.064318"/>
			</g>
		</g>
	</g>
	<path style="fill:#262626;stroke:none;stroke-width:1.5" d="m 239.1133,53.220216 c -1.90112,0 -3.44274,1.541604 -3.44274,3.442738 l 0,18.14207 -18.18075,0 c -1.90112,0 -3.40407,1.541604 -3.40405,3.442738 l 0,19.302544 c 0,1.901122 1.50296,3.442724 3.40405,3.442734 l 18.18075,0 0,18.14207 c 0,1.90113 1.54161,3.44272 3.44274,3.44274 l 19.30255,0 c 1.90112,0 3.40404,-1.54164 3.40405,-3.44274 l 0,-18.14207 18.18075,0 c 1.90113,0 3.40406,-1.541625 3.40406,-3.442734 l 0,-19.302544 c 0,-1.901121 -1.50292,-3.442738 -3.40406,-3.442738 l -18.18075,0 0,-18.14207 c 0,-1.901122 -1.50294,-3.442738 -3.40405,-3.442738 l -19.30255,0 z"/>
	<g style="fill:#505050;stroke:#404040;stroke-width:1.5">
		<circle cx="226.82013" cy="87.979874" r="10.193964"/>
		<circle cx="248.74524" cy="109.90501" r="10.193964"/>
		<circle cx="270.67032" cy="87.979874" r="10.193964"/>
		<circle cx="248.74524" cy="66.054771" r="10.193964"/>
		<g fill-opacity="0" style="fill:#ff0000">
			<circle id="button-sq" cx="226.82013" cy="87.979874" r="10.193964"/>
			<circle id="button-cr" cx="248.74524" cy="109.90501" r="10.193964"/>
			<circle id="button-ci" cx="270.67032" cy="87.979874" r="10.193964"/>
			<circle id="button-tr" cx="248.74524" cy="66.054771" r="10.193964"/>
		</g>
	</g>
	<g style="fill-opacity:0;stroke-width:1.5">
		<path style="stroke:#8243fb" d="m 243.5732,104.83553 10.52629,10.52629 m 0,-10.52629 -10.52629,10.52629"/>
		<circle style="stroke:#ff0000" cx="270.67035" cy="87.979897" r="6.9903102"/>
		<rect style="stroke:#ff01db" y="82.144661" x="220.98489" height="11.670452" width="11.670452"/>
		<path style="stroke:#00ff83" d="m 255.24233,70.184584 -12.99425,0 6.49712,-11.234472 z"/>
	</g>
	<path style="fill:#262626;stroke-width:0" d="m 61.373076,52.623305 c -1.901121,0 -3.442738,1.541605 -3.442738,3.442739 l 0,18.14207 -18.180752,0 c -1.901122,0 -3.404068,1.541604 -3.404056,3.442738 l 0,19.302543 c 0,1.901122 1.502959,3.442725 3.404056,3.442735 l 18.180752,0 0,18.14207 c 0,1.90113 1.541604,3.44272 3.442738,3.44274 l 19.302544,0 c 1.901122,0 3.404043,-1.54164 3.404056,-3.44274 l 0,-18.14207 18.180754,0 c 1.90112,0 3.40405,-1.541625 3.40405,-3.442735 l 0,-19.302543 c 0,-1.901122 -1.50292,-3.442738 -3.40405,-3.442738 l -18.180754,0 0,-18.14207 c 0,-1.901122 -1.502947,-3.442739 -3.404056,-3.442739 l -19.302544,0 z"/>
	<g style="fill:#505050;stroke:#404040;stroke-width:2">
		<path d="m 77.938439,98.983562 a 1.4593294,1.4593294 0 0 0 -0.553636,-1.174981 l -5.492908,-4.332435 a 1.4593294,1.4593294 0 0 0 -1.803568,-0.0025 l -5.531591,4.332435 a 1.4593294,1.4593294 0 0 0 -0.560902,1.14354 l -0.03862,10.057439 a 1.4593294,1.4593294 0 0 0 1.460266,1.46511 l 10.869769,0 a 1.4593294,1.4593294 0 0 0 1.457839,-1.43125 L 77.938501,98.9835 Z"/>
		<path d="m 82.686452,80.368681 a 1.4593294,1.4593294 0 0 0 -1.174981,0.553636 l -4.332435,5.492908 a 1.4593294,1.4593294 0 0 0 -0.0025,1.803568 l 4.332435,5.531591 a 1.4593294,1.4593294 0 0 0 1.14354,0.560902 l 10.057438,0.03862 a 1.4593294,1.4593294 0 0 0 1.465106,-1.460266 l 0,-10.869769 A 1.4593294,1.4593294 0 0 0 92.743828,80.562032 L 82.68639,80.368619 Z"/>
		<path d="m 59.323568,80.258701 a 1.4593294,1.4593294 0 0 1 1.174981,0.553636 l 4.332435,5.492908 a 1.4593294,1.4593294 0 0 1 0.0025,1.803568 l -4.332435,5.531591 a 1.4593294,1.4593294 0 0 1 -1.14354,0.560902 l -10.057438,0.03862 a 1.4593294,1.4593294 0 0 1 -1.46513,-1.460266 l 0,-10.869769 a 1.4593294,1.4593294 0 0 1 1.431251,-1.457839 L 59.32363,80.258639 Z"/>
		<path d="m 78.048419,75.620668 a 1.4593294,1.4593294 0 0 1 -0.553636,1.174981 l -5.492908,4.332435 a 1.4593294,1.4593294 0 0 1 -1.803568,0.0025 l -5.531591,-4.332435 a 1.4593294,1.4593294 0 0 1 -0.560902,-1.14354 l -0.03862,-10.057438 a 1.4593294,1.4593294 0 0 1 1.460266,-1.465106 l 10.869769,0 a 1.4593294,1.4593294 0 0 1 1.457839,1.431251 l 0.193413,10.057438 z"/>
		<g fill-opacity="0" style="fill:#ff0000">
			<path id="button-dd" d="m 77.938439,98.983562 a 1.4593294,1.4593294 0 0 0 -0.553636,-1.174981 l -5.492908,-4.332435 a 1.4593294,1.4593294 0 0 0 -1.803568,-0.0025 l -5.531591,4.332435 a 1.4593294,1.4593294 0 0 0 -0.560902,1.14354 l -0.03862,10.057439 a 1.4593294,1.4593294 0 0 0 1.460266,1.46511 l 10.869769,0 a 1.4593294,1.4593294 0 0 0 1.457839,-1.43125 L 77.938501,98.9835 Z"/>
			<path id="button-dr" d="m 82.686452,80.368681 a 1.4593294,1.4593294 0 0 0 -1.174981,0.553636 l -4.332435,5.492908 a 1.4593294,1.4593294 0 0 0 -0.0025,1.803568 l 4.332435,5.531591 a 1.4593294,1.4593294 0 0 0 1.14354,0.560902 l 10.057438,0.03862 a 1.4593294,1.4593294 0 0 0 1.465106,-1.460266 l 0,-10.869769 A 1.4593294,1.4593294 0 0 0 92.743828,80.562032 L 82.68639,80.368619 Z"/>
			<path id="button-dl" d="m 59.323568,80.258701 a 1.4593294,1.4593294 0 0 1 1.174981,0.553636 l 4.332435,5.492908 a 1.4593294,1.4593294 0 0 1 0.0025,1.803568 l -4.332435,5.531591 a 1.4593294,1.4593294 0 0 1 -1.14354,0.560902 l -10.057438,0.03862 a 1.4593294,1.4593294 0 0 1 -1.46513,-1.460266 l 0,-10.869769 a 1.4593294,1.4593294 0 0 1 1.431251,-1.457839 L 59.32363,80.258639 Z"/>
			<path id="button-du" d="m 78.048419,75.620668 a 1.4593294,1.4593294 0 0 1 -0.553636,1.174981 l -5.492908,4.332435 a 1.4593294,1.4593294 0 0 1 -1.803568,0.0025 l -5.531591,-4.332435 a 1.4593294,1.4593294 0 0 1 -0.560902,-1.14354 l -0.03862,-10.057438 a 1.4593294,1.4593294 0 0 1 1.460266,-1.465106 l 10.869769,0 a 1.4593294,1.4593294 0 0 1 1.457839,1.431251 l 0.193413,10.057438 z"/>
		</g>
	</g>
	<g style="stroke-width:0">
		<g style="fill:#3f3f3f">
			<path d="m 71.005016,56.275963 -4.683317,4.448298 9.366634,0 z"/>
			<path d="m 71.005016,118.32827 -4.683317,-4.4483 9.366634,0 z"/>
			<path d="m 102.03115,87.302116 -4.448296,-4.683317 0,9.366634 z"/>
			<path d="m 39.978863,87.302116 4.448298,-4.683317 0,9.366634 z"/>
		</g>
		<g style="fill:#e6e6e6">
			<path d="m 178.55328,81.475934 0,0.543621 c -0.21157,-0.101131 -0.41117,-0.176602 -0.59882,-0.226277 -0.18764,-0.04964 -0.36885,-0.07452 -0.5436,-0.07452 -0.30355,0 -0.53811,0.05892 -0.70368,0.176603 -0.16373,0.117718 -0.24559,0.285148 -0.24559,0.502228 0,0.182123 0.0542,0.320105 0.1628,0.413921 0.11042,0.09197 0.31827,0.166489 0.62365,0.223516 l 0.33666,0.06895 c 0.41576,0.0791 0.72207,0.218924 0.91891,0.419441 0.19867,0.198686 0.29802,0.46544 0.29802,0.800251 0,0.399203 -0.13429,0.701829 -0.40288,0.907868 -0.26675,0.20605 -0.6586,0.309063 -1.17554,0.309063 -0.19501,0 -0.40289,-0.02203 -0.62365,-0.06622 -0.21892,-0.04419 -0.44611,-0.109425 -0.68159,-0.195925 l 0,-0.573974 c 0.22628,0.126941 0.44796,0.222601 0.66504,0.286993 0.21707,0.06437 0.43047,0.09655 0.6402,0.09655 0.31825,0 0.56385,-0.06251 0.73678,-0.187644 0.17292,-0.125096 0.25938,-0.303543 0.25938,-0.535341 0,-0.202362 -0.0625,-0.36057 -0.18764,-0.474624 -0.12329,-0.114005 -0.32654,-0.199602 -0.60985,-0.256641 l -0.33941,-0.06623 c -0.41575,-0.08281 -0.71654,-0.212475 -0.90235,-0.389089 -0.1858,-0.176603 -0.27871,-0.42219 -0.2787,-0.736774 -1e-5,-0.364247 0.12785,-0.651239 0.38356,-0.860954 0.25756,-0.209727 0.61169,-0.314584 1.0624,-0.314584 0.19316,0 0.39,0.01745 0.59053,0.05236 0.20052,0.03503 0.40564,0.08739 0.61537,0.157292 m 0.54637,-0.135209 3.48522,0 0,0.469116 -1.46252,0 0,3.650782 -0.56017,0 0,-3.650782 -1.46253,0 0,-0.469116 m 4.96154,0.54913 -0.75609,2.050294 1.51495,0 -0.75886,-2.050294 m -0.31457,-0.54913 0.63192,0 1.57015,4.119898 -0.5795,0 -0.37529,-1.056879 -1.85713,0 -0.37528,1.056879 -0.58778,0 1.57291,-4.119898 m 4.75457,2.188264 c 0.11958,0.04048 0.23548,0.12694 0.3477,0.259389 0.11401,0.132461 0.22812,0.314584 0.34218,0.546382 l 0.56569,1.125863 -0.59881,0 -0.52705,-1.056879 c -0.13614,-0.275939 -0.26859,-0.45899 -0.39738,-0.54913 -0.12692,-0.09011 -0.30078,-0.135221 -0.52153,-0.135221 l -0.60709,0 0,1.74123 -0.55741,0 0,-4.119898 1.25832,0 c 0.47095,0 0.82233,0.09841 1.05412,0.295262 0.2318,0.196853 0.34769,0.493947 0.3477,0.891318 -1e-5,0.259389 -0.0608,0.474624 -0.18212,0.645718 -0.11958,0.171082 -0.29436,0.289741 -0.52432,0.355966 m -1.39629,-1.730189 0,1.462518 0.70091,0 c 0.26859,0 0.47095,-0.06164 0.60709,-0.184883 0.13797,-0.125096 0.20695,-0.308135 0.20695,-0.54913 0,-0.240995 -0.0689,-0.422202 -0.20695,-0.543622 -0.13614,-0.123288 -0.3385,-0.184883 -0.60709,-0.184883 l -0.70091,0 m 2.39247,-0.458075 3.48522,0 0,0.469116 -1.46252,0 0,3.650782 -0.56017,0 0,-3.650782 -1.46253,0 0,-0.469116"/>
			<path d="m 125.47256,81.476057 0,0.543622 c -0.21155,-0.101131 -0.41116,-0.176602 -0.5988,-0.226277 -0.18764,-0.04964 -0.36885,-0.07452 -0.54362,-0.07452 -0.30354,0 -0.5381,0.05892 -0.70366,0.176603 -0.16373,0.117718 -0.2456,0.285148 -0.2456,0.502228 0,0.182123 0.0542,0.320105 0.16281,0.413921 0.11042,0.09197 0.31826,0.166489 0.62365,0.223516 l 0.33665,0.06895 c 0.41576,0.0791 0.72206,0.218924 0.9189,0.419441 0.19869,0.198686 0.29802,0.46544 0.29803,0.80025 -1e-5,0.399203 -0.1343,0.70183 -0.40289,0.907868 -0.26675,0.206051 -0.65859,0.309064 -1.17554,0.309064 -0.19499,0 -0.40287,-0.02203 -0.62363,-0.06623 -0.21892,-0.04419 -0.44612,-0.109424 -0.68159,-0.195925 l 0,-0.573973 c 0.22628,0.12694 0.44795,0.222601 0.66503,0.286993 0.21708,0.06437 0.43048,0.09655 0.64019,0.09655 0.31827,0 0.56385,-0.06251 0.73679,-0.187644 0.17293,-0.125096 0.25939,-0.303542 0.25939,-0.53534 0,-0.202362 -0.0625,-0.36057 -0.18764,-0.474624 -0.12329,-0.114005 -0.32655,-0.199602 -0.60985,-0.256641 l -0.33941,-0.06622 c -0.41577,-0.08281 -0.71655,-0.212475 -0.90235,-0.38909 -0.18581,-0.176602 -0.27871,-0.422189 -0.27871,-0.736773 0,-0.364247 0.12785,-0.65124 0.38357,-0.860954 0.25754,-0.209727 0.61167,-0.314584 1.06239,-0.314584 0.19317,0 0.39001,0.01745 0.59053,0.05236 0.20053,0.03503 0.40564,0.08739 0.61536,0.157292 m 1.1176,-0.135209 2.60494,0 0,0.469116 -2.04753,0 0,1.21968 1.96199,0 0,0.469116 -1.96199,0 0,1.492882 2.09721,0 0,0.469104 -2.65462,0 0,-4.119898 m 3.57628,0 0.55742,0 0,3.650794 2.00614,0 0,0.469104 -2.56356,0 0,-4.119898 m 3.1458,0 2.60496,0 0,0.469116 -2.04754,0 0,1.21968 1.96199,0 0,0.469116 -1.96199,0 0,1.492882 2.09721,0 0,0.469104 -2.65463,0 0,-4.119898 m 6.66139,0.317345 0,0.587763 c -0.18764,-0.174758 -0.38817,-0.305375 -0.60156,-0.39185 -0.21157,-0.0864 -0.43692,-0.129689 -0.67607,-0.129689 -0.47096,0 -0.83153,0.144419 -1.08173,0.433231 -0.25019,0.286993 -0.37528,0.702758 -0.37528,1.247283 0,0.542706 0.12509,0.958471 0.37528,1.247296 0.2502,0.28698 0.61077,0.430471 1.08173,0.430471 0.23915,0 0.4645,-0.0432 0.67607,-0.129689 0.21339,-0.0864 0.41392,-0.217079 0.60156,-0.39185 l 0,0.582255 c -0.19501,0.132448 -0.40196,0.231797 -0.62089,0.298022 -0.21708,0.06622 -0.44703,0.09927 -0.68987,0.09927 -0.62363,0 -1.11482,-0.190404 -1.47356,-0.571213 -0.35872,-0.38264 -0.5381,-0.904179 -0.5381,-1.564627 0,-0.662269 0.17938,-1.183807 0.5381,-1.564616 0.35874,-0.382653 0.84993,-0.573973 1.47356,-0.573973 0.24652,0 0.47832,0.03305 0.6954,0.09927 0.21891,0.06437 0.42403,0.161897 0.61536,0.292514 m 0.29526,-0.317345 3.48522,0 0,0.469116 -1.46251,0 0,3.650782 -0.56018,0 0,-3.650782 -1.46253,0 0,-0.469116"/>
			<path d="m 249.74377,33.12704 c 0.27563,0.09333 0.54278,0.2926 0.80147,0.597913 0.26291,0.305326 0.52583,0.725151 0.78875,1.259451 l 1.30397,2.59524 -1.3803,0 -1.21492,-2.436214 c -0.31382,-0.636089 -0.61913,-1.058018 -0.91598,-1.265814 -0.2926,-0.207784 -0.69334,-0.311675 -1.2022,-0.311675 l -1.39939,0 0,4.013703 -1.2849,0 0,-9.496783 2.90056,0 c 1.08559,1.2e-5 1.89553,0.226883 2.42986,0.680613 0.5343,0.453754 0.80146,1.138601 0.80146,2.054564 0,0.597926 -0.13994,1.094076 -0.41981,1.488439 -0.27565,0.394388 -0.6785,0.667901 -1.20857,0.820563 m -3.2186,-3.988278 0,3.371265 1.61566,0 c 0.61912,1.3e-5 1.08559,-0.142054 1.39939,-0.426175 0.31804,-0.288355 0.47707,-0.710297 0.47707,-1.265814 0,-0.555505 -0.15903,-0.973213 -0.47707,-1.253089 -0.3138,-0.284121 -0.78027,-0.426175 -1.39939,-0.426187 l -1.61566,0"/>
			<path d="m 68.331722,28.082861 1.284901,0 0,8.415432 4.624354,0 0,1.081351 -5.909255,0 0,-9.496783"/>
		</g>
	</g>
</svg>
