<?xml version="1.0" encoding="UTF-8"?>
<svg xmlns="http://www.w3.org/2000/svg" version="1.1" width="320" height="206.885">
	<g style="fill:#cccccc;stroke:#000000;stroke-width:0.65457278">
		<path d="M 50.338302,11.92057 C 61.302341,5.8680461 74.198428,4.7245767 87.196378,9.9101287 l 0,8.4140653 -36.858076,0 z"/>
		<path d="M 269.66246,11.92057 C 258.69842,5.8680461 245.80233,4.7245767 232.80439,9.9101287 l 0,8.4140653 36.85807,0 z"/>
		<g class="straight-button">
			<path id="button-l2" d="M 50.338302,11.92057 C 61.302341,5.8680461 74.198428,4.7245767 87.196378,9.9101287 l 0,8.4140653 -36.858076,0 z"/>
			<path id="button-r2" d="M 269.66246,11.92057 C 258.69842,5.8680461 245.80233,4.7245767 232.80439,9.9101287 l 0,8.4140653 36.85807,0 z"/>
		</g>
		<path d="M 50.338302,15.627131 C 61.302341,9.5746074 74.198428,8.431138 87.196378,13.61669 l 0,8.414065 -36.858076,0 z"/>
		<path d="M 269.66246,15.627131 C 258.69842,9.5746074 245.80233,8.431138 232.80439,13.61669 l 0,8.414065 36.85807,0 z"/>
		<g class="straight-button">
			<path id="button-l1" d="M 50.338302,15.627131 C 61.302341,9.5746074 74.198428,8.431138 87.196378,13.61669 l 0,8.414065 -36.858076,0 z"/>
			<path id="button-r1" d="M 269.66246,15.627131 C 258.69842,9.5746074 245.80233,8.431138 232.80439,13.61669 l 0,8.414065 36.85807,0 z"/>
		</g>
	</g>
	<g style="fill:#cccccc;stroke:#000000;stroke-width:0.65457278">
		<path d="M 70.092283,14.548995 C 61.60717,14.524884 53.309555,16.160629 47.19746,19.526693 43.576279,26.857134 34.068921,36.660632 30.140362,52.448584 16.118443,99.332594 12.241768,138.94505 10.327286,162.7138 c 0,18.29997 14.830392,33.1369 33.130382,33.1369 14.784365,0 26.671058,-8.61008 31.312612,-23.63106 l 13.558373,-38.93552 c 2.016744,-3.20725 6.95033,-4.5261 10.085712,-4.87347 l 123.172045,0 c 3.13538,0.34737 8.06896,1.66622 10.08571,4.87347 l 13.55837,38.93552 c 4.64155,15.02098 16.52824,23.63106 31.31261,23.63106 18.3,0 33.13038,-14.83693 33.13038,-33.1369 -1.91448,-23.76875 -5.79114,-63.381206 -19.81307,-110.265216 -3.92856,-15.787952 -13.43592,-25.59145 -17.0571,-32.921891 -6.11209,-3.366064 -14.40971,-5.001787 -22.89482,-4.977698 -8.48509,0.02411 -17.16183,1.707971 -24.02197,4.977698 l -131.772267,0 C 87.254112,16.256966 78.577368,14.573077 70.092283,14.548995 Z"/>
		<path d="M 70.092288,14.548995 C 61.607176,14.524884 53.30956,16.160629 47.197466,19.526693 43.576285,26.857134 34.068927,36.660632 30.140368,52.448584 18.447686,91.544504 13.80886,125.58594 11.480503,149.59847 c -0.08644,10.45973 8.964237,19.2731 28.146166,24.41289 10.659951,2.85632 24.106613,4.74627 35.143616,-1.79172 l 13.558373,-38.93552 c 2.016745,-3.20725 6.950331,-4.5261 10.085712,-4.87347 l 43.14442,0 36.88321,0 43.14442,0 c 3.13537,0.34737 8.06896,1.66622 10.08571,4.87347 l 13.55837,38.93552 c 11.037,6.53799 24.48366,4.64804 35.14361,1.79172 19.18193,-5.13979 28.23262,-13.95316 28.14616,-24.41289 -2.32837,-24.01253 -6.96718,-58.053966 -18.65986,-97.149886 -3.92856,-15.787952 -13.43591,-25.59145 -17.05709,-32.921891 -6.1121,-3.366064 -14.40971,-5.001787 -22.89483,-4.977698 -8.48509,0.02411 -17.16183,1.707965 -24.02196,4.977698 l -47.44453,0 -36.88321,0 -47.444532,0 C 87.254117,16.25696 78.577373,14.573077 70.092288,14.548995 Z"/>
		<path d="m 114.99584,18.660159 c -1.07278,0 -4.05904,0.243163 -4.05904,2.886284 l 0,8.880376 0,36.287666 c 0,3.362448 3.86165,6.329015 7.22409,6.329015 l 85.67001,0 c 3.36244,0 6.30158,-2.889464 6.30158,-6.251912 l 0,-36.364769 0,-8.880376 c 0,-2.643121 -2.98626,-2.886284 -4.05903,-2.886284 l -9.38206,0 -72.3135,0 z"/>
		<path d="m 114.99584,18.660159 c -0.48252,0 -1.35219,0.05067 -2.16309,0.345309 l 0,10.378901 0,35.651813 c 0,3.279568 2.59727,5.915904 5.83121,5.915904 l 83.73484,0 c 3.23395,0 5.83773,-2.636336 5.83773,-5.915904 l 0,-35.651813 0,-10.378901 c -0.8109,-0.294645 -1.68057,-0.345309 -2.16308,-0.345309 l -9.38206,0 -72.3135,0 -9.38205,0 z"/>
	</g>
	<g style="fill:#cccccc;stroke:#000000;stroke-width:0.65457278">
		<path d="m 101.85124,62.621611 a 34.697473,34.697473 0 1 1 -69.394941,0 34.697473,34.697473 0 1 1 69.394941,0 z"/>
		<path d="m 67.121062,31.177631 4.626962,4.617918 -9.25393,0 z"/>
		<path d="m 66.376458,94.102252 4.626963,-4.617912 -9.253936,0 z"/>
		<path d="m 98.210558,62.297439 -4.617913,4.626962 0,-9.25393 z"/>
		<path d="m 35.334308,62.297439 4.617914,-4.626968 0,9.25393 z"/>
		<g class="straight-button">
			<path id="button-dd" d="m 66.373193,66.5831 c -0.41756,0 -0.872642,0.08542 -1.439885,0.462588 l -5.121039,4.938609 c -0.408998,0.389099 -0.692567,0.812766 -0.886083,1.374732 l -0.762292,9.27781 c 0.507508,1.901349 1.708168,3.174817 3.668123,3.531302 3.413764,0.269721 6.035828,0.227287 9.082351,0 1.959956,-0.356485 3.16713,-1.629953 3.674639,-3.531302 l -0.762292,-9.27781 C 73.633198,72.797063 73.349629,72.373396 72.940632,71.984297 L 67.819593,67.045688 C 67.25235,66.668519 66.790753,66.5831 66.373193,66.5831 Z"/>
			<path id="button-du" d="m 66.373193,57.659706 c -0.41756,0 -0.872641,-0.08542 -1.439885,-0.462587 l -5.121039,-4.93861 C 59.403271,51.86941 59.119702,51.445744 58.926186,50.883778 l -0.762292,-9.277811 c 0.507508,-1.901348 1.708168,-3.174816 3.668123,-3.531301 3.413764,-0.269722 6.035829,-0.227288 9.082352,0 1.959955,0.356485 3.167129,1.629953 3.674638,3.531301 l -0.762292,9.277811 c -0.193516,0.561966 -0.477086,0.985632 -0.886083,1.374731 l -5.121039,4.93861 c -0.567243,0.377169 -1.028839,0.462587 -1.4464,0.462587 z"/>
			<path id="button-dr" d="m 70.85203,62.098351 c 0,0.417559 0.08542,0.872641 0.462587,1.439884 l 4.93861,5.121039 c 0.389099,0.408997 0.812766,0.692567 1.374732,0.886083 l 9.27781,0.762292 c 1.901349,-0.507509 3.174817,-1.708168 3.531302,-3.668123 0.269721,-3.413763 0.227287,-6.035829 0,-9.082351 -0.356485,-1.959955 -1.629953,-3.167129 -3.531302,-3.674638 l -9.27781,0.762292 c -0.561966,0.193516 -0.985633,0.477086 -1.374732,0.886083 l -4.93861,5.121038 c -0.377169,0.567244 -0.462587,1.028841 -0.462587,1.446401 z"/>
			<path id="button-dl" d="m 61.770652,62.091835 c 0,-0.41756 -0.08542,-0.872641 -0.462588,-1.439885 l -4.938609,-5.121038 c -0.389099,-0.408997 -0.812766,-0.692567 -1.374732,-0.886083 l -9.27781,-0.762292 c -1.901349,0.507509 -3.174817,1.708168 -3.531302,3.668123 -0.269721,3.413763 -0.227287,6.035828 0,9.082351 0.356485,1.959955 1.629953,3.167129 3.531302,3.674638 l 9.27781,-0.762292 c 0.561966,-0.193516 0.985633,-0.477086 1.374732,-0.886083 l 4.938609,-5.121039 c 0.377169,-0.567243 0.462588,-1.02884 0.462588,-1.4464 z"/>
		</g>
	</g>
	<g style="fill:#cccccc;stroke:#000000;stroke-width:0.65457278">
		<path d="m 288.13297,62.621611 a 34.697473,34.697473 0 1 1 -69.39494,0 34.697473,34.697473 0 1 1 69.39494,0 z"/>
		<g class="straight-button">
			<path id="button-tr" d="m 263.21143,40.398726 a 9.316765,9.316765 0 0 1 -18.63353,0 9.316765,9.316765 0 1 1 18.63353,0 z"/>
			<path id="button-cr" d="m 263.21143,83.937233 a 9.316765,9.316765 0 0 1 -18.63353,0 9.316765,9.316765 0 1 1 18.63353,0 z"/>
			<path id="button-sq" d="m 241.31093,62.045772 a 9.316765,9.316765 0 0 1 -18.63353,0 9.316765,9.316765 0 1 1 18.63353,0 z"/>
			<path id="button-ci" d="m 285.54061,62.045772 a 9.3167619,9.3167619 0 0 1 -18.63352,0 9.3167619,9.3167619 0 1 1 18.63352,0 z"/>
		</g>
	</g>
	<g style="fill-opacity:0;stroke:#000000;stroke-width:1.09095466">
		<path d="m 248.52711,78.630039 10.73511,10.614383"/>
		<path d="M 259.22566,78.560174 248.56368,89.314282"/>
		<path d="m 282.46308,62.045767 a 6.23923,6.23923 0 1 1 -12.47846,0 6.23923,6.23923 0 1 1 12.47846,0 z"/>
		<rect x="226.88696" y="56.938545" width="10.214432" height="10.214432"/>
		<path d="m 253.89467,33.399916 6.2129,10.214423 -12.4258,0 z"/>
	</g>
	<g style="fill:#cccccc;stroke:#000000;stroke-width:0.65457278">
		<path d="m 112.50254,75.968879 c 16.67083,0 28.73255,13.514621 28.73255,30.185461 0,16.67083 -9.90237,30.18546 -28.73255,30.18546 -17.117603,0 -29.338477,-13.51463 -29.338477,-30.18546 0,-4.40522 0.8792,-8.586267 2.488849,-12.359557 L 102.05848,77.871351 c 3.21963,-1.225638 6.73218,-1.902472 10.44406,-1.902472 z"/>
		<path d="m 112.13767,76.52268 c 14.79914,0 26.7975,11.991845 26.7975,26.79098 0,14.79913 -11.99836,26.7975 -26.7975,26.7975 -14.799128,0 -26.797491,-11.99837 -26.797491,-26.7975 0,-4.287247 1.011462,-8.336167 2.801588,-11.929543 L 100.9183,78.978954 c 3.41391,-1.576801 7.21198,-2.456274 11.21937,-2.456274 z"/>
		<path d="m 208.00197,75.968879 c -16.67082,0 -28.73254,13.514621 -28.73254,30.185461 0,16.67083 9.90236,30.18546 28.73254,30.18546 17.11761,0 29.33848,-13.51463 29.33848,-30.18546 0,-4.40522 -0.8792,-8.586267 -2.48885,-12.359557 L 218.44603,77.871351 c -3.21962,-1.225638 -6.73218,-1.902472 -10.44406,-1.902472 z"/>
		<path d="m 208.36684,76.52268 c -14.79914,0 -26.7975,11.991845 -26.7975,26.79098 0,14.79913 11.99836,26.7975 26.7975,26.7975 14.79913,0 26.79749,-11.99837 26.79749,-26.7975 0,-4.287247 -1.01146,-8.336167 -2.80158,-11.929543 L 219.58621,78.978954 C 216.1723,77.402153 212.37424,76.52268 208.36684,76.52268 Z"/>
		<g class="straight-button">
			<path id="button-se" d="m 99.357216,24.856227 c -2.631327,0 -4.762692,2.13136 -4.762692,4.7627 l 0,7.25806 c 0,2.63133 2.131365,4.76269 4.762692,4.76269 2.631344,0 4.762704,-2.13136 4.762704,-4.76269 l 0,-7.25806 c 0,-2.63134 -2.13136,-4.7627 -4.762704,-4.7627 z"/>
			<path id="button-st" d="m 221.52857,24.856227 c -2.63132,0 -4.76269,2.13136 -4.76269,4.7627 l 0,7.25806 c 0,2.63133 2.13137,4.76269 4.76269,4.76269 2.63134,0 4.76271,-2.13136 4.76271,-4.76269 l 0,-7.25806 c 0,-2.63134 -2.13137,-4.7627 -4.76271,-4.7627 z"/>
			<path id="button-an" d="m 167.50325,104.92727 a 7.5028677,7.5028677 0 1 1 -15.00572,0 7.5028677,7.5028677 0 1 1 15.00572,0 z"/>
		</g>
	</g>
	<g style="fill:#cccccc;stroke:#000000;stroke-width:0.65457278">
		<path d="m 150.75795,83.546327 a 1.340295,1.340295 0 1 1 -2.68059,0 1.340295,1.340295 0 1 1 2.68059,0 z"/>
		<path d="m 155.97253,83.648707 a 1.2379101,1.2379101 0 1 1 -2.47582,0 1.2379101,1.2379101 0 1 1 2.47582,0 z"/>
		<path d="m 161.28949,83.648707 a 1.2379101,1.2379101 0 1 1 -2.47582,0 1.2379101,1.2379101 0 1 1 2.47582,0 z"/>
		<path d="m 166.60645,83.648707 a 1.2379101,1.2379101 0 1 1 -2.47582,0 1.2379101,1.2379101 0 1 1 2.47582,0 z"/>
		<path d="m 171.92342,83.648707 a 1.2379101,1.2379101 0 1 1 -2.47582,0 1.2379101,1.2379101 0 1 1 2.47582,0 z"/>
		<path d="m 169.25825,87.591112 a 1.2379101,1.2379101 0 1 1 -2.47582,0 1.2379101,1.2379101 0 1 1 2.47582,0 z"/>
		<path d="m 163.89105,87.591112 a 1.2379101,1.2379101 0 1 1 -2.47582,0 1.2379101,1.2379101 0 1 1 2.47582,0 z"/>
		<path d="m 158.52385,87.591112 a 1.2379101,1.2379101 0 1 1 -2.47581,0 1.2379101,1.2379101 0 1 1 2.47581,0 z"/>
		<path d="m 153.15666,87.591112 a 1.2379101,1.2379101 0 1 1 -2.47582,0 1.2379101,1.2379101 0 1 1 2.47582,0 z"/>
		<path d="m 155.86732,91.458555 a 1.2379101,1.2379101 0 1 1 -2.47582,0 1.2379101,1.2379101 0 1 1 2.47582,0 z"/>
		<path d="m 161.23566,91.458555 a 1.2379101,1.2379101 0 1 1 -2.47582,0 1.2379101,1.2379101 0 1 1 2.47582,0 z"/>
		<path d="m 166.60399,91.458555 a 1.2379101,1.2379101 0 1 1 -2.47582,0 1.2379101,1.2379101 0 1 1 2.47582,0 z"/>
	</g>
	<g style="fill:#000000;stroke:none">
		<path d="m 94.355427,22.788055 c 0,0.105061 -0.02995,0.198576 -0.08992,0.280546 -0.05997,0.08197 -0.143156,0.15153 -0.249627,0.208678 -0.106477,0.05715 -0.231739,0.100154 -0.375784,0.129017 -0.144059,0.02886 -0.29929,0.04329 -0.465712,0.04329 -0.116317,0 -0.224133,-0.0063 -0.323445,-0.01905 -0.09931,-0.0127 -0.187896,-0.02829 -0.265735,-0.04676 -0.07784,-0.01847 -0.143156,-0.03752 -0.195943,-0.05715 -0.05277,-0.01962 -0.08947,-0.03637 -0.110056,-0.05022 -0.02058,-0.01385 -0.03579,-0.03146 -0.04564,-0.05282 -0.0098,-0.02136 -0.01474,-0.04993 -0.01474,-0.08572 0,-0.0254 0.002,-0.04647 0.0054,-0.06321 0.0034,-0.01674 0.009,-0.03031 0.01609,-0.0407 0.0071,-0.01039 0.0161,-0.0176 0.02682,-0.02165 0.01073,-0.004 0.02323,-0.0061 0.03755,-0.0061 0.02506,10e-7 0.06037,0.0098 0.106029,0.02944 0.04564,0.01963 0.104236,0.04098 0.175814,0.06407 0.07158,0.02309 0.15792,0.04474 0.259026,0.06494 0.101098,0.0202 0.217864,0.03031 0.350283,0.03031 0.10021,0 0.191923,-0.0087 0.275134,-0.02598 0.0832,-0.01731 0.154782,-0.04185 0.214734,-0.0736 0.05996,-0.03175 0.106022,-0.07071 0.138232,-0.116894 0.03219,-0.04618 0.04828,-0.09871 0.04828,-0.157591 0,-0.0635 -0.02234,-0.117759 -0.0671,-0.162786 -0.04475,-0.04502 -0.103795,-0.08457 -0.177159,-0.118626 -0.07337,-0.03406 -0.15703,-0.06523 -0.250971,-0.09352 -0.09395,-0.02829 -0.19013,-0.05715 -0.288553,-0.08659 -0.09842,-0.02944 -0.194157,-0.06205 -0.287208,-0.09784 -0.09305,-0.03579 -0.176262,-0.07793 -0.249626,-0.126419 -0.07337,-0.04849 -0.132868,-0.105348 -0.178504,-0.170579 -0.04564,-0.06523 -0.06845,-0.143447 -0.06845,-0.234655 0,-0.09351 0.02642,-0.176927 0.07918,-0.25024 0.05277,-0.07331 0.126158,-0.134787 0.220106,-0.184433 0.09395,-0.04964 0.20579,-0.08745 0.335526,-0.113431 0.12973,-0.02597 0.269755,-0.03896 0.420076,-0.03896 0.07694,2e-6 0.154334,0.0043 0.23218,0.01299 0.07784,0.0087 0.15121,0.02021 0.220106,0.03464 0.06889,0.01443 0.130178,0.03059 0.183861,0.04849 0.05372,0.0179 0.08903,0.03233 0.106029,0.04329 0.01698,0.01097 0.02818,0.01963 0.03355,0.02598 0.0054,0.0064 0.0098,0.01443 0.01345,0.02425 0.0034,0.0098 0.0061,0.02165 0.0081,0.0355 0.002,0.01385 0.0027,0.03175 0.0027,0.05368 0,0.02079 -0.0014,0.03925 -0.0041,0.05542 -0.0027,0.01616 -0.0068,0.02973 -0.01209,0.04069 -0.0054,0.01097 -0.01297,0.01905 -0.02282,0.02424 -0.0098,0.0052 -0.02105,0.0078 -0.03355,0.0078 -0.01969,2e-6 -0.05053,-0.0081 -0.0926,-0.02425 -0.04204,-0.01616 -0.0935,-0.03435 -0.154341,-0.05455 -0.06085,-0.0202 -0.132868,-0.03868 -0.216079,-0.05542 -0.08321,-0.01674 -0.17671,-0.02511 -0.280498,-0.02511 -0.09663,2e-6 -0.180738,0.0084 -0.252316,0.02511 -0.07158,0.01674 -0.130626,0.03897 -0.177152,0.06667 -0.04652,0.02771 -0.08143,0.06061 -0.104684,0.09871 -0.02329,0.0381 -0.03491,0.07851 -0.03491,0.121224 -6e-6,0.06235 0.02234,0.11603 0.0671,0.161054 0.04475,0.04503 0.104236,0.08486 0.178497,0.119492 0.07426,0.03464 0.158816,0.06639 0.25366,0.09525 0.09484,0.02886 0.191468,0.05802 0.289891,0.08745 0.09842,0.02944 0.195047,0.06177 0.289891,0.09698 0.09484,0.03521 0.179393,0.07678 0.253653,0.124688 0.07426,0.04791 0.134212,0.104484 0.179842,0.169713 0.04564,0.06523 0.06845,0.142294 0.06845,0.23119 z"/>
		<path d="m 97.514725,23.37166 c -7e-6,0.0092 -0.0034,0.01732 -0.01073,0.02424 -0.0071,0.0069 -0.01969,0.01241 -0.03755,0.01645 -0.01793,0.004 -0.04163,0.0075 -0.07113,0.01039 -0.02954,0.0029 -0.06574,0.0043 -0.108712,0.0043 -0.04652,0 -0.08411,-0.0014 -0.112739,-0.0043 -0.02866,-0.0029 -0.05188,-0.0063 -0.06979,-0.01039 -0.01793,-0.004 -0.03042,-0.0095 -0.03755,-0.01645 -0.0071,-0.0069 -0.01073,-0.01501 -0.01073,-0.02424 l 0,-0.994034 -1.580984,0 0,0.994034 c -6e-6,0.0092 -0.0034,0.01732 -0.01073,0.02424 -0.0071,0.0069 -0.01969,0.01241 -0.03755,0.01645 -0.01793,0.004 -0.04163,0.0075 -0.07113,0.01039 -0.02954,0.0029 -0.06669,0.0043 -0.111394,0.0043 -0.04292,0 -0.07963,-0.0014 -0.110049,-0.0043 -0.03042,-0.0029 -0.0546,-0.0063 -0.07247,-0.01039 -0.01793,-0.004 -0.03042,-0.0095 -0.03755,-0.01645 -0.0071,-0.0069 -0.01073,-0.01501 -0.01073,-0.02424 l 0,-2.150854 c 0,-0.0092 0.0034,-0.01731 0.01073,-0.02425 0.0071,-0.0069 0.01969,-0.01241 0.03755,-0.01645 0.01793,-0.004 0.04204,-0.0075 0.07247,-0.01039 0.03042,-0.0029 0.06709,-0.0043 0.110049,-0.0043 0.04475,2e-6 0.08187,0.0014 0.111394,0.0043 0.02954,0.0029 0.05324,0.0064 0.07113,0.01039 0.01793,0.004 0.03042,0.0095 0.03755,0.01645 0.0071,0.0069 0.01073,0.01501 0.01073,0.02425 l 0,0.897055 1.580984,0 0,-0.897055 c 0,-0.0092 0.0034,-0.01731 0.01073,-0.02425 0.0071,-0.0069 0.01969,-0.01241 0.03755,-0.01645 0.01793,-0.004 0.04115,-0.0075 0.06979,-0.01039 0.02866,-0.0029 0.06621,-0.0043 0.112739,-0.0043 0.04292,2e-6 0.07918,0.0014 0.108712,0.0043 0.02954,0.0029 0.05324,0.0064 0.07113,0.01039 0.01793,0.004 0.03042,0.0095 0.03755,0.01645 0.0071,0.0069 0.01073,0.01501 0.01073,0.02425 z"/>
		<path d="m 101.03906,23.311048 c 0.0143,0.0254 0.0219,0.04589 0.0228,0.06148 6.8e-4,0.01558 -0.006,0.02742 -0.0202,0.0355 -0.0143,0.0081 -0.038,0.01328 -0.0711,0.01559 -0.0331,0.0023 -0.0774,0.0035 -0.13287,0.0035 -0.0555,0 -0.0998,-8.76e-4 -0.13286,-0.0026 -0.0331,-0.0018 -0.0581,-0.0046 -0.0752,-0.0087 -0.017,-0.004 -0.0295,-0.0095 -0.0375,-0.01645 -0.008,-0.0069 -0.0157,-0.01559 -0.0228,-0.02598 l -0.29795,-0.545507 -1.444093,0 -0.284526,0.53858 c -0.0054,0.01039 -0.0125,0.01934 -0.02146,0.02684 -0.009,0.0075 -0.02194,0.01385 -0.03891,0.01905 -0.01698,0.0052 -0.04115,0.0089 -0.07247,0.01126 -0.03131,0.0023 -0.07203,0.0035 -0.12213,0.0035 -0.05188,0 -0.09439,-0.0014 -0.127496,-0.0043 -0.03307,-0.0029 -0.05637,-0.0084 -0.06979,-0.01645 -0.01345,-0.0081 -0.01969,-0.01991 -0.01881,-0.0355 6.79e-4,-0.01558 0.0085,-0.03608 0.02282,-0.06148 l 1.164941,-2.081584 c 0.0071,-0.0127 0.01657,-0.02309 0.02818,-0.03117 0.01161,-0.0081 0.02866,-0.01443 0.051,-0.01905 0.02234,-0.0046 0.051,-0.0078 0.08589,-0.0095 0.03491,-0.0017 0.07918,-0.0026 0.132867,-0.0026 0.05725,2e-6 0.104678,8.76e-4 0.14226,0.0026 0.03755,0.0018 0.068,0.0049 0.09126,0.0095 0.02329,0.0046 0.04115,0.01126 0.05365,0.01991 0.0125,0.0087 0.02234,0.01934 0.02954,0.03204 z m -1.495086,-1.837404 -0.0027,0 -0.598572,1.11699 1.207885,0 z"/>
		<path d="m 103.93262,23.37166 c 0,0.0092 -0.003,0.01732 -0.008,0.02424 -0.005,0.0069 -0.017,0.0127 -0.0349,0.01731 -0.0179,0.0046 -0.0429,0.0081 -0.0752,0.01039 -0.0322,0.0023 -0.0751,0.0035 -0.12884,0.0035 -0.0465,0 -0.0846,-0.0011 -0.11407,-0.0035 -0.0295,-0.0023 -0.0532,-0.0061 -0.0711,-0.01126 -0.0179,-0.0052 -0.0318,-0.01241 -0.0416,-0.02165 -0.01,-0.0092 -0.0183,-0.02078 -0.0255,-0.03464 l -0.31941,-0.528189 c -0.0376,-0.06003 -0.0765,-0.115162 -0.11676,-0.165384 -0.0403,-0.05022 -0.0881,-0.09351 -0.14361,-0.129882 -0.0555,-0.03637 -0.12079,-0.06465 -0.19595,-0.08486 -0.0751,-0.0202 -0.16552,-0.03031 -0.2711,-0.03031 l -0.30868,0 0,0.954204 c 0,0.0092 -0.004,0.01731 -0.0121,0.02424 -0.008,0.0069 -0.0206,0.01241 -0.0375,0.01645 -0.017,0.004 -0.0403,0.0075 -0.0698,0.01039 -0.0295,0.0029 -0.0667,0.0043 -0.1114,0.0043 -0.0447,0 -0.0819,-0.0014 -0.11139,-0.0043 -0.0295,-0.0029 -0.0532,-0.0063 -0.0711,-0.01039 -0.0179,-0.004 -0.0304,-0.0095 -0.0376,-0.01645 -0.007,-0.0069 -0.0107,-0.01501 -0.0107,-0.02424 l 0,-2.074657 c 0,-0.04502 0.0183,-0.07648 0.055,-0.09438 0.0367,-0.01789 0.0756,-0.02684 0.11677,-0.02684 l 0.73815,0 c 0.0877,2e-6 0.1606,0.0014 0.21876,0.0043 0.0581,0.0029 0.1105,0.0061 0.15702,0.0095 0.13421,0.01501 0.25277,0.03868 0.35566,0.071 0.10289,0.03233 0.18923,0.07331 0.25902,0.122956 0.0698,0.04965 0.12213,0.106505 0.15703,0.170579 0.0349,0.06408 0.0524,0.134791 0.0524,0.212141 0,0.07505 -0.0157,0.142295 -0.047,0.201751 -0.0313,0.05946 -0.0765,0.111989 -0.13555,0.157591 -0.0591,0.0456 -0.12974,0.08515 -0.21205,0.118626 -0.0823,0.03348 -0.17448,0.06177 -0.27648,0.08486 0.0572,0.01616 0.10916,0.03665 0.15569,0.06148 0.0465,0.02482 0.0899,0.05455 0.13018,0.08919 0.0403,0.03463 0.0783,0.07447 0.11408,0.119492 0.0358,0.04503 0.0716,0.09582 0.10737,0.152395 l 0.31136,0.493554 c 0.0251,0.04156 0.0412,0.07071 0.0483,0.08745 0.007,0.01674 0.0107,0.02973 0.0107,0.03896 z m -0.6952,-1.574176 c 0,-0.08774 -0.0304,-0.161918 -0.0913,-0.222532 -0.0609,-0.06061 -0.16284,-0.104193 -0.30599,-0.130748 -0.0447,-0.0081 -0.0953,-0.01385 -0.15166,-0.01732 -0.0564,-0.0035 -0.13018,-0.0052 -0.22144,-0.0052 l -0.38921,0 0,0.75505 0.45094,0 c 0.12168,2e-6 0.22681,-0.0095 0.3154,-0.02858 0.0886,-0.01905 0.16238,-0.0456 0.22144,-0.07966 0.0591,-0.03406 0.10244,-0.07418 0.13018,-0.120357 0.0277,-0.04618 0.0416,-0.0964 0.0416,-0.150664 z"/>
		<path d="m 106.5336,23.293731 c 0,0.02078 -0.002,0.03896 -0.005,0.05455 -0.003,0.01559 -0.01,0.02858 -0.0188,0.03896 -0.009,0.01039 -0.0192,0.01789 -0.0308,0.02251 -0.0116,0.0046 -0.0246,0.0069 -0.0389,0.0069 l -1.66687,0 c -0.0412,0 -0.0801,-0.0089 -0.11677,-0.02684 -0.0367,-0.01789 -0.055,-0.04935 -0.055,-0.09438 l 0,-1.998459 c 0,-0.04502 0.0183,-0.07648 0.055,-0.09438 0.0367,-0.01789 0.0756,-0.02684 0.11677,-0.02684 l 1.64809,0 c 0.0143,3e-6 0.0273,0.0023 0.0389,0.0069 0.0116,0.0046 0.0211,0.01212 0.0282,0.02251 0.007,0.01039 0.013,0.02338 0.0174,0.03896 0.005,0.01559 0.007,0.03492 0.007,0.05801 0,0.02079 -0.002,0.03897 -0.007,0.05455 -0.005,0.01559 -0.0103,0.02829 -0.0174,0.0381 -0.007,0.0098 -0.0166,0.01703 -0.0282,0.02165 -0.0116,0.0046 -0.0246,0.0069 -0.0389,0.0069 l -1.3582,0 0,0.703098 1.16493,0 c 0.0143,1e-6 0.0273,0.0026 0.0389,0.0078 0.0116,0.0052 0.0215,0.01241 0.0296,0.02165 0.008,0.0092 0.0139,0.02194 0.0174,0.0381 0.003,0.01616 0.005,0.03521 0.005,0.05715 0,0.02078 -0.002,0.03868 -0.005,0.05369 -0.003,0.01501 -0.009,0.02713 -0.0174,0.03637 -0.008,0.0092 -0.0179,0.01587 -0.0296,0.01991 -0.0116,0.004 -0.0246,0.0061 -0.0389,0.0061 l -1.16493,0 0,0.801808 1.37698,0 c 0.0143,0 0.0273,0.0023 0.0389,0.0069 0.0116,0.0046 0.0219,0.01183 0.0308,0.02165 0.009,0.0098 0.0152,0.02251 0.0188,0.0381 0.003,0.01558 0.005,0.03492 0.005,0.05801 z"/>
		<path d="m 215.95264,22.332201 c 0,0.181259 -0.0324,0.344622 -0.0971,0.49009 -0.0647,0.145468 -0.16145,0.26929 -0.2901,0.371464 -0.12864,0.102174 -0.2901,0.180681 -0.48437,0.23552 -0.19427,0.05484 -0.42093,0.08226 -0.67996,0.08226 -0.25553,0 -0.4765,-0.02511 -0.6629,-0.07533 -0.18639,-0.05022 -0.34042,-0.123244 -0.46205,-0.219068 -0.12165,-0.09583 -0.21222,-0.214739 -0.27173,-0.356745 -0.0595,-0.142004 -0.0893,-0.305367 -0.0893,-0.49009 0,-0.176638 0.0324,-0.337115 0.0971,-0.481431 0.0647,-0.144312 0.16189,-0.266979 0.29141,-0.368 0.12952,-0.101018 0.29142,-0.178947 0.48569,-0.233789 0.19427,-0.05484 0.42092,-0.08226 0.67996,-0.08226 0.25028,2e-6 0.46818,0.02482 0.65371,0.07447 0.18552,0.04965 0.33997,0.122092 0.46337,0.217337 0.12339,0.09525 0.21527,0.213009 0.27566,0.35328 0.0604,0.140275 0.0906,0.301041 0.0906,0.482298 z m -0.47519,0.02078 c 0,-0.126995 -0.0171,-0.245044 -0.0512,-0.354146 -0.0341,-0.1091 -0.091,-0.20377 -0.17065,-0.28401 -0.0796,-0.08024 -0.18596,-0.142869 -0.31898,-0.187897 -0.13302,-0.04502 -0.29754,-0.06754 -0.49356,-0.06754 -0.19602,3e-6 -0.36054,0.02425 -0.49356,0.07274 -0.13302,0.04849 -0.2411,0.113144 -0.32423,0.193957 -0.0831,0.08082 -0.14265,0.175199 -0.17852,0.283144 -0.0359,0.107949 -0.0538,0.221379 -0.0538,0.340293 0,0.131615 0.0166,0.252838 0.0499,0.363671 0.0333,0.110833 0.0893,0.206369 0.16802,0.286607 0.0788,0.08024 0.18421,0.142582 0.31635,0.187031 0.13214,0.04445 0.29797,0.06667 0.49751,0.06667 0.19777,0 0.36403,-0.02425 0.49881,-0.07273 0.13476,-0.04849 0.24327,-0.114008 0.32554,-0.196556 0.0822,-0.08255 0.14089,-0.178083 0.1759,-0.286607 0.035,-0.108523 0.0525,-0.223397 0.0525,-0.344622 z"/>
		<path d="m 218.75387,21.894064 c 0,0.111989 -0.028,0.213008 -0.084,0.303059 -0.056,0.09005 -0.13608,0.166828 -0.24022,0.230325 -0.10414,0.0635 -0.2319,0.112565 -0.3833,0.1472 -0.15139,0.03464 -0.3321,0.05195 -0.54213,0.05195 l -0.38592,0 0,0.807003 c 0,0.0092 -0.004,0.01732 -0.0118,0.02425 -0.008,0.0069 -0.0202,0.01241 -0.0367,0.01645 -0.0166,0.004 -0.0393,0.0075 -0.0683,0.01039 -0.0289,0.0029 -0.0652,0.0043 -0.10895,0.0043 -0.0437,0 -0.0801,-0.0015 -0.10895,-0.0043 -0.0289,-0.0029 -0.0521,-0.0063 -0.0696,-0.01039 -0.0175,-0.004 -0.0298,-0.0095 -0.0367,-0.01645 -0.007,-0.0069 -0.0105,-0.01501 -0.0105,-0.02425 l 0,-2.067729 c 0,-0.04618 0.0184,-0.07908 0.0551,-0.09871 0.0367,-0.01963 0.0779,-0.02944 0.12339,-0.02944 l 0.72722,0 c 0.0735,2e-6 0.14395,0.002 0.21133,0.0061 0.0674,0.004 0.14702,0.0127 0.23891,0.02597 0.0919,0.01328 0.18552,0.0381 0.28091,0.07447 0.0954,0.03637 0.17633,0.08111 0.24284,0.134212 0.0665,0.05311 0.1177,0.114587 0.15358,0.184433 0.0359,0.06985 0.0538,0.146914 0.0538,0.231191 z m -0.47519,0.02425 c 0,-0.0912 -0.0258,-0.167403 -0.0774,-0.228594 -0.0517,-0.06119 -0.11552,-0.10679 -0.19165,-0.136809 -0.0761,-0.03001 -0.15489,-0.04906 -0.23628,-0.05715 -0.0814,-0.0081 -0.16058,-0.01212 -0.23759,-0.01212 l -0.41743,0 0,0.898788 0.40693,0 c 0.13651,0 0.24984,-0.01155 0.33997,-0.03464 0.0901,-0.02309 0.16584,-0.05513 0.2271,-0.09611 0.0613,-0.04098 0.10763,-0.09005 0.13914,-0.147201 0.0315,-0.05715 0.0473,-0.119202 0.0473,-0.186165 z"/>
		<path d="m 221.57873,21.365875 c 0,0.02194 -0.002,0.04099 -0.005,0.05715 -0.003,0.01617 -0.009,0.02915 -0.0171,0.03896 -0.008,0.0098 -0.0175,0.01703 -0.0289,0.02165 -0.0113,0.0046 -0.024,0.0069 -0.0381,0.0069 l -0.95562,0 0,1.943042 c 0,0.0092 -0.003,0.01732 -0.0105,0.02425 -0.007,0.0069 -0.0193,0.01241 -0.0367,0.01645 -0.0175,0.004 -0.0407,0.0075 -0.0696,0.01039 -0.0289,0.0029 -0.0652,0.0043 -0.10895,0.0043 -0.042,0 -0.0779,-0.0015 -0.10763,-0.0043 -0.0298,-0.0029 -0.0534,-0.0063 -0.0709,-0.01039 -0.0175,-0.004 -0.0297,-0.0095 -0.0367,-0.01645 -0.007,-0.0069 -0.0105,-0.01501 -0.0105,-0.02425 l 0,-1.943042 -0.95561,0 c -0.014,2e-6 -0.0267,-0.0023 -0.0381,-0.0069 -0.0113,-0.0046 -0.0205,-0.01183 -0.0276,-0.02165 -0.007,-0.0098 -0.0127,-0.0228 -0.0171,-0.03896 -0.005,-0.01616 -0.007,-0.03521 -0.007,-0.05715 0,-0.02193 0.002,-0.04127 0.007,-0.05801 0.005,-0.01674 0.0101,-0.0303 0.0171,-0.0407 0.007,-0.01039 0.0162,-0.01789 0.0276,-0.02251 0.0113,-0.0046 0.024,-0.0069 0.0381,-0.0069 l 2.36279,0 c 0.014,2e-6 0.0267,0.0023 0.0381,0.0069 0.0113,0.0046 0.021,0.01213 0.0289,0.02251 0.008,0.01039 0.0136,0.02396 0.0171,0.0407 0.003,0.01674 0.005,0.03608 0.005,0.05801 z"/>
		<path d="m 222.52648,23.433604 c -1e-5,0.0092 -0.003,0.01732 -0.0105,0.02425 -0.007,0.0069 -0.0193,0.01241 -0.0367,0.01645 -0.0175,0.004 -0.0407,0.0075 -0.0696,0.01039 -0.0289,0.0029 -0.0652,0.0043 -0.10895,0.0043 -0.042,0 -0.0779,-0.0015 -0.10764,-0.0043 -0.0298,-0.0029 -0.0534,-0.0063 -0.0709,-0.01039 -0.0175,-0.004 -0.0298,-0.0095 -0.0367,-0.01645 -0.007,-0.0069 -0.0105,-0.01501 -0.0105,-0.02425 l 0,-2.150854 c 0,-0.0092 0.004,-0.01731 0.0118,-0.02424 0.008,-0.0069 0.021,-0.01241 0.0394,-0.01645 0.0184,-0.004 0.042,-0.0075 0.0709,-0.01039 0.0289,-0.0029 0.0635,-0.0043 0.1037,-0.0043 0.0437,2e-6 0.0801,0.0015 0.10895,0.0043 0.0289,0.0029 0.0521,0.0064 0.0696,0.01039 0.0175,0.004 0.0298,0.0095 0.0367,0.01645 0.007,0.0069 0.0105,0.01501 0.0105,0.02424 z"/>
		<path d="m 226.27545,22.332201 c -1e-5,0.181259 -0.0324,0.344622 -0.0971,0.49009 -0.0648,0.145468 -0.16147,0.26929 -0.2901,0.371464 -0.12865,0.102174 -0.29011,0.180681 -0.48438,0.23552 -0.19428,0.05484 -0.42093,0.08226 -0.67996,0.08226 -0.25554,0 -0.4765,-0.02511 -0.6629,-0.07533 -0.1864,-0.05022 -0.34041,-0.123244 -0.46206,-0.219068 -0.12164,-0.09583 -0.21221,-0.214739 -0.27172,-0.356745 -0.0595,-0.142004 -0.0893,-0.305367 -0.0893,-0.49009 0,-0.176638 0.0324,-0.337115 0.0971,-0.481431 0.0647,-0.144312 0.16189,-0.266979 0.29141,-0.368 0.12952,-0.101018 0.29141,-0.178947 0.48568,-0.233789 0.19428,-0.05484 0.42093,-0.08226 0.67997,-0.08226 0.25028,2e-6 0.46818,0.02482 0.65371,0.07447 0.18552,0.04965 0.33997,0.122092 0.46337,0.217337 0.12338,0.09525 0.21527,0.213009 0.27566,0.35328 0.0604,0.140275 0.0906,0.301041 0.0906,0.482298 z m -0.47518,0.02078 c -1e-5,-0.126995 -0.0171,-0.245044 -0.0512,-0.354146 -0.0341,-0.1091 -0.091,-0.20377 -0.17065,-0.28401 -0.0796,-0.08024 -0.18596,-0.142869 -0.31898,-0.187897 -0.13301,-0.04502 -0.29753,-0.06754 -0.49356,-0.06754 -0.19602,3e-6 -0.36054,0.02425 -0.49356,0.07274 -0.13302,0.04849 -0.2411,0.113144 -0.32423,0.193957 -0.0831,0.08082 -0.14264,0.175199 -0.17852,0.283144 -0.0359,0.107949 -0.0538,0.221379 -0.0538,0.340293 0,0.131615 0.0167,0.252838 0.0499,0.363671 0.0332,0.110833 0.0893,0.206369 0.16802,0.286607 0.0788,0.08024 0.18421,0.142582 0.31635,0.187031 0.13215,0.04445 0.29798,0.06667 0.49751,0.06667 0.19777,0 0.36404,-0.02425 0.49881,-0.07273 0.13476,-0.04849 0.24328,-0.114008 0.32554,-0.196556 0.0823,-0.08255 0.14089,-0.178083 0.1759,-0.286607 0.035,-0.108523 0.0525,-0.223397 0.0525,-0.344622 z"/>
		<path d="m 229.55711,23.355675 c 0,0.02309 -0.005,0.04272 -0.0171,0.05888 -0.0114,0.01616 -0.0263,0.02944 -0.0447,0.03983 -0.0184,0.01039 -0.0389,0.01789 -0.0617,0.02251 -0.0228,0.0046 -0.0455,0.0069 -0.0683,0.0069 l -0.14439,0 c -0.0455,0 -0.0853,-0.0032 -0.11946,-0.0095 -0.0341,-0.0063 -0.0665,-0.01789 -0.0971,-0.03464 -0.0306,-0.01674 -0.0613,-0.03954 -0.0919,-0.0684 -0.0306,-0.02886 -0.0643,-0.06581 -0.10108,-0.110833 l -1.07113,-1.27458 c -0.056,-0.06581 -0.11245,-0.134788 -0.16934,-0.206947 -0.0569,-0.07216 -0.10982,-0.142291 -0.15883,-0.210409 l -0.005,0 c 0.003,0.08313 0.006,0.167983 0.008,0.25457 0.002,0.08659 0.003,0.1726 0.003,0.258033 l 0,1.352509 c 0,0.0081 -0.003,0.01587 -0.0105,0.02338 -0.007,0.0075 -0.0188,0.01328 -0.0355,0.01732 -0.0167,0.004 -0.0385,0.0075 -0.0656,0.01039 -0.0271,0.0029 -0.0617,0.0043 -0.1037,0.0043 -0.042,0 -0.0766,-0.0015 -0.1037,-0.0043 -0.0271,-0.0029 -0.0486,-0.0063 -0.0643,-0.01039 -0.0158,-0.004 -0.0271,-0.0098 -0.0341,-0.01732 -0.007,-0.0075 -0.0105,-0.0153 -0.0105,-0.02338 l 0,-2.067729 c 0,-0.04618 0.0193,-0.07908 0.0578,-0.09871 0.0385,-0.01963 0.0805,-0.02944 0.12601,-0.02944 l 0.21528,0 c 0.0508,2e-6 0.0932,0.0029 0.12732,0.0087 0.0341,0.0058 0.0648,0.0153 0.0919,0.02858 0.0271,0.01328 0.0534,0.03175 0.0788,0.05542 0.0254,0.02367 0.0529,0.0534 0.0827,0.08919 l 0.82436,0.983644 c 0.0508,0.06004 0.0998,0.118627 0.14702,0.175774 0.0473,0.05715 0.0927,0.113431 0.13652,0.168847 0.0437,0.05542 0.0871,0.109968 0.12995,0.163652 0.0428,0.05369 0.0853,0.107659 0.12732,0.161921 l 0.003,0 c -0.003,-0.09121 -0.005,-0.186165 -0.007,-0.284876 -6.7e-4,-0.09871 -0.001,-0.193668 -0.001,-0.284876 l 0,-1.2157 c 0,-0.0081 0.003,-0.01559 0.0105,-0.02251 0.007,-0.0069 0.0188,-0.01299 0.0355,-0.01818 0.0166,-0.0052 0.0385,-0.0089 0.0656,-0.01126 0.0271,-0.0023 0.0625,-0.0035 0.10632,-0.0035 0.0385,2e-6 0.0718,0.0012 0.0998,0.0035 0.028,0.0023 0.0499,0.0061 0.0656,0.01126 0.0158,0.0052 0.0271,0.01126 0.0341,0.01818 0.007,0.0069 0.0105,0.01443 0.0105,0.02251 z"/>
		<path d="m 232.29008,22.849999 c 0,0.105061 -0.0293,0.198576 -0.0879,0.280546 -0.0586,0.08197 -0.14002,0.15153 -0.24416,0.208678 -0.10414,0.05715 -0.22666,0.100154 -0.36754,0.129016 -0.1409,0.02886 -0.29273,0.04329 -0.4555,0.04329 -0.11377,0 -0.21921,-0.0063 -0.31635,-0.01905 -0.0971,-0.0127 -0.18378,-0.02829 -0.25991,-0.04676 -0.0761,-0.01847 -0.14002,-0.03752 -0.19165,-0.05715 -0.0516,-0.01963 -0.0875,-0.03637 -0.10764,-0.05022 -0.0202,-0.01385 -0.035,-0.03146 -0.0446,-0.05282 -0.01,-0.02136 -0.0144,-0.04993 -0.0144,-0.08572 0,-0.0254 0.002,-0.04647 0.005,-0.06321 0.003,-0.01674 0.009,-0.0303 0.0158,-0.0407 0.007,-0.01039 0.0157,-0.01761 0.0263,-0.02165 0.0105,-0.004 0.0228,-0.0061 0.0367,-0.0061 0.0245,10e-7 0.0591,0.0098 0.10371,0.02944 0.0446,0.01963 0.10194,0.04098 0.17195,0.06408 0.07,0.02309 0.15446,0.04474 0.25335,0.06494 0.0989,0.02021 0.21308,0.03031 0.34261,0.03031 0.098,0 0.1877,-0.0087 0.26909,-0.02598 0.0814,-0.01732 0.1514,-0.04185 0.21003,-0.0736 0.0586,-0.03175 0.1037,-0.07071 0.1352,-0.116894 0.0315,-0.04618 0.0473,-0.09871 0.0473,-0.157591 0,-0.0635 -0.0219,-0.117759 -0.0656,-0.162786 -0.0437,-0.04503 -0.10152,-0.08457 -0.17328,-0.118626 -0.0718,-0.03405 -0.15358,-0.06523 -0.24547,-0.09352 -0.0919,-0.02828 -0.18596,-0.05715 -0.28222,-0.08659 -0.0963,-0.02944 -0.1899,-0.06205 -0.28091,-0.09784 -0.091,-0.03579 -0.1724,-0.07793 -0.24415,-0.126418 -0.0718,-0.04849 -0.12996,-0.105348 -0.17459,-0.17058 -0.0447,-0.06523 -0.067,-0.143446 -0.067,-0.234654 0,-0.09351 0.0258,-0.176927 0.0774,-0.25024 0.0516,-0.07331 0.12339,-0.134787 0.21527,-0.184433 0.0919,-0.04964 0.20128,-0.08745 0.32817,-0.113431 0.12689,-0.02597 0.26385,-0.03896 0.41086,-0.03896 0.0753,2e-6 0.15096,0.0043 0.2271,0.01299 0.0761,0.0087 0.14789,0.02021 0.21527,0.03463 0.0674,0.01443 0.12733,0.0306 0.17984,0.04849 0.0525,0.0179 0.0871,0.03233 0.1037,0.04329 0.0167,0.01097 0.0275,0.01963 0.0328,0.02597 0.005,0.0064 0.01,0.01443 0.0131,0.02424 0.003,0.0098 0.006,0.02165 0.008,0.0355 0.002,0.01386 0.003,0.03175 0.003,0.05368 0,0.02078 -0.001,0.03926 -0.004,0.05542 -0.003,0.01617 -0.007,0.02973 -0.0118,0.0407 -0.005,0.01097 -0.0127,0.01905 -0.0223,0.02424 -0.01,0.0052 -0.0206,0.0078 -0.0328,0.0078 -0.0193,2e-6 -0.0494,-0.0081 -0.0906,-0.02425 -0.0411,-0.01616 -0.0914,-0.03434 -0.15096,-0.05455 -0.0595,-0.0202 -0.12995,-0.03867 -0.21134,-0.05542 -0.0814,-0.01674 -0.17283,-0.02511 -0.27434,-0.02511 -0.0945,3e-6 -0.17678,0.0084 -0.24678,0.02511 -0.07,0.01674 -0.12777,0.03897 -0.17327,0.06667 -0.0455,0.02771 -0.0796,0.06061 -0.10239,0.09871 -0.0228,0.0381 -0.0341,0.07851 -0.0341,0.121223 0,0.06235 0.0219,0.116031 0.0656,0.161055 0.0438,0.04503 0.10195,0.08486 0.17458,0.119492 0.0726,0.03464 0.15534,0.06639 0.2481,0.09525 0.0928,0.02886 0.18727,0.05802 0.28353,0.08745 0.0963,0.02944 0.19078,0.06177 0.28354,0.09698 0.0928,0.03521 0.17546,0.07678 0.24809,0.124687 0.0726,0.04791 0.13127,0.104484 0.1759,0.169713 0.0446,0.06523 0.067,0.142295 0.067,0.231191 z"/>
	</g>
	<g>
		<circle id="button-l3-shadow" style="fill:#cccccc;fill-opacity:1;stroke:#000000;stroke-width:0.65482497;stroke-opacity:1" cx="112.139" cy="103.31599" r="19.541588"/>
		<circle class="straight-button" id="button-l3" style="stroke:#000000;stroke-width:0.65482497;stroke-opacity:1" cx="112.139" cy="103.31599" r="19.541588"/>
		<circle id="button-r3-shadow" style="fill:#cccccc;fill-opacity:1;stroke:#000000;stroke-width:0.65482497;stroke-opacity:1" cx="208.366" cy="103.32999" r="19.541588"/>
		<circle class="straight-button" id="button-r3" style="stroke:#000000;stroke-width:0.65482497;stroke-opacity:1" cx="208.366" cy="103.32999" r="19.541588"/>
	</g>
</svg>
