<?xml version="1.0" encoding="UTF-8"?>
<svg xmlns="http://www.w3.org/2000/svg" width="320" height="146.535" version="1.0">
	<g style="fill:#ffffff;stroke:#888888;stroke-width:0.5">
		<path d="m 74.64713,10.31211 c 0,0 -0.62274,-0.0272 -0.62274,0.62274 l 0,0.70418 172.03948,-0.0144 0,-0.82393 c 0,-0.51259 -0.77604,-0.48862 -0.77604,-0.48862 l -45.68525,0 c 0,0 -0.556,0.67241 -1.43709,0 l -76.47265,0 c 0,0 -0.60731,0.69101 -1.37961,0 l -45.6661,0 z"/>
		<path d="m 39.96523,10.47977 c 0,0 -4.9744,0.10265 -8.75191,4.64661 L 24.641,23.725 c -0.28168,0.36856 -0.12552,0.78237 0.0766,1.08741 0.3271,-0.5185 0.66106,-1.03702 1.00117,-1.55686 0.65892,-1.00711 2.4766,-1.00596 2.4766,-1.00596 l 20.20556,-0.62275 c 3.0195,-0.23227 5.03462,-2.08857 5.03462,-2.08857 l 5.86335,-6.17952 c 0,0 1.4293,-1.71961 2.63468,-1.71972 l 11.31473,0 c -0.0296,-0.37769 -0.19168,-1.08261 -1.00118,-1.08261 l -32.28195,-0.0767 z"/>
		<path d="m 248.33926,10.07739 c -0.99929,0.0658 -0.91974,1.30296 -0.91974,1.30296 l 0.091,0.24431 9.9926,0 c 2.84538,-2.6e-4 4.12447,2.49576 4.12447,2.49576 l 2.8646,3.5592 c 2.62785,4.10599 6.81185,3.87058 6.81185,3.87058 l 18.27025,0.5413 c 3.44447,0.10217 4.6001,1.01893 5.85857,2.86461 0.0594,-0.2908 0.0454,-0.60763 -0.14371,-0.89578 L 289.421,15.11201 c -3.72532,-4.58684 -8.69442,-4.74241 -8.69442,-4.74241 l -32.28674,-0.29221 c -0.0345,-4e-4 -0.0684,-0.002 -0.1006,0 z"/>
		<g class="straight-button">
			<path id="button-l1" d="m 39.96523,10.47977 c 0,0 -4.9744,0.10265 -8.75191,4.64661 L 24.641,23.725 c -0.28168,0.36856 -0.12552,0.78237 0.0766,1.08741 0.3271,-0.5185 0.66106,-1.03702 1.00117,-1.55686 0.65892,-1.00711 2.4766,-1.00596 2.4766,-1.00596 l 20.20556,-0.62275 c 3.0195,-0.23227 5.03462,-2.08857 5.03462,-2.08857 l 5.86335,-6.17952 c 0,0 1.4293,-1.71961 2.63468,-1.71972 l 11.31473,0 c -0.0296,-0.37769 -0.19168,-1.08261 -1.00118,-1.08261 l -32.28195,-0.0767 z"/>
			<path id="button-r1" d="m 248.33926,10.07739 c -0.99929,0.0658 -0.91974,1.30296 -0.91974,1.30296 l 0.091,0.24431 9.9926,0 c 2.84538,-2.6e-4 4.12447,2.49576 4.12447,2.49576 l 2.8646,3.5592 c 2.62785,4.10599 6.81185,3.87058 6.81185,3.87058 l 18.27025,0.5413 c 3.44447,0.10217 4.6001,1.01893 5.85857,2.86461 0.0594,-0.2908 0.0454,-0.60763 -0.14371,-0.89578 L 289.421,15.11201 c -3.72532,-4.58684 -8.69442,-4.74241 -8.69442,-4.74241 l -32.28674,-0.29221 c -0.0345,-4e-4 -0.0684,-0.002 -0.1006,0 z"/>
		</g>
	</g>
	<g style="stroke-width:0">
		<path style="fill:#111111" d="m 59.29796,13.35648 -5.86337,6.18205 c 0,0 -2.013,1.85815 -5.03251,2.09042 l -20.20746,0.61939 c 0,0 -1.81863,-6.1e-4 -2.47754,1.0065 -35.62216,54.44647 0.62094,101.73101 0.62094,101.73101 0,0 0.44518,0.54196 2.16785,0.54196 l 19.74137,1.00417 c 0,0 4.67038,-0.18023 7.5937,4.88311 0.8112,1.40504 5.42507,5.06528 6.96187,5.07392 l 195.513,0 c 1.88938,0 4.64821,-4.67969 8.31636,-7.99608 0.4893,-0.39108 2.73859,-1.82077 6.34263,-1.96879 l 18.62304,-0.76483 c 0,0 1.77911,-0.37222 2.54557,-1.46716 19.51964,-28.50785 22.11813,-68.78677 1.28963,-99.334 -1.25847,-1.84568 -2.41316,-2.76249 -5.85761,-2.86466 l -18.27188,-0.54196 c 0,0 -4.1854,0.23482 -6.81324,-3.87116 l -2.86466,-3.56147 c 0,0 -1.27591,-2.49579 -4.12128,-2.49552 l -195.57296,0.018 c -1.20537,1.1e-4 -2.63345,1.71512 -2.63345,1.71512 z"/>
		<rect style="fill:#ffffff" width="172.52263" height="98.699707" x="73.687309" y="20.165115"/>
	</g>
	<circle style="fill-opacity:0;stroke:#888888;stroke-width:1" cx="278.67426" cy="66.565399" r="19.618448"/>
	<rect style="fill:#888888;stroke-width:0" y="109.65645" x="27.037594" height="1.3146385" width="1.3146385"/>
	<g style="fill-opacity:0;stroke:#808080;stroke-width:0.5">
		<path d="m 28.03979,106.89125 a 3.0775733,3.0775733 0 0 1 3.07757,3.07758"/>
		<path d="m 28.03979,107.74291 a 2.2259178,2.2259178 0 0 1 2.22592,2.22592"/>
		<path d="m 28.03979,108.69134 a 1.2774832,1.2774832 0 0 1 1.27748,1.27749"/>
	</g>
	<g style="fill:#808080;stroke-width:0">
		<path d="m 25.81434,96.96111 c 1.41958,0 2.97975,-0.0901 2.97975,-0.24446 0,-0.05 -1.35134,-0.0643 -2.97975,-0.0643 -1.62842,0 -2.97976,0.0144 -2.97976,0.0643 0,0.1544 1.56017,0.24446 2.97976,0.24446"/>
		<path d="m 25.81434,97.4479 c 0.67966,0 2.21996,-0.089 2.21996,-0.21078 0,-0.0365 -1.03508,-0.0452 -2.21996,-0.0452 -1.18489,0 -2.21979,0.009 -2.21979,0.0452 0,0.12178 1.54013,0.21078 2.21979,0.21078"/>
		<path d="m 25.81434,97.86998 c 0.7518,0 1.60501,-0.083 1.60501,-0.17745 0,-0.0397 -0.72788,-0.0315 -1.60501,-0.0315 -0.87714,0 -1.60502,-0.008 -1.60502,0.0315 0,0.0945 0.85321,0.17745 1.60502,0.17745"/>
		<path d="m 25.8154,96.3793 c 0.0886,0 0.19074,-0.003 0.29019,-0.0214 0.11222,-0.0213 0.16008,-0.0704 0.17568,-0.17585 0.0142,-0.0971 -0.0362,-0.25119 -0.0624,-0.38787 -0.0371,-0.19269 0.0525,-0.28434 0.2987,-0.28434 0.29587,0 0.36288,0.14199 0.49689,0.49689 0.0807,0.21308 0.16504,0.2964 0.47243,0.32671 0.27601,0.0271 0.62311,0.0472 1.05069,0.0472 0.35224,0 0.3884,-0.10123 -0.13916,-0.1872 -0.33433,-0.0544 -0.53306,-0.13438 -0.64988,-0.27371 -0.12887,-0.15352 -0.15865,-0.24853 -0.24392,-0.35082 -0.0959,-0.11505 -0.22177,-0.16699 -0.37936,-0.18684 -0.38397,-0.0482 -0.82538,-0.0753 -1.30986,-0.0753 -0.48448,0 -0.92589,0.0271 -1.30986,0.0753 -0.15777,0.0198 -0.28363,0.0718 -0.37953,0.18684 -0.0851,0.10229 -0.11505,0.1973 -0.24393,0.35082 -0.11682,0.13933 -0.31554,0.21928 -0.6497,0.27371 -0.52756,0.086 -0.49139,0.1872 -0.13933,0.1872 0.42775,0 0.77485,-0.02 1.05086,-0.0472 0.30721,-0.0303 0.39177,-0.11363 0.47225,-0.32671 0.13419,-0.3549 0.20102,-0.49689 0.49707,-0.49689 0.24605,0 0.33557,0.0916 0.2987,0.28434 -0.0262,0.13668 -0.0768,0.29073 -0.0624,0.38787 0.0154,0.10548 0.0635,0.15458 0.1755,0.17585 0.0995,0.0188 0.20173,0.0214 0.29037,0.0214"/>
	</g>
	<g style="stroke:#808080;stroke-width:0.5">
		<path class="straight-button" d="m 68.37728,124.91154 14.90397,0 c 0.79712,0 0.92969,0.40146 0.92908,0.81297 -0.006,3.6769 -4.32515,7.27737 -8.323,7.27737 -4.03743,0 -8.49288,-3.56139 -8.47787,-7.27737 0.002,-0.42131 0.0966,-0.81297 0.96782,-0.81297 z"/>
		<path id="button-se" class="straight-button" d="m 217.22203,124.91154 14.90398,0 c 0.79712,0 0.92969,0.40146 0.92908,0.81297 -0.006,3.6769 -4.32516,7.27737 -8.323,7.27737 -4.03744,0 -8.49288,-3.56139 -8.47787,-7.27737 0.002,-0.42131 0.0966,-0.81297 0.96781,-0.81297 z"/>
		<path id="button-st" class="straight-button" d="m 236.68989,124.91154 14.90397,0 c 0.79712,0 0.92969,0.40146 0.92908,0.81297 -0.006,3.6769 -4.32516,7.27737 -8.323,7.27737 -4.03743,0 -8.49288,-3.56139 -8.47787,-7.27737 0.002,-0.42131 0.0966,-0.81297 0.96782,-0.81297 z"/>
	</g>
	<g style="fill:#808080;stroke-width:0.5" transform="scale(1.0413703,0.9602732)">
		<path d="m 273.8681,99.638481 0,0.958739 0.43409,0 q 0.24096,0 0.37255,-0.12475 0.1316,-0.12476 0.1316,-0.35547 0,-0.229007 -0.1316,-0.353763 -0.13159,-0.124756 -0.37255,-0.124756 l -0.43409,0 z m -0.34521,-0.283691 0.7793,0 q 0.42895,0 0.6477,0.194824 0.22046,0.193115 0.22046,0.567386 0,0.37768 -0.22046,0.5708 -0.21875,0.19311 -0.6477,0.19311 l -0.43409,0 0,1.02539 -0.34521,0 0,-2.55151 z"/>
		<path d="m 276.67084,99.588921 q -0.37598,0 -0.59815,0.280273 -0.22046,0.280276 -0.22046,0.763916 0,0.48193 0.22046,0.76221 0.22217,0.28027 0.59815,0.28027 0.37597,0 0.59472,-0.28027 0.22046,-0.28028 0.22046,-0.76221 0,-0.48364 -0.22046,-0.763916 -0.21875,-0.280273 -0.59472,-0.280273 z m 0,-0.280274 q 0.53662,0 0.85791,0.360596 0.32129,0.358887 0.32129,0.963867 0,0.60327 -0.32129,0.96387 -0.32129,0.35888 -0.85791,0.35888 -0.53833,0 -0.86133,-0.35888 -0.32129,-0.35889 -0.32129,-0.96387 0,-0.60498 0.32129,-0.963867 0.323,-0.360596 0.86133,-0.360596 z"/>
		<path d="m 278.16278,99.35479 0.34863,0 0.53662,2.15674 0.53492,-2.15674 0.38794,0 0.53662,2.15674 0.53491,-2.15674 0.35034,0 -0.64087,2.55151 -0.43408,0 -0.53833,-2.21484 -0.54346,2.21484 -0.43408,0 -0.63916,-2.55151 z"/>
		<path d="m 281.84906,99.35479 1.61328,0 0,0.290527 -1.26807,0 0,0.755373 1.21509,0 0,0.29053 -1.21509,0 0,0.92456 1.29883,0 0,0.29052 -1.64404,0 0,-2.55151 z"/>
		<path d="m 285.27386,100.71001 q 0.11109,0.0376 0.21534,0.16065 0.10595,0.12305 0.21191,0.33838 l 0.35034,0.69726 -0.37085,0 -0.32641,-0.65454 q -0.12647,-0.25635 -0.2461,-0.34009 -0.11792,-0.0837 -0.32299,-0.0837 l -0.37598,0 0,1.07837 -0.34522,0 0,-2.55151 0.7793,0 q 0.4375,0 0.65283,0.182861 0.21533,0.182861 0.21533,0.551999 0,0.24097 -0.11279,0.39991 -0.11108,0.15893 -0.32471,0.22045 z m -0.86474,-1.071529 0,0.905759 0.43408,0 q 0.24951,0 0.37598,-0.1145 0.12817,-0.11621 0.12817,-0.34009 0,-0.223874 -0.12817,-0.336667 -0.12647,-0.114502 -0.37598,-0.114502 l -0.43408,0 z"/>
		<path d="m 271.95703,113.68761 0.34522,0 0,1.0459 1.25439,0 0,-1.0459 0.34522,0 0,2.55152 -0.34522,0 0,-1.21509 -1.25439,0 0,1.21509 -0.34522,0 0,-2.55152 z"/>
		<path d="m 275.62451,113.92175 q -0.37597,0 -0.59814,0.28027 -0.22046,0.28027 -0.22046,0.76391 0,0.48194 0.22046,0.76221 0.22217,0.28028 0.59814,0.28028 0.37598,0 0.59473,-0.28028 0.22046,-0.28027 0.22046,-0.76221 0,-0.48364 -0.22046,-0.76391 -0.21875,-0.28027 -0.59473,-0.28027 z m 0,-0.28028 q 0.53662,0 0.85791,0.3606 0.32129,0.35888 0.32129,0.96386 0,0.60328 -0.32129,0.96387 -0.32129,0.35889 -0.85791,0.35889 -0.53833,0 -0.86133,-0.35889 -0.32129,-0.35888 -0.32129,-0.96387 0,-0.60498 0.32129,-0.96386 0.323,-0.3606 0.86133,-0.3606 z"/>
		<path d="m 277.34375,113.68761 0.34521,0 0,2.26099 1.24244,0 0,0.29053 -1.58765,0 0,-2.55152 z"/>
		<path d="m 279.63721,113.97131 0,1.98413 0.41699,0 q 0.52808,0 0.77246,-0.23926 0.24609,-0.23926 0.24609,-0.75537 0,-0.5127 -0.24609,-0.75025 -0.24438,-0.23925 -0.77246,-0.23925 l -0.41699,0 z m -0.34522,-0.2837 0.70923,0 q 0.7417,0 1.08862,0.30933 0.34693,0.30762 0.34693,0.96387 0,0.65967 -0.34864,0.96899 -0.34863,0.30933 -1.08691,0.30933 l -0.70923,0 0,-2.55152 z"/>
		<path d="m 101.25215,135.56927 -0.97412,-2.55151 0.3606,0 0.80835,2.14819 0.81005,-2.14819 0.35889,0 -0.97241,2.55151 -0.39136,0 z"/>
		<path d="m 103.96089,133.25189 q -0.37597,0 -0.59814,0.28028 -0.22046,0.28027 -0.22046,0.76391 0,0.48194 0.22046,0.76221 0.22217,0.28027 0.59814,0.28027 0.37598,0 0.59473,-0.28027 0.22046,-0.28027 0.22046,-0.76221 0,-0.48364 -0.22046,-0.76391 -0.21875,-0.28028 -0.59473,-0.28028 z m 0,-0.28027 q 0.53662,0 0.85791,0.36059 0.32129,0.35889 0.32129,0.96387 0,0.60327 -0.32129,0.96387 -0.32129,0.35889 -0.85791,0.35889 -0.53833,0 -0.86133,-0.35889 -0.32129,-0.35889 -0.32129,-0.96387 0,-0.60498 0.32129,-0.96387 0.323,-0.36059 0.86133,-0.36059 z"/>
		<path d="m 105.68013,133.01776 0.34521,0 0,2.26099 1.24244,0 0,0.29052 -1.58765,0 0,-2.55151 z"/>
		<path d="m 67.775513,132.03009 0.345215,0 0,1.0459 1.254394,0 0,-1.0459 0.345215,0 0,2.55151 -0.345215,0 0,-1.21508 -1.254394,0 0,1.21508 -0.345215,0 0,-2.55151 z"/>
		<path d="m 71.442993,132.26422 q -0.375976,0 -0.598144,0.28027 -0.220459,0.28028 -0.220459,0.76392 0,0.48193 0.220459,0.76221 0.222168,0.28027 0.598144,0.28027 0.375977,0 0.594727,-0.28027 0.220459,-0.28028 0.220459,-0.76221 0,-0.48364 -0.220459,-0.76392 -0.21875,-0.28027 -0.594727,-0.28027 z m 0,-0.28027 q 0.536621,0 0.85791,0.36059 0.321289,0.35889 0.321289,0.96387 0,0.60327 -0.321289,0.96387 -0.321289,0.35888 -0.85791,0.35888 -0.53833,0 -0.861328,-0.35888 -0.321289,-0.35889 -0.321289,-0.96387 0,-0.60498 0.321289,-0.96387 0.322998,-0.36059 0.861328,-0.36059 z"/>
		<path d="m 73.162231,132.03009 0.514405,0 0.651123,1.73633 0.654541,-1.73633 0.514404,0 0,2.55151 -0.33667,0 0,-2.24047 -0.657959,1.75 -0.346924,0 -0.657959,-1.75 0,2.24047 -0.334961,0 0,-2.55151 z"/>
		<path d="m 76.183716,132.03009 1.613281,0 0,0.29053 -1.268066,0 0,0.75537 1.215088,0 0,0.29053 -1.215088,0 0,0.92456 1.298828,0 0,0.29052 -1.644043,0 0,-2.55151 z"/>
		<path d="m 211.17438,132.11383 0,0.33667 q -0.19654,-0.094 -0.37085,-0.14014 -0.17432,-0.0461 -0.33667,-0.0461 -0.28198,0 -0.43579,0.10938 -0.1521,0.10937 -0.1521,0.31103 0,0.16919 0.10083,0.25635 0.10254,0.0855 0.38623,0.13843 l 0.20849,0.0427 q 0.38623,0.0735 0.5691,0.25977 0.18457,0.18457 0.18457,0.4956 0,0.37085 -0.24952,0.56226 -0.2478,0.1914 -0.72802,0.1914 -0.18116,0 -0.38623,-0.041 -0.20337,-0.041 -0.42212,-0.12134 l 0,-0.35547 q 0.2102,0.11792 0.41186,0.17774 0.20166,0.0598 0.39649,0.0598 0.29565,0 0.4563,-0.11621 0.16064,-0.11621 0.16064,-0.33154 0,-0.18799 -0.11621,-0.29395 -0.1145,-0.10596 -0.37769,-0.15893 l -0.2102,-0.041 q -0.38623,-0.0769 -0.55884,-0.24097 -0.17261,-0.16406 -0.17261,-0.45629 0,-0.33838 0.23755,-0.53321 0.23926,-0.19482 0.65796,-0.19482 0.17944,0 0.36572,0.0325 0.18628,0.0325 0.38111,0.0974 z"/>
		<path d="m 211.86652,132.03009 1.61328,0 0,0.29053 -1.26807,0 0,0.75537 1.21509,0 0,0.29053 -1.21509,0 0,0.92456 1.29883,0 0,0.29052 -1.64404,0 0,-2.55151 z"/>
		<path d="m 214.08136,132.03009 0.34521,0 0,2.26099 1.24244,0 0,0.29052 -1.58765,0 0,-2.55151 z"/>
		<path d="m 216.0296,132.03009 1.61328,0 0,0.29053 -1.26806,0 0,0.75537 1.21508,0 0,0.29053 -1.21508,0 0,0.92456 1.29883,0 0,0.29052 -1.64405,0 0,-2.55151 z"/>
		<path d="m 220.15509,132.22662 0,0.36402 q -0.17432,-0.16236 -0.37256,-0.24268 -0.19653,-0.0803 -0.4187,-0.0803 -0.4375,0 -0.66992,0.26831 -0.23242,0.2666 -0.23242,0.77246 0,0.50415 0.23242,0.77246 0.23242,0.2666 0.66992,0.2666 0.22217,0 0.4187,-0.0803 0.19824,-0.0803 0.37256,-0.24267 l 0,0.36059 q -0.18115,0.12305 -0.38452,0.18457 -0.20166,0.0615 -0.42725,0.0615 -0.57934,0 -0.91259,-0.35376 -0.33326,-0.35546 -0.33326,-0.96899 0,-0.61523 0.33326,-0.96899 0.33325,-0.35547 0.91259,-0.35547 0.22901,0 0.43067,0.0615 0.20337,0.0598 0.3811,0.18115 z"/>
		<path d="m 220.33795,132.03009 2.15845,0 0,0.29053 -0.90576,0 0,2.26098 -0.34693,0 0,-2.26098 -0.90576,0 0,-0.29053 z"/>
		<path d="m 230.82832,132.11383 0,0.33667 q -0.19653,-0.094 -0.37085,-0.14014 -0.17431,-0.0461 -0.33667,-0.0461 -0.28198,0 -0.43579,0.10938 -0.1521,0.10937 -0.1521,0.31103 0,0.16919 0.10083,0.25635 0.10254,0.0855 0.38623,0.13843 l 0.2085,0.0427 q 0.38623,0.0735 0.56909,0.25977 0.18457,0.18457 0.18457,0.4956 0,0.37085 -0.24951,0.56226 -0.2478,0.1914 -0.72803,0.1914 -0.18115,0 -0.38623,-0.041 -0.20337,-0.041 -0.42212,-0.12134 l 0,-0.35547 q 0.21021,0.11792 0.41187,0.17774 0.20166,0.0598 0.39648,0.0598 0.29566,0 0.4563,-0.11621 0.16065,-0.11621 0.16065,-0.33154 0,-0.18799 -0.11621,-0.29395 -0.11451,-0.10596 -0.37769,-0.15893 l -0.21021,-0.041 q -0.38623,-0.0769 -0.55883,-0.24097 -0.17261,-0.16406 -0.17261,-0.45629 0,-0.33838 0.23755,-0.53321 0.23926,-0.19482 0.65796,-0.19482 0.17944,0 0.36572,0.0325 0.18628,0.0325 0.3811,0.0974 z"/>
		<path d="m 231.1667,132.03009 2.15845,0 0,0.29053 -0.90576,0 0,2.26098 -0.34693,0 0,-2.26098 -0.90576,0 0,-0.29053 z"/>
		<path d="m 234.23946,132.37018 -0.46827,1.26977 0.93824,0 -0.46997,-1.26977 z m -0.19483,-0.34009 0.39136,0 0.97241,2.55151 -0.35889,0 -0.23242,-0.65454 -1.15014,0 -0.23243,0.65454 -0.36401,0 0.97412,-2.55151 z"/>
		<path d="m 236.98921,133.38531 q 0.11109,0.0376 0.21533,0.16065 0.10596,0.12305 0.21192,0.33838 l 0.35034,0.69726 -0.37085,0 -0.32642,-0.65454 q -0.12646,-0.25634 -0.24609,-0.34008 -0.11792,-0.0838 -0.323,-0.0838 l -0.37597,0 0,1.07837 -0.34522,0 0,-2.55151 0.7793,0 q 0.4375,0 0.65283,0.18286 0.21533,0.18286 0.21533,0.552 0,0.24097 -0.11279,0.39991 -0.11108,0.15893 -0.32471,0.22045 z m -0.86474,-1.07153 0,0.90576 0.43408,0 q 0.24951,0 0.37597,-0.1145 0.12818,-0.11621 0.12818,-0.34009 0,-0.22387 -0.12818,-0.33667 -0.12646,-0.1145 -0.37597,-0.1145 l -0.43408,0 z"/>
		<path d="m 237.60616,132.03009 2.15844,0 0,0.29053 -0.90576,0 0,2.26098 -0.34692,0 0,-2.26098 -0.90576,0 0,-0.29053 z"/>
	</g>
	<g style="stroke-width:0">
		<g style="fill:#ffb133">
			<circle cx="18.144405" cy="96.442581" r="1.103281"/>
			<circle cx="296.33893" cy="110.26418" r="1.103281"/>
		</g>
		<g style="fill:#3ae2a5">
			<circle cx="23.404598" cy="110.24434" r="1.103281"/>
			<circle cx="301.58093" cy="96.755447" r="1.103281"/>
		</g>
	</g>
	<g>
		<circle style="fill:#191919;stroke:#343434;stroke-width:0.5" cx="44.439388" cy="106.41548" r="10.814406"/>
		<circle id="button-l3-shadow" style="fill:#4d4d4d;stroke-width:0" cx="44.439388" cy="106.41548" r="10.814406"/>
		<circle id="button-l3" style="fill:#4d4d4d;stroke-width:0" cx="44.439388" cy="106.41548" r="10.814406"/>
	</g>
	<g style="fill-opacity:0;stroke:#808080;stroke-width:0.5">
		<rect x="93.18615" y="125.72304" width="9.4926443" height="6.7113142" ry="3.5071702" rx="3.4435542"/>
		<path d="m 96.74692,129.02851 2.49096,0"/>
		<rect x="113.22332" y="125.72304" width="9.4926443" height="6.7113142" ry="3.5071702" rx="3.4435542"/>
		<path d="m 116.66287,129.08325 2.76087,1e-5 m -1.38044,-1.38044 1e-5,2.76087"/>
		<rect x="187.98236" y="125.78511" width="9.4926443" height="6.7113142" ry="3.5071702" rx="3.4435542"/>
		<rect x="190.82947" y="127.66927" width="3.798435" height="2.9430444" rx="1.3698658" ry="0.79372418"/>
		<rect x="201.47858" y="125.83211" width="9.4926443" height="6.7113142" ry="3.5071702" rx="3.4435542"/>
		<path d="m 206.38093,127.23945 c 0.0947,0.13977 0.14338,0.30901 0.26541,0.42972 0.13976,0.18407 0.31838,0.33653 0.45687,0.5228 0.10023,0.13014 0.34559,0.58785 0.37405,0.75157 0.0766,0.21 -0.0437,0.95869 -0.12549,1.16428 -0.0922,0.11086 -0.20368,-0.11004 -0.17793,-0.19887 0.004,-0.12257 0.22472,-0.47708 0.0326,-0.97997 -0.0804,-0.28008 -0.19536,-0.47342 -0.323,-0.60081 -0.11092,-0.0972 -0.23683,-0.31143 -0.40591,-0.23768 -0.11166,0.0703 -0.063,0.21254 -0.075,0.32213 -0.007,0.67418 -0.007,1.34865 -0.0179,2.02264 -0.008,0.2831 -0.2727,0.51151 -0.4676,0.61494 -0.17363,0.10449 -0.38152,0.163 -0.58306,0.11644 -0.18742,-0.0192 -0.3813,-0.15605 -0.38523,-0.3585 -0.0125,-0.23473 0.15703,-0.45331 0.36573,-0.546 0.20486,-0.11677 0.46387,-0.14208 0.68448,-0.0581 0.1078,0.0341 0.1619,-0.24606 0.17771,-0.35913 0.0146,-0.85815 0.0263,-1.71632 0.0293,-2.5746 0.002,-0.0858 0.14215,-0.10673 0.17498,-0.0308 z"/>
	</g>
	<g style="fill:#333333;stroke:#666666;stroke-width:1">
		<circle cx="278.56683" cy="48.768692" r="8.345252"/>
		<circle cx="295.81226" cy="66.23909" r="8.345252"/>
		<circle cx="278.36536" cy="83.910965" r="8.345252"/>
		<circle cx="260.82861" cy="66.375931" r="8.345252"/>
		<g class="straight-button">
			<circle id="button-tr" cx="278.56683" cy="48.768692" r="8.345252"/>
			<circle id="button-ci" cx="295.81226" cy="66.23909" r="8.345252"/>
			<circle id="button-cr" cx="278.36536" cy="83.910965" r="8.345252"/>
			<circle id="button-sq" cx="260.82861" cy="66.375931" r="8.345252"/>
		</g>
		<g style="fill-opacity:0">
			<path d="m 280.93074,50.131193 -4.72782,0 2.36391,-4.08754 z"/>
			<circle cy="66.23909" cx="296.02905" r="2.5830176"/>
			<path d="m 276.19484,81.74044 4.34104,4.34107 m 0,-4.34107 -4.34104,4.34107"/>
			<rect x="258.61136" y="64.267044" width="4.2177367" height="4.2177367"/>
		</g>
		<g>
			<path d="m 35.99313,45.65947 c 1.12225,-2.99267 14.07902,-2.78484 14.91032,0 l 0,8.77019 c 0,0.50051 -0.37799,1.19062 -0.78974,1.70416 -1.3369,1.66739 -4.57213,4.36431 -4.57213,4.36431 -0.95599,0.97677 -3.94866,0.95599 -4.86309,0 0,0 -2.8809,-2.91866 -3.99023,-4.36431 -0.3327,-0.43358 -0.69513,-1.1846 -0.69513,-1.70416 z"/>
			<path d="m 35.99313,86.6479 c 1.12225,2.99267 14.07902,2.78484 14.91032,0 l 0,-8.77019 c 0,-0.50051 -0.37799,-1.19063 -0.78974,-1.70416 -1.3369,-1.66739 -4.57213,-4.36431 -4.57213,-4.36431 -0.95599,-0.97678 -3.94866,-0.95599 -4.86309,0 0,0 -2.8809,2.91866 -3.99023,4.36431 -0.3327,0.43358 -0.69513,1.1846 -0.69513,1.70416 z"/>
			<path d="m 22.84824,58.82878 c -2.99267,1.12225 -2.78484,14.07902 0,14.91031 l 8.77019,0 c 0.50051,0 1.19062,-0.37798 1.70416,-0.78973 1.66739,-1.3369 4.36431,-4.57213 4.36431,-4.57213 0.97677,-0.95599 0.95599,-3.94866 0,-4.86309 0,0 -2.91866,-2.8809 -4.36431,-3.99023 -0.43358,-0.33271 -1.1846,-0.69513 -1.70416,-0.69513 z"/>
			<path d="m 63.83667,58.82878 c 2.99267,1.12225 2.78484,14.07902 0,14.91031 l -8.77019,0 c -0.5005,0 -1.19062,-0.37798 -1.70416,-0.78973 -1.66739,-1.3369 -4.36431,-4.57213 -4.36431,-4.57213 -0.97677,-0.95599 -0.95599,-3.94866 0,-4.86309 0,0 2.91866,-2.8809 4.36431,-3.99023 0.43358,-0.33271 1.1846,-0.69513 1.70416,-0.69513 z"/>
			<g class="straight-button">
				<path id="button-du" d="m 35.99313,45.65947 c 1.12225,-2.99267 14.07902,-2.78484 14.91032,0 l 0,8.77019 c 0,0.50051 -0.37799,1.19062 -0.78974,1.70416 -1.3369,1.66739 -4.57213,4.36431 -4.57213,4.36431 -0.95599,0.97677 -3.94866,0.95599 -4.86309,0 0,0 -2.8809,-2.91866 -3.99023,-4.36431 -0.3327,-0.43358 -0.69513,-1.1846 -0.69513,-1.70416 z"/>
				<path id="button-dd" d="m 35.99313,86.6479 c 1.12225,2.99267 14.07902,2.78484 14.91032,0 l 0,-8.77019 c 0,-0.50051 -0.37799,-1.19063 -0.78974,-1.70416 -1.3369,-1.66739 -4.57213,-4.36431 -4.57213,-4.36431 -0.95599,-0.97678 -3.94866,-0.95599 -4.86309,0 0,0 -2.8809,2.91866 -3.99023,4.36431 -0.3327,0.43358 -0.69513,1.1846 -0.69513,1.70416 z"/>
				<path id="button-dl" d="m 22.84824,58.82878 c -2.99267,1.12225 -2.78484,14.07902 0,14.91031 l 8.77019,0 c 0.50051,0 1.19062,-0.37798 1.70416,-0.78973 1.66739,-1.3369 4.36431,-4.57213 4.36431,-4.57213 0.97677,-0.95599 0.95599,-3.94866 0,-4.86309 0,0 -2.91866,-2.8809 -4.36431,-3.99023 -0.43358,-0.33271 -1.1846,-0.69513 -1.70416,-0.69513 z"/>
				<path id="button-dr" d="m 63.83667,58.82878 c 2.99267,1.12225 2.78484,14.07902 0,14.91031 l -8.77019,0 c -0.5005,0 -1.19062,-0.37798 -1.70416,-0.78973 -1.66739,-1.3369 -4.36431,-4.57213 -4.36431,-4.57213 -0.97677,-0.95599 -0.95599,-3.94866 0,-4.86309 0,0 2.91866,-2.8809 4.36431,-3.99023 0.43358,-0.33271 1.1846,-0.69513 1.70416,-0.69513 z"/>
			</g>
		</g>
		<g style="fill-opacity:0">
			<circle cx="43.407703" cy="66.04483" r="22.917128"/>
			<path d="m 45.683741,81.768885 -4.727816,0 2.363906,2.287107 z"/>
			<path d="m 45.645411,51.613215 -4.727816,0 2.363906,-2.287107 z"/>
			<path d="m 58.650875,69.096371 0,-4.727816 2.287107,2.363906 z"/>
			<path d="m 28.006575,68.904761 0,-4.727816 -2.287107,2.363906 z"/>
		</g>
	</g>
</svg>
