<?xml version="1.0" encoding="UTF-8"?>
<svg xmlns="http://www.w3.org/2000/svg" width="320" height="153.60001" version="1.0">
	<path style="fill:#c4c1bc;fill-opacity:1;stroke-width:0" d="m 71.723092,15.0079 0,0.058 C 37.40477,16.4164 10,44.6594 10,79.3086 c 0,35.5111 28.78988,64.2913 64.300945,64.2913 13.236687,0 25.545437,-3.9971 35.770125,-10.8541 1.80101,-1.2078 2.37052,-1.5609 4.15751,-2.4422 1.73,-0.8532 3.87854,-1.444 5.08787,-1.444 l 40.0827,0 1.20171,0 40.09239,0 c 1.20933,0 3.34818,0.5908 5.07817,1.444 1.787,0.8813 2.3662,1.2344 4.16721,2.4422 10.2247,6.857 22.52375,10.8541 35.76044,10.8541 35.51107,0 64.30096,-28.7802 64.30093,-64.2913 0,-34.6492 -27.40475,-62.8922 -61.72308,-64.2427 l 0,-0.058 -2.57785,0 -85.09821,0 -1.20171,0 -85.098205,0 -2.577853,0 z"/>
	<path style="fill:#747b81;fill-opacity:1;stroke-width:0" d="m 302.49303,79.305882 a 56.380917,56.380887 0 1 1 -112.7618,0 56.380917,56.380887 0 1 1 112.7618,0 z"/>
	<path style="fill-opacity:0;stroke:#747b81;stroke-width:1" d="m 109.51089,79.305812 a 35.618583,35.618564 0 1 1 -71.23716,0 35.618583,35.618564 0 1 1 71.23716,0 z"/>
	<path style="fill:#485053;fill-opacity:1;stroke:#1a1c1b;stroke-width:1" d="m 68.523401,54.2106 c -1.414186,0 -2.548779,1.1346 -2.548779,2.5488 l 0,14.6239 -14.623983,0 c -1.414186,0 -2.558471,1.1443 -2.558471,2.5585 l 0,10.7281 c 0,1.4142 1.144285,2.5487 2.558471,2.5487 l 14.623983,0 0,14.624 c 0,1.4142 1.134593,2.5585 2.548779,2.5585 l 10.737822,0 c 1.414186,0 2.548779,-1.1443 2.548779,-2.5585 l 0,-14.624 14.623983,0 c 1.414186,0 2.558467,-1.1345 2.558467,-2.5487 l 0,-10.7281 c 0,-1.4142 -1.144281,-2.5585 -2.558467,-2.5585 l -14.623983,0 0,-14.6239 c 0,-1.4142 -1.134593,-2.5488 -2.548779,-2.5488 l -10.737822,0 z"/>
	<g style="fill:#ff0000;fill-opacity:0;stroke:#1a1c1b;stroke-width:1">
		<path id="button-du" d="m 79.007981,66.9645 -10.231337,-0.01 5.12305,-10.1083 z"/>
		<path id="button-dd" d="m 79.007981,91.6471 -10.231337,0.01 5.12305,10.1084 z"/>
		<path id="button-dr" d="m 86.238435,84.4215 0.0096,-10.2314 10.108407,5.1231 z"/>
		<path id="button-dl" d="m 61.546189,84.4215 -0.0096,-10.2314 -10.108407,5.1231 z"/>
	</g>
	<g style="fill:#c4c1bc;fill-opacity:1;stroke-width:0" transform="matrix(0.78928561,-0.61402625,0.61402665,0.78928529,0,0)">
		<rect x="108.76474" y="181.55196" width="65.288506" height="28.986244" ry="14.493122"/>
		<rect x="117.74753" y="216.33565" width="65.288506" height="28.986244" ry="14.493122"/>
	</g>
	<g style="stroke:#1a1c1b;stroke-width:1">
		<circle style="fill:#014da3" cx="246.5045" cy="56.585583" r="11.638"/>
		<circle class="anti" id="button-tr" fill-opacity="0" style="fill:#010101" cx="246.5045" cy="56.585583" r="11.638"/>
		<circle style="fill:#00926d" cx="217.89549" cy="78.83046" r="11.638"/>
		<circle class="anti" id="button-sq" fill-opacity="0" style="fill:#010101" cx="217.89549" cy="78.83046" r="11.638"/>
		<circle style="fill:#e03c4b" cx="274.95248" cy="78.521622" r="11.638"/>
		<circle class="anti" id="button-ci" fill-opacity="0" style="fill:#010101" cx="274.95248" cy="78.521622" r="11.638"/>
		<circle style="fill:#ffbc54" cx="246.34349" cy="100.76845" r="11.638"/>
		<circle class="anti" id="button-cr" fill-opacity="0" style="fill:#010101" cx="246.34349" cy="100.76845" r="11.638"/>
	</g>
	<g style="fill:#485053;stroke-width:0">
		<rect x="39.592281" y="145.31157" width="25.276676" height="9.4951239" ry="4.7475619" transform="matrix(0.79913738,-0.60114844,0.60114884,0.79913708,0,0)"/>
		<rect id="button-se" fill-opacity="0" style="fill:#ff0000" x="39.592281" y="145.31157" width="25.276676" height="9.4951239" ry="4.7475619" transform="matrix(0.79913738,-0.60114844,0.60114884,0.79913708,0,0)"/>
		<rect x="65.683464" y="164.93877" width="25.276676" height="9.4951239" ry="4.7475619" transform="matrix(0.79913738,-0.60114844,0.60114884,0.79913708,0,0)"/>
		<rect id="button-st" fill-opacity="0" style="fill:#ff0000" x="65.683464" y="164.93877" width="25.276676" height="9.4951239" ry="4.7475619" transform="matrix(0.79913738,-0.60114844,0.60114884,0.79913708,0,0)"/>
	</g>
	<g style="fill:#747b81;fill-opacity:1;stroke:#747b81;stroke-width:0.31011751">
		<path d="m 122.82274,111.98909 c -0.0222,0.10882 -0.0744,0.19766 -0.15657,0.2665 -0.08,0.0688 -0.17435,0.10328 -0.28317,0.10328 l -1.31255,0 c -0.10882,0 -0.1921,-0.0344 -0.24985,-0.10328 -0.0555,-0.0688 -0.0722,-0.15768 -0.05,-0.2665 l 0.26651,-1.32254 0.46306,0 -0.25652,1.28256 1.126,0 0.24652,-1.24259 -1.08935,-1.73896 c -0.0777,-0.11992 -0.10217,-0.25207 -0.0733,-0.39643 l 0.21321,-1.05603 c 0.0222,-0.10882 0.0744,-0.19766 0.15657,-0.26651 0.0844,-0.0688 0.181,-0.10327 0.28982,-0.10327 l 1.31255,0 c 0.10882,0 0.18989,0.0344 0.24319,0.10327 0.0555,0.0689 0.0722,0.15769 0.05,0.26651 l -0.24319,1.21261 -0.46305,0 0.23319,-1.17264 -1.12599,0 -0.21987,1.09935 1.09934,1.73896 c 0.0733,0.11548 0.0955,0.24541 0.0666,0.38976 l -0.24319,1.20595"/>
		<path d="m 126.6138,112.35887 -1.7123,0 1.04271,-5.21355 1.69232,0 -0.0833,0.40975 -1.22926,0 -0.38644,1.94551 1.11934,0 -0.0833,0.41641 -1.11933,0 -0.40642,2.03212 1.24925,0 -0.0833,0.40976"/>
		<path d="m 130.33825,112.35887 -1.66567,0 1.0427,-5.21355 0.46306,0 -0.95942,4.80379 1.20261,0 -0.0833,0.40976"/>
		<path d="m 134.02271,112.35887 -1.71231,0 1.04271,-5.21355 1.69232,0 -0.0833,0.40975 -1.22927,0 -0.38643,1.94551 1.11933,0 -0.0833,0.41641 -1.11934,0 -0.40642,2.03212 1.24925,0 -0.0833,0.40976"/>
		<path d="m 138.24352,111.98909 c -0.0222,0.10882 -0.0755,0.19766 -0.1599,0.2665 -0.0844,0.0688 -0.18101,0.10328 -0.28983,0.10328 l -1.34253,0 c -0.10883,0 -0.191,-0.0344 -0.24652,-0.10328 -0.0555,-0.0688 -0.0722,-0.15768 -0.05,-0.2665 l 0.89613,-4.47399 c 0.0222,-0.10882 0.0744,-0.19766 0.15657,-0.26651 0.0822,-0.0688 0.17767,-0.10327 0.2865,-0.10327 l 1.34253,0 c 0.10882,0 0.1921,0.0344 0.24985,0.10327 0.0577,0.0689 0.0755,0.15769 0.0533,0.26651 l -0.24319,1.21261 -0.46639,0 0.2332,-1.17264 -1.15931,0 -0.87614,4.39404 1.1593,0 0.25652,-1.28256 0.46639,0 -0.26651,1.32254"/>
		<path d="m 143.07396,107.55507 -0.80618,0 -0.95943,4.8038 -0.46305,0 0.95942,-4.8038 -0.81284,0 0.0833,-0.40975 2.08209,0 -0.0833,0.40975"/>
		<path d="m 157.18432,111.98909 c -0.0222,0.10882 -0.0744,0.19766 -0.15657,0.2665 -0.0799,0.0688 -0.17434,0.10328 -0.28316,0.10328 l -1.31255,0 c -0.10883,0 -0.19211,-0.0344 -0.24985,-0.10328 -0.0555,-0.0688 -0.0722,-0.15768 -0.05,-0.2665 l 0.2665,-1.32254 0.46306,0 -0.25651,1.28256 1.12599,0 0.24652,-1.24259 -1.08935,-1.73896 c -0.0777,-0.11992 -0.10216,-0.25207 -0.0733,-0.39643 l 0.21321,-1.05603 c 0.0222,-0.10882 0.0744,-0.19766 0.15657,-0.26651 0.0844,-0.0688 0.181,-0.10327 0.28983,-0.10327 l 1.31255,0 c 0.10882,0 0.18988,0.0344 0.24319,0.10327 0.0555,0.0689 0.0722,0.15769 0.05,0.26651 l -0.24318,1.21261 -0.46306,0 0.23319,-1.17264 -1.12599,0 -0.21987,1.09935 1.09935,1.73896 c 0.0733,0.11548 0.0955,0.24541 0.0666,0.38976 l -0.24319,1.20595"/>
		<path d="m 162.0181,107.55507 -0.80618,0 -0.95943,4.8038 -0.46306,0 0.95943,-4.8038 -0.81285,0 0.0833,-0.40975 2.08208,0 -0.0833,0.40975"/>
		<path d="m 165.04296,112.35887 -0.45973,0 0.05,-1.15931 -1.03606,0 -0.41641,1.15931 -0.4464,0 0.003,-0.0133 1.97215,-5.21355 0.4564,0 -0.12327,5.22688 m -0.38976,-1.56906 0.10993,-2.82498 -1.02605,2.82498 0.91612,0"/>
		<path d="m 169.22379,112.35887 -0.48637,0 -0.40976,-2.79167 0.0799,-0.0933 0.82618,0 0.3831,-1.91886 -1.18929,0 -0.95942,4.8038 -0.46306,0 1.04271,-5.21355 1.74562,0 c 0.10882,0 0.191,0.0344 0.24652,0.10327 0.0555,0.0689 0.0722,0.15769 0.05,0.26651 l -0.39643,1.97881 c -0.0511,0.25097 -0.24541,0.37645 -0.58298,0.37645 -0.0333,0 -0.0822,-10e-4 -0.14658,-0.003 -0.0622,-0.004 -0.10772,-0.007 -0.13659,-0.007 0.13325,0.83062 0.2654,1.66345 0.39643,2.4985"/>
		<path d="m 174.01093,107.55507 -0.80619,0 -0.95942,4.8038 -0.46306,0 0.95943,-4.8038 -0.81285,0 0.0833,-0.40975 2.08209,0 -0.0833,0.40975"/>
	</g>
	<g style="fill:#d3d4d6;fill-opacity:1;stroke:#d3d4d6;stroke-width:0.31011751">
		<path d="m 201.29379,87.841871 -1.5312,3.067257 c -0.17768,0.306889 -0.43449,0.818905 -0.77045,1.536048 l -0.58632,2.936425 -0.67353,0 0.58631,-2.936425 c 0.003,-0.245504 -0.0145,-0.503937 -0.0533,-0.775293 -0.0614,-0.46517 -0.0937,-0.718756 -0.0969,-0.760755 l -0.31012,-3.067257 c 0,-0.0032 0.003,-0.01777 0.01,-0.04361 l 0.68322,0 0.28105,3.794091 1.79286,-3.794091 0.67839,0 c -0.003,0.02261 -0.006,0.03716 -0.01,0.04361"/>
		<path d="m 265.35606,47.4758 -0.69292,0 -0.38765,-3.11571 -1.63781,3.11571 -0.67354,0 c 0.003,-0.02261 0.006,-0.03553 0.01,-0.03876 l 2.11752,-3.842547 c -0.3618,-2.455091 -0.53947,-3.689098 -0.53301,-3.702027 l 0.70745,0 0.33435,2.878278 1.52151,-2.878278 0.67354,0 c -0.003,0.02261 -0.006,0.03716 -0.01,0.04361 l -1.98185,3.619653 c 0.37795,2.600465 0.56208,3.907158 0.5524,3.920077"/>
		<path d="m 229.01877,118.18137 c -0.0323,0.15829 -0.10822,0.2875 -0.22774,0.38764 -0.11953,0.10014 -0.25844,0.15022 -0.41672,0.15022 l -2.50033,0 1.51667,-7.58334 2.48094,0 c 0.15828,0 0.27781,0.0501 0.35857,0.15021 0.0808,0.10015 0.10499,0.22936 0.0727,0.38764 l -0.45064,2.2532 c -0.042,0.20029 -0.16637,0.36827 -0.37311,0.50394 -0.20029,0.10661 -0.39896,0.21321 -0.59601,0.31981 l 0.4991,0.36827 c 0.14536,0.10337 0.19705,0.26489 0.15506,0.48456 l -0.51848,2.57785 m 0.13567,-4.16721 0.45549,-2.28227 -1.66688,0 -0.54755,2.73776 0.99334,0 0.7656,-0.45549 m -0.79952,4.10906 0.52333,-2.62146 -0.59601,-0.4458 -1.00304,0 -0.61054,3.06726 1.68626,0"/>
		<path d="m 294.31268,70.072107 -0.66869,0 0.0727,-1.686263 -1.50697,0 -0.6057,1.686263 -0.64931,0 0.005,-0.01938 2.86858,-7.583339 0.66385,0 -0.17929,7.602721 m -0.56693,-2.282269 0.1599,-4.109056 -1.49244,4.109056 1.33254,0"/>
	</g>
	<g style="fill:#c4c1bc;stroke-width:0">
		<path d="m 107.56082,14.7933 -12.50405,0 -10.523686,0 -11.390992,0 c 0,0 -0.828975,-0.012 -1.243199,0 -1.170694,0.034 -2.340428,0.1065 -3.507739,0.2013 -1.074557,0.087 -2.10793,0.1935 -3.2166,0.3385 -1.125573,0.161 -2.053196,0.2456 -3.07125,0.4232 -0.81623,0.1423 -1.626568,0.3193 -2.431787,0.5144 -0.826619,0.2003 -1.650973,0.4369 -2.461188,0.6732 -0.667341,0.1947 -1.318061,0.3998 -1.972782,0.6133 -1.143248,0.3728 -2.461062,0.8249 -3.414022,1.1653 -0.528317,0.1966 -0.942696,0.3545 -1.534493,0.5958 -0.591829,0.2414 -1.358036,0.5609 -2.012416,0.8608 -0.677576,0.3105 -1.361292,0.6338 -2.019144,0.9638 -0.619739,0.3109 -1.247819,0.6341 -1.8501,0.9578 -0.290796,0.1563 -0.56035,0.2979 -0.842962,0.4473 -0.199373,0.1053 -0.398532,0.2164 -0.597937,0.3245 -0.10389,0.056 -0.311762,0.1686 -0.311762,0.1686 L 42.450282,18.4838 C 52.332974,12.4551 62.300484,10.6076 72.953364,10 85.9869,9.976 97.252561,10.043 107.31684,10.097 c 0,0 0.19985,4.7155 0.24398,4.6963 z"/>
		<path id="button-l1" fill-opacity="0" style="fill:#ff0000" d="m 107.56082,14.7933 -12.50405,0 -10.523686,0 -11.390992,0 c 0,0 -0.828975,-0.012 -1.243199,0 -1.170694,0.034 -2.340428,0.1065 -3.507739,0.2013 -1.074557,0.087 -2.10793,0.1935 -3.2166,0.3385 -1.125573,0.161 -2.053196,0.2456 -3.07125,0.4232 -0.81623,0.1423 -1.626568,0.3193 -2.431787,0.5144 -0.826619,0.2003 -1.650973,0.4369 -2.461188,0.6732 -0.667341,0.1947 -1.318061,0.3998 -1.972782,0.6133 -1.143248,0.3728 -2.461062,0.8249 -3.414022,1.1653 -0.528317,0.1966 -0.942696,0.3545 -1.534493,0.5958 -0.591829,0.2414 -1.358036,0.5609 -2.012416,0.8608 -0.677576,0.3105 -1.361292,0.6338 -2.019144,0.9638 -0.619739,0.3109 -1.247819,0.6341 -1.8501,0.9578 -0.290796,0.1563 -0.56035,0.2979 -0.842962,0.4473 -0.199373,0.1053 -0.398532,0.2164 -0.597937,0.3245 -0.10389,0.056 -0.311762,0.1686 -0.311762,0.1686 L 42.450282,18.4838 C 52.332974,12.4551 62.300484,10.6076 72.953364,10 85.9869,9.976 97.252561,10.043 107.31684,10.097 c 0,0 0.19985,4.7155 0.24398,4.6963 z"/>
		<path d="m 212.42563,14.7933 12.50414,0 10.52376,0 11.39107,0 c 0,0 0.82898,-0.012 1.24321,0 1.1707,0.034 2.34044,0.1065 3.50776,0.2013 1.07456,0.087 2.10795,0.1935 3.21663,0.3385 1.12558,0.161 2.05321,0.2456 3.07127,0.4232 0.81624,0.1423 1.62658,0.3193 2.4318,0.5144 0.82662,0.2003 1.65099,0.4369 2.4612,0.6732 0.66735,0.1947 1.31808,0.3998 1.97281,0.6133 1.14325,0.3728 2.46108,0.8249 3.41405,1.1653 0.52831,0.1966 0.94269,0.3545 1.53449,0.5958 0.59183,0.2414 1.35805,0.5609 2.01243,0.8608 0.67758,0.3105 1.36131,0.6338 2.01916,0.9638 0.61975,0.3109 1.24783,0.6341 1.85011,0.9578 0.2908,0.1563 0.56036,0.2979 0.84298,0.4473 0.19937,0.1053 0.39853,0.2164 0.59794,0.3245 0.10388,0.056 0.31177,0.1686 0.31177,0.1686 l 0.20442,-4.5573 C 267.65386,12.4551 257.68629,10.6076 247.03334,10 c -13.03364,-0.024 -24.29937,0.043 -34.36372,0.097 0,0 -0.19986,4.7155 -0.24399,4.6963 z"/>
		<path id="button-r1" fill-opacity="0" style="fill:#ff0000" d="m 212.42563,14.7933 12.50414,0 10.52376,0 11.39107,0 c 0,0 0.82898,-0.012 1.24321,0 1.1707,0.034 2.34044,0.1065 3.50776,0.2013 1.07456,0.087 2.10795,0.1935 3.21663,0.3385 1.12558,0.161 2.05321,0.2456 3.07127,0.4232 0.81624,0.1423 1.62658,0.3193 2.4318,0.5144 0.82662,0.2003 1.65099,0.4369 2.4612,0.6732 0.66735,0.1947 1.31808,0.3998 1.97281,0.6133 1.14325,0.3728 2.46108,0.8249 3.41405,1.1653 0.52831,0.1966 0.94269,0.3545 1.53449,0.5958 0.59183,0.2414 1.35805,0.5609 2.01243,0.8608 0.67758,0.3105 1.36131,0.6338 2.01916,0.9638 0.61975,0.3109 1.24783,0.6341 1.85011,0.9578 0.2908,0.1563 0.56036,0.2979 0.84298,0.4473 0.19937,0.1053 0.39853,0.2164 0.59794,0.3245 0.10388,0.056 0.31177,0.1686 0.31177,0.1686 l 0.20442,-4.5573 C 267.65386,12.4551 257.68629,10.6076 247.03334,10 c -13.03364,-0.024 -24.29937,0.043 -34.36372,0.097 0,0 -0.19986,4.7155 -0.24399,4.6963 z"/>
	</g>
</svg>
