<?xml version="1.0" encoding="UTF-8"?>
<svg xmlns="http://www.w3.org/2000/svg" width="320" height="145.429" version="1.0">
	<path style="fill:#39393a" d="m 310,15.34134 0,114.88187 c 0,2.87366 -2.18628,5.20579 -4.88342,5.20579 l -290.23391,0 C 12.186281,135.429 10,133.09687 10,130.22321 L 10,15.34134 c 0,-2.87366 2.186281,-5.20579 4.88267,-5.20579 l 290.23466,0 c 2.69639,0 4.88267,2.33288 4.88267,5.20579 z"/>
	<polygon style="fill:#1e1e1e" points="74.761,179.795 227.325,179.795 227.325,222.557 456.546,222.557 456.546,313.789 227.325,313.789 227.325,332.372 74.761,332.372 " transform="matrix(0.74795807,0,0,0.74795807,-31.477267,-118.76231)"/>
	<g style="fill:#888899">
		<path d="M 34.342296,27.63777 79.28934,72.78228 34.342296,117.91631 c -0.374727,-0.71804 -0.583408,-1.54079 -0.583408,-2.40543 l 0,-85.46917 c 0,-0.86315 0.207933,-1.68515 0.583408,-2.40394 z"/>
		<path d="m 126.44361,120.12428 c -0.71804,0.37473 -1.54079,0.59313 -2.41516,0.59313 l -85.063774,0 c -0.874363,0 -1.697116,-0.2184 -2.415156,-0.59313 l 44.94704,-45.13478 44.94705,45.13478 z"/>
		<path d="M 126.44361,25.43055 81.49656,70.56458 36.54952,25.43055 c 0.71804,-0.37473 1.540793,-0.59313 2.415156,-0.59313 l 85.063024,0 c 0.87437,0 1.69712,0.2184 2.41591,0.59313 z"/>
		<path d="m 129.23349,30.0432 0,85.46917 c 0,0.86389 -0.20793,1.68665 -0.5834,2.40544 L 83.70304,72.78377 128.65009,27.63927 c 0.37547,0.71729 0.5834,1.53929 0.5834,2.40393 z"/>
	</g>
	<path style="fill:#aa0000" d="m 129.5252,18.73557 -11.50509,0 c 0.0105,0.0209 0.0105,0.0314 0.0209,0.0524 0.0524,0.15632 0.083,0.32312 0.083,0.46822 0,0.18774 -0.0314,0.36426 -0.11444,0.52058 l 11.51557,0 c 2.58195,0 4.68521,2.09279 4.68521,4.68521 l 0,96.64067 c 0,2.58195 -2.10326,4.68521 -4.68521,4.68521 l -96.058015,0 c -2.581952,0 -4.68521,-2.10326 -4.68521,-4.68521 l 0,-96.64067 c 0,-2.59242 2.103258,-4.68521 4.68521,-4.68521 l 13.514106,0 c -0.07255,-0.16679 -0.103966,-0.34331 -0.103966,-0.52058 0,-0.17726 0.03141,-0.35378 0.114437,-0.52058 l -13.524577,0 c -3.154888,0 -5.726367,2.56101 -5.726367,5.72637 l 0,96.64067 c 0,3.15489 2.571479,5.72637 5.726367,5.72637 l 96.058015,0 c 3.15488,0 5.72636,-2.57148 5.72636,-5.72637 l 0,-96.64067 c 0,-3.16461 -2.57148,-5.72637 -5.72636,-5.72637 z"/>
	<path style="fill:#333333;stroke:#222222;stroke-width:3" d="m 116.38656,91.4184 c 0,8.9755 -7.27613,16.25163 -16.25163,16.25163 l -37.27748,0 c -8.975498,0 -16.251634,-7.27613 -16.251634,-16.25163 l 0,-37.27748 c 0,-8.9755 7.276136,-16.25164 16.251634,-16.25164 l 37.27748,0 c 8.9755,0 16.25163,7.27614 16.25163,16.25164 l 0,37.27748 z"/>
	<g style="fill:#888899">
		<rect height="47.89325" width="47.89325" x="192.09413" y="64.126938"/>
		<rect height="47.89325" width="47.89325" x="245.62251" y="64.126938"/>
	</g>
	<g style="fill:#333333;stroke:#222222;stroke-width:3">
		<circle cx="216.04076" cy="88.073532" r="18.596502"/>
		<circle cx="269.56912" cy="88.073532" r="18.596502"/>
		<g>
			<circle id="button-sq" class="straight-button" cx="216.04076" cy="88.073532" r="18.596502"/>
			<circle id="button-cr" class="straight-button" cx="269.56912" cy="88.073532" r="18.596502"/>
		</g>
	</g>
	<g style="fill:#666666">
		<path d="m 83.64694,53.43634 c 0,0.46747 -0.37846,0.84594 -0.84594,0.84594 l -2.60962,0 c -0.46748,0 -0.84594,-0.37847 -0.84594,-0.84594 l 0,-10.06527 c 0,-0.46748 0.37846,-0.84594 0.84594,-0.84594 l 2.60962,0 c 0.46748,0 0.84594,0.37846 0.84594,0.84594 l 0,10.06527 z"/>
		<path d="m 83.52727,102.189 c 0,0.46747 -0.37847,0.84594 -0.84594,0.84594 l -2.60963,0 c -0.46747,0 -0.84594,-0.37847 -0.84594,-0.84594 l 0,-10.06528 c 0,-0.46747 0.37847,-0.84594 0.84594,-0.84594 l 2.60963,0 c 0.46747,0 0.84594,0.37847 0.84594,0.84594 l 0,10.06528 z"/>
		<path d="m 62.15212,70.6289 c 0.46748,0 0.84595,0.37847 0.84595,0.84594 l 0,2.60963 c 0,0.46747 -0.37847,0.84594 -0.84595,0.84594 l -10.065267,0 c -0.467474,0 -0.845941,-0.37847 -0.845941,-0.84594 l 0,-2.60963 c 0,-0.46747 0.378467,-0.84594 0.845941,-0.84594 l 10.065267,0 z"/>
		<path d="m 110.90478,70.6289 c 0.46747,0 0.84594,0.37847 0.84594,0.84594 l 0,2.60963 c 0,0.46747 -0.37847,0.84594 -0.84594,0.84594 l -10.06527,0 c -0.46748,0 -0.84594,-0.37847 -0.84594,-0.84594 l 0,-2.60963 c 0,-0.46747 0.37846,-0.84594 0.84594,-0.84594 l 10.06527,0 z"/>
		<g class="straight-button">
			<path id="button-du" d="m 83.64694,53.43634 c 0,0.46747 -0.37846,0.84594 -0.84594,0.84594 l -2.60962,0 c -0.46748,0 -0.84594,-0.37847 -0.84594,-0.84594 l 0,-10.06527 c 0,-0.46748 0.37846,-0.84594 0.84594,-0.84594 l 2.60962,0 c 0.46748,0 0.84594,0.37846 0.84594,0.84594 l 0,10.06527 z"/>
			<path id="button-dd" d="m 83.52727,102.189 c 0,0.46747 -0.37847,0.84594 -0.84594,0.84594 l -2.60963,0 c -0.46747,0 -0.84594,-0.37847 -0.84594,-0.84594 l 0,-10.06528 c 0,-0.46747 0.37847,-0.84594 0.84594,-0.84594 l 2.60963,0 c 0.46747,0 0.84594,0.37847 0.84594,0.84594 l 0,10.06528 z"/>
			<path id="button-dl" d="m 62.15212,70.6289 c 0.46748,0 0.84595,0.37847 0.84595,0.84594 l 0,2.60963 c 0,0.46747 -0.37847,0.84594 -0.84595,0.84594 l -10.065267,0 c -0.467474,0 -0.845941,-0.37847 -0.845941,-0.84594 l 0,-2.60963 c 0,-0.46747 0.378467,-0.84594 0.845941,-0.84594 l 10.065267,0 z"/>
			<path id="button-dr" d="m 110.90478,70.6289 c 0.46747,0 0.84594,0.37847 0.84594,0.84594 l 0,2.60963 c 0,0.46747 -0.37847,0.84594 -0.84594,0.84594 l -10.06527,0 c -0.46748,0 -0.84594,-0.37847 -0.84594,-0.84594 l 0,-2.60963 c 0,-0.46747 0.37846,-0.84594 0.84594,-0.84594 l 10.06527,0 z"/>
		</g>
		<path d="m 67.874,56.2913 c 0.7876,0.38744 0.92373,1.21169 0.30367,1.83175 l -1.46524,1.46525 c -0.62081,0.6208 -1.44506,0.48392 -1.83175,-0.30368 l -2.19152,-4.45708 c -0.38744,-0.7876 -0.0598,-1.1152 0.72776,-0.72776 L 67.874,56.2913 Z"/>
		<path d="m 64.87993,86.53049 c 0.38744,-0.7876 1.21169,-0.92373 1.83175,-0.30367 l 1.46525,1.46525 c 0.6208,0.62006 0.48393,1.44506 -0.30367,1.83175 l -4.45709,2.19152 c -0.7876,0.38744 -1.1152,0.0598 -0.72776,-0.72776 l 2.19152,-4.45709 z"/>
		<path d="m 95.11912,89.52382 c -0.7876,-0.38744 -0.92372,-1.21169 -0.30367,-1.83175 l 1.46525,-1.46525 c 0.62081,-0.6208 1.44506,-0.48393 1.83175,0.30367 l 2.19152,4.45709 c 0.38744,0.78759 0.0598,1.1152 -0.72776,0.72776 l -4.45709,-2.19152 z"/>
		<path d="m 98.11245,59.28462 c -0.38744,0.7876 -1.21169,0.92373 -1.83175,0.30368 l -1.46525,-1.46525 c -0.6208,-0.62081 -0.48393,-1.44506 0.30367,-1.83175 l 4.45709,-2.19152 c 0.7876,-0.38744 1.1152,-0.0598 0.72776,0.72776 l -2.19152,4.45708 z"/>
	</g>
	<g style="fill:#ffffff">
		<path d="m 82.75014,32.0036 c 0.16754,0.49216 -0.12042,0.89456 -0.64025,0.89456 l -1.2274,0 c -0.51983,0 -0.80779,-0.4024 -0.64025,-0.89456 l 0.94916,-2.7839 c 0.16754,-0.49216 0.44204,-0.49216 0.60958,0 l 0.94916,2.7839 z"/>
		<path d="m 40.720134,71.52571 c 0.492156,-0.16755 0.894558,0.12042 0.894558,0.64025 l 0,1.2274 c 0,0.51983 -0.402402,0.80779 -0.894558,0.64025 l -2.7839,-0.94916 c -0.492156,-0.16754 -0.492156,-0.44204 0,-0.60959 l 2.7839,-0.94915 z"/>
		<path d="m 80.24224,113.55571 c -0.16754,-0.49215 0.12042,-0.89455 0.64025,-0.89455 l 1.2274,0 c 0.51983,0 0.80779,0.4024 0.64025,0.89455 l -0.94916,2.7839 c -0.16754,0.49216 -0.44204,0.49216 -0.60958,0 l -0.94916,-2.7839 z"/>
		<path d="m 122.27225,74.03361 c -0.49216,0.16754 -0.89456,-0.12042 -0.89456,-0.64025 l 0,-1.2274 c 0,-0.51983 0.4024,-0.8078 0.89456,-0.64025 l 2.7839,0.94915 c 0.49215,0.16755 0.49215,0.44205 0,0.60959 l -2.7839,0.94916 z"/>
	</g>
	<circle style="fill:#666666" cx="81.495819" cy="72.780045" r="14.518614"/>
	<g style="fill:#aa0000">
		<path d="m 239.98738,60.72744 c 0,0.45251 -0.3665,0.81901 -0.81901,0.81901 l -46.25522,0 c -0.45252,0 -0.81902,-0.3665 -0.81902,-0.81901 l 0,-7.50502 c 0,-0.45251 0.3665,-0.81901 0.81902,-0.81901 l 46.25522,0 c 0.45251,0 0.81901,0.3665 0.81901,0.81901 l 0,7.50502 z"/>
		<path d="m 293.5165,60.72744 c 0,0.45251 -0.3665,0.81901 -0.81901,0.81901 l -46.25598,0 c -0.45251,0 -0.81901,-0.3665 -0.81901,-0.81901 l 0,-7.50502 c 0,-0.45251 0.3665,-0.81901 0.81901,-0.81901 l 46.25523,0 c 0.45251,0 0.81901,0.3665 0.81901,0.81901 l 0,7.50502 z"/>
	</g>
	<g style="fill:#ffffff">
		<path d="m 52.998166,22.306973 q 0.47,0 0.8,-0.11 0.34,-0.12 0.48,-0.25 0.14,-0.14 0.28,-0.25 0.15,-0.12 0.28,-0.12 0.2,0 0.35,0.15 0.15,0.15 0.15,0.35 0,0.43 -0.69,0.83 -0.68,0.4 -1.68,0.4 -1.27,0 -2.11,-0.74 -0.83,-0.75 -0.83,-1.89 l 0,-0.66 q 0,-1.2 0.78,-2.01 0.78,-0.81 1.94,-0.81 0.7,0 1.42,0.34 l 0.1,0.04 q 0.17,-0.24 0.42,-0.24 0.29,0 0.39,0.17 0.11,0.17 0.11,0.49 l 0,0.84 q 0,0.66 -0.5,0.66 -0.18,0 -0.3,-0.1 -0.11,-0.1 -0.14,-0.18 -0.02,-0.09 -0.05,-0.25 -0.06,-0.3 -0.37,-0.48 -0.3,-0.19 -0.56,-0.24 -0.26,-0.05 -0.48,-0.05 -0.76,0 -1.26,0.52 -0.5,0.51 -0.5,1.3 l 0,0.64 q 0,0.75 0.53,1.2 0.54,0.45 1.44,0.45 z"/>
		<path d="m 58.69426,17.196973 q 0.22,0 0.52,0.07 0.3,0.06 0.71,0.27 0.42,0.21 0.75,0.53 0.34,0.32 0.57,0.91 0.24,0.58 0.24,1.32 0,1.23 -0.83,2.12 -0.82,0.89 -1.96,0.89 -1.16,0 -1.98,-0.89 -0.81,-0.9 -0.81,-2.17 0,-1.26 0.82,-2.15 0.82,-0.9 1.97,-0.9 z m 0,1 q -0.73,0 -1.26,0.61 -0.53,0.6 -0.53,1.44 0,0.85 0.52,1.46 0.53,0.6 1.27,0.6 0.73,0 1.26,-0.6 0.53,-0.6 0.53,-1.43 0,-0.86 -0.53,-1.47 -0.52,-0.61 -1.26,-0.61 z"/>
		<path d="m 66.950353,17.336973 q 0.66,0 0.66,0.5 0,0.5 -0.61,0.5 l 0,4.83 -0.99,0 -2.59,-3.94 0,2.94 0.35,0 q 0.32,0 0.49,0.11 0.17,0.1 0.17,0.39 0,0.5 -0.66,0.5 l -1.29,0 q -0.67,0 -0.67,-0.5 0,-0.5 0.61,-0.5 l 0,-3.83 -0.15,0 q -0.66,0 -0.66,-0.5 0,-0.29 0.17,-0.39 0.17,-0.11 0.49,-0.11 l 1.15,0 2.58,3.92 0,-2.92 -0.35,0 q -0.66,0 -0.66,-0.5 0,-0.29 0.17,-0.39 0.17,-0.11 0.49,-0.11 l 1.3,0 z"/>
		<path d="m 71.836447,22.166973 q 0.66,0 0.66,0.5 0,0.5 -0.66,0.5 l -2.31,0 q -0.66,0 -0.66,-0.5 0,-0.29 0.17,-0.39 0.17,-0.11 0.49,-0.11 l 0.65,0 0,-3.83 -1.07,0 0,0.93 q 0,0.66 -0.5,0.66 -0.5,0 -0.5,-0.66 l 0,-1.93 5.16,0 0,1.93 q 0,0.32 -0.11,0.49 -0.1,0.17 -0.39,0.17 -0.5,0 -0.5,-0.66 l 0,-0.93 -1.09,0 0,3.83 0.66,0 z"/>
		<path d="m 79.112541,22.166973 q 0.66,0 0.66,0.5 0,0.5 -0.66,0.5 l -0.79,0 q -0.37,-0.72 -0.95,-1.41 -0.57,-0.7 -0.89,-0.81 l -0.96,0 0,1.22 0.35,0 q 0.66,0 0.66,0.5 0,0.5 -0.66,0.5 l -1.5,0 q -0.66,0 -0.66,-0.5 0,-0.5 0.66,-0.5 l 0.15,0 0,-3.83 -0.15,0 q -0.66,0 -0.66,-0.5 0,-0.29 0.17,-0.39 0.17,-0.11 0.49,-0.11 l 2.23,0 q 0.97,0 1.58,0.5 0.62,0.49 0.62,1.28 0,0.92 -1.08,1.51 0.65,0.57 1.26,1.54 l 0.13,0 z m -3.59,-2.22 0.76,0 q 0.63,0 1.04,-0.24 0.42,-0.25 0.42,-0.62 0,-0.32 -0.31,-0.53 -0.31,-0.22 -0.79,-0.22 l -1.12,0 0,1.61 z"/>
		<path d="m 82.678635,17.196973 q 0.22,0 0.52,0.07 0.3,0.06 0.71,0.27 0.42,0.21 0.75,0.53 0.34,0.32 0.57,0.91 0.24,0.58 0.24,1.32 0,1.23 -0.83,2.12 -0.82,0.89 -1.96,0.89 -1.16,0 -1.98,-0.89 -0.81,-0.9 -0.81,-2.17 0,-1.26 0.82,-2.15 0.82,-0.9 1.97,-0.9 z m 0,1 q -0.73,0 -1.26,0.61 -0.53,0.6 -0.53,1.44 0,0.85 0.52,1.46 0.53,0.6 1.27,0.6 0.73,0 1.26,-0.6 0.53,-0.6 0.53,-1.43 0,-0.86 -0.53,-1.47 -0.52,-0.61 -1.26,-0.61 z"/>
		<path d="m 90.884728,20.576973 q 0.29,0 0.39,0.17 0.11,0.17 0.11,0.5 l 0,1.92 -4.72,0 q -0.66,0 -0.66,-0.5 0,-0.29 0.17,-0.39 0.17,-0.11 0.49,-0.11 l 0.57,0 0,-3.83 -0.57,0 q -0.66,0 -0.66,-0.5 0,-0.29 0.17,-0.39 0.17,-0.11 0.49,-0.11 l 2.14,0 q 0.66,0 0.66,0.5 0,0.5 -0.66,0.5 l -0.57,0 0,3.83 2.15,0 0,-0.92 q 0,-0.67 0.5,-0.67 z"/>
		<path d="m 102.95692,19.226973 q 0,0.27 -0.06,0.52 -0.06,0.25 -0.23,0.52 -0.17,0.26 -0.43,0.46 -0.25,0.19 -0.68,0.32 -0.42,0.12 -0.97,0.12 l -0.980004,0 0,1 0.990004,0 q 0.66,0 0.66,0.5 0,0.5 -0.66,0.5 l -2.140004,0 q -0.66,0 -0.66,-0.5 0,-0.5 0.66,-0.5 l 0.15,0 0,-3.83 -0.15,0 q -0.66,0 -0.66,-0.5 0,-0.29 0.17,-0.39 0.17,-0.11 0.49,-0.11 l 2.330004,0 q 0.95,0 1.56,0.53 0.61,0.53 0.61,1.36 z m -3.350004,-0.89 0,1.83 1.180004,0 q 0.52,0 0.81,-0.24 0.3,-0.25 0.3,-0.67 0,-0.43 -0.3,-0.67 -0.29,-0.25 -0.81,-0.25 l -1.180004,0 z"/>
		<path d="m 107.16301,22.666973 q 0,-0.29 0.17,-0.39 0.17,-0.11 0.49,-0.11 l 0.23,0 -0.23,-0.58 -2.38,0 -0.23,0.58 0.23,0 q 0.66,0 0.66,0.5 0,0.5 -0.66,0.5 l -1.33,0 q -0.66,0 -0.66,-0.5 0,-0.3 0.18,-0.4 0.17,-0.1 0.49,-0.1 l 1.55,-3.83 -0.63,0 q -0.67,0 -0.67,-0.5 0,-0.3 0.17,-0.4 0.18,-0.1 0.5,-0.1 l 2.16,0 1.99,4.83 q 0.68,0 0.68,0.5 0,0.5 -0.66,0.5 l -1.39,0 q -0.66,0 -0.66,-0.5 z m 0.25,-2.08 -0.78,-1.92 -0.79,1.92 1.57,0 z"/>
		<path d="m 110.4591,23.166973 q -0.67,0 -0.67,-0.5 0,-0.24 0.16,-0.37 0.16,-0.13 0.45,-0.13 l 0,-3.83 q -0.61,0 -0.61,-0.5 0,-0.3 0.17,-0.4 0.18,-0.1 0.5,-0.1 l 2.12,0 q 1.09,0 1.83,0.8 0.75,0.8 0.75,1.98 l 0,0.47 q 0,1.17 -0.73,1.88 -0.72,0.7 -1.93,0.7 l -2.04,0 z m 3.7,-3.07 q 0,-0.75 -0.46,-1.25 -0.45,-0.51 -1.2,-0.51 l -1.1,0 0,3.83 1.11,0 q 0.5,0 0.84,-0.15 0.35,-0.15 0.51,-0.41 0.17,-0.26 0.23,-0.51 0.07,-0.25 0.07,-0.54 l 0,-0.46 z"/>
		<path d="m 206.9063,59.42564 0,-0.531006 1.60766,0 0,-3.739013 q -0.0696,0.146484 -0.24536,0.27832 -0.17578,0.128174 -0.40649,0.223389 -0.22705,0.09521 -0.48706,0.153808 -0.26001,0.05493 -0.50171,0.05493 l 0,-0.541992 q 0.27099,0 0.531,-0.06226 0.26367,-0.06226 0.49073,-0.172119 0.22705,-0.113526 0.40283,-0.267334 0.17578,-0.153809 0.27099,-0.336914 l 0.60791,0 0,4.409179 1.29273,0 0,0.531006 -3.56323,0 z"/>
		<path d="m 219.45634,58.07066 q 0,0.311279 -0.11352,0.574951 -0.11353,0.26001 -0.3479,0.450439 -0.23071,0.19043 -0.5896,0.296631 -0.35523,0.106201 -0.84595,0.106201 -0.85693,0 -1.33667,-0.336914 -0.47607,-0.336914 -0.60791,-0.974121 l 0.67749,-0.135498 q 0.0439,0.201416 0.13184,0.366211 0.0879,0.164795 0.2417,0.285645 0.15381,0.117187 0.37719,0.183105 0.22339,0.06592 0.53467,0.06592 0.26367,0 0.47974,-0.04761 0.21973,-0.05127 0.37353,-0.157471 0.15747,-0.106201 0.24537,-0.270996 0.0879,-0.164795 0.0879,-0.395508 0,-0.256348 -0.12085,-0.417481 -0.11719,-0.161132 -0.31128,-0.263671 -0.19409,-0.102539 -0.43946,-0.164795 -0.2417,-0.06592 -0.49072,-0.128174 -0.1831,-0.04761 -0.36987,-0.09888 -0.18677,-0.05493 -0.35889,-0.124512 -0.17212,-0.07324 -0.32226,-0.168457 -0.14649,-0.09888 -0.26001,-0.234375 -0.10987,-0.13916 -0.17212,-0.322265 -0.0623,-0.186768 -0.0623,-0.432129 0,-0.351563 0.13184,-0.600586 0.13183,-0.252686 0.36255,-0.410157 0.23071,-0.161132 0.54565,-0.234375 0.31494,-0.07324 0.68115,-0.07324 0.42481,0 0.72144,0.07691 0.30029,0.07324 0.50537,0.223388 0.20874,0.150147 0.33325,0.373535 0.12451,0.219727 0.19775,0.512696 l -0.68847,0.120849 q -0.0403,-0.186767 -0.12085,-0.333252 -0.0769,-0.146484 -0.20874,-0.245361 -0.12818,-0.09888 -0.31128,-0.150146 -0.18311,-0.05127 -0.43213,-0.05127 -0.29297,0 -0.49072,0.06226 -0.19776,0.05859 -0.31861,0.164795 -0.12085,0.102539 -0.17578,0.245361 -0.0513,0.142822 -0.0513,0.307617 0,0.219727 0.0952,0.358887 0.0989,0.135498 0.26367,0.227051 0.16846,0.08789 0.38818,0.146484 0.22339,0.05859 0.47608,0.124512 0.20141,0.05127 0.40649,0.109863 0.20508,0.05493 0.39185,0.131836 0.19043,0.0769 0.35156,0.183106 0.1648,0.102539 0.28564,0.252685 0.12085,0.150147 0.19043,0.351563 0.0696,0.201416 0.0696,0.46875 z"/>
		<path d="m 222.41899,55.056744 0,4.368896 -0.6958,0 0,-4.368896 -1.62231,0 0,-0.571289 3.94043,0 0,0.571289 -1.62232,0 z"/>
		<path d="m 228.10625,59.42564 -0.50537,-1.398926 -2.06177,0 -0.50171,1.398926 -0.71777,0 1.86767,-4.940185 0.79468,0 1.83472,4.940185 -0.71045,0 z m -1.21949,-3.493652 q -0.0476,-0.13916 -0.0989,-0.281983 -0.0513,-0.142822 -0.0952,-0.270996 -0.0403,-0.128174 -0.0732,-0.223388 -0.0293,-0.09888 -0.0439,-0.142823 -0.0146,0.04395 -0.0439,0.142823 -0.0293,0.09888 -0.0732,0.22705 -0.0403,0.128174 -0.0879,0.270996 -0.0439,0.142823 -0.0916,0.278321 l -0.55297,1.549072 1.69555,0 -0.53467,-1.549072 z"/>
		<path d="m 232.32133,59.42564 -1.34033,-2.105713 -0.87158,0 0,2.105713 -0.69946,0 0,-4.940185 1.76513,0 q 0.43946,0 0.76539,0.09521 0.32959,0.09155 0.54565,0.270996 0.21973,0.175782 0.32593,0.428467 0.10986,0.252686 0.10986,0.571289 0,0.227051 -0.0732,0.454102 -0.0696,0.223389 -0.22339,0.413818 -0.15381,0.186768 -0.39185,0.325928 -0.23803,0.13916 -0.57128,0.194092 l 1.46484,2.186279 -0.80567,0 z m -0.10253,-3.563232 q 0,-0.816651 -1.11329,-0.816651 l -0.99609,0 0,1.721192 1.02539,0 q 0.30396,0 0.50903,-0.07324 0.20874,-0.07324 0.33326,-0.194092 0.12817,-0.124512 0.1831,-0.289307 0.0586,-0.164795 0.0586,-0.3479 z"/>
		<path d="m 235.9102,55.056744 0,4.368896 -0.6958,0 0,-4.368896 -1.62231,0 0,-0.571289 3.94043,0 0,0.571289 -1.62232,0 z"/>
		<path d="m 260.64673,59.42564 0,-0.428467 q 0.16113,-0.355224 0.4248,-0.655517 0.26368,-0.300293 0.56031,-0.563965 0.30029,-0.267334 0.60058,-0.509033 0.30396,-0.2417 0.54566,-0.476075 0.24536,-0.238037 0.39917,-0.479736 0.1538,-0.245361 0.1538,-0.516357 0,-0.219727 -0.0732,-0.377198 -0.0696,-0.161132 -0.20141,-0.263671 -0.12818,-0.106202 -0.30762,-0.153809 -0.17578,-0.05127 -0.39185,-0.05127 -0.19775,0 -0.36987,0.05493 -0.16846,0.05493 -0.29663,0.164795 -0.12817,0.109863 -0.20874,0.274658 -0.0806,0.161133 -0.1062,0.377197 l -0.67383,-0.06226 q 0.033,-0.278321 0.15015,-0.523682 0.11718,-0.245361 0.3186,-0.428467 0.20508,-0.186767 0.50171,-0.292969 0.29663,-0.106201 0.68481,-0.106201 0.38453,0 0.68848,0.08789 0.30762,0.08789 0.52002,0.26001 0.21606,0.168457 0.32959,0.421142 0.11352,0.252686 0.11352,0.578614 0,0.344238 -0.15747,0.640869 -0.15747,0.292968 -0.40649,0.55664 -0.24536,0.263672 -0.54565,0.501709 -0.3003,0.238037 -0.58594,0.472412 -0.28565,0.234375 -0.52002,0.472412 -0.23438,0.234375 -0.35156,0.490723 l 2.6477,0 0,0.534668 -3.44238,0 z"/>
	</g>
	<g style="fill:#888899">
		<rect x="141.59801" y="64.126938" width="0.49599999" height="47.89325"/>
		<rect x="144.73399" y="64.126938" width="0.49599999" height="47.89325"/>
		<rect x="147.87" y="64.126938" width="0.49599999" height="47.89325"/>
		<rect x="151.006" y="64.126938" width="0.49599999" height="47.89325"/>
		<rect x="154.142" y="64.126938" width="0.49599999" height="47.89325"/>
		<rect x="157.27699" y="64.126938" width="0.49599999" height="47.89325"/>
		<rect x="160.414" y="64.126938" width="0.49599999" height="47.89325"/>
		<rect x="163.549" y="64.126938" width="0.49599999" height="47.89325"/>
		<rect x="166.685" y="64.126938" width="0.49599999" height="47.89325"/>
		<rect x="169.821" y="64.126938" width="0.49599999" height="47.89325"/>
		<rect x="172.957" y="64.126938" width="0.49599999" height="47.89325"/>
		<rect x="176.092" y="64.126938" width="0.49599999" height="47.89325"/>
		<rect x="179.229" y="64.126938" width="0.49599999" height="47.89325"/>
		<rect x="182.364" y="64.126938" width="0.49599999" height="47.89325"/>
		<rect x="185.5" y="64.126938" width="0.49599999" height="47.89325"/>
		<rect x="188.636" y="64.126938" width="0.49599999" height="47.89325"/>
	</g>
</svg>
