<?xml version="1.0" encoding="UTF-8"?>
<svg xmlns="http://www.w3.org/2000/svg" width="320" height="203.354" version="1.0">
	<g style="stroke:#111111;stroke-width:1">
		<g style="fill:#cccccc">
			<path d="m 303.1163,102.33919 c 0,0 -12.0005,-35.94084 -18.76415,-45.858951 -8.93537,-13.102782 -22.44375,-27.860815 -27.50697,-29.945313 -5.06321,-2.084497 -21.44471,-2.443341 -25.61449,-0.656741 -4.16952,1.786862 -17.77406,13.961012 -28.19865,16.938678 -10.42459,2.977666 -71.47292,1.488964 -79.81248,0.297898 C 114.87999,41.923694 110.675,41.687005 103.52677,36.922476 96.378529,32.157947 92.813736,26.307431 90.430815,25.116364 88.048419,23.925298 70.597746,24.091848 66.130064,25.878185 61.662383,27.665047 46.840514,41.818616 35.820391,59.983299 24.800268,78.148245 13.045382,118.05396 11.922617,127.35342 c -2.0850235,17.27178 -1.085988,31.35573 -0.560595,34.2454 0.525393,2.88966 4.455072,22.76135 19.158202,28.94654 19.049708,8.01408 46.14844,-8.44307 65.541756,-16.03973 20.20846,-7.9161 24.96485,-7.24912 39.07087,-7.24912 27.99715,0 25.90583,-0.29763 53.90955,-0.29763 28.59269,0 52.38486,15.05593 65.49,20.11809 13.10515,5.06217 22.70645,8.69684 35.2158,0.65675 12.50935,-8.0401 17.53762,-23.45487 19.32475,-38.93979 1.78712,-15.48491 -5.95665,-46.45474 -5.95665,-46.45474 z"/>
			<ellipse cx="115.01081" cy="145.9048" rx="33.471489" ry="27.186735"/>
			<ellipse cx="203.69325" cy="146.27467" rx="30.814577" ry="22.87536"/>
			<path d="M 71.448883,78.271449 C 53.587614,75.110946 37.478532,83.652001 35.467852,97.349003 33.457435,111.04574 46.306714,124.71122 64.167983,127.87172 82.029252,131.03223 98.138334,122.49117 100.14901,108.79417 102.15969,95.097693 89.310414,81.431952 71.448883,78.271449 Z"/>
			<ellipse cx="114.59181" cy="149.68764" rx="28.43586" ry="23.541033"/>
		</g>
		<g style="fill:#404040">
			<ellipse cx="203.23222" cy="150.5808" rx="21.313366" ry="15.408996"/>
			<ellipse cx="115.06019" cy="150.20172" rx="24.043833" ry="19.801283"/>
			<ellipse cx="68.309654" cy="107.69951" rx="21.313366" ry="15.408996"/>
		</g>
	</g>
	<g style="fill:#111111;stroke:#111111;stroke-width:0.2">
		<path d="m 199.39264,47.509412 c -1.53309,0.379334 -72.89752,1.08809 -77.96021,-0.223554 -13.01478,-3.370923 -24.578157,-6.660673 -24.578157,-6.660673 l 0,0.593169 c 0,0 7.954457,2.675302 24.354607,6.961198 6.33755,1.656302 72.53946,1.340015 78.1835,0.223292 15.34227,-3.03546 27.36432,-7.146925 27.36432,-7.146925 l 0,-0.893168 c 0,-2.63e-4 -12.42818,3.451045 -27.36406,7.146661 z"/>
		<path d="m 227.48096,55.030942 c 0,0 -18.0097,9.969074 -31.82912,15.523006 -1.35604,0.545096 -17.66844,1.119088 -34.63444,0.96252 C 144.02355,71.359901 126.37507,70.471199 124.03129,69.340027 111.77492,63.423574 95.598583,54.296442 95.598583,54.296442 l 0,0.832749 c 0,0 11.371877,6.842196 27.566857,14.956632 2.99317,1.499735 20.35768,2.046144 37.75581,2.242115 16.42406,0.184676 32.82079,-0.07592 35.4404,-1.050261 15.81434,-5.881252 31.7264,-15.693759 31.7264,-15.693759 l -0.60709,-0.552976 z"/>
	</g>
	<g>
		<ellipse style="fill:#44ff00" cx="161.41801" cy="104.79619" rx="18.526154" ry="15.03334"/>
		<rect style="fill:#cccccc" x="160.33781" y="89.659088" width="1.8717134" height="31.54067"/>
		<rect style="fill:#cccccc" x="141.57312" y="104.4912" width="39.405544" height="1.8717134"/>
	</g>
	<g>
		<ellipse style="fill:#808080;stroke-width:0" cx="114.50775" cy="152.69524" rx="22.260386" ry="18.046732"/>
		<path style="fill:#808080;stroke-width:0" d="m 135.99029,147.60549 c 0,0 -7.49368,-0.17522 -10.53098,-3.42871 -3.0373,-3.25376 -2.91173,-8.45542 -2.91173,-8.45542 0,0 -4.2042,-1.0676 -8.03799,-1.17425 -3.97381,-0.11034 -7.75691,1.17819 -7.75691,1.17819 0,0 0.43371,5.53975 -2.60332,8.79351 -3.0373,3.2535 -10.843068,2.78196 -10.843068,2.78196 0,0 -1.050786,2.61514 -1.050786,5.32696 0,2.91987 1.226005,6.03939 1.226005,6.03939 0,0 7.672579,-0.51751 10.492629,2.30254 2.82031,2.81952 2.51584,8.62223 2.51584,8.62223 0,0 4.55254,1.22574 8.7239,1.22574 4.28773,0 8.7231,-1.75114 8.7231,-1.75114 0,0 -0.68879,-2.71628 2.5655,-7.4879 3.25402,-4.77188 9.621,-4.34632 9.621,-4.34632 0,0 0.57793,-2.15253 0.63126,-4.60638 0.0552,-2.53318 -0.76445,-5.0204 -0.76445,-5.0204 z"/>
	</g>
	<g class="straight-button">
		<path id="button-du" d="m 125.45931,144.17678 c -3.0373,-3.25376 -2.91173,-8.45542 -2.91173,-8.45542 0,0 -4.2042,-1.0676 -8.03799,-1.17425 -3.97381,-0.11034 -7.75691,1.17819 -7.75691,1.17819 0,0 0.43371,5.53975 -2.60332,8.79351 z"/>
		<path id="button-dd" d="m 103.97414,160.96966 c 2.82031,2.81952 2.51584,8.62223 2.51584,8.62223 0,0 4.55254,1.22574 8.7239,1.22574 4.28773,0 8.7231,-1.75114 8.7231,-1.75114 0,0 -0.68879,-2.71628 2.5655,-7.4879 z"/>
		<path id="button-dl" d="m 104.14936,144.51881 c -3.0373,3.2535 -10.843068,2.78196 -10.843068,2.78196 0,0 -1.050786,2.61514 -1.050786,5.32696 0,2.91987 1.226005,6.03939 1.226005,6.03939 0,0 7.672579,-0.51751 10.492629,2.30254 z"/>
		<path id="button-dr" d="m 135.99029,147.60549 c 0,0 -7.49368,-0.17522 -10.53098,-3.42871 l 1.04317,17.40181 c 3.25402,-4.77188 9.621,-4.34632 9.621,-4.34632 0,0 0.57793,-2.15253 0.63126,-4.60638 0.0552,-2.53318 -0.76445,-5.0204 -0.76445,-5.0204 z"/>
	</g>
	<ellipse style="fill-opacity:0;stroke:#111111;stroke-width:1.31348312" ry="18.046732" rx="22.260386" cy="152.69524" cx="114.50775"/>
	<path style="fill-opacity:0;stroke:#111111;stroke-width:1.31348312" d="m 135.99029,147.60549 c 0,0 -7.49368,-0.17522 -10.53098,-3.42871 -3.0373,-3.25376 -2.91173,-8.45542 -2.91173,-8.45542 0,0 -4.2042,-1.0676 -8.03799,-1.17425 -3.97381,-0.11034 -7.75691,1.17819 -7.75691,1.17819 0,0 0.43371,5.53975 -2.60332,8.79351 -3.0373,3.2535 -10.843068,2.78196 -10.843068,2.78196 0,0 -1.050786,2.61514 -1.050786,5.32696 0,2.91987 1.226005,6.03939 1.226005,6.03939 0,0 7.672579,-0.51751 10.492629,2.30254 2.82031,2.81952 2.51584,8.62223 2.51584,8.62223 0,0 4.55254,1.22574 8.7239,1.22574 4.28773,0 8.7231,-1.75114 8.7231,-1.75114 0,0 -0.68879,-2.71628 2.5655,-7.4879 3.25402,-4.77188 9.621,-4.34632 9.621,-4.34632 0,0 0.57793,-2.15253 0.63126,-4.60638 0.0552,-2.53318 -0.76445,-5.0204 -0.76445,-5.0204 z"/>
	<g style="font-size:10px;font-family:Sans;fill:#111111">
		<path d="m 113.14503,89.278114 0,2.670899 1.58203,0 q 0.7959,0 1.17676,-0.327149 0.38574,-0.332031 0.38574,-1.010742 0,-0.683594 -0.38574,-1.005859 -0.38086,-0.327149 -1.17676,-0.327149 l -1.58203,0 z m 0,-2.998047 0,2.197266 1.45996,0 q 0.72265,0 1.07422,-0.268555 0.35644,-0.273437 0.35644,-0.830078 0,-0.551758 -0.35644,-0.825195 -0.35157,-0.273438 -1.07422,-0.273438 l -1.45996,0 z m -0.98633,-0.810546 2.51953,0 q 1.12793,0 1.73828,0.46875 0.61035,0.46875 0.61035,1.333007 0,0.668946 -0.3125,1.064454 -0.3125,0.395507 -0.91797,0.493164 0.72754,0.15625 1.12793,0.654296 0.40528,0.493165 0.40528,1.235352 0,0.976563 -0.66407,1.508789 -0.66406,0.532227 -1.88964,0.532227 l -2.61719,0 0,-7.290039 z"/>
		<path d="m 121.46046,90.010536 q -1.08887,0 -1.50879,0.249024 -0.41992,0.249023 -0.41992,0.849609 0,0.478516 0.3125,0.761719 0.31738,0.27832 0.85937,0.27832 0.74707,0 1.19629,-0.527344 0.4541,-0.532226 0.4541,-1.411132 l 0,-0.200196 -0.89355,0 z m 1.79199,-0.371094 0,3.120118 -0.89844,0 0,-0.830078 q -0.30762,0.498046 -0.7666,0.737304 -0.45898,0.234375 -1.12305,0.234375 -0.83984,0 -1.33789,-0.46875 -0.49316,-0.473633 -0.49316,-1.264648 0,-0.922852 0.61523,-1.391602 0.62012,-0.46875 1.84571,-0.46875 l 1.25976,0 0,-0.08789 q 0,-0.620118 -0.41015,-0.957032 -0.40528,-0.341797 -1.14258,-0.341797 -0.46875,0 -0.91309,0.112305 -0.44433,0.112305 -0.85449,0.336914 l 0,-0.830078 q 0.49316,-0.19043 0.95703,-0.283203 0.46387,-0.09766 0.90332,-0.09766 1.18652,0 1.77246,0.615234 0.58594,0.615234 0.58594,1.865234 z"/>
		<path d="m 129.04346,87.500771 0,0.839843 q -0.38085,-0.209961 -0.7666,-0.3125 -0.38086,-0.107422 -0.77148,-0.107422 -0.87402,0 -1.35742,0.556641 -0.4834,0.551758 -0.4834,1.552734 0,1.000977 0.4834,1.557618 0.4834,0.551757 1.35742,0.551757 0.39062,0 0.77148,-0.102539 0.38575,-0.107421 0.7666,-0.317382 l 0,0.830078 q -0.37597,0.175781 -0.78125,0.263672 -0.40039,0.08789 -0.85449,0.08789 -1.23535,0 -1.96289,-0.776367 -0.72754,-0.776367 -0.72754,-2.094727 0,-1.33789 0.73242,-2.104492 0.73731,-0.766601 2.01661,-0.766601 0.41504,0 0.81054,0.08789 0.39551,0.08301 0.7666,0.253907 z"/>
		<path d="m 130.58155,85.161903 0.90332,0 0,4.487305 2.68066,-2.358398 1.14747,0 -2.90039,2.558593 3.02246,2.910157 -1.17188,0 -2.77832,-2.670899 0,2.670899 -0.90332,0 0,-7.597657 z"/>
		<path d="m 194.30341,85.708778 0,0.961914 q -0.56153,-0.268554 -1.05957,-0.40039 -0.49805,-0.131836 -0.96192,-0.131836 -0.80566,0 -1.24512,0.3125 -0.43457,0.3125 -0.43457,0.888672 0,0.483398 0.28809,0.732422 0.29297,0.24414 1.10352,0.395507 l 0.5957,0.122071 q 1.10351,0.209961 1.62598,0.742187 0.52734,0.527344 0.52734,1.416016 0,1.05957 -0.71289,1.606445 -0.70801,0.546875 -2.08008,0.546875 -0.51758,0 -1.10352,-0.117187 -0.58105,-0.117188 -1.20605,-0.34668 l 0,-1.015625 q 0.60059,0.336914 1.17676,0.507813 0.57617,0.170898 1.13281,0.170898 0.84473,0 1.30371,-0.332031 0.45899,-0.332032 0.45899,-0.947266 0,-0.537109 -0.33204,-0.839844 -0.32714,-0.302734 -1.0791,-0.454101 l -0.60058,-0.117188 q -1.10352,-0.219726 -1.59668,-0.688476 -0.49317,-0.46875 -0.49317,-1.303711 0,-0.966797 0.67871,-1.523438 0.6836,-0.55664 1.87989,-0.55664 0.51269,0 1.04492,0.09277 0.53223,0.09277 1.08887,0.27832 z"/>
		<path d="m 197.13055,85.738075 0,1.552735 1.85059,0 0,0.698242 -1.85059,0 0,2.96875 q 0,0.668945 0.18067,0.859375 0.18555,0.19043 0.74707,0.19043 l 0.92285,0 0,0.751953 -0.92285,0 q -1.04004,0 -1.43555,-0.385743 -0.39551,-0.390625 -0.39551,-1.416015 l 0,-2.96875 -0.65918,0 0,-0.698242 0.65918,0 0,-1.552735 0.90332,0 z"/>
		<path d="m 202.65302,90.010536 q -1.08887,0 -1.50879,0.249024 -0.41993,0.249023 -0.41993,0.849609 0,0.478516 0.3125,0.761719 0.31739,0.27832 0.85938,0.27832 0.74707,0 1.19629,-0.527344 0.4541,-0.532226 0.4541,-1.411132 l 0,-0.200196 -0.89355,0 z m 1.79199,-0.371094 0,3.120118 -0.89844,0 0,-0.830078 q -0.30762,0.498046 -0.7666,0.737304 -0.45899,0.234375 -1.12305,0.234375 -0.83984,0 -1.33789,-0.46875 -0.49316,-0.473633 -0.49316,-1.264648 0,-0.922852 0.61523,-1.391602 0.62012,-0.46875 1.8457,-0.46875 l 1.25977,0 0,-0.08789 q 0,-0.620118 -0.41016,-0.957032 -0.40527,-0.341797 -1.14257,-0.341797 -0.46875,0 -0.91309,0.112305 -0.44434,0.112305 -0.85449,0.336914 l 0,-0.830078 q 0.49316,-0.19043 0.95703,-0.283203 0.46387,-0.09766 0.90332,-0.09766 1.18652,0 1.77246,0.615234 0.58594,0.615234 0.58594,1.865234 z"/>
		<path d="m 209.46942,88.130653 q -0.15137,-0.08789 -0.33203,-0.126953 -0.17578,-0.04394 -0.39062,-0.04394 -0.76172,0 -1.17188,0.498047 -0.40527,0.493164 -0.40527,1.420898 l 0,2.88086 -0.90332,0 0,-5.46875 0.90332,0 0,0.849609 q 0.2832,-0.498047 0.7373,-0.737305 0.4541,-0.24414 1.10352,-0.24414 0.0928,0 0.20508,0.01465 0.1123,0.0098 0.24902,0.03418 l 0.005,0.922851 z"/>
		<path d="m 211.31024,85.738075 0,1.552735 1.85059,0 0,0.698242 -1.85059,0 0,2.96875 q 0,0.668945 0.18067,0.859375 0.18554,0.19043 0.74707,0.19043 l 0.92285,0 0,0.751953 -0.92285,0 q -1.04004,0 -1.43555,-0.385743 -0.39551,-0.390625 -0.39551,-1.416015 l 0,-2.96875 -0.65918,0 0,-0.698242 0.65918,0 0,-1.552735 0.90332,0 z"/>
	</g>
	<!-- button-l3 -->
	<g style="fill:#808080;stroke:#111111;stroke-width:1">
		<ellipse id="button-l3-shadow" cx="68.714729" cy="114.53172" rx="18.679569" ry="15.068278"/>
		<ellipse id="button-l3" class="straight-button" cx="68.714729" cy="114.53172" rx="18.679569" ry="15.068278"/>
	</g>
	<!-- button-r3 -->
	<g style="fill:#808080;stroke:#111111;stroke-width:1">
		<ellipse id="button-r3-shadow" cx="203.6373" cy="157.41301" rx="18.679569" ry="15.068278"/>
		<ellipse id="button-r3" class="straight-button" cx="203.6373" cy="157.41301" rx="18.679569" ry="15.068278"/>
	</g>
	<!-- button-an -->
	<g style="fill:#cccccc;stroke:#111111;stroke-width:5" transform="matrix(0.26269662,0,0,0.26269662,-101.94875,-20.051167)">
		<ellipse cx="1002.551" cy="476.103" rx="55.278" ry="44.855"/>
		<ellipse id="button-an" class="straight-button" cx="1002.551" cy="476.103" rx="55.278" ry="44.855"/>
	</g>
	<!-- button-l2 -->
	<g>
		<g style="fill:#cccccc;stroke:#111111;stroke-width:1">
			<path d="m 86.009105,11.694934 c -0.667249,-1.9618179 -16.519151,-0.802538 -17.998133,1.037652 -0.912083,1.455602 -0.09641,5.528713 -0.862958,10.74902 -1.212345,8.259182 -3.15525,15.794897 -3.15525,15.794897 l 19.451372,-1.305602 c 0,0 2.471975,-3.851395 2.874163,-8.602789 0.527495,-6.228011 0.879246,-14.179575 -0.309194,-17.673178 z"/>
			<path id="button-l2" class="straight-button" d="m 86.009105,11.694934 c -0.667249,-1.9618179 -16.519151,-0.802538 -17.998133,1.037652 -0.912083,1.455602 -0.09641,5.528713 -0.862958,10.74902 -1.212345,8.259182 -3.15525,15.794897 -3.15525,15.794897 l 19.451372,-1.305602 c 0,0 2.471975,-3.851395 2.874163,-8.602789 0.527495,-6.228011 0.879246,-14.179575 -0.309194,-17.673178 z"/>
		</g>
		<g style="fill:#111111;stroke:#111111;stroke-width:0.2">
			<path d="m 84.620754,11.61782 c -0.211568,0.553475 -0.119737,8.948561 -0.508639,14.945885 -0.388901,5.997324 -1.508025,11.464041 -1.508025,11.464041 l 0.841766,-0.05355 c 0,0 1.300454,-7.975745 1.445528,-11.318331 0.145074,-3.342586 0.38816,-14.239287 0.624114,-14.696804 0.235952,-0.457518 0.356588,-0.469421 0.356588,-0.469421 0,0 -0.15077,-0.145192 -0.35767,-0.235928 -0.2069,-0.09074 -0.502788,-0.181507 -0.502788,-0.181507 0,0 -0.179306,-0.0079 -0.390874,0.545613 z"/>
			<path d="m 70.089484,36.444634 0,-5.209917 0.931714,0 0,4.595104 3.467511,0 0,0.614813 z"/>
			<path d="m 77.394311,36.444634 0,-4.595104 -2.319679,0 0,-0.614813 5.580676,0 0,0.614813 -2.329283,0 0,4.595104 z"/>
		</g>
	</g>
	<!-- button-r2 -->
	<g>
		<g style="fill:#cccccc;stroke:#111111;stroke-width:1">
			<path d="m 256.13433,23.481605 c -0.76629,-5.220307 0.0494,-9.293418 -0.8627,-10.74902 -1.47898,-1.84019 -17.33088,-2.9994699 -17.99813,-1.037652 -1.18844,3.493865 -0.83669,11.445167 -0.30946,17.673178 0.40193,4.751394 2.87416,8.602789 2.87416,8.602789 l 19.45138,1.305602 c 2.6e-4,0 -1.94238,-7.535715 -3.15525,-15.794897 z"/>
			<path id="button-r2" class="straight-button" d="m 256.13433,23.481605 c -0.76629,-5.220307 0.0494,-9.293418 -0.8627,-10.74902 -1.47898,-1.84019 -17.33088,-2.9994699 -17.99813,-1.037652 -1.18844,3.493865 -0.83669,11.445167 -0.30946,17.673178 0.40193,4.751394 2.87416,8.602789 2.87416,8.602789 l 19.45138,1.305602 c 2.6e-4,0 -1.94238,-7.535715 -3.15525,-15.794897 z"/>
		</g>
		<g style="fill:#111111;stroke:#111111;stroke-width:0.2">
			<path d="m 238.51782,11.576162 c 0.22772,0.489732 0.11973,8.948561 0.50863,14.945885 0.38891,5.997324 1.65315,11.503343 1.65315,11.503343 l -0.84479,-0.0475 c 0,0 -1.44255,-8.021094 -1.58762,-11.36368 -0.14508,-3.342586 -0.38816,-14.239287 -0.62412,-14.696804 -0.23595,-0.457518 -0.23915,-0.39957 -0.23915,-0.39957 0,0 0.033,-0.04759 0.20163,-0.164513 0.1686,-0.116924 0.63027,-0.26499 0.63027,-0.26499 0,0 0.0743,-0.0018 0.302,0.48783 z"/>
			<path d="m 242.93885,36.444636 0,-5.209917 3.12172,0 c 0.62754,6e-6 1.1046,0.0468 1.43119,0.140377 0.32657,0.09359 0.58751,0.258842 0.78283,0.495759 0.1953,0.236927 0.29295,0.498725 0.29296,0.785397 -1e-5,0.369602 -0.1617,0.681154 -0.48507,0.934658 -0.32338,0.253509 -0.82286,0.414616 -1.49842,0.483321 0.24653,0.08766 0.43383,0.174139 0.56191,0.259429 0.27214,0.184801 0.52988,0.4158 0.77322,0.692997 l 1.22468,1.417979 -1.17185,0 -0.93171,-1.083919 c -0.27216,-0.312735 -0.49628,-0.552026 -0.67237,-0.717873 -0.1761,-0.165844 -0.33379,-0.281936 -0.47306,-0.348276 -0.13928,-0.06634 -0.28096,-0.112536 -0.42504,-0.138599 -0.10566,-0.01658 -0.27856,-0.02488 -0.51868,-0.02488 l -1.0806,0 0,2.313544 z m 0.93171,-2.910588 2.0027,0 c 0.42583,3e-6 0.75882,-0.03257 0.99895,-0.09773 0.24013,-0.06515 0.42263,-0.169396 0.54751,-0.312737 0.12486,-0.143335 0.18729,-0.299111 0.1873,-0.467329 -1e-5,-0.246395 -0.12087,-0.448963 -0.3626,-0.607705 -0.24174,-0.158733 -0.62355,-0.238102 -1.14543,-0.238107 l -2.22843,0 z"/>
			<path d="m 251.82374,36.444636 0,-4.595104 -2.31967,0 0,-0.614813 5.58067,0 0,0.614813 -2.32928,0 0,4.595104 z"/>
		</g>
	</g>
	<!-- button-l1 -->
	<g>
		<g style="fill:#cccccc;stroke:#111111;stroke-width:1">
			<path d="m 96.243503,41.372034 c -1.939752,-2.025653 -16.955228,-0.09877 -30.929112,1.807353 -12.689035,1.731171 -20.921684,5.502181 -22.861173,7.325295 -1.939489,1.823115 -5.578626,9.645957 -2.996581,9.877131 2.890451,0.258493 14.455145,-4.875124 27.177542,-6.166804 14.703918,-1.492905 27.438662,0.842994 28.566681,-0.0053 2.155163,-1.620312 2.982395,-10.81233 1.042643,-12.837721 z"/>
			<path id="button-l1" class="straight-button" d="m 96.243503,41.372034 c -1.939752,-2.025653 -16.955228,-0.09877 -30.929112,1.807353 -12.689035,1.731171 -20.921684,5.502181 -22.861173,7.325295 -1.939489,1.823115 -5.578626,9.645957 -2.996581,9.877131 2.890451,0.258493 14.455145,-4.875124 27.177542,-6.166804 14.703918,-1.492905 27.438662,0.842994 28.566681,-0.0053 2.155163,-1.620312 2.982395,-10.81233 1.042643,-12.837721 z"/>	
		</g>
		<g style="fill:#111111;stroke:#111111;stroke-width:0.2">
			<path d="m 74.90319,48.951856 0,-5.209917 0.931714,0 0,4.595104 3.467511,0 0,0.614813 z"/>
			<path d="m 80.378208,48.951856 0,-5.209917 2.641456,0 c 0.537893,6e-6 0.969331,0.05272 1.294314,0.158146 0.324974,0.105435 0.579514,0.267727 0.763621,0.486875 0.184096,0.219157 0.276146,0.448379 0.276152,0.687666 -6e-6,0.22271 -0.08165,0.432387 -0.244935,0.629028 -0.163295,0.196649 -0.409831,0.355386 -0.739608,0.476214 0.42583,0.0924 0.75321,0.249955 0.982142,0.472659 0.22892,0.222709 0.343383,0.485692 0.343389,0.788951 -6e-6,0.244031 -0.06964,0.470883 -0.208915,0.680558 -0.139283,0.209677 -0.311377,0.371376 -0.516285,0.485098 -0.204918,0.113723 -0.461859,0.199607 -0.770824,0.257653 -0.308975,0.05805 -0.687584,0.08707 -1.135827,0.08707 z m 0.931714,-3.020757 1.522439,0 c 0.413024,4e-6 0.709187,-0.02014 0.88849,-0.06042 0.236926,-0.05212 0.415424,-0.138596 0.535495,-0.259429 0.120062,-0.120827 0.180095,-0.272457 0.180099,-0.454891 -4e-6,-0.172949 -0.05604,-0.325171 -0.168092,-0.456667 -0.112067,-0.131487 -0.272155,-0.221518 -0.480265,-0.270091 -0.208119,-0.04856 -0.565115,-0.07285 -1.07099,-0.07285 l -1.407176,0 z m 0,2.405944 1.752966,0 c 0.300963,10e-7 0.512279,-0.0083 0.63395,-0.02488 0.214514,-0.02843 0.393812,-0.07581 0.537896,-0.142153 0.144075,-0.06634 0.26254,-0.162883 0.355396,-0.289637 0.09285,-0.126752 0.139272,-0.273052 0.139277,-0.438898 -5e-6,-0.194275 -0.06724,-0.363082 -0.201711,-0.506421 -0.134479,-0.143336 -0.320982,-0.244028 -0.559509,-0.302076 -0.238535,-0.05804 -0.581924,-0.08707 -1.030168,-0.08707 l -1.628097,0 z"/>
		</g>
	</g>
	<!-- button-r1 -->
	<g>
		<g style="fill:#cccccc;stroke:#111111;stroke-width:1">
			<path d="m 280.82965,50.504682 c -1.93975,-1.822852 -10.1724,-5.594124 -22.86118,-7.325295 -13.97388,-1.906127 -28.98962,-3.833006 -30.92911,-1.807353 -1.93975,2.025391 -1.11226,11.217146 1.04291,12.837721 1.12802,0.848248 13.86276,-1.487651 28.56668,0.0053 12.7224,1.29168 24.28709,6.425297 27.17754,6.166804 2.58205,-0.231174 -1.05709,-8.054279 -2.99684,-9.877131 z"/>
			<path id="button-r1" class="straight-button" d="m 280.82965,50.504682 c -1.93975,-1.822852 -10.1724,-5.594124 -22.86118,-7.325295 -13.97388,-1.906127 -28.98962,-3.833006 -30.92911,-1.807353 -1.93975,2.025391 -1.11226,11.217146 1.04291,12.837721 1.12802,0.848248 13.86276,-1.487651 28.56668,0.0053 12.7224,1.29168 24.28709,6.425297 27.17754,6.166804 2.58205,-0.231174 -1.05709,-8.054279 -2.99684,-9.877131 z"/>
		</g>
		<g style="fill:#111111;stroke:#111111;stroke-width:0.2">
			<path d="m 237.03022,48.951856 0,-5.209917 3.12172,0 c 0.62754,6e-6 1.1046,0.0468 1.43119,0.140377 0.32657,0.09359 0.58751,0.258842 0.78283,0.495759 0.1953,0.236927 0.29295,0.498725 0.29296,0.785397 -1e-5,0.369602 -0.1617,0.681154 -0.48507,0.934658 -0.32338,0.253509 -0.82286,0.414616 -1.49842,0.483321 0.24653,0.08766 0.43383,0.174139 0.56191,0.259429 0.27214,0.184801 0.52988,0.4158 0.77322,0.692997 l 1.22468,1.417979 -1.17185,0 -0.93171,-1.083919 c -0.27216,-0.312735 -0.49628,-0.552026 -0.67237,-0.717873 -0.1761,-0.165844 -0.33379,-0.281936 -0.47306,-0.348276 -0.13928,-0.06634 -0.28096,-0.112536 -0.42504,-0.138599 -0.10566,-0.01658 -0.27856,-0.02488 -0.51868,-0.02488 l -1.0806,0 0,2.313544 z m 0.93171,-2.910588 2.0027,0 c 0.42583,3e-6 0.75882,-0.03257 0.99895,-0.09773 0.24013,-0.06515 0.42263,-0.169396 0.54751,-0.312737 0.12486,-0.143335 0.18729,-0.299111 0.1873,-0.467329 -1e-5,-0.246395 -0.12087,-0.448963 -0.3626,-0.607705 -0.24174,-0.158733 -0.62355,-0.238102 -1.14543,-0.238107 l -2.22843,0 z" id="path115"/>
			<path d="m 244.08531,48.951856 0,-5.209917 2.64145,0 c 0.53789,6e-6 0.96933,0.05272 1.29431,0.158146 0.32498,0.105435 0.57952,0.267727 0.76363,0.486875 0.18409,0.219157 0.27614,0.448379 0.27615,0.687666 -10e-6,0.22271 -0.0816,0.432387 -0.24494,0.629028 -0.16329,0.196649 -0.40983,0.355386 -0.73961,0.476214 0.42583,0.0924 0.75321,0.249955 0.98215,0.472659 0.22892,0.222709 0.34338,0.485692 0.34339,0.788951 -1e-5,0.244031 -0.0696,0.470883 -0.20892,0.680558 -0.13928,0.209677 -0.31138,0.371376 -0.51628,0.485098 -0.20492,0.113723 -0.46186,0.199607 -0.77083,0.257653 -0.30897,0.05805 -0.68758,0.08707 -1.13582,0.08707 z m 0.93171,-3.020757 1.52244,0 c 0.41302,4e-6 0.70918,-0.02014 0.88849,-0.06042 0.23692,-0.05212 0.41542,-0.138596 0.53549,-0.259429 0.12006,-0.120827 0.1801,-0.272457 0.1801,-0.454891 0,-0.172949 -0.056,-0.325171 -0.16809,-0.456667 -0.11207,-0.131487 -0.27216,-0.221518 -0.48027,-0.270091 -0.20811,-0.04856 -0.56511,-0.07285 -1.07099,-0.07285 l -1.40717,0 z m 0,2.405944 1.75297,0 c 0.30096,10e-7 0.51227,-0.0083 0.63394,-0.02488 0.21452,-0.02843 0.39382,-0.07581 0.5379,-0.142153 0.14408,-0.06634 0.26254,-0.162883 0.3554,-0.289637 0.0928,-0.126752 0.13927,-0.273052 0.13927,-0.438898 0,-0.194275 -0.0672,-0.363082 -0.20171,-0.506421 -0.13448,-0.143336 -0.32098,-0.244028 -0.55951,-0.302076 -0.23853,-0.05804 -0.58192,-0.08707 -1.03016,-0.08707 l -1.6281,0 z"/>
		</g>
	</g>
	<!-- button-se -->
	<g>
		<path id="button-se" class="straight-button" style="stroke:#111111;stroke-width:1" d="m 130.77891,100.26073 -5.62591,0 c -2.8471,0 -5.15542,2.30779 -5.15542,5.15464 0,2.84658 2.30832,5.15437 5.15542,5.15437 l 5.62591,0 c 2.84737,0 5.15543,-2.30779 5.15543,-5.15437 0,-2.84685 -2.30806,-5.15464 -5.15543,-5.15464 z"/>
		<path style="fill:#111111;stroke-width:0" d="m 130.25769,109.21687 -6.74634,-3.89501 6.74634,-3.895 z"/>
	</g>
	<!-- button-st -->
	<g>
		<path id="button-st" class="straight-button" style="stroke:#111111;stroke-width:1" d="m 198.12986,100.26073 -5.62591,0 c -2.84737,0 -5.15542,2.30779 -5.15542,5.15464 0,2.84658 2.30805,5.15437 5.15542,5.15437 l 5.62591,0 c 2.84711,0 5.15542,-2.30779 5.15542,-5.15437 0,-2.84685 -2.30831,-5.15464 -5.15542,-5.15464 z"/>
		<path style="fill:#111111;stroke-width:0" d="m 192.80538,109.21687 6.74634,-3.89501 -6.74634,-3.895 z"/>
	</g>
	<!-- button-ci -->
	<g style="fill:#ff0000;stroke-width:0">
		<path d="m 289.33681,97.653469 c -1.56041,-4.613741 -7.63133,-6.671969 -13.55934,-4.597454 -5.92802,2.074253 -9.46864,7.496315 -7.90822,12.110055 1.56041,4.61374 7.63133,6.6717 13.55935,4.59745 5.92827,-2.07478 9.46916,-7.49657 7.90821,-12.110051 z"/>
		<path style="fill-opacity:0;stroke:#111111;stroke-width:0.5" d="m 274.02708,106.62992 0,-10.102265 5.25873,-0.171026 c 1.04244,-0.0339 1.91378,-3.94e-4 2.54394,0.204035 0.63013,0.204444 1.15791,0.450724 1.5149,0.875662 0.35697,0.424956 0.53546,0.869428 0.53547,1.333416 -10e-6,0.431846 -0.15833,0.838417 -0.47494,1.219714 -0.31664,0.381314 -0.82889,0.757524 -1.46834,0.991814 0.8257,0.17917 1.49471,0.41626 1.93862,0.84809 0.44389,0.43185 0.70004,0.90758 0.70005,1.49561 -1e-5,0.47319 -0.16924,0.94727 -0.4393,1.35384 -0.27007,0.40657 -0.60377,0.72011 -1.0011,0.94063 -0.39734,0.22051 -0.92977,0.45545 -1.52887,0.56801 -0.59911,0.11255 -1.3679,0.24363 -2.23662,0.27144 z m 1.80664,-5.85738 3.0889,-0.17103 c 0.79965,-0.0443 1.40935,-0.14166 1.75703,-0.21976 0.45941,-0.10107 0.83973,-0.33716 1.07255,-0.571461 0.2328,-0.234288 0.34921,-0.528306 0.34922,-0.882053 -1e-5,-0.335356 -0.10865,-0.630522 -0.32594,-0.885498 -0.2173,-0.25496 -0.56192,-0.361123 -0.96546,-0.455309 -0.40355,-0.09417 -1.13173,-0.09709 -2.1109,-0.03865 l -2.8654,0.171027 z m 0,4.66523 3.5359,-0.17103 c 0.5829,-0.0282 1.02754,-0.11869 1.26346,-0.15085 0.41595,-0.0551 0.79783,-0.21542 1.07721,-0.34405 0.27937,-0.12863 0.50908,-0.31584 0.68913,-0.56162 0.18004,-0.24578 0.30426,-0.56367 0.30427,-0.88525 -10e-6,-0.37671 -0.16459,-0.66983 -0.42533,-0.94777 -0.26076,-0.27793 -0.6566,-0.40477 -1.11912,-0.51733 -0.46253,-0.11255 -1.16375,-0.11128 -2.03175,-0.0662 l -3.29377,0.17103 z"/>
		<path id="button-ci" class="reverse-button" d="m 289.33681,97.653469 c -1.56041,-4.613741 -7.63133,-6.671969 -13.55934,-4.597454 -5.92802,2.074253 -9.46864,7.496315 -7.90822,12.110055 1.56041,4.61374 7.63133,6.6717 13.55935,4.59745 5.92827,-2.07478 9.46916,-7.49657 7.90821,-12.110051 z"/>
	</g>
	<!-- button-cr -->
	<g style="fill:#00ff00;stroke-width:0">
		<path d="m 265.42013,120.5551 c -0.96305,-5.22346 -7.03607,-8.57074 -13.56487,-7.47609 -6.5288,1.09466 -11.04035,6.21619 -10.07757,11.43965 0.96305,5.22346 7.03607,8.57074 13.56487,7.47609 6.52853,-1.0944 11.04061,-6.21619 10.07757,-11.43965 z"/>
		<path style="fill-opacity:0;stroke:#111111;stroke-width:0.5" d="m 246.68997,127.17747 5.24297,-10.10226 1.94632,0 5.58753,10.10226 -2.05807,0 -1.59245,-3.05962 -5.70859,0 -1.49932,3.05962 z m 3.93921,-4.14841 4.62834,0 -1.42482,-2.79776 c -0.43459,-0.84989 -0.75743,-1.54818 -0.96851,-2.09487 -0.17384,0.64776 -0.41907,1.29092 -0.73569,1.92949 z"/>
		<path id="button-cr" class="reverse-button" d="m 265.42013,120.5551 c -0.96305,-5.22346 -7.03607,-8.57074 -13.56487,-7.47609 -6.5288,1.09466 -11.04035,6.21619 -10.07757,11.43965 0.96305,5.22346 7.03607,8.57074 13.56487,7.47609 6.52853,-1.0944 11.04061,-6.21619 10.07757,-11.43965 z"/>
	</g>
	<!-- button-tr -->
	<g style="fill:#ffff00;stroke-width:0">
		<path d="m 266.72034,81.305338 c 1.06287,5.383488 -3.24117,10.767533 -9.61338,12.025608 -6.37218,1.258069 -12.3995,-2.086241 -13.46237,-7.46973 -1.06287,-5.383488 3.2412,-10.767538 9.61338,-12.025608 6.37221,-1.258074 12.3995,2.086242 13.46237,7.46973 z"/>
		<path style="fill-opacity:0;stroke:#111111;stroke-width:0.5" d="m 254.34858,88.762716 0,-4.279336 -5.26159,-5.822929 2.19776,0 2.69133,3.04584 c 0.49666,0.569666 0.95918,1.139324 1.38757,1.708978 0.40974,-0.528307 0.90641,-1.123233 1.49,-1.78478 l 2.64477,-2.970038 2.10463,0 -5.44784,5.822929 0,4.279336 z"/>
		<path id="button-tr" class="reverse-button" d="m 266.72034,81.305338 c 1.06287,5.383488 -3.24117,10.767533 -9.61338,12.025608 -6.37218,1.258069 -12.3995,-2.086241 -13.46237,-7.46973 -1.06287,-5.383488 3.2412,-10.767538 9.61338,-12.025608 6.37221,-1.258074 12.3995,2.086242 13.46237,7.46973 z"/>
	</g>
	<!-- button-sq -->
	<g style="fill:#8888ff;stroke-width:0">
		<path d="m 239.80773,103.17403 c -0.42819,-5.029061 -5.76041,-8.746218 -11.90961,-8.302786 -6.14921,0.443432 -10.78711,4.879852 -10.35866,9.908916 0.42846,5.02906 5.76068,8.74622 11.90962,8.30279 6.14946,-0.44369 10.78711,-4.87985 10.35865,-9.90892 z"/>
		<path style="fill-opacity:0;stroke:#111111;stroke-width:0.5" d="m 222.30936,109.31023 5.28022,-5.26475 -4.65628,-4.837515 2.1512,0 2.47714,2.591035 c 0.51529,0.5375 0.88158,0.95097 1.09888,1.24038 0.30421,-0.36751 0.66429,-0.75111 1.08026,-1.1508 l 2.7472,-2.680615 1.96495,0 -4.79596,4.761705 5.16846,5.34056 -2.23501,0 -3.43633,-3.60401 c -0.19247,-0.20673 -0.39114,-0.43184 -0.596,-0.67533 -0.30422,0.36753 -0.52151,0.6202 -0.65188,0.75802 l -3.42702,3.52132 z"/>
		<path id="button-sq" class="reverse-button" d="m 239.80773,103.17403 c -0.42819,-5.029061 -5.76041,-8.746218 -11.90961,-8.302786 -6.14921,0.443432 -10.78711,4.879852 -10.35866,9.908916 0.42846,5.02906 5.76068,8.74622 11.90962,8.30279 6.14946,-0.44369 10.78711,-4.87985 10.35865,-9.90892 z"/>
	</g>
</svg>
